<svg width="1920" height="951" viewBox="0 0 1920 951" fill="none" xmlns="http://www.w3.org/2000/svg">
<path opacity="0.15" d="M444.5 6.49997C710.433 24.9376 734.5 141.32 1019 111.98C1227.5 90.478 1319.09 157.924 1559 177.5C1666.95 186.308 1740.71 166.516 1806.5 165C1846.73 164.073 1885.72 205.261 1920.09 254L1920 932.516C1869.67 919.711 1798.05 850.468 1673.5 866.5C1606.88 875.074 1524.5 969 1401 897.823C1316 848.835 1166.5 951 1048.5 951C978.902 951 881.5 854 765.5 904.146C710.579 927.888 562.5 974 440 916.404C346.5 872.443 193.089 872.937 124 910.5C72.5 938.5 29.6984 910.284 -0.5 897.823V24.1514C113.579 2.57811 269.225 -5.65213 444.5 6.49997Z" fill="#C4C4C4"/>
</svg>
