<svg width="1920" height="964" viewBox="0 0 1920 964" fill="none" xmlns="http://www.w3.org/2000/svg">
<path opacity="0.15" d="M102.554 79.9235C268.796 79.9235 654 -46.8802 759.896 20.397C865.792 87.6742 951.5 -33.5 1089 48.8838C1179.66 103.206 1300.04 31.398 1407.73 20.397C1574.56 3.35568 1802.75 60.0937 1921 146.53L1920.62 790.195C1862.94 799.615 1822.52 843.632 1739.03 876.845C1629.47 920.427 1607.31 825.843 1505.41 902.672C1403.5 979.502 1202.37 824.218 1081 942.5C1002.5 1019 854.718 854.667 688.859 928.584C523 1002.5 389.203 838.699 215.613 838.699C65.0846 838.699 90.6024 867.383 -0.999984 775.943L-1.00004 80.5347C13.0485 73.3533 18.9246 79.9235 102.554 79.9235Z" fill="#C4C4C4"/>
</svg>
