<svg width="1920" height="933" viewBox="0 0 1920 933" fill="none" xmlns="http://www.w3.org/2000/svg">
<path opacity="0.15" d="M999.5 894C901.909 835.263 392.321 885.53 124 910.5C69.8494 915.539 29.6984 910.284 -0.5 897.823V24.1514C113.579 2.57811 269.225 -5.65213 444.5 6.49997C710.433 24.9376 734.5 141.32 1019 111.98C1227.5 90.478 1319.09 157.924 1559 177.5C1666.95 186.308 1740.71 166.516 1806.5 165C1846.73 164.073 1885.72 205.261 1920.09 254L1920 932.516C1869.67 919.711 1798.05 850.468 1673.5 866.5C1509.72 887.581 1050.91 924.942 999.5 894Z" fill="#C4C4C4"/>
</svg>
