<svg width="1920" height="904" viewBox="0 0 1920 904" fill="none" xmlns="http://www.w3.org/2000/svg">
<path opacity="0.15" d="M1399.43 18.2749L1407.5 17.499C1574.24 1.46732 1802.31 54.8437 1920.5 136.158L1920.12 741.686C1862.47 750.549 1822.07 791.957 1738.62 823.203C1629.12 864.202 1628.25 854.5 1505.12 847.5C1382 840.5 1248.61 870.713 1082 889.173C920.506 922.685 748.965 888.236 689 871.876C327.631 861.802 389.5 787.317 216 787.317C65.5501 787.317 91.0548 814.301 -0.499985 728.279L-0.50005 74.0736C13.5413 67.3177 19.4141 73.4986 103 73.4986C269.156 73.4986 627.519 -42.7088 760 17.499C849.709 71.1433 1133.37 43.8625 1399.43 18.2749Z" fill="#C4C4C4"/>
</svg>
