<svg width="1920" height="960" viewBox="0 0 1920 960" fill="none" xmlns="http://www.w3.org/2000/svg">
<path opacity="0.15" d="M1399.66 19.2225L1407.73 18.3976C1574.56 1.35623 1802.75 58.0944 1921 144.53L1920.62 788.195C1862.94 797.615 1822.52 841.632 1739.03 874.845C1629.47 918.427 1628.59 908.114 1505.41 900.673C1382.22 893.232 1248.76 925.348 1082.06 944.971C920.485 980.593 748.855 943.975 688.859 926.584C327.302 915.875 389.203 836.7 215.613 836.7C65.0844 836.7 90.6024 865.383 -1.00011 773.943L-1.00017 78.5353C13.0485 71.354 18.9245 77.9241 102.554 77.9241C268.796 77.924 627.346 -45.6021 759.896 18.3976C849.651 75.4203 1133.46 46.4216 1399.66 19.2225Z" fill="#C4C4C4"/>
</svg>
