<svg width="1920" height="799" viewBox="0 0 1920 799" fill="none" xmlns="http://www.w3.org/2000/svg">
<path opacity="0.15" d="M1399.66 15.9988L1407.73 15.3121C1574.56 1.12875 1802.75 48.3514 1921 120.291L1920.62 656.008C1862.94 663.849 1822.52 700.483 1739.03 728.126C1629.47 764.399 1628.59 755.815 1505.41 749.623C1382.22 743.43 1248.76 770.159 1082.06 786.491C920.485 816.139 748.855 785.662 688.859 771.188C327.302 762.275 389.203 696.378 215.613 696.378C65.0844 696.378 90.6024 720.251 -1.00011 644.147L-1.00018 65.3642C13.0485 59.3872 18.9245 64.8555 102.554 64.8555C268.796 64.8555 627.346 -37.9543 759.896 15.3121C849.651 62.7717 1133.46 38.6363 1399.66 15.9988Z" fill="#C4C4C4"/>
</svg>
