<?xml version="1.0" standalone="no"?>
<!DOCTYPE svg PUBLIC "-//W3C//DTD SVG 20010904//EN"
 "http://www.w3.org/TR/2001/REC-SVG-20010904/DTD/svg10.dtd">
<svg version="1.0" xmlns="http://www.w3.org/2000/svg"
 width="700.000000pt" height="700.000000pt" viewBox="0 0 700.000000 700.000000"
 preserveAspectRatio="xMidYMid meet">
<metadata>
Created by potrace 1.14, written by Peter Selinger 2001-2017
</metadata>
<g transform="translate(0.000000,700.000000) scale(0.100000,-0.100000)"
fill="#000000" stroke="none">
<path d="M3494 6989 c-49 -25 -46 -88 5 -107 14 -6 76 -11 136 -11 183 0 325
-15 510 -52 85 -17 104 -24 128 -49 33 -37 34 -61 5 -95 -28 -32 -52 -33 -173
-10 -113 22 -111 21 -165 29 -198 27 -546 24 -623 -6 -29 -11 -43 -44 -33 -76
9 -27 52 -42 101 -36 121 15 410 9 558 -11 243 -33 616 -157 646 -214 40 -74
-34 -130 -116 -88 -119 61 -369 137 -503 153 -30 3 -57 8 -60 10 -11 6 -206
18 -295 17 -494 0 -892 -155 -1193 -462 -75 -77 -192 -234 -192 -258 0 -5 -5
-14 -12 -21 -23 -23 -36 -79 -24 -103 34 -66 85 -49 136 45 114 208 289 375
530 504 109 58 296 121 405 137 22 3 45 8 52 10 71 23 478 24 608 0 104 -19
151 -30 243 -56 177 -50 213 -74 198 -134 -10 -40 -54 -47 -130 -19 -36 13
-110 35 -163 48 -89 22 -130 30 -218 43 -16 3 -113 6 -215 8 -299 5 -514 -40
-730 -153 -164 -86 -333 -233 -418 -364 -37 -56 -41 -69 -33 -91 10 -26 61
-49 88 -40 6 3 30 32 54 66 110 156 298 299 494 372 39 15 77 28 85 30 8 2 44
10 80 19 36 8 92 18 125 22 33 3 69 8 80 11 31 6 258 5 322 -2 150 -16 322
-53 349 -75 31 -26 4 -110 -35 -110 -10 0 -54 9 -97 19 -89 22 -121 28 -214
38 -98 10 -315 7 -405 -7 -95 -14 -254 -60 -289 -84 -33 -21 -34 -56 -2 -93
l24 -28 73 25 c40 13 77 25 83 27 6 1 45 9 86 18 50 11 127 18 230 19 133 1
283 -8 300 -19 3 -2 21 -6 40 -9 103 -17 259 -76 360 -136 226 -135 252 -144
415 -143 578 5 858 557 485 957 -58 61 -204 166 -314 226 -31 17 -80 43 -108
58 -105 56 -394 163 -507 187 -176 38 -194 41 -283 51 -29 3 -59 7 -67 10 -34
11 -397 14 -417 3z"/>
<path d="M3035 6935 c-314 -77 -587 -208 -820 -393 -101 -80 -271 -251 -335
-337 -78 -106 -130 -195 -130 -222 0 -35 18 -63 40 -63 41 0 67 25 135 128 86
130 277 327 417 431 53 39 100 71 104 71 4 0 15 6 23 14 27 24 222 122 316
159 91 36 243 83 299 93 98 16 136 40 136 84 0 58 -52 68 -185 35z"/>
<path d="M3005 6630 c-208 -63 -347 -128 -502 -231 -279 -188 -484 -437 -589
-717 -29 -77 -30 -106 -3 -131 41 -38 97 0 120 82 15 49 87 190 131 256 200
295 534 524 917 631 114 32 134 44 134 85 0 66 -53 73 -208 25z"/>
<path d="M2848 5686 c-79 -64 -133 -132 -178 -220 -56 -110 -52 -136 22 -150
30 -5 68 18 68 41 0 46 124 206 199 256 30 20 31 60 1 93 -32 34 -50 30 -112
-20z"/>
<path d="M2150 5500 c-35 -35 -58 -212 -31 -243 7 -10 26 -17 42 -17 45 0 66
29 74 101 4 35 11 73 15 84 9 25 -13 85 -32 86 -7 0 -21 2 -31 4 -10 2 -27 -5
-37 -15z"/>
<path d="M1865 5440 c-26 -28 -34 -87 -33 -245 0 -172 18 -270 54 -303 28 -25
59 -22 82 7 14 16 13 30 -5 176 -8 63 -8 202 0 276 6 48 4 61 -14 83 -24 31
-59 34 -84 6z"/>
<path d="M2367 5282 c-22 -24 -17 -172 8 -257 72 -243 248 -418 731 -724 115
-73 324 -206 464 -296 403 -258 369 -239 399 -229 14 5 32 22 39 37 25 53 60
27 -613 455 -522 333 -602 390 -726 519 -132 136 -178 231 -186 383 -4 65 -10
101 -21 113 -20 22 -74 22 -95 -1z"/>
<path d="M1574 5115 c-27 -27 -31 -77 -14 -153 6 -23 13 -59 16 -79 25 -156
140 -407 257 -562 134 -176 320 -355 375 -359 33 -2 62 26 62 61 0 12 -53 71
-129 146 -159 155 -254 279 -331 436 -64 129 -100 241 -125 388 -9 50 -22 102
-30 113 -21 33 -53 37 -81 9z"/>
<path d="M2648 5114 c-34 -18 -34 -23 -3 -86 38 -75 81 -127 181 -218 83 -75
338 -252 496 -344 53 -31 93 -28 110 10 22 48 5 67 -147 163 -316 201 -463
324 -523 438 -24 46 -31 53 -57 53 -16 -1 -42 -8 -57 -16z"/>
<path d="M1968 4793 c-22 -5 -42 -56 -33 -85 11 -36 83 -156 141 -234 94 -125
396 -402 443 -405 48 -4 84 27 77 67 -5 27 -12 35 -76 84 -74 58 -80 63 -143
120 -131 119 -226 232 -288 346 -50 91 -78 116 -121 107z"/>
<path d="M2400 4652 c-29 -9 -50 -35 -50 -62 0 -19 19 -45 78 -101 151 -147
241 -211 772 -549 201 -128 434 -278 519 -333 162 -106 200 -119 228 -81 8 10
13 33 11 49 -3 25 -15 38 -78 80 -90 59 -381 246 -540 346 -523 331 -678 439
-820 574 -78 75 -95 85 -120 77z"/>
<path d="M3606 4368 c-37 -53 -22 -72 135 -172 52 -33 194 -124 317 -204 144
-94 232 -144 249 -144 29 0 63 33 63 62 0 10 -8 27 -17 36 -20 20 -267 183
-517 343 -170 107 -202 119 -230 79z"/>
<path d="M2646 4064 c-21 -21 -20 -71 2 -89 18 -16 130 -87 562 -361 146 -93
270 -172 275 -176 45 -37 339 -218 353 -218 52 0 82 68 46 105 -18 17 -139 98
-399 264 -88 57 -173 112 -190 122 -324 211 -584 369 -607 369 -14 0 -34 -7
-42 -16z"/>
<path d="M2459 3873 c-16 -4 -39 -43 -39 -67 0 -19 46 -58 140 -118 438 -280
858 -547 890 -566 46 -27 86 -22 102 14 21 45 4 68 -109 141 -357 230 -931
591 -948 596 -11 2 -27 3 -36 0z"/>
<path d="M4699 3671 c-33 -27 -28 -70 12 -103 19 -15 84 -66 144 -114 293
-232 475 -454 622 -760 73 -151 135 -352 148 -474 7 -71 34 -110 77 -110 23 0
32 6 42 32 14 31 14 43 1 131 -43 288 -206 639 -425 910 -53 67 -192 208 -280
287 -46 41 -269 210 -278 211 -4 0 -15 2 -24 4 -10 2 -28 -5 -39 -14z"/>
<path d="M4287 3639 c-29 -22 -35 -55 -14 -81 6 -9 86 -65 177 -126 136 -90
293 -207 346 -257 6 -5 36 -33 66 -62 30 -28 84 -84 119 -125 35 -40 67 -75
70 -78 20 -18 148 -226 188 -307 170 -345 192 -709 64 -1066 -26 -74 -119
-269 -147 -309 -41 -58 2 -128 64 -107 48 17 162 240 225 439 101 318 89 654
-34 972 -121 311 -339 593 -646 833 -112 87 -399 280 -431 289 -13 4 -30 -1
-47 -15z"/>
<path d="M4010 3510 c-20 -20 -26 -56 -12 -76 15 -24 166 -116 188 -116 34 0
64 30 64 63 0 31 -24 53 -124 113 -69 41 -88 44 -116 16z"/>
<path d="M3930 3240 c-20 -20 -26 -56 -12 -76 16 -24 315 -214 337 -214 27 0
65 42 60 68 -2 9 -4 20 -4 24 -2 15 -317 218 -338 218 -13 0 -32 -9 -43 -20z"/>
<path d="M4750 2958 c-34 -37 -25 -62 50 -144 143 -158 270 -408 314 -619 15
-72 16 -328 2 -390 -19 -82 -29 -116 -53 -185 -29 -82 -108 -240 -154 -307
-54 -78 -45 -143 20 -143 37 0 45 8 91 79 96 148 182 352 216 508 19 90 27
313 14 393 -5 30 -12 69 -15 87 -25 162 -168 453 -302 618 -101 123 -142 146
-183 103z"/>
<path d="M4365 2945 c-42 -41 -33 -69 40 -125 87 -68 210 -200 276 -297 62
-92 73 -103 100 -103 33 0 69 31 69 58 0 16 -78 149 -105 178 -5 7 -37 43 -70
81 -86 99 -244 233 -275 233 -6 0 -22 -11 -35 -25z"/>
<path d="M3994 2872 c-13 -8 -31 -43 -30 -58 1 -15 39 -64 49 -64 14 0 197
-138 273 -206 39 -35 86 -83 105 -108 40 -53 60 -62 100 -46 35 15 47 51 28
88 -22 41 -176 192 -264 258 -178 134 -227 159 -261 136z"/>
<path d="M4814 2365 c-14 -14 -23 -29 -21 -33 12 -20 56 -183 62 -226 8 -59 8
-166 0 -221 -20 -131 -101 -320 -198 -462 -31 -45 -57 -88 -58 -95 -9 -46 49
-90 90 -69 54 29 216 321 260 467 61 205 48 459 -30 621 -18 36 -25 43 -50 43
-19 0 -40 -10 -55 -25z"/>
<path d="M4565 2289 c-43 -21 -46 -42 -19 -120 50 -142 36 -286 -42 -444 -31
-61 -43 -97 -39 -113 6 -26 64 -55 90 -46 17 7 73 111 105 198 48 126 56 266
24 390 -36 137 -59 164 -119 135z"/>
<path d="M1997 1962 c-27 -29 -21 -57 38 -174 53 -107 54 -111 40 -144 -16
-38 -53 -53 -90 -36 -14 6 -39 41 -61 82 -42 80 -68 98 -112 78 -21 -10 -28
-22 -30 -49 -2 -28 9 -56 54 -135 67 -117 137 -221 216 -323 32 -41 58 -84 58
-97 0 -60 -75 -76 -118 -26 -55 63 -163 214 -221 310 -35 56 -72 107 -83 113
-26 14 -65 4 -78 -22 -17 -31 -4 -68 61 -174 32 -53 61 -106 63 -118 8 -48
-38 -84 -82 -64 -31 15 -127 170 -224 365 -84 169 -97 183 -148 167 -29 -9
-39 -42 -28 -85 6 -19 41 -97 79 -173 262 -525 637 -912 1120 -1157 143 -73
193 -86 224 -60 18 15 19 59 2 81 -7 9 -51 34 -98 57 -89 43 -113 69 -98 108
17 47 55 50 137 12 213 -97 504 -186 697 -213 22 -3 45 -8 51 -10 29 -9 211
-19 334 -18 335 2 652 86 921 243 78 46 219 149 266 196 54 53 53 103 -2 124
-22 8 -88 -20 -102 -43 -10 -17 -112 -94 -186 -141 -144 -92 -362 -180 -517
-210 -14 -3 -50 -10 -80 -16 -125 -25 -370 -33 -525 -18 -164 16 -371 63 -570
129 -127 42 -410 175 -437 206 -30 34 -31 61 -4 88 32 32 47 29 172 -40 148
-82 343 -155 534 -201 218 -52 274 -59 505 -59 172 0 220 3 322 21 63 12 86
72 43 112 -20 19 -40 20 -108 7 -140 -27 -380 -24 -561 6 -158 26 -446 111
-510 150 -64 39 -31 137 44 126 16 -2 68 -18 115 -35 145 -52 280 -86 430
-108 42 -6 73 20 73 61 0 40 -28 63 -86 70 -69 9 -263 58 -362 91 -112 37
-245 100 -246 116 0 7 -2 22 -4 33 -2 11 7 34 21 52 31 41 58 42 138 4 34 -16
111 -45 172 -64 101 -33 146 -45 224 -61 14 -3 34 -7 45 -9 59 -13 117 -16
134 -8 36 20 33 100 -4 115 -10 3 -38 9 -64 12 -25 3 -62 9 -81 14 -19 5 -50
12 -68 15 -57 10 -221 65 -301 102 -77 34 -205 110 -251 148 -119 97 -250 250
-326 379 -37 64 -49 73 -94 66 -24 -3 -50 -31 -50 -54 0 -12 21 -52 45 -91 72
-113 80 -132 69 -162 -11 -34 -61 -63 -94 -57 -31 7 -103 111 -186 269 -31 61
-64 118 -72 128 -20 22 -64 22 -85 -1z"/>
<path d="M5650 1788 c-20 -21 -33 -59 -44 -123 -3 -16 -11 -46 -16 -65 -6 -19
-13 -46 -16 -60 -8 -42 -73 -199 -124 -300 -56 -113 -130 -233 -215 -350 -34
-47 -66 -95 -70 -108 -10 -33 18 -72 52 -72 86 0 360 439 458 734 20 59 38
118 41 130 2 11 9 46 16 76 11 51 12 66 9 105 -1 20 -37 55 -56 55 -8 0 -23
-10 -35 -22z"/>
<path d="M4102 1289 c-103 -52 -238 -89 -364 -98 -7 -1 -19 -33 -24 -61 -2 -8
4 -25 12 -37 19 -30 72 -30 194 -3 146 33 298 98 343 148 20 21 12 55 -18 85
-23 24 -38 20 -143 -34z"/>
<path d="M4475 1202 c-28 -25 -83 -69 -122 -99 -60 -44 -73 -59 -73 -81 1 -34
19 -59 51 -67 20 -5 41 5 103 50 100 71 176 147 176 174 0 20 -31 60 -47 62
-5 0 -15 2 -23 4 -8 1 -38 -18 -65 -43z"/>
<path d="M4799 1142 c-26 -11 -143 -142 -151 -168 -9 -32 25 -74 60 -74 34 0
166 132 174 173 9 45 -41 86 -83 69z"/>
<path d="M4135 988 c-120 -48 -281 -77 -455 -82 -74 -2 -87 -8 -101 -43 -9
-25 2 -60 25 -76 19 -13 217 -5 321 13 116 21 287 74 305 95 18 21 19 47 2 73
-25 38 -43 42 -97 20z"/>
<path d="M4583 336 c-156 -76 -376 -150 -503 -170 -204 -32 -254 -37 -405 -37
-213 1 -424 29 -630 84 -78 21 -124 2 -125 -50 0 -40 33 -60 146 -87 243 -57
360 -71 609 -71 207 0 278 6 430 36 236 47 553 166 621 234 30 30 32 80 5 95
-32 17 -53 12 -148 -34z"/>
</g>
</svg>
