<svg id="Layer_1" data-name="Layer 1" xmlns="http://www.w3.org/2000/svg" viewBox="0 0 1000 1000"><defs><style>.cls-1{fill:#e2af33;}.cls-2,.cls-3{fill:none;}.cls-3{stroke:#000;stroke-miterlimit:10;stroke-width:15px;}</style></defs><rect class="cls-1" width="1000" height="1000"/><path d="M539.49,433.18q-1.43,3.45-3,6.79c-1.11,2.38-2.29,4.73-3.51,7l0,0a0,0,0,0,1,0,0c1.21-2.3,2.38-4.63,3.5-7s2.06-4.49,3-6.78Zm-42.6-152.7-.06-.06h0c-2-2.05-3.81-3.92-5.52-5.61l-.85-.84-.82-.8,0,0c2.15,2.1,4.59,4.54,7.22,7.3l.68.72v0Zm4.24-24.89a22.93,22.93,0,0,1-5.78,2.38l-.74.18-.75.15-.75.13h0a21.51,21.51,0,0,0,2.26-.45h0a23,23,0,0,0,5.75-2.36Zm-9.84,3-.19,0h.19Z"/><path d="M496.83,280.42h0c-2-2.05-3.81-3.92-5.52-5.61l-.85-.84-.82-.8,0,0c2.15,2.1,4.59,4.54,7.22,7.3C496.84,280.46,496.83,280.44,496.83,280.42Zm-5.73-21.77h.19Z"/><path d="M485.38,258.3l-.75-.15c-.27,0-.53-.11-.79-.18h0a21.51,21.51,0,0,0,2.26.45h0Z"/><path d="M499.13,493.84c-3.51,3.8-6.76,7.08-9.53,9.78l0,0c2.77-2.7,6-6,9.51-9.76Z"/><path class="cls-2" d="M544.86,358.77a114.12,114.12,0,0,0-110.44,0,151.3,151.3,0,0,1,14-33,99.19,99.19,0,0,1,82.48,0A151.75,151.75,0,0,1,544.86,358.77Z"/><path class="cls-2" d="M549.12,388.39A101.16,101.16,0,0,1,548,403.3a114.05,114.05,0,0,0-116.78,0,103.85,103.85,0,0,1-1.1-14.91c0-3.15.17-6.28.46-9.38a99.12,99.12,0,0,1,118.09,0C549,382.12,549.12,385.24,549.12,388.39Z"/><path class="cls-2" d="M544.59,418.86a137.15,137.15,0,0,1-5.05,14.32v0q-1.42,3.44-3,6.78l0,0a114.25,114.25,0,0,0-93.8.08c-1.05-2.25-2.07-4.53-3-6.84a135,135,0,0,1-5-14.33,99.1,99.1,0,0,1,110,0Z"/><path class="cls-2" d="M529.51,453.29a234.8,234.8,0,0,1-30.38,40.55c-3.51,3.8-6.76,7.08-9.53,9.78l0,0c-2.78-2.7-6-6-9.53-9.76a232.61,232.61,0,0,1-30.36-40.48,99.2,99.2,0,0,1,79.83-.07Z"/><path class="cls-2" d="M517.65,305.27a114.54,114.54,0,0,0-56,0,253.85,253.85,0,0,1,20-24l.62-.66,1.46-1.53,1.44-1.48c1.56-1.59,3-3.05,4.39-4.37l0,0,.82.8.85.84c1.71,1.69,3.56,3.56,5.52,5.61h0l.06.06.64.68,0,0A253.35,253.35,0,0,1,517.65,305.27Z"/><path d="M486.09,258.43a21.51,21.51,0,0,1-2.26-.45h0c.26.07.52.13.79.18l.75.15Z"/><path d="M491.34,258.63h-.24l.19,0Z"/><path d="M495.41,258a21.51,21.51,0,0,1-2.26.45l.71-.13.75-.15c.27,0,.53-.11.79-.18Z"/><path d="M536.52,440c-1.12,2.38-2.29,4.71-3.5,7a0,0,0,0,0,0,0l0,0c1.22-2.3,2.4-4.65,3.51-7Z"/><path d="M623.35,330.89c-25.21-41.77-74.43-62-105.62-71.07l0,0a37,37,0,0,0-4.43-52.69A17.25,17.25,0,0,1,530.26,193a6.17,6.17,0,1,0,0-12.33,29.6,29.6,0,0,0-28,20.07,37.18,37.18,0,0,0-25.2,0,29.61,29.61,0,0,0-28-20.07,6.17,6.17,0,0,0,0,12.33A17.27,17.27,0,0,1,466,207.11a37,37,0,0,0-4.45,52.67l-.08,0c-31.19,9-80.47,29.28-105.7,71.09C317.12,395,349.55,485.4,349.55,485.4s43.77-6.18,84-30.16l0,0v0c.94,1.75,1.91,3.47,2.89,5.17a237.46,237.46,0,0,0,23.58,33.43H460v0l29.54,64.22L519.05,494l.11-.13v0a238,238,0,0,0,23.6-33.47c1-1.68,1.92-3.38,2.86-5.11,40.22,24,84,30.14,84,30.14S662,395,623.35,330.89ZM512.74,235.64a23.07,23.07,0,0,1-11.51,20l0,0a23,23,0,0,1-5.75,2.36h0a21.51,21.51,0,0,1-2.26.45h0l-.73.1h-.05c-.32.05-.62.08-.94.1h-.48l-.38,0h0c-.28,0-.57,0-.86,0s-.58,0-.86,0h-.05c-.25,0-.51,0-.76-.05h-.1c-.32,0-.62-.05-.94-.1h-.05l-.73-.1h0a21.51,21.51,0,0,1-2.26-.45h0c.26.07.52.13.79.18l-.74-.18a23.07,23.07,0,1,1,28.85-22.33Zm-23.12,66.15a113.85,113.85,0,0,0-27.93,3.46,253.85,253.85,0,0,1,20-24l.62-.66,1.46-1.53,1.44-1.48c1.56-1.59,3-3.05,4.39-4.37l0,0,.82.8.85.84c1.71,1.69,3.56,3.56,5.52,5.61h0l.06.06.64.68,0,0a253.35,253.35,0,0,1,20.08,24.07A114.12,114.12,0,0,0,489.62,301.79Zm41.29,24a151.75,151.75,0,0,1,14,33,114.12,114.12,0,0,0-110.44,0,151.3,151.3,0,0,1,14-33,99.19,99.19,0,0,1,82.48,0ZM427,441.69c-24.82,15-51.66,22.8-66.94,26.34-6.73-25.45-18-85.22,8.62-129.39,23.29-38.58,70.95-57.12,99.65-65.12l.07,0,0,0a249.35,249.35,0,0,0-30.61,40.75,181.24,181.24,0,0,0-13.22,26.91,138.71,138.71,0,0,0-8.07,29.9,118.06,118.06,0,0,0-1.31,17.31c0,1.58,0,3.15.11,4.71a121.85,121.85,0,0,0,2.45,19.67A138.63,138.63,0,0,0,422,428.83c1.48,4.38,3.13,8.67,4.95,12.84Zm72.18,52.15c-3.51,3.8-6.76,7.08-9.53,9.78l0,0c-2.78-2.7-6-6-9.53-9.76a232.61,232.61,0,0,1-30.36-40.48,99.2,99.2,0,0,1,79.83-.07A234.8,234.8,0,0,1,499.13,493.84Zm40.41-60.66v0q-1.42,3.44-3,6.78c-1.12,2.38-2.29,4.71-3.5,7a0,0,0,0,0,0,0l0,0c1.22-2.3,2.4-4.65,3.51-7a114.25,114.25,0,0,0-93.8.08c-1.05-2.25-2.07-4.53-3-6.84a135,135,0,0,1-5-14.33,99.1,99.1,0,0,1,110,0A137.15,137.15,0,0,1,539.54,433.18ZM548,403.3a114.05,114.05,0,0,0-116.78,0,103.85,103.85,0,0,1-1.1-14.91c0-3.15.17-6.28.46-9.38a99.12,99.12,0,0,1,118.09,0c.28,3.1.45,6.22.45,9.37A101.16,101.16,0,0,1,548,403.3ZM619.11,468c-15.29-3.55-42.09-11.33-66.88-26.33v0c1.82-4.18,3.48-8.47,5-12.85a138.66,138.66,0,0,0,4.37-16.06A121.85,121.85,0,0,0,564,393.1c.06-1.56.11-3.13.11-4.71a118.06,118.06,0,0,0-1.31-17.31,139.18,139.18,0,0,0-8.06-29.89,182.34,182.34,0,0,0-13.22-26.92,249.1,249.1,0,0,0-30.61-40.74c28.71,8,76.32,26.55,99.59,65.11C637.07,382.64,625.8,442.53,619.11,468Z"/><polygon class="cls-3" points="845.23 370.79 816.24 370.79 801.75 395.89 816.24 421 845.23 421 859.73 395.89 845.23 370.79"/><polygon class="cls-3" points="888.71 345.68 859.73 345.68 845.23 370.79 859.73 395.89 888.71 395.89 903.21 370.79 888.71 345.68"/><polygon class="cls-3" points="888.71 395.89 859.73 395.89 845.23 421 859.73 446.1 888.71 446.1 903.21 421 888.71 395.89"/><polygon class="cls-3" points="845.23 421 816.24 421 801.75 446.1 816.24 471.2 845.23 471.2 859.73 446.1 845.23 421"/><polygon class="cls-3" points="801.75 395.89 772.76 395.89 758.27 421 772.76 446.1 801.75 446.1 816.24 421 801.75 395.89"/><polygon class="cls-3" points="801.75 345.68 772.76 345.68 758.27 370.79 772.76 395.89 801.75 395.89 816.24 370.79 801.75 345.68"/><polygon class="cls-3" points="845.23 320.58 816.24 320.58 801.75 345.68 816.24 370.79 845.23 370.79 859.73 345.68 845.23 320.58"/><polygon class="cls-3" points="169.26 212.49 144.16 226.99 144.16 255.97 169.26 270.47 194.37 255.97 194.37 226.99 169.26 212.49"/><polygon class="cls-3" points="194.37 169.01 169.26 183.5 169.26 212.49 194.37 226.99 219.47 212.49 219.47 183.5 194.37 169.01"/><polygon class="cls-3" points="219.47 212.49 194.37 226.99 194.37 255.97 219.47 270.47 244.57 255.97 244.57 226.99 219.47 212.49"/><polygon class="cls-3" points="194.37 255.97 169.26 270.47 169.26 299.45 194.37 313.95 219.47 299.45 219.47 270.47 194.37 255.97"/><polygon class="cls-3" points="144.16 255.97 119.06 270.47 119.06 299.45 144.16 313.95 169.26 299.45 169.26 270.47 144.16 255.97"/><polygon class="cls-3" points="119.06 212.49 93.95 226.99 93.95 255.97 119.06 270.47 144.16 255.97 144.16 226.99 119.06 212.49"/><polygon class="cls-3" points="144.16 169.01 119.06 183.5 119.06 212.49 144.16 226.99 169.26 212.49 169.26 183.5 144.16 169.01"/><path d="M254.27,674.79V597.92H278q12,0,18.3,5.36t6.25,15.7A19,19,0,0,1,300,629.07a15.32,15.32,0,0,1-7.08,6.17,13.45,13.45,0,0,1,8,5.94,20.33,20.33,0,0,1,2.8,11q0,11.19-6.15,16.89t-17.82,5.71Zm15.52-44.72h8.07q9.13,0,9.14-9.45c0-3.49-.71-6-2.11-7.5s-3.7-2.27-6.87-2.27h-8.23Zm0,11.3V661.9h9.92a7.82,7.82,0,0,0,6.34-2.58c1.44-1.73,2.16-4.17,2.16-7.34q0-10.35-7.49-10.61Z"/><path d="M342.27,669.56a14.7,14.7,0,0,1-12.46,6.28q-7.86,0-11.93-5.41t-4.06-15.76v-37h14.94V655q.11,8.34,5.54,8.34a7.71,7.71,0,0,0,7.39-4.43V617.66h15.05v57.13h-14Z"/><path d="M392.69,659.47a4.7,4.7,0,0,0-1.82-3.51q-1.81-1.61-8.1-4.35-9.24-3.75-12.7-7.76a14.73,14.73,0,0,1-3.46-10A16,16,0,0,1,372,621.49q5.42-4.89,14.34-4.88,9.39,0,15,4.85t5.65,13H392.11q0-7-5.81-7a5.41,5.41,0,0,0-3.9,1.48,5.47,5.47,0,0,0-1.53,4.12,4.29,4.29,0,0,0,1.69,3.35q1.68,1.46,8,4.15,9.14,3.38,12.91,7.52a15.37,15.37,0,0,1,3.77,10.74,15,15,0,0,1-5.75,12.31q-5.76,4.63-15.1,4.64a24.12,24.12,0,0,1-11.09-2.45,18.65,18.65,0,0,1-7.52-6.84A17.53,17.53,0,0,1,365,657.1h14.2a9.07,9.07,0,0,0,1.82,5.86c1.14,1.3,3,1.95,5.62,1.95C390.69,664.91,392.69,663.1,392.69,659.47Z"/><path d="M434.82,649.92l7.6-32.26h15.95l-18.8,65.68q-4.21,14.52-15.89,14.52a22.12,22.12,0,0,1-6.12-1V685.19l1.74,0a8.57,8.57,0,0,0,5.25-1.35,8.39,8.39,0,0,0,2.67-4.67l1.16-3.85-16.47-57.71h16Z"/><path d="M490.41,674.79V597.92h23.76q12,0,18.29,5.36t6.26,15.7a18.91,18.91,0,0,1-2.59,10.09,15.25,15.25,0,0,1-7.07,6.17,13.45,13.45,0,0,1,8,5.94,20.33,20.33,0,0,1,2.8,11q0,11.19-6.15,16.89t-17.82,5.71Zm15.53-44.72H514q9.13,0,9.14-9.45c0-3.49-.71-6-2.11-7.5s-3.7-2.27-6.87-2.27h-8.23Zm0,11.3V661.9h9.92a7.82,7.82,0,0,0,6.34-2.58c1.44-1.73,2.16-4.17,2.16-7.34q0-10.35-7.5-10.61Z"/><path d="M573.41,675.84q-11.52,0-17.95-6.86T549,649.34V644.8q0-13.51,5.91-20.86t17-7.33q10.77,0,16.2,6.88t5.55,20.37v7.33H563.9q.33,6.36,2.8,9.3t7.66,2.94a16.76,16.76,0,0,0,12.51-5.12l5.86,9a19.22,19.22,0,0,1-8,6.15A27.33,27.33,0,0,1,573.41,675.84ZM564,640.79H579v-1.38q-.11-5.11-1.69-7.76T571.77,629a6.21,6.21,0,0,0-5.67,2.8Q564.33,634.62,564,640.79Z"/><path d="M625.15,675.84q-11.52,0-17.95-6.86t-6.45-19.64V644.8q0-13.51,5.92-20.86t17-7.33q10.75,0,16.2,6.88t5.55,20.37v7.33H615.64q.32,6.36,2.8,9.3c1.65,2,4.21,2.94,7.66,2.94a16.79,16.79,0,0,0,12.51-5.12l5.86,9a19.22,19.22,0,0,1-8,6.15A27.33,27.33,0,0,1,625.15,675.84Zm-9.4-35.05h14.94v-1.38q-.11-5.11-1.69-7.76T623.51,629a6.23,6.23,0,0,0-5.68,2.8Q616.06,634.62,615.75,640.79Z"/><path d="M655.4,621.52l-6.87-4.18a33.83,33.83,0,0,0,3.91-14.46v-9.19h11.72V602a26.44,26.44,0,0,1-2.51,10.38A27.26,27.26,0,0,1,655.4,621.52Z"/><path d="M687.76,659.47a4.7,4.7,0,0,0-1.82-3.51q-1.83-1.61-8.11-4.35-9.23-3.75-12.69-7.76a14.73,14.73,0,0,1-3.46-10,15.94,15.94,0,0,1,5.41-12.38q5.42-4.89,14.33-4.88,9.41,0,15.05,4.85t5.65,13H687.18q0-7-5.81-7a5.19,5.19,0,0,0-5.44,5.6,4.32,4.32,0,0,0,1.69,3.35q1.7,1.46,8,4.15,9.13,3.38,12.91,7.52a15.33,15.33,0,0,1,3.78,10.74,15,15,0,0,1-5.76,12.31q-5.74,4.63-15.1,4.64a24.11,24.11,0,0,1-11.08-2.45,18.68,18.68,0,0,1-7.53-6.84,17.61,17.61,0,0,1-2.71-9.45h14.2c.07,2.6.67,4.56,1.82,5.86s3,1.95,5.62,1.95Q687.76,664.91,687.76,659.47Z"/><path d="M413.31,804.53H397.84V771.64H374.93v32.89H359.41V727.66h15.52v31.1h22.91v-31.1h15.47Z"/><path d="M423.29,774.12q0-13,6.12-20.37t16.95-7.4q10.92,0,17.05,7.4t6.12,20.48v3.64q0,13.05-6.07,20.38t-17,7.34q-11,0-17.08-7.37t-6.09-20.45Zm15,3.75q0,15.32,8.18,15.31,7.56,0,8.13-12.77l.06-6.29c0-5.2-.73-9.07-2.17-11.58a6.73,6.73,0,0,0-6.12-3.78q-3.81,0-5.94,3.78c-1.43,2.51-2.14,6.38-2.14,11.58Z"/><path d="M492.5,747.41l.42,5.65a15.86,15.86,0,0,1,13.25-6.71q14.73,0,15.16,20.65v37.53h-15V768.11q0-4.86-1.45-7.05t-5.09-2.19c-2.71,0-4.83,1.39-6.34,4.17v41.49h-15V747.41Z"/><path d="M555.11,805.59q-11.5,0-18-6.86t-6.44-19.64v-4.54q0-13.51,5.92-20.86t16.94-7.34q10.77,0,16.21,6.88t5.54,20.38v7.32H545.61q.32,6.38,2.8,9.31c1.65,2,4.21,2.94,7.65,2.94a16.8,16.8,0,0,0,12.52-5.12l5.86,9a19.35,19.35,0,0,1-8,6.15A27.26,27.26,0,0,1,555.11,805.59Zm-9.39-35.06h14.94v-1.37c-.07-3.41-.64-6-1.69-7.76s-2.89-2.64-5.49-2.64a6.21,6.21,0,0,0-5.68,2.8C546.62,763.42,545.93,766.42,545.72,770.53Z"/><path d="M601.42,779.67l7.6-32.26H625l-18.79,65.68q-4.23,14.5-15.89,14.51a22.08,22.08,0,0,1-6.13-1V814.93l1.74.06a8.59,8.59,0,0,0,5.26-1.35,8.42,8.42,0,0,0,2.66-4.67l1.16-3.86-16.47-57.7h16Z"/></svg>