<svg xmlns="http://www.w3.org/2000/svg" viewBox="0 0 1080 1488.93"><defs><style>.cls-1{fill:#e2e2e2;}.cls-2{fill:#7bd3ff;}.cls-3{fill:#7cd2fe;}.cls-4{fill:#7dd1fd;}.cls-5{fill:#7ed0fc;}.cls-6{fill:#7fcffc;}.cls-7{fill:#80cefb;}.cls-8{fill:#81cdfa;}.cls-9{fill:#82ccf9;}.cls-10{fill:#83cbf8;}.cls-11{fill:#84caf7;}.cls-12{fill:#85c9f7;}.cls-13{fill:#86c8f6;}.cls-14{fill:#87c7f5;}.cls-15{fill:#88c6f4;}.cls-16{fill:#89c5f3;}.cls-17{fill:#8ac4f2;}.cls-18{fill:#8bc3f2;}.cls-19{fill:#8cc2f1;}.cls-20{fill:#8dc1f0;}.cls-21{fill:#8ec0ef;}.cls-22{fill:#8fbfee;}.cls-23{fill:#90beed;}.cls-24{fill:#91bdec;}.cls-25{fill:#92bdec;}.cls-26{fill:#93bceb;}.cls-27{fill:#94bbea;}.cls-28{fill:#95bae9;}.cls-29{fill:#96b9e8;}.cls-30{fill:#97b8e7;}.cls-31{fill:#98b7e7;}.cls-32{fill:#99b6e6;}.cls-33{fill:#9ab5e5;}.cls-34{fill:#9bb4e4;}.cls-35{fill:#9cb3e3;}.cls-36{fill:#9db2e2;}.cls-37{fill:#9eb1e2;}.cls-38{fill:#9fb0e1;}.cls-39{fill:#a0afe0;}.cls-40{fill:#a1aedf;}.cls-41{fill:#a2adde;}.cls-42{fill:#a3acdd;}.cls-43{fill:#a4abdd;}.cls-44{fill:#a5aadc;}.cls-45{fill:#a6a9db;}.cls-46{fill:#a7a8da;}.cls-47{fill:#a8a7d9;}.cls-48{fill:#a9a6d8;}.cls-49{fill:#aaa5d7;}.cls-50{fill:#aba4d7;}.cls-51{fill:#aca3d6;}.cls-52{fill:#ada2d5;}.cls-53{fill:#aea1d4;}.cls-54{fill:#afa0d3;}.cls-55{fill:#b09fd2;}.cls-56{fill:#b19ed2;}.cls-57{fill:#b29dd1;}.cls-58{fill:#b39cd0;}.cls-59{fill:#b49bcf;}.cls-60{fill:#b59ace;}.cls-61{fill:#b699cd;}.cls-62{fill:#b798cd;}.cls-63{fill:#b897cc;}.cls-64{fill:#b996cb;}.cls-65{fill:#ba95ca;}.cls-66{fill:#bb94c9;}.cls-67{fill:#bc93c8;}.cls-68{fill:#bd93c8;}.cls-69{fill:#be92c7;}.cls-70{fill:#bf91c6;}.cls-71{fill:#c090c5;}.cls-72{fill:#c18fc4;}.cls-73{fill:#c28ec3;}.cls-74{fill:#c38dc2;}.cls-75{fill:#c48cc2;}.cls-76{fill:#c58bc1;}.cls-77{fill:#c68ac0;}.cls-78{fill:#c789bf;}.cls-79{fill:#c888be;}.cls-80{fill:#c987bd;}.cls-81{fill:#ca86bd;}.cls-82{fill:#cb85bc;}.cls-83{fill:#cc84bb;}.cls-84{fill:#cd83ba;}.cls-85{fill:#ce82b9;}.cls-86{fill:#cf81b8;}.cls-87{fill:#d080b8;}.cls-88{fill:#d17fb7;}.cls-89{fill:#d27eb6;}.cls-90{fill:#d37db5;}.cls-91{fill:#d47cb4;}.cls-92{fill:#d57bb3;}.cls-93{fill:#d67ab2;}.cls-94{fill:#d779b2;}.cls-95{fill:#d878b1;}.cls-96{fill:#d977b0;}.cls-97{fill:#da76af;}.cls-98{fill:#db75ae;}.cls-99{fill:#dc74ad;}.cls-100{fill:#dd73ad;}.cls-101{fill:#de72ac;}.cls-102{fill:#df71ab;}.cls-103{fill:#e070aa;}.cls-104{fill:#e16fa9;}.cls-105{fill:#e26ea8;}.cls-106{fill:#e36da8;}.cls-107{fill:#e46ca7;}.cls-108{fill:#e56ba6;}.cls-109{fill:#e66aa5;}.cls-110{fill:#e769a4;}.cls-111{fill:#e868a3;}.cls-112{fill:#e968a3;}.cls-113{fill:#ea67a2;}.cls-114{fill:#eb66a1;}.cls-115{fill:#ec65a0;}.cls-116{fill:#ed649f;}.cls-117{fill:#ee639e;}.cls-118{fill:#ef629d;}.cls-119{fill:#f0619d;}.cls-120{fill:#f1609c;}.cls-121{fill:#f25f9b;}.cls-122{fill:#f35e9a;}.cls-123{fill:#f45d99;}.cls-124{fill:#f55c98;}.cls-125{fill:#f65b98;}.cls-126{fill:#f75a97;}.cls-127{fill:#f85996;}.cls-128{fill:#f95895;}.cls-129{fill:#fa5794;}.cls-130{fill:#fb5693;}.cls-131{fill:#fc5593;}.cls-132{fill:#fd5492;}.cls-133{fill:#fe5391;}.cls-134{fill:#ff5290;}.cls-135{fill:#ff528f;}.cls-136{fill:#ff538e;}.cls-137{fill:#ff538d;}.cls-138{fill:#ff538c;}.cls-139{fill:#ff548b;}.cls-140{fill:#ff548a;}.cls-141{fill:#ff5489;}.cls-142{fill:#f58;}.cls-143{fill:#ff5587;}.cls-144{fill:#ff5586;}.cls-145{fill:#ff5585;}.cls-146{fill:#ff5684;}.cls-147{fill:#ff5683;}.cls-148{fill:#ff5682;}.cls-149{fill:#ff5781;}.cls-150{fill:#ff5780;}.cls-151{fill:#ff577f;}.cls-152{fill:#ff587e;}.cls-153{fill:#ff587d;}.cls-154{fill:#ff587c;}.cls-155{fill:#ff597b;}.cls-156{fill:#ff597a;}.cls-157{fill:#ff5979;}.cls-158{fill:#ff5a78;}.cls-159{fill:#ff5a77;}.cls-160{fill:#ff5a76;}.cls-161{fill:#ff5b75;}.cls-162{fill:#ff5b74;}.cls-163{fill:#ff5b73;}.cls-164{fill:#ff5c72;}.cls-165{fill:#ff5c71;}.cls-166{fill:#ff5c70;}.cls-167{fill:#ff5d6f;}.cls-168{fill:#ff5d6e;}.cls-169{fill:#ff5d6d;}.cls-170{fill:#ff5e6c;}.cls-171{fill:#ff5e6b;}.cls-172{fill:#ff5e6a;}.cls-173{fill:#ff5f69;}.cls-174{fill:#ff5f68;}.cls-175{fill:#ff5f67;}.cls-176{fill:#ff6066;}.cls-177{fill:#ff6065;}.cls-178{fill:#ff6064;}.cls-179{fill:#ff6163;}.cls-180{fill:#ff6162;}.cls-181{fill:#ff6161;}.cls-182{fill:#ff6260;}.cls-183{fill:#ff625f;}.cls-184{fill:#ff625e;}.cls-185{fill:#ff625d;}.cls-186{fill:#ff635c;}.cls-187{fill:#ff635b;}.cls-188{fill:#ff635a;}.cls-189{fill:#ff6459;}.cls-190{fill:#ff6458;}.cls-191{fill:#ff6457;}.cls-192{fill:#ff6556;}.cls-193{fill:#ff6555;}.cls-194{fill:#f65;}.cls-195{fill:#ff6756;}.cls-196{fill:#ff6856;}.cls-197{fill:#ff6957;}.cls-198{fill:#ff6a57;}.cls-199{fill:#ff6b58;}.cls-200{fill:#ff6c58;}.cls-201{fill:#ff6d58;}.cls-202{fill:#ff6e59;}.cls-203{fill:#ff6f59;}.cls-204{fill:#ff705a;}.cls-205{fill:#ff715a;}.cls-206{fill:#ff725b;}.cls-207{fill:#ff735b;}.cls-208{fill:#ff745b;}.cls-209{fill:#ff755c;}.cls-210{fill:#ff765c;}.cls-211{fill:#ff775d;}.cls-212{fill:#ff785d;}.cls-213{fill:#ff795e;}.cls-214{fill:#ff7a5e;}.cls-215{fill:#ff7b5e;}.cls-216{fill:#ff7c5f;}.cls-217{fill:#ff7d5f;}.cls-218{fill:#ff7e60;}.cls-219{fill:#ff7f60;}.cls-220{fill:#ff8061;}.cls-221{fill:#ff8161;}.cls-222{fill:#ff8261;}.cls-223{fill:#ff8362;}.cls-224{fill:#ff8462;}.cls-225{fill:#ff8563;}.cls-226{fill:#ff8663;}.cls-227{fill:#ff8764;}.cls-228{fill:#ff8864;}.cls-229{fill:#ff8964;}.cls-230{fill:#ff8a65;}.cls-231{fill:#ff8b65;}.cls-232{fill:#ff8c66;}.cls-233{fill:#ff8d66;}.cls-234{fill:#ff8e66;}.cls-235{fill:#ff8f67;}.cls-236{fill:#ff9067;}.cls-237{fill:#ff9168;}.cls-238{fill:#ff9268;}.cls-239{fill:#ff9369;}.cls-240{fill:#ff9469;}.cls-241{fill:#ff9569;}.cls-242{fill:#ff966a;}.cls-243{fill:#ff976a;}.cls-244{fill:#ff986b;}.cls-245{fill:#ff996b;}.cls-246{fill:#ff9a6c;}.cls-247{fill:#ff9b6c;}.cls-248{fill:#ff9c6c;}.cls-249{fill:#ff9d6d;}.cls-250{fill:#ff9e6d;}.cls-251{fill:#ff9f6e;}.cls-252{fill:#ffa06e;}.cls-253{fill:#ffa16f;}.cls-254{fill:#ffa26f;}.cls-255{fill:#ffa36f;}.cls-256{fill:#ffa470;}.cls-257{fill:#ffa570;}.cls-258{fill:#ffa671;}.cls-259{fill:#ffa771;}.cls-260{fill:#ffa872;}.cls-261{fill:#ffa972;}.cls-262{fill:#ffaa72;}.cls-263{fill:#ffab73;}.cls-264{fill:#ffac73;}.cls-265{fill:#ffad74;}.cls-266{fill:#ffae74;}.cls-267{fill:#ffaf75;}.cls-268{fill:#ffb075;}.cls-269{fill:#ffb175;}.cls-270{fill:#ffb276;}.cls-271{fill:#ffb376;}.cls-272{fill:#ffb477;}.cls-273{fill:#ffb577;}.cls-274{fill:#ffb678;}.cls-275{fill:#ffb778;}.cls-276{fill:#ffb878;}.cls-277{fill:#ffb979;}.cls-278{fill:#ffba79;}.cls-279{fill:#ffbb7a;}.cls-280{fill:#ffbc7a;}.cls-281{fill:#ffbd7b;}.cls-282{fill:#ffbe7b;}.cls-283{fill:#ffbf7b;}.cls-284{fill:#ffc07c;}.cls-285{fill:#ffc17c;}.cls-286{fill:#ffc27d;}.cls-287{fill:#ffc37d;}.cls-288{fill:#ffc47e;}.cls-289{fill:#ffc57e;}.cls-290{fill:#ffc67e;}.cls-291{fill:#ffc77f;}.cls-292{fill:#ffc87f;}.cls-293{fill:#ffc980;}.cls-294{fill:#ffca80;}.cls-295{fill:#ffcb81;}.cls-296{fill:#ffcc81;}.cls-297{fill:#ffcd81;}.cls-298{fill:#ffce82;}.cls-299{fill:#ffcf82;}.cls-300{fill:#ffd083;}.cls-301{fill:#ffd183;}.cls-302{fill:#ffd283;}.cls-303{fill:#ffd384;}.cls-304{fill:#ffd484;}.cls-305{fill:#ffd585;}.cls-306{fill:#ffd685;}.cls-307{fill:#ffd786;}.cls-308{fill:#ffd886;}.cls-309{fill:#ffd986;}.cls-310{fill:#ffda87;}.cls-311{fill:#ffdb87;}.cls-312{fill:#ffdc88;}.cls-313{fill:#fd8;}.cls-314{fill:#ffde89;}.cls-315{fill:#ffdf89;}.cls-316{fill:#ffe089;}.cls-317{fill:#ffe18a;}.cls-318{fill:#ffe28a;}.cls-319{fill:#ffe38b;}.cls-320{fill:#ffe48b;}.cls-321{fill:#ffe58c;}.cls-322{fill:#ffe68c;}.cls-323{fill:#ffe78c;}.cls-324{fill:#ffe88d;}.cls-325{fill:#ffe98d;}.cls-326{fill:#ffea8e;}.cls-327{fill:#ffeb8e;}.cls-328{fill:#ffec8f;}.cls-329{fill:#ffed8f;}.cls-330{fill:#ffee8f;}.cls-331{fill:#ffef90;}.cls-332{fill:#fff090;}.cls-333{fill:#fff191;}.cls-334{fill:#fff291;}.cls-335{fill:#fff392;}.cls-336{fill:#fff492;}.cls-337{font-size:240.09px;font-family:Helvetica-Bold, Helvetica;}.cls-337,.cls-338{fill:#fff;}.cls-337,.cls-341{font-weight:700;}.cls-338{font-size:24.17px;font-family:Helvetica-Light, Helvetica;font-weight:300;}.cls-339{letter-spacing:-0.02em;}.cls-340{letter-spacing:0em;}.cls-341{font-size:124.74px;fill:#353131;font-family:RobotoCondensed-Bold, Roboto Condensed;}</style></defs><g id="Layer_1" data-name="Layer 1"><rect class="cls-1" width="1080" height="1488.93"/></g><g id="Layer_2" data-name="Layer 2"><circle class="cls-2" cx="773" cy="1074.4" r="85.97"/><circle class="cls-3" cx="772.79" cy="1069.99" r="86.47"/><circle class="cls-4" cx="772.51" cy="1065.61" r="86.97"/><circle class="cls-5" cx="772.17" cy="1061.27" r="87.47"/><circle class="cls-6" cx="771.76" cy="1056.95" r="87.97"/><circle class="cls-7" cx="771.29" cy="1052.67" r="88.47"/><circle class="cls-8" cx="770.76" cy="1048.41" r="88.97"/><circle class="cls-9" cx="770.16" cy="1044.19" r="89.47"/><circle class="cls-10" cx="769.5" cy="1039.99" r="89.97"/><circle class="cls-11" cx="768.78" cy="1035.83" r="90.47"/><circle class="cls-12" cx="768" cy="1031.7" r="90.97"/><circle class="cls-13" cx="767.15" cy="1027.59" r="91.47"/><circle class="cls-14" cx="766.25" cy="1023.52" r="91.97"/><circle class="cls-15" cx="765.28" cy="1019.48" r="92.47"/><circle class="cls-16" cx="764.25" cy="1015.47" r="92.97"/><circle class="cls-17" cx="763.17" cy="1011.49" r="93.47"/><circle class="cls-18" cx="762.02" cy="1007.54" r="93.97"/><circle class="cls-19" cx="760.82" cy="1003.62" r="94.47"/><circle class="cls-20" cx="759.56" cy="999.74" r="94.97"/><circle class="cls-21" cx="758.24" cy="995.88" r="95.47"/><circle class="cls-22" cx="756.87" cy="992.05" r="95.97"/><circle class="cls-23" cx="755.44" cy="988.25" r="96.47"/><circle class="cls-24" cx="753.95" cy="984.49" r="96.97"/><circle class="cls-25" cx="752.4" cy="980.75" r="97.47"/><circle class="cls-26" cx="750.8" cy="977.04" r="97.97"/><circle class="cls-27" cx="749.15" cy="973.37" r="98.47"/><circle class="cls-28" cx="747.44" cy="969.72" r="98.97"/><circle class="cls-29" cx="745.68" cy="966.11" r="99.47"/><circle class="cls-30" cx="743.87" cy="962.53" r="99.97"/><circle class="cls-31" cx="742" cy="958.97" r="100.47"/><circle class="cls-32" cx="740.08" cy="955.45" r="100.97"/><circle class="cls-33" cx="738.11" cy="951.96" r="101.47"/><circle class="cls-34" cx="736.09" cy="948.49" r="101.97"/><circle class="cls-35" cx="734.02" cy="945.06" r="102.47"/><circle class="cls-36" cx="731.89" cy="941.66" r="102.97"/><circle class="cls-37" cx="729.72" cy="938.28" r="103.47"/><circle class="cls-38" cx="727.5" cy="934.94" r="103.97"/><circle class="cls-39" cx="725.22" cy="931.63" r="104.47"/><circle class="cls-40" cx="722.9" cy="928.35" r="104.97"/><circle class="cls-41" cx="720.53" cy="925.1" r="105.47"/><circle class="cls-42" cx="718.12" cy="921.88" r="105.97"/><circle class="cls-43" cx="715.66" cy="918.69" r="106.48"/><circle class="cls-44" cx="713.15" cy="915.52" r="106.98"/><circle class="cls-45" cx="710.59" cy="912.39" r="107.48"/><circle class="cls-46" cx="707.99" cy="909.29" r="107.98"/><circle class="cls-47" cx="705.34" cy="906.22" r="108.48"/><circle class="cls-48" cx="702.65" cy="903.18" r="108.98"/><circle class="cls-49" cx="699.92" cy="900.17" r="109.48"/><circle class="cls-50" cx="697.14" cy="897.19" r="109.98"/><circle class="cls-51" cx="694.32" cy="894.24" r="110.48"/><circle class="cls-52" cx="691.45" cy="891.32" r="110.98"/><circle class="cls-53" cx="688.54" cy="888.43" r="111.48"/><circle class="cls-54" cx="685.59" cy="885.57" r="111.98"/><circle class="cls-55" cx="682.6" cy="882.74" r="112.48"/><circle class="cls-56" cx="679.57" cy="879.94" r="112.98"/><circle class="cls-57" cx="676.5" cy="877.17" r="113.48"/><circle class="cls-58" cx="673.39" cy="874.43" r="113.98"/><circle class="cls-59" cx="670.24" cy="871.72" r="114.48"/><circle class="cls-60" cx="667.05" cy="869.04" r="114.98"/><circle class="cls-61" cx="663.82" cy="866.39" r="115.48"/><circle class="cls-62" cx="660.55" cy="863.77" r="115.98"/><circle class="cls-63" cx="657.25" cy="861.17" r="116.48"/><circle class="cls-64" cx="653.91" cy="858.61" r="116.98"/><circle class="cls-65" cx="650.53" cy="856.08" r="117.48"/><circle class="cls-66" cx="647.12" cy="853.58" r="117.98"/><circle class="cls-67" cx="643.67" cy="851.11" r="118.48"/><circle class="cls-68" cx="640.18" cy="848.67" r="118.98"/><circle class="cls-69" cx="636.66" cy="846.25" r="119.48"/><circle class="cls-70" cx="633.11" cy="843.87" r="119.98"/><circle class="cls-71" cx="629.52" cy="841.52" r="120.48"/><circle class="cls-72" cx="625.9" cy="839.2" r="120.98"/><circle class="cls-73" cx="622.25" cy="836.9" r="121.48"/><circle class="cls-74" cx="618.56" cy="834.64" r="121.98"/><circle class="cls-75" cx="614.84" cy="832.41" r="122.48"/><circle class="cls-76" cx="611.1" cy="830.2" r="122.98"/><circle class="cls-77" cx="607.32" cy="828.03" r="123.48"/><circle class="cls-78" cx="603.51" cy="825.88" r="123.98"/><circle class="cls-79" cx="599.66" cy="823.77" r="124.48"/><circle class="cls-80" cx="595.8" cy="821.68" r="124.98"/><circle class="cls-81" cx="591.9" cy="819.63" r="125.48"/><circle class="cls-82" cx="587.97" cy="817.6" r="125.98"/><circle class="cls-83" cx="584.01" cy="815.6" r="126.48"/><circle class="cls-84" cx="580.03" cy="813.64" r="126.98"/><circle class="cls-85" cx="576.02" cy="811.7" r="127.48"/><circle class="cls-86" cx="571.98" cy="809.79" r="127.98"/><circle class="cls-87" cx="567.92" cy="807.91" r="128.48"/><circle class="cls-88" cx="563.83" cy="806.06" r="128.98"/><circle class="cls-89" cx="559.72" cy="804.24" r="129.48"/><circle class="cls-90" cx="555.58" cy="802.45" r="129.98"/><circle class="cls-91" cx="551.42" cy="800.69" r="130.48"/><circle class="cls-92" cx="547.23" cy="798.96" r="130.98"/><circle class="cls-93" cx="543.02" cy="797.26" r="131.48"/><circle class="cls-94" cx="538.79" cy="795.59" r="131.98"/><circle class="cls-95" cx="534.54" cy="793.94" r="132.48"/><circle class="cls-96" cx="530.26" cy="792.33" r="132.98"/><circle class="cls-97" cx="525.96" cy="790.74" r="133.48"/><circle class="cls-98" cx="521.64" cy="789.19" r="133.98"/><circle class="cls-99" cx="517.3" cy="787.66" r="134.48"/><circle class="cls-100" cx="512.94" cy="786.17" r="134.98"/><circle class="cls-101" cx="508.56" cy="784.7" r="135.48"/><circle class="cls-102" cx="504.17" cy="783.26" r="135.98"/><circle class="cls-103" cx="499.75" cy="781.85" r="136.48"/><circle class="cls-104" cx="495.31" cy="780.48" r="136.98"/><circle class="cls-105" cx="490.86" cy="779.13" r="137.48"/><circle class="cls-106" cx="486.39" cy="777.8" r="137.98"/><circle class="cls-107" cx="481.91" cy="776.51" r="138.48"/><circle class="cls-108" cx="477.4" cy="775.25" r="138.98"/><circle class="cls-109" cx="472.89" cy="774.02" r="139.48"/><circle class="cls-110" cx="468.35" cy="772.81" r="139.98"/><circle class="cls-111" cx="463.81" cy="771.64" r="140.48"/><circle class="cls-112" cx="459.24" cy="770.49" r="140.98"/><circle class="cls-113" cx="454.67" cy="769.38" r="141.48"/><circle class="cls-114" cx="450.08" cy="768.29" r="141.98"/><circle class="cls-115" cx="445.48" cy="767.23" r="142.48"/><circle class="cls-116" cx="440.86" cy="766.2" r="142.98"/><circle class="cls-117" cx="436.23" cy="765.2" r="143.48"/><circle class="cls-118" cx="431.6" cy="764.23" r="143.98"/><circle class="cls-119" cx="426.95" cy="763.29" r="144.48"/><circle class="cls-120" cx="422.29" cy="762.38" r="144.98"/><circle class="cls-121" cx="417.62" cy="761.49" r="145.48"/><circle class="cls-122" cx="412.94" cy="760.64" r="145.98"/><circle class="cls-123" cx="408.25" cy="759.81" r="146.48"/><circle class="cls-124" cx="403.56" cy="759.02" r="146.98"/><circle class="cls-125" cx="398.85" cy="758.25" r="147.48"/><circle class="cls-126" cx="394.14" cy="757.51" r="147.98"/><circle class="cls-127" cx="389.42" cy="756.8" r="148.48"/><circle class="cls-128" cx="384.69" cy="756.12" r="148.98"/><circle class="cls-129" cx="379.96" cy="755.47" r="149.48"/><circle class="cls-130" cx="375.22" cy="754.84" r="149.98"/><circle class="cls-131" cx="370.48" cy="754.25" r="150.48"/><circle class="cls-132" cx="365.73" cy="753.68" r="150.98"/><circle class="cls-133" cx="360.98" cy="753.15" r="151.48"/><circle class="cls-134" cx="356.22" cy="752.64" r="151.98"/><circle class="cls-135" cx="361.48" cy="748.36" r="150.69"/><circle class="cls-136" cx="366.73" cy="744.08" r="149.39"/><circle class="cls-137" cx="371.98" cy="739.79" r="148.09"/><circle class="cls-138" cx="377.24" cy="735.51" r="146.8"/><circle class="cls-139" cx="382.49" cy="731.23" r="145.5"/><circle class="cls-140" cx="387.74" cy="726.95" r="144.2"/><circle class="cls-141" cx="393" cy="722.67" r="142.91"/><circle class="cls-142" cx="398.25" cy="718.39" r="141.61"/><circle class="cls-143" cx="403.5" cy="714.11" r="140.31"/><circle class="cls-144" cx="408.76" cy="709.83" r="139.02"/><circle class="cls-145" cx="414.01" cy="705.54" r="137.72"/><circle class="cls-146" cx="419.26" cy="701.26" r="136.42"/><circle class="cls-147" cx="424.52" cy="696.98" r="135.13"/><circle class="cls-148" cx="429.77" cy="692.7" r="133.83"/><circle class="cls-149" cx="435.02" cy="688.42" r="132.53"/><circle class="cls-150" cx="440.28" cy="684.14" r="131.24"/><circle class="cls-151" cx="445.53" cy="679.86" r="129.94"/><circle class="cls-152" cx="450.78" cy="675.58" r="128.64"/><circle class="cls-153" cx="456.04" cy="671.3" r="127.35"/><circle class="cls-154" cx="461.29" cy="667.01" r="126.05"/><circle class="cls-155" cx="466.54" cy="662.73" r="124.75"/><circle class="cls-156" cx="471.8" cy="658.45" r="123.46"/><circle class="cls-157" cx="477.05" cy="654.17" r="122.16"/><circle class="cls-158" cx="482.31" cy="649.89" r="120.86"/><circle class="cls-159" cx="487.56" cy="645.61" r="119.57"/><circle class="cls-160" cx="492.81" cy="641.33" r="118.27"/><circle class="cls-161" cx="498.07" cy="637.05" r="116.97"/><circle class="cls-162" cx="503.32" cy="632.76" r="115.68"/><circle class="cls-163" cx="508.57" cy="628.48" r="114.38"/><circle class="cls-164" cx="513.83" cy="624.2" r="113.08"/><circle class="cls-164" cx="519.08" cy="619.92" r="111.79"/><circle class="cls-165" cx="524.33" cy="615.64" r="110.49"/><circle class="cls-166" cx="529.59" cy="611.36" r="109.19"/><circle class="cls-167" cx="534.84" cy="607.08" r="107.9"/><circle class="cls-168" cx="540.09" cy="602.8" r="106.6"/><circle class="cls-169" cx="545.35" cy="598.52" r="105.3"/><circle class="cls-170" cx="550.6" cy="594.23" r="104.01"/><circle class="cls-171" cx="555.85" cy="589.95" r="102.71"/><circle class="cls-172" cx="561.11" cy="585.67" r="101.41"/><circle class="cls-173" cx="566.36" cy="581.39" r="100.12"/><circle class="cls-174" cx="571.61" cy="577.11" r="98.82"/><circle class="cls-175" cx="576.87" cy="572.83" r="97.52"/><circle class="cls-176" cx="582.12" cy="568.55" r="96.23"/><circle class="cls-177" cx="587.37" cy="564.27" r="94.93"/><circle class="cls-178" cx="592.63" cy="559.99" r="93.63"/><circle class="cls-179" cx="597.88" cy="555.7" r="92.34"/><circle class="cls-180" cx="603.13" cy="551.42" r="91.04"/><circle class="cls-181" cx="608.39" cy="547.14" r="89.74"/><circle class="cls-182" cx="613.64" cy="542.86" r="88.45"/><circle class="cls-183" cx="618.9" cy="538.58" r="87.15"/><circle class="cls-184" cx="624.15" cy="534.3" r="85.85"/><circle class="cls-185" cx="629.4" cy="530.02" r="84.56"/><circle class="cls-186" cx="634.66" cy="525.74" r="83.26"/><circle class="cls-187" cx="639.91" cy="521.45" r="81.96"/><circle class="cls-188" cx="645.16" cy="517.17" r="80.67"/><circle class="cls-189" cx="650.42" cy="512.89" r="79.37"/><circle class="cls-190" cx="655.67" cy="508.61" r="78.07"/><circle class="cls-191" cx="660.92" cy="504.33" r="76.77"/><circle class="cls-192" cx="666.18" cy="500.05" r="75.48"/><circle class="cls-193" cx="671.43" cy="495.77" r="74.18"/><circle class="cls-194" cx="669.49" cy="494.66" r="74.36"/><circle class="cls-195" cx="667.55" cy="493.55" r="74.54"/><circle class="cls-196" cx="665.62" cy="492.44" r="74.72"/><circle class="cls-197" cx="663.68" cy="491.33" r="74.9"/><circle class="cls-198" cx="661.74" cy="490.22" r="75.08"/><circle class="cls-199" cx="659.8" cy="489.11" r="75.26"/><circle class="cls-200" cx="657.87" cy="488" r="75.44"/><circle class="cls-201" cx="655.93" cy="486.89" r="75.61"/><circle class="cls-202" cx="653.99" cy="485.78" r="75.79"/><circle class="cls-203" cx="652.05" cy="484.68" r="75.97"/><circle class="cls-204" cx="650.12" cy="483.57" r="76.15"/><circle class="cls-205" cx="648.18" cy="482.46" r="76.33"/><circle class="cls-206" cx="646.24" cy="481.35" r="76.51"/><circle class="cls-207" cx="644.3" cy="480.24" r="76.69"/><circle class="cls-208" cx="642.37" cy="479.13" r="76.87"/><circle class="cls-209" cx="640.43" cy="478.02" r="77.05"/><circle class="cls-210" cx="638.49" cy="476.91" r="77.23"/><circle class="cls-211" cx="636.55" cy="475.8" r="77.4"/><circle class="cls-212" cx="634.62" cy="474.69" r="77.58"/><circle class="cls-213" cx="632.68" cy="473.58" r="77.76"/><circle class="cls-214" cx="630.74" cy="472.47" r="77.94"/><circle class="cls-215" cx="628.8" cy="471.36" r="78.12"/><circle class="cls-216" cx="626.86" cy="470.26" r="78.3"/><circle class="cls-217" cx="624.93" cy="469.15" r="78.48"/><circle class="cls-218" cx="622.99" cy="468.04" r="78.66"/><circle class="cls-219" cx="621.05" cy="466.93" r="78.84"/><circle class="cls-220" cx="619.11" cy="465.82" r="79.02"/><circle class="cls-221" cx="617.18" cy="464.71" r="79.2"/><circle class="cls-222" cx="615.24" cy="463.6" r="79.37"/><circle class="cls-223" cx="613.3" cy="462.49" r="79.55"/><circle class="cls-224" cx="611.36" cy="461.38" r="79.73"/><circle class="cls-225" cx="609.43" cy="460.27" r="79.91"/><circle class="cls-226" cx="607.49" cy="459.16" r="80.09"/><circle class="cls-227" cx="605.55" cy="458.05" r="80.27"/><circle class="cls-228" cx="603.61" cy="456.95" r="80.45"/><circle class="cls-229" cx="601.68" cy="455.84" r="80.63"/><circle class="cls-230" cx="599.74" cy="454.73" r="80.81"/><circle class="cls-231" cx="597.8" cy="453.62" r="80.99"/><circle class="cls-232" cx="595.86" cy="452.51" r="81.17"/><circle class="cls-233" cx="593.93" cy="451.4" r="81.34"/><circle class="cls-234" cx="591.99" cy="450.29" r="81.52"/><circle class="cls-235" cx="590.05" cy="449.18" r="81.7"/><circle class="cls-236" cx="588.11" cy="448.07" r="81.88"/><circle class="cls-237" cx="586.18" cy="446.96" r="82.06"/><circle class="cls-238" cx="584.24" cy="445.85" r="82.24"/><circle class="cls-239" cx="582.3" cy="444.74" r="82.42"/><circle class="cls-240" cx="580.36" cy="443.63" r="82.6"/><circle class="cls-241" cx="578.43" cy="442.53" r="82.78"/><circle class="cls-242" cx="576.49" cy="441.42" r="82.96"/><circle class="cls-243" cx="574.55" cy="440.31" r="83.13"/><circle class="cls-244" cx="572.61" cy="439.2" r="83.31"/><circle class="cls-245" cx="570.67" cy="438.09" r="83.49"/><circle class="cls-246" cx="568.74" cy="436.98" r="83.67"/><circle class="cls-247" cx="566.8" cy="435.87" r="83.85"/><circle class="cls-248" cx="564.86" cy="434.76" r="84.03"/><circle class="cls-249" cx="562.92" cy="433.65" r="84.21"/><circle class="cls-250" cx="560.99" cy="432.54" r="84.39"/><circle class="cls-251" cx="559.05" cy="431.43" r="84.57"/><circle class="cls-252" cx="557.11" cy="430.32" r="84.75"/><circle class="cls-253" cx="555.17" cy="429.21" r="84.93"/><circle class="cls-254" cx="553.24" cy="428.11" r="85.1"/><circle class="cls-255" cx="551.3" cy="427" r="85.28"/><circle class="cls-256" cx="549.36" cy="425.89" r="85.46"/><circle class="cls-257" cx="547.42" cy="424.78" r="85.64"/><circle class="cls-258" cx="545.49" cy="423.67" r="85.82"/><circle class="cls-259" cx="543.55" cy="422.56" r="86"/><circle class="cls-260" cx="541.61" cy="421.45" r="86.18"/><circle class="cls-261" cx="539.67" cy="420.34" r="86.36"/><circle class="cls-262" cx="537.74" cy="419.23" r="86.54"/><circle class="cls-263" cx="535.8" cy="418.12" r="86.72"/><circle class="cls-264" cx="533.86" cy="417.01" r="86.9"/><circle class="cls-265" cx="531.92" cy="415.9" r="87.07"/><circle class="cls-266" cx="529.99" cy="414.8" r="87.25"/><circle class="cls-267" cx="528.05" cy="413.69" r="87.43"/><circle class="cls-268" cx="526.11" cy="412.58" r="87.61"/><circle class="cls-269" cx="524.17" cy="411.47" r="87.79"/><circle class="cls-270" cx="522.23" cy="410.36" r="87.97"/><circle class="cls-271" cx="520.3" cy="409.25" r="88.15"/><circle class="cls-272" cx="518.36" cy="408.14" r="88.33"/><circle class="cls-273" cx="516.42" cy="407.03" r="88.51"/><circle class="cls-274" cx="514.48" cy="405.92" r="88.69"/><circle class="cls-275" cx="512.55" cy="404.81" r="88.86"/><circle class="cls-276" cx="510.61" cy="403.7" r="89.04"/><circle class="cls-277" cx="508.67" cy="402.59" r="89.22"/><circle class="cls-278" cx="506.73" cy="401.48" r="89.4"/><circle class="cls-279" cx="504.8" cy="400.38" r="89.58"/><circle class="cls-280" cx="502.86" cy="399.27" r="89.76"/><circle class="cls-281" cx="500.92" cy="398.16" r="89.94"/><circle class="cls-282" cx="498.98" cy="397.05" r="90.12"/><circle class="cls-283" cx="497.05" cy="395.94" r="90.3"/><circle class="cls-284" cx="495.11" cy="394.83" r="90.48"/><circle class="cls-285" cx="493.17" cy="393.72" r="90.66"/><circle class="cls-286" cx="491.23" cy="392.61" r="90.83"/><circle class="cls-287" cx="489.3" cy="391.5" r="91.01"/><circle class="cls-288" cx="487.36" cy="390.39" r="91.19"/><circle class="cls-289" cx="485.42" cy="389.28" r="91.37"/><circle class="cls-290" cx="483.48" cy="388.17" r="91.55"/><circle class="cls-291" cx="481.55" cy="387.06" r="91.73"/><circle class="cls-292" cx="479.61" cy="385.96" r="91.91"/><circle class="cls-293" cx="477.67" cy="384.85" r="92.09"/><circle class="cls-294" cx="475.73" cy="383.74" r="92.27"/><circle class="cls-295" cx="473.79" cy="382.63" r="92.45"/><circle class="cls-296" cx="471.86" cy="381.52" r="92.63"/><circle class="cls-297" cx="469.92" cy="380.41" r="92.8"/><circle class="cls-298" cx="467.98" cy="379.3" r="92.98"/><circle class="cls-299" cx="466.04" cy="378.19" r="93.16"/><circle class="cls-300" cx="464.11" cy="377.08" r="93.34"/><circle class="cls-301" cx="462.17" cy="375.97" r="93.52"/><circle class="cls-302" cx="460.23" cy="374.86" r="93.7"/><circle class="cls-303" cx="458.29" cy="373.75" r="93.88"/><circle class="cls-304" cx="456.36" cy="372.65" r="94.06"/><circle class="cls-305" cx="454.42" cy="371.54" r="94.24"/><circle class="cls-306" cx="452.48" cy="370.43" r="94.42"/><circle class="cls-307" cx="450.54" cy="369.32" r="94.59"/><circle class="cls-308" cx="448.61" cy="368.21" r="94.77"/><circle class="cls-309" cx="446.67" cy="367.1" r="94.95"/><circle class="cls-310" cx="444.73" cy="365.99" r="95.13"/><circle class="cls-311" cx="442.79" cy="364.88" r="95.31"/><circle class="cls-312" cx="440.86" cy="363.77" r="95.49"/><circle class="cls-313" cx="438.92" cy="362.66" r="95.67"/><circle class="cls-314" cx="436.98" cy="361.55" r="95.85"/><circle class="cls-315" cx="435.04" cy="360.44" r="96.03"/><circle class="cls-316" cx="433.11" cy="359.33" r="96.21"/><circle class="cls-317" cx="431.17" cy="358.23" r="96.39"/><circle class="cls-318" cx="429.23" cy="357.12" r="96.56"/><circle class="cls-319" cx="427.29" cy="356.01" r="96.74"/><circle class="cls-320" cx="425.36" cy="354.9" r="96.92"/><circle class="cls-321" cx="423.42" cy="353.79" r="97.1"/><circle class="cls-322" cx="421.48" cy="352.68" r="97.28"/><circle class="cls-323" cx="419.54" cy="351.57" r="97.46"/><circle class="cls-324" cx="417.6" cy="350.46" r="97.64"/><circle class="cls-325" cx="415.67" cy="349.35" r="97.82"/><circle class="cls-326" cx="413.73" cy="348.24" r="98"/><circle class="cls-327" cx="411.79" cy="347.13" r="98.18"/><circle class="cls-328" cx="409.85" cy="346.02" r="98.36"/><circle class="cls-329" cx="407.92" cy="344.91" r="98.53"/><circle class="cls-330" cx="405.98" cy="343.81" r="98.71"/><circle class="cls-331" cx="404.04" cy="342.7" r="98.89"/><circle class="cls-332" cx="402.1" cy="341.59" r="99.07"/><circle class="cls-333" cx="400.17" cy="340.48" r="99.25"/><circle class="cls-334" cx="398.23" cy="339.37" r="99.43"/><circle class="cls-335" cx="396.29" cy="338.26" r="99.61"/><circle class="cls-336" cx="394.35" cy="337.15" r="99.79"/><text class="cls-337" transform="translate(246.56 789.95)">NICK</text><text class="cls-338" transform="translate(394.41 838.9)">Gradients a<tspan class="cls-339" x="126.28" y="0">r</tspan><tspan class="cls-340" x="133.9" y="0">e ruling the world</tspan></text><text class="cls-341" transform="translate(799.89 1451.57)">2020</text></g></svg>