<svg xmlns="http://www.w3.org/2000/svg" viewBox="0 0 1080 1488.93">
    <defs>
        <style>
            .prefix__cls-164 {
                fill: #ff5c72
            }
        </style>
    </defs>
    <path fill="#e2e2e2" d="M0 0h1080v1488.93H0z" id="prefix__Layer_1" data-name="Layer 1" />
    <g id="prefix__Layer_2" data-name="Layer 2">
        <circle cx="773" cy="1074.4" r="85.97" fill="#7bd3ff" />
        <circle cx="772.79" cy="1069.99" r="86.47" fill="#7cd2fe" />
        <circle cx="772.51" cy="1065.61" r="86.97" fill="#7dd1fd" />
        <circle cx="772.17" cy="1061.27" r="87.47" fill="#7ed0fc" />
        <circle cx="771.76" cy="1056.95" r="87.97" fill="#7fcffc" />
        <circle cx="771.29" cy="1052.67" r="88.47" fill="#80cefb" />
        <circle cx="770.76" cy="1048.41" r="88.97" fill="#81cdfa" />
        <circle cx="770.16" cy="1044.19" r="89.47" fill="#82ccf9" />
        <circle cx="769.5" cy="1039.99" r="89.97" fill="#83cbf8" />
        <circle cx="768.78" cy="1035.83" r="90.47" fill="#84caf7" />
        <circle cx="768" cy="1031.7" r="90.97" fill="#85c9f7" />
        <circle cx="767.15" cy="1027.59" r="91.47" fill="#86c8f6" />
        <circle cx="766.25" cy="1023.52" r="91.97" fill="#87c7f5" />
        <circle cx="765.28" cy="1019.48" r="92.47" fill="#88c6f4" />
        <circle cx="764.25" cy="1015.47" r="92.97" fill="#89c5f3" />
        <circle cx="763.17" cy="1011.49" r="93.47" fill="#8ac4f2" />
        <circle cx="762.02" cy="1007.54" r="93.97" fill="#8bc3f2" />
        <circle cx="760.82" cy="1003.62" r="94.47" fill="#8cc2f1" />
        <circle cx="759.56" cy="999.74" r="94.97" fill="#8dc1f0" />
        <circle cx="758.24" cy="995.88" r="95.47" fill="#8ec0ef" />
        <circle cx="756.87" cy="992.05" r="95.97" fill="#8fbfee" />
        <circle cx="755.44" cy="988.25" r="96.47" fill="#90beed" />
        <circle cx="753.95" cy="984.49" r="96.97" fill="#91bdec" />
        <circle cx="752.4" cy="980.75" r="97.47" fill="#92bdec" />
        <circle cx="750.8" cy="977.04" r="97.97" fill="#93bceb" />
        <circle cx="749.15" cy="973.37" r="98.47" fill="#94bbea" />
        <circle cx="747.44" cy="969.72" r="98.97" fill="#95bae9" />
        <circle cx="745.68" cy="966.11" r="99.47" fill="#96b9e8" />
        <circle cx="743.87" cy="962.53" r="99.97" fill="#97b8e7" />
        <circle cx="742" cy="958.97" r="100.47" fill="#98b7e7" />
        <circle cx="740.08" cy="955.45" r="100.97" fill="#99b6e6" />
        <circle cx="738.11" cy="951.96" r="101.47" fill="#9ab5e5" />
        <circle cx="736.09" cy="948.49" r="101.97" fill="#9bb4e4" />
        <circle cx="734.02" cy="945.06" r="102.47" fill="#9cb3e3" />
        <circle cx="731.89" cy="941.66" r="102.97" fill="#9db2e2" />
        <circle cx="729.72" cy="938.28" r="103.47" fill="#9eb1e2" />
        <circle cx="727.5" cy="934.94" r="103.97" fill="#9fb0e1" />
        <circle cx="725.22" cy="931.63" r="104.47" fill="#a0afe0" />
        <circle cx="722.9" cy="928.35" r="104.97" fill="#a1aedf" />
        <circle cx="720.53" cy="925.1" r="105.47" fill="#a2adde" />
        <circle cx="718.12" cy="921.88" r="105.97" fill="#a3acdd" />
        <circle cx="715.66" cy="918.69" r="106.48" fill="#a4abdd" />
        <circle cx="713.15" cy="915.52" r="106.98" fill="#a5aadc" />
        <circle cx="710.59" cy="912.39" r="107.48" fill="#a6a9db" />
        <circle cx="707.99" cy="909.29" r="107.98" fill="#a7a8da" />
        <circle cx="705.34" cy="906.22" r="108.48" fill="#a8a7d9" />
        <circle cx="702.65" cy="903.18" r="108.98" fill="#a9a6d8" />
        <circle cx="699.92" cy="900.17" r="109.48" fill="#aaa5d7" />
        <circle cx="697.14" cy="897.19" r="109.98" fill="#aba4d7" />
        <circle cx="694.32" cy="894.24" r="110.48" fill="#aca3d6" />
        <circle cx="691.45" cy="891.32" r="110.98" fill="#ada2d5" />
        <circle cx="688.54" cy="888.43" r="111.48" fill="#aea1d4" />
        <circle cx="685.59" cy="885.57" r="111.98" fill="#afa0d3" />
        <circle cx="682.6" cy="882.74" r="112.48" fill="#b09fd2" />
        <circle cx="679.57" cy="879.94" r="112.98" fill="#b19ed2" />
        <circle cx="676.5" cy="877.17" r="113.48" fill="#b29dd1" />
        <circle cx="673.39" cy="874.43" r="113.98" fill="#b39cd0" />
        <circle cx="670.24" cy="871.72" r="114.48" fill="#b49bcf" />
        <circle cx="667.05" cy="869.04" r="114.98" fill="#b59ace" />
        <circle cx="663.82" cy="866.39" r="115.48" fill="#b699cd" />
        <circle cx="660.55" cy="863.77" r="115.98" fill="#b798cd" />
        <circle cx="657.25" cy="861.17" r="116.48" fill="#b897cc" />
        <circle cx="653.91" cy="858.61" r="116.98" fill="#b996cb" />
        <circle cx="650.53" cy="856.08" r="117.48" fill="#ba95ca" />
        <circle cx="647.12" cy="853.58" r="117.98" fill="#bb94c9" />
        <circle cx="643.67" cy="851.11" r="118.48" fill="#bc93c8" />
        <circle cx="640.18" cy="848.67" r="118.98" fill="#bd93c8" />
        <circle cx="636.66" cy="846.25" r="119.48" fill="#be92c7" />
        <circle cx="633.11" cy="843.87" r="119.98" fill="#bf91c6" />
        <circle cx="629.52" cy="841.52" r="120.48" fill="#c090c5" />
        <circle cx="625.9" cy="839.2" r="120.98" fill="#c18fc4" />
        <circle cx="622.25" cy="836.9" r="121.48" fill="#c28ec3" />
        <circle cx="618.56" cy="834.64" r="121.98" fill="#c38dc2" />
        <circle cx="614.84" cy="832.41" r="122.48" fill="#c48cc2" />
        <circle cx="611.1" cy="830.2" r="122.98" fill="#c58bc1" />
        <circle cx="607.32" cy="828.03" r="123.48" fill="#c68ac0" />
        <circle cx="603.51" cy="825.88" r="123.98" fill="#c789bf" />
        <circle cx="599.66" cy="823.77" r="124.48" fill="#c888be" />
        <circle cx="595.8" cy="821.68" r="124.98" fill="#c987bd" />
        <circle cx="591.9" cy="819.63" r="125.48" fill="#ca86bd" />
        <circle cx="587.97" cy="817.6" r="125.98" fill="#cb85bc" />
        <circle cx="584.01" cy="815.6" r="126.48" fill="#cc84bb" />
        <circle cx="580.03" cy="813.64" r="126.98" fill="#cd83ba" />
        <circle cx="576.02" cy="811.7" r="127.48" fill="#ce82b9" />
        <circle cx="571.98" cy="809.79" r="127.98" fill="#cf81b8" />
        <circle cx="567.92" cy="807.91" r="128.48" fill="#d080b8" />
        <circle cx="563.83" cy="806.06" r="128.98" fill="#d17fb7" />
        <circle cx="559.72" cy="804.24" r="129.48" fill="#d27eb6" />
        <circle cx="555.58" cy="802.45" r="129.98" fill="#d37db5" />
        <circle cx="551.42" cy="800.69" r="130.48" fill="#d47cb4" />
        <circle cx="547.23" cy="798.96" r="130.98" fill="#d57bb3" />
        <circle cx="543.02" cy="797.26" r="131.48" fill="#d67ab2" />
        <circle cx="538.79" cy="795.59" r="131.98" fill="#d779b2" />
        <circle cx="534.54" cy="793.94" r="132.48" fill="#d878b1" />
        <circle cx="530.26" cy="792.33" r="132.98" fill="#d977b0" />
        <circle cx="525.96" cy="790.74" r="133.48" fill="#da76af" />
        <circle cx="521.64" cy="789.19" r="133.98" fill="#db75ae" />
        <circle cx="517.3" cy="787.66" r="134.48" fill="#dc74ad" />
        <circle cx="512.94" cy="786.17" r="134.98" fill="#dd73ad" />
        <circle cx="508.56" cy="784.7" r="135.48" fill="#de72ac" />
        <circle cx="504.17" cy="783.26" r="135.98" fill="#df71ab" />
        <circle cx="499.75" cy="781.85" r="136.48" fill="#e070aa" />
        <circle cx="495.31" cy="780.48" r="136.98" fill="#e16fa9" />
        <circle cx="490.86" cy="779.13" r="137.48" fill="#e26ea8" />
        <circle cx="486.39" cy="777.8" r="137.98" fill="#e36da8" />
        <circle cx="481.91" cy="776.51" r="138.48" fill="#e46ca7" />
        <circle cx="477.4" cy="775.25" r="138.98" fill="#e56ba6" />
        <circle cx="472.89" cy="774.02" r="139.48" fill="#e66aa5" />
        <circle cx="468.35" cy="772.81" r="139.98" fill="#e769a4" />
        <circle cx="463.81" cy="771.64" r="140.48" fill="#e868a3" />
        <circle cx="459.24" cy="770.49" r="140.98" fill="#e968a3" />
        <circle cx="454.67" cy="769.38" r="141.48" fill="#ea67a2" />
        <circle cx="450.08" cy="768.29" r="141.98" fill="#eb66a1" />
        <circle cx="445.48" cy="767.23" r="142.48" fill="#ec65a0" />
        <circle cx="440.86" cy="766.2" r="142.98" fill="#ed649f" />
        <circle cx="436.23" cy="765.2" r="143.48" fill="#ee639e" />
        <circle cx="431.6" cy="764.23" r="143.98" fill="#ef629d" />
        <circle cx="426.95" cy="763.29" r="144.48" fill="#f0619d" />
        <circle cx="422.29" cy="762.38" r="144.98" fill="#f1609c" />
        <circle cx="417.62" cy="761.49" r="145.48" fill="#f25f9b" />
        <circle cx="412.94" cy="760.64" r="145.98" fill="#f35e9a" />
        <circle cx="408.25" cy="759.81" r="146.48" fill="#f45d99" />
        <circle cx="403.56" cy="759.02" r="146.98" fill="#f55c98" />
        <circle cx="398.85" cy="758.25" r="147.48" fill="#f65b98" />
        <circle cx="394.14" cy="757.51" r="147.98" fill="#f75a97" />
        <circle cx="389.42" cy="756.8" r="148.48" fill="#f85996" />
        <circle cx="384.69" cy="756.12" r="148.98" fill="#f95895" />
        <circle cx="379.96" cy="755.47" r="149.48" fill="#fa5794" />
        <circle cx="375.22" cy="754.84" r="149.98" fill="#fb5693" />
        <circle cx="370.48" cy="754.25" r="150.48" fill="#fc5593" />
        <circle cx="365.73" cy="753.68" r="150.98" fill="#fd5492" />
        <circle cx="360.98" cy="753.15" r="151.48" fill="#fe5391" />
        <circle cx="356.22" cy="752.64" r="151.98" fill="#ff5290" />
        <circle cx="361.48" cy="748.36" r="150.69" fill="#ff528f" />
        <circle cx="366.73" cy="744.08" r="149.39" fill="#ff538e" />
        <circle cx="371.98" cy="739.79" r="148.09" fill="#ff538d" />
        <circle cx="377.24" cy="735.51" r="146.8" fill="#ff538c" />
        <circle cx="382.49" cy="731.23" r="145.5" fill="#ff548b" />
        <circle cx="387.74" cy="726.95" r="144.2" fill="#ff548a" />
        <circle cx="393" cy="722.67" r="142.91" fill="#ff5489" />
        <circle cx="398.25" cy="718.39" r="141.61" fill="#f58" />
        <circle cx="403.5" cy="714.11" r="140.31" fill="#ff5587" />
        <circle cx="408.76" cy="709.83" r="139.02" fill="#ff5586" />
        <circle cx="414.01" cy="705.54" r="137.72" fill="#ff5585" />
        <circle cx="419.26" cy="701.26" r="136.42" fill="#ff5684" />
        <circle cx="424.52" cy="696.98" r="135.13" fill="#ff5683" />
        <circle cx="429.77" cy="692.7" r="133.83" fill="#ff5682" />
        <circle cx="435.02" cy="688.42" r="132.53" fill="#ff5781" />
        <circle cx="440.28" cy="684.14" r="131.24" fill="#ff5780" />
        <circle cx="445.53" cy="679.86" r="129.94" fill="#ff577f" />
        <circle cx="450.78" cy="675.58" r="128.64" fill="#ff587e" />
        <circle cx="456.04" cy="671.3" r="127.35" fill="#ff587d" />
        <circle cx="461.29" cy="667.01" r="126.05" fill="#ff587c" />
        <circle cx="466.54" cy="662.73" r="124.75" fill="#ff597b" />
        <circle cx="471.8" cy="658.45" r="123.46" fill="#ff597a" />
        <circle cx="477.05" cy="654.17" r="122.16" fill="#ff5979" />
        <circle cx="482.31" cy="649.89" r="120.86" fill="#ff5a78" />
        <circle cx="487.56" cy="645.61" r="119.57" fill="#ff5a77" />
        <circle cx="492.81" cy="641.33" r="118.27" fill="#ff5a76" />
        <circle cx="498.07" cy="637.05" r="116.97" fill="#ff5b75" />
        <circle cx="503.32" cy="632.76" r="115.68" fill="#ff5b74" />
        <circle cx="508.57" cy="628.48" r="114.38" fill="#ff5b73" />
        <circle class="prefix__cls-164" cx="513.83" cy="624.2" r="113.08" />
        <circle class="prefix__cls-164" cx="519.08" cy="619.92" r="111.79" />
        <circle cx="524.33" cy="615.64" r="110.49" fill="#ff5c71" />
        <circle cx="529.59" cy="611.36" r="109.19" fill="#ff5c70" />
        <circle cx="534.84" cy="607.08" r="107.9" fill="#ff5d6f" />
        <circle cx="540.09" cy="602.8" r="106.6" fill="#ff5d6e" />
        <circle cx="545.35" cy="598.52" r="105.3" fill="#ff5d6d" />
        <circle cx="550.6" cy="594.23" r="104.01" fill="#ff5e6c" />
        <circle cx="555.85" cy="589.95" r="102.71" fill="#ff5e6b" />
        <circle cx="561.11" cy="585.67" r="101.41" fill="#ff5e6a" />
        <circle cx="566.36" cy="581.39" r="100.12" fill="#ff5f69" />
        <circle cx="571.61" cy="577.11" r="98.82" fill="#ff5f68" />
        <circle cx="576.87" cy="572.83" r="97.52" fill="#ff5f67" />
        <circle cx="582.12" cy="568.55" r="96.23" fill="#ff6066" />
        <circle cx="587.37" cy="564.27" r="94.93" fill="#ff6065" />
        <circle cx="592.63" cy="559.99" r="93.63" fill="#ff6064" />
        <circle cx="597.88" cy="555.7" r="92.34" fill="#ff6163" />
        <circle cx="603.13" cy="551.42" r="91.04" fill="#ff6162" />
        <circle cx="608.39" cy="547.14" r="89.74" fill="#ff6161" />
        <circle cx="613.64" cy="542.86" r="88.45" fill="#ff6260" />
        <circle cx="618.9" cy="538.58" r="87.15" fill="#ff625f" />
        <circle cx="624.15" cy="534.3" r="85.85" fill="#ff625e" />
        <circle cx="629.4" cy="530.02" r="84.56" fill="#ff625d" />
        <circle cx="634.66" cy="525.74" r="83.26" fill="#ff635c" />
        <circle cx="639.91" cy="521.45" r="81.96" fill="#ff635b" />
        <circle cx="645.16" cy="517.17" r="80.67" fill="#ff635a" />
        <circle cx="650.42" cy="512.89" r="79.37" fill="#ff6459" />
        <circle cx="655.67" cy="508.61" r="78.07" fill="#ff6458" />
        <circle cx="660.92" cy="504.33" r="76.77" fill="#ff6457" />
        <circle cx="666.18" cy="500.05" r="75.48" fill="#ff6556" />
        <circle cx="671.43" cy="495.77" r="74.18" fill="#ff6555" />
        <circle cx="669.49" cy="494.66" r="74.36" fill="#f65" />
        <circle cx="667.55" cy="493.55" r="74.54" fill="#ff6756" />
        <circle cx="665.62" cy="492.44" r="74.72" fill="#ff6856" />
        <circle cx="663.68" cy="491.33" r="74.9" fill="#ff6957" />
        <circle cx="661.74" cy="490.22" r="75.08" fill="#ff6a57" />
        <circle cx="659.8" cy="489.11" r="75.26" fill="#ff6b58" />
        <circle cx="657.87" cy="488" r="75.44" fill="#ff6c58" />
        <circle cx="655.93" cy="486.89" r="75.61" fill="#ff6d58" />
        <circle cx="653.99" cy="485.78" r="75.79" fill="#ff6e59" />
        <circle cx="652.05" cy="484.68" r="75.97" fill="#ff6f59" />
        <circle cx="650.12" cy="483.57" r="76.15" fill="#ff705a" />
        <circle cx="648.18" cy="482.46" r="76.33" fill="#ff715a" />
        <circle cx="646.24" cy="481.35" r="76.51" fill="#ff725b" />
        <circle cx="644.3" cy="480.24" r="76.69" fill="#ff735b" />
        <circle cx="642.37" cy="479.13" r="76.87" fill="#ff745b" />
        <circle cx="640.43" cy="478.02" r="77.05" fill="#ff755c" />
        <circle cx="638.49" cy="476.91" r="77.23" fill="#ff765c" />
        <circle cx="636.55" cy="475.8" r="77.4" fill="#ff775d" />
        <circle cx="634.62" cy="474.69" r="77.58" fill="#ff785d" />
        <circle cx="632.68" cy="473.58" r="77.76" fill="#ff795e" />
        <circle cx="630.74" cy="472.47" r="77.94" fill="#ff7a5e" />
        <circle cx="628.8" cy="471.36" r="78.12" fill="#ff7b5e" />
        <circle cx="626.86" cy="470.26" r="78.3" fill="#ff7c5f" />
        <circle cx="624.93" cy="469.15" r="78.48" fill="#ff7d5f" />
        <circle cx="622.99" cy="468.04" r="78.66" fill="#ff7e60" />
        <circle cx="621.05" cy="466.93" r="78.84" fill="#ff7f60" />
        <circle cx="619.11" cy="465.82" r="79.02" fill="#ff8061" />
        <circle cx="617.18" cy="464.71" r="79.2" fill="#ff8161" />
        <circle cx="615.24" cy="463.6" r="79.37" fill="#ff8261" />
        <circle cx="613.3" cy="462.49" r="79.55" fill="#ff8362" />
        <circle cx="611.36" cy="461.38" r="79.73" fill="#ff8462" />
        <circle cx="609.43" cy="460.27" r="79.91" fill="#ff8563" />
        <circle cx="607.49" cy="459.16" r="80.09" fill="#ff8663" />
        <circle cx="605.55" cy="458.05" r="80.27" fill="#ff8764" />
        <circle cx="603.61" cy="456.95" r="80.45" fill="#ff8864" />
        <circle cx="601.68" cy="455.84" r="80.63" fill="#ff8964" />
        <circle cx="599.74" cy="454.73" r="80.81" fill="#ff8a65" />
        <circle cx="597.8" cy="453.62" r="80.99" fill="#ff8b65" />
        <circle cx="595.86" cy="452.51" r="81.17" fill="#ff8c66" />
        <circle cx="593.93" cy="451.4" r="81.34" fill="#ff8d66" />
        <circle cx="591.99" cy="450.29" r="81.52" fill="#ff8e66" />
        <circle cx="590.05" cy="449.18" r="81.7" fill="#ff8f67" />
        <circle cx="588.11" cy="448.07" r="81.88" fill="#ff9067" />
        <circle cx="586.18" cy="446.96" r="82.06" fill="#ff9168" />
        <circle cx="584.24" cy="445.85" r="82.24" fill="#ff9268" />
        <circle cx="582.3" cy="444.74" r="82.42" fill="#ff9369" />
        <circle cx="580.36" cy="443.63" r="82.6" fill="#ff9469" />
        <circle cx="578.43" cy="442.53" r="82.78" fill="#ff9569" />
        <circle cx="576.49" cy="441.42" r="82.96" fill="#ff966a" />
        <circle cx="574.55" cy="440.31" r="83.13" fill="#ff976a" />
        <circle cx="572.61" cy="439.2" r="83.31" fill="#ff986b" />
        <circle cx="570.67" cy="438.09" r="83.49" fill="#ff996b" />
        <circle cx="568.74" cy="436.98" r="83.67" fill="#ff9a6c" />
        <circle cx="566.8" cy="435.87" r="83.85" fill="#ff9b6c" />
        <circle cx="564.86" cy="434.76" r="84.03" fill="#ff9c6c" />
        <circle cx="562.92" cy="433.65" r="84.21" fill="#ff9d6d" />
        <circle cx="560.99" cy="432.54" r="84.39" fill="#ff9e6d" />
        <circle cx="559.05" cy="431.43" r="84.57" fill="#ff9f6e" />
        <circle cx="557.11" cy="430.32" r="84.75" fill="#ffa06e" />
        <circle cx="555.17" cy="429.21" r="84.93" fill="#ffa16f" />
        <circle cx="553.24" cy="428.11" r="85.1" fill="#ffa26f" />
        <circle cx="551.3" cy="427" r="85.28" fill="#ffa36f" />
        <circle cx="549.36" cy="425.89" r="85.46" fill="#ffa470" />
        <circle cx="547.42" cy="424.78" r="85.64" fill="#ffa570" />
        <circle cx="545.49" cy="423.67" r="85.82" fill="#ffa671" />
        <circle cx="543.55" cy="422.56" r="86" fill="#ffa771" />
        <circle cx="541.61" cy="421.45" r="86.18" fill="#ffa872" />
        <circle cx="539.67" cy="420.34" r="86.36" fill="#ffa972" />
        <circle cx="537.74" cy="419.23" r="86.54" fill="#ffaa72" />
        <circle cx="535.8" cy="418.12" r="86.72" fill="#ffab73" />
        <circle cx="533.86" cy="417.01" r="86.9" fill="#ffac73" />
        <circle cx="531.92" cy="415.9" r="87.07" fill="#ffad74" />
        <circle cx="529.99" cy="414.8" r="87.25" fill="#ffae74" />
        <circle cx="528.05" cy="413.69" r="87.43" fill="#ffaf75" />
        <circle cx="526.11" cy="412.58" r="87.61" fill="#ffb075" />
        <circle cx="524.17" cy="411.47" r="87.79" fill="#ffb175" />
        <circle cx="522.23" cy="410.36" r="87.97" fill="#ffb276" />
        <circle cx="520.3" cy="409.25" r="88.15" fill="#ffb376" />
        <circle cx="518.36" cy="408.14" r="88.33" fill="#ffb477" />
        <circle cx="516.42" cy="407.03" r="88.51" fill="#ffb577" />
        <circle cx="514.48" cy="405.92" r="88.69" fill="#ffb678" />
        <circle cx="512.55" cy="404.81" r="88.86" fill="#ffb778" />
        <circle cx="510.61" cy="403.7" r="89.04" fill="#ffb878" />
        <circle cx="508.67" cy="402.59" r="89.22" fill="#ffb979" />
        <circle cx="506.73" cy="401.48" r="89.4" fill="#ffba79" />
        <circle cx="504.8" cy="400.38" r="89.58" fill="#ffbb7a" />
        <circle cx="502.86" cy="399.27" r="89.76" fill="#ffbc7a" />
        <circle cx="500.92" cy="398.16" r="89.94" fill="#ffbd7b" />
        <circle cx="498.98" cy="397.05" r="90.12" fill="#ffbe7b" />
        <circle cx="497.05" cy="395.94" r="90.3" fill="#ffbf7b" />
        <circle cx="495.11" cy="394.83" r="90.48" fill="#ffc07c" />
        <circle cx="493.17" cy="393.72" r="90.66" fill="#ffc17c" />
        <circle cx="491.23" cy="392.61" r="90.83" fill="#ffc27d" />
        <circle cx="489.3" cy="391.5" r="91.01" fill="#ffc37d" />
        <circle cx="487.36" cy="390.39" r="91.19" fill="#ffc47e" />
        <circle cx="485.42" cy="389.28" r="91.37" fill="#ffc57e" />
        <circle cx="483.48" cy="388.17" r="91.55" fill="#ffc67e" />
        <circle cx="481.55" cy="387.06" r="91.73" fill="#ffc77f" />
        <circle cx="479.61" cy="385.96" r="91.91" fill="#ffc87f" />
        <circle cx="477.67" cy="384.85" r="92.09" fill="#ffc980" />
        <circle cx="475.73" cy="383.74" r="92.27" fill="#ffca80" />
        <circle cx="473.79" cy="382.63" r="92.45" fill="#ffcb81" />
        <circle cx="471.86" cy="381.52" r="92.63" fill="#ffcc81" />
        <circle cx="469.92" cy="380.41" r="92.8" fill="#ffcd81" />
        <circle cx="467.98" cy="379.3" r="92.98" fill="#ffce82" />
        <circle cx="466.04" cy="378.19" r="93.16" fill="#ffcf82" />
        <circle cx="464.11" cy="377.08" r="93.34" fill="#ffd083" />
        <circle cx="462.17" cy="375.97" r="93.52" fill="#ffd183" />
        <circle cx="460.23" cy="374.86" r="93.7" fill="#ffd283" />
        <circle cx="458.29" cy="373.75" r="93.88" fill="#ffd384" />
        <circle cx="456.36" cy="372.65" r="94.06" fill="#ffd484" />
        <circle cx="454.42" cy="371.54" r="94.24" fill="#ffd585" />
        <circle cx="452.48" cy="370.43" r="94.42" fill="#ffd685" />
        <circle cx="450.54" cy="369.32" r="94.59" fill="#ffd786" />
        <circle cx="448.61" cy="368.21" r="94.77" fill="#ffd886" />
        <circle cx="446.67" cy="367.1" r="94.95" fill="#ffd986" />
        <circle cx="444.73" cy="365.99" r="95.13" fill="#ffda87" />
        <circle cx="442.79" cy="364.88" r="95.31" fill="#ffdb87" />
        <circle cx="440.86" cy="363.77" r="95.49" fill="#ffdc88" />
        <circle cx="438.92" cy="362.66" r="95.67" fill="#fd8" />
        <circle cx="436.98" cy="361.55" r="95.85" fill="#ffde89" />
        <circle cx="435.04" cy="360.44" r="96.03" fill="#ffdf89" />
        <circle cx="433.11" cy="359.33" r="96.21" fill="#ffe089" />
        <circle cx="431.17" cy="358.23" r="96.39" fill="#ffe18a" />
        <circle cx="429.23" cy="357.12" r="96.56" fill="#ffe28a" />
        <circle cx="427.29" cy="356.01" r="96.74" fill="#ffe38b" />
        <circle cx="425.36" cy="354.9" r="96.92" fill="#ffe48b" />
        <circle cx="423.42" cy="353.79" r="97.1" fill="#ffe58c" />
        <circle cx="421.48" cy="352.68" r="97.28" fill="#ffe68c" />
        <circle cx="419.54" cy="351.57" r="97.46" fill="#ffe78c" />
        <circle cx="417.6" cy="350.46" r="97.64" fill="#ffe88d" />
        <circle cx="415.67" cy="349.35" r="97.82" fill="#ffe98d" />
        <circle cx="413.73" cy="348.24" r="98" fill="#ffea8e" />
        <circle cx="411.79" cy="347.13" r="98.18" fill="#ffeb8e" />
        <circle cx="409.85" cy="346.02" r="98.36" fill="#ffec8f" />
        <circle cx="407.92" cy="344.91" r="98.53" fill="#ffed8f" />
        <circle cx="405.98" cy="343.81" r="98.71" fill="#ffee8f" />
        <circle cx="404.04" cy="342.7" r="98.89" fill="#ffef90" />
        <circle cx="402.1" cy="341.59" r="99.07" fill="#fff090" />
        <circle cx="400.17" cy="340.48" r="99.25" fill="#fff191" />
        <circle cx="398.23" cy="339.37" r="99.43" fill="#fff291" />
        <circle cx="396.29" cy="338.26" r="99.61" fill="#fff392" />
        <circle cx="394.35" cy="337.15" r="99.79" fill="#fff492" /><text transform="translate(246.56 789.95)"
            font-weight="700" fill="#fff" font-size="240.09" font-family="Helvetica-Bold,Helvetica">NICK</text><text
            transform="translate(394.41 838.9)" font-size="24.17" font-family="Helvetica-Light,Helvetica"
            font-weight="300" fill="#fff">Gradients a<tspan x="126.28" y="0" letter-spacing="-.02em">r</tspan>
            <tspan x="133.9" y="0" letter-spacing="0">e ruling the world</tspan>
        </text><text transform="translate(799.89 1451.57)" font-size="124.74" fill="#353131"
            font-family="RobotoCondensed-Bold,Roboto Condensed" font-weight="700">2020</text>
    </g>
</svg>