<svg id="Layer_1" data-name="Layer 1" xmlns="http://www.w3.org/2000/svg" viewBox="0 0 800 800"><defs><style>.cls-1{fill:#fff;}.cls-2,.cls-3{fill:none;stroke:#000;stroke-linecap:round;stroke-linejoin:round;stroke-width:3px;}.cls-3{fill-rule:evenodd;}.cls-4{font-size:40.05px;font-family:Nunito-Bold, Nunito;font-weight:700;letter-spacing:0.16em;}.cls-5{letter-spacing:0.17em;}.cls-6{letter-spacing:0.17em;}</style></defs><rect class="cls-1" width="800" height="800"/><line class="cls-2" x1="227.5" y1="375.5" x2="565" y2="374.67"/><path class="cls-2" d="M207,391.17c6.7,0,6.7,4,13.39,4s6.7-4,13.39-4,6.7,4,13.39,4,6.7-4,13.39-4,6.7,4,13.39,4,6.7-4,13.4-4,6.69,4,13.39,4,6.7-4,13.39-4,6.7,4,13.39,4,6.7-4,13.39-4,6.7,4,13.4,4,6.69-4,13.39-4,6.69,4,13.38,4,6.7-4,13.39-4,6.7,4,13.4,4,6.69-4,13.39-4,6.69,4,13.39,4,6.7-4,13.39-4,6.7,4,13.4,4,6.69-4,13.39-4,6.7,4,13.39,4,6.7-4,13.4-4,6.69,4,13.39,4,6.7-4,13.39-4,6.7,4,13.4,4,6.7-4,13.39-4,6.71,4,13.41,4,6.7-4,13.4-4"/><path class="cls-2" d="M207,410.42c6.7,0,6.7,4,13.39,4s6.7-4,13.39-4,6.7,4,13.39,4,6.7-4,13.39-4,6.7,4,13.39,4,6.7-4,13.4-4,6.69,4,13.39,4,6.7-4,13.39-4,6.7,4,13.39,4,6.7-4,13.39-4,6.7,4,13.4,4,6.69-4,13.39-4,6.69,4,13.38,4,6.7-4,13.39-4,6.7,4,13.4,4,6.69-4,13.39-4,6.69,4,13.39,4,6.7-4,13.39-4,6.7,4,13.4,4,6.69-4,13.39-4,6.7,4,13.39,4,6.7-4,13.4-4,6.69,4,13.39,4,6.7-4,13.39-4,6.7,4,13.4,4,6.7-4,13.39-4,6.71,4,13.41,4,6.7-4,13.4-4"/><path class="cls-2" d="M207,429.67c6.7,0,6.7,4,13.39,4s6.7-4,13.39-4,6.7,4,13.39,4,6.7-4,13.39-4,6.7,4,13.39,4,6.7-4,13.4-4,6.69,4,13.39,4,6.7-4,13.39-4,6.7,4,13.39,4,6.7-4,13.39-4,6.7,4,13.4,4,6.69-4,13.39-4,6.69,4,13.38,4,6.7-4,13.39-4,6.7,4,13.4,4,6.69-4,13.39-4,6.69,4,13.39,4,6.7-4,13.39-4,6.7,4,13.4,4,6.69-4,13.39-4,6.7,4,13.39,4,6.7-4,13.4-4,6.69,4,13.39,4,6.7-4,13.39-4,6.7,4,13.4,4,6.7-4,13.39-4,6.71,4,13.41,4,6.7-4,13.4-4"/><path class="cls-2" d="M207,448.92c6.7,0,6.7,4,13.39,4s6.7-4,13.39-4,6.7,4,13.39,4,6.7-4,13.39-4,6.7,4,13.39,4,6.7-4,13.4-4,6.69,4,13.39,4,6.7-4,13.39-4,6.7,4,13.39,4,6.7-4,13.39-4,6.7,4,13.4,4,6.69-4,13.39-4,6.69,4,13.38,4,6.7-4,13.39-4,6.7,4,13.4,4,6.69-4,13.39-4,6.69,4,13.39,4,6.7-4,13.39-4,6.7,4,13.4,4,6.69-4,13.39-4,6.7,4,13.39,4,6.7-4,13.4-4,6.69,4,13.39,4,6.7-4,13.39-4,6.7,4,13.4,4,6.7-4,13.39-4,6.71,4,13.41,4,6.7-4,13.4-4"/><path class="cls-2" d="M207,468.17c6.7,0,6.7,4,13.39,4s6.7-4,13.39-4,6.7,4,13.39,4,6.7-4,13.39-4,6.7,4,13.39,4,6.7-4,13.4-4,6.69,4,13.39,4,6.7-4,13.39-4,6.7,4,13.39,4,6.7-4,13.39-4,6.7,4,13.4,4,6.69-4,13.39-4,6.69,4,13.38,4,6.7-4,13.39-4,6.7,4,13.4,4,6.69-4,13.39-4,6.69,4,13.39,4,6.7-4,13.39-4,6.7,4,13.4,4,6.69-4,13.39-4,6.7,4,13.39,4,6.7-4,13.4-4,6.69,4,13.39,4,6.7-4,13.39-4,6.7,4,13.4,4,6.7-4,13.39-4,6.71,4,13.41,4,6.7-4,13.4-4"/><line class="cls-2" x1="395.08" y1="244.5" x2="322.38" y2="374.67"/><line class="cls-2" x1="463.45" y1="366.94" x2="467.77" y2="374.67"/><line class="cls-2" x1="395.08" y1="244.5" x2="463.45" y2="366.94"/><line class="cls-2" x1="307.17" y1="264.79" x2="245.81" y2="374.67"/><line class="cls-2" x1="307.17" y1="264.79" x2="345.46" y2="333.35"/><line class="cls-2" x1="483.58" y1="264.79" x2="544.94" y2="374.67"/><line class="cls-2" x1="483.58" y1="264.79" x2="445.29" y2="333.35"/><polyline class="cls-2" points="373.1 285.76 380.42 287.76 387.75 285.76 395.07 287.76 402.4 285.76 409.73 287.76 417.05 285.76"/><line class="cls-2" x1="253.07" y1="361.15" x2="276.74" y2="361.15"/><line class="cls-2" x1="259.11" y1="350.52" x2="282.78" y2="350.52"/><line class="cls-2" x1="265.15" y1="339.89" x2="288.82" y2="339.89"/><line class="cls-2" x1="271.19" y1="329.27" x2="294.85" y2="329.27"/><line class="cls-2" x1="277.22" y1="318.64" x2="300.89" y2="318.64"/><line class="cls-2" x1="283.26" y1="308.02" x2="306.93" y2="308.02"/><line class="cls-2" x1="289.3" y1="297.39" x2="312.97" y2="297.39"/><line class="cls-2" x1="295.34" y1="286.76" x2="319" y2="286.76"/><line class="cls-2" x1="537.08" y1="361.15" x2="513.41" y2="361.15"/><line class="cls-2" x1="531.04" y1="350.52" x2="507.38" y2="350.52"/><line class="cls-2" x1="525.01" y1="339.89" x2="501.34" y2="339.89"/><line class="cls-2" x1="518.97" y1="329.27" x2="495.3" y2="329.27"/><line class="cls-2" x1="512.93" y1="318.64" x2="489.26" y2="318.64"/><line class="cls-2" x1="506.89" y1="308.02" x2="483.23" y2="308.02"/><line class="cls-2" x1="500.86" y1="297.39" x2="477.19" y2="297.39"/><line class="cls-2" x1="494.82" y1="286.76" x2="471.15" y2="286.76"/><path class="cls-2" d="M316,280.64A12.68,12.68,0,0,1,338.75,284a13.28,13.28,0,0,1,3.92-.58,13.53,13.53,0,0,1,13.53,13.53H325.11"/><path class="cls-2" d="M404.59,258.66A12.67,12.67,0,0,1,427.31,262a13.73,13.73,0,0,1,3.93-.57,13.52,13.52,0,0,1,13.52,13.52H413.67"/><path class="cls-2" d="M522.92,333a12.68,12.68,0,0,1,22.73,3.32,13.66,13.66,0,0,1,3.92-.57,13.52,13.52,0,0,1,13.53,13.52H532"/><path class="cls-2" d="M473.47,279a12.67,12.67,0,0,0-22.72,3.32,13.53,13.53,0,0,0-17.45,13h31.09"/><path class="cls-2" d="M284.14,306a12.68,12.68,0,0,0-22.73,3.32,13.66,13.66,0,0,0-3.92-.57A13.52,13.52,0,0,0,244,322.26h31.09"/><line class="cls-2" x1="395.08" y1="298.6" x2="395.08" y2="374.67"/><path class="cls-2" d="M395.08,298.6A16.89,16.89,0,0,0,412,315.5"/><path class="cls-2" d="M395.08,310.43A16.9,16.9,0,0,0,412,327.34"/><path class="cls-2" d="M395.08,322.26A16.89,16.89,0,0,0,412,339.17"/><path class="cls-2" d="M395.08,334.1A16.89,16.89,0,0,0,412,351"/><path class="cls-2" d="M395.08,298.6a16.89,16.89,0,0,1-16.91,16.9"/><path class="cls-2" d="M395.08,310.43a16.9,16.9,0,0,1-16.91,16.91"/><path class="cls-2" d="M395.08,322.26a16.9,16.9,0,0,1-16.91,16.91"/><path class="cls-2" d="M395.08,334.1A16.89,16.89,0,0,1,378.17,351"/><line class="cls-2" x1="429.08" y1="326.6" x2="429.5" y2="374.5"/><path class="cls-2" d="M429.08,326.6A16.89,16.89,0,0,0,446,343.5"/><path class="cls-2" d="M429.08,338.43A16.9,16.9,0,0,0,446,355.34"/><path class="cls-2" d="M429.08,350.26A16.89,16.89,0,0,0,446,367.17"/><path class="cls-2" d="M429.08,326.6a16.89,16.89,0,0,1-16.91,16.9"/><path class="cls-2" d="M429.08,338.43a16.9,16.9,0,0,1-16.91,16.91"/><path class="cls-2" d="M429.08,350.26a16.9,16.9,0,0,1-16.91,16.91"/><line class="cls-2" x1="361.08" y1="326.6" x2="361.5" y2="374.5"/><path class="cls-2" d="M361.08,326.6A16.89,16.89,0,0,0,378,343.5"/><path class="cls-2" d="M361.08,338.43A16.9,16.9,0,0,0,378,355.34"/><path class="cls-2" d="M361.08,350.26A16.89,16.89,0,0,0,378,367.17"/><path class="cls-2" d="M361.08,326.6a16.89,16.89,0,0,1-16.91,16.9"/><path class="cls-2" d="M361.08,338.43a16.9,16.9,0,0,1-16.91,16.91"/><path class="cls-2" d="M361.08,350.26a16.9,16.9,0,0,1-16.91,16.91"/><line class="cls-2" x1="309.08" y1="326.6" x2="309.5" y2="374.5"/><path class="cls-2" d="M309.08,326.6A16.89,16.89,0,0,0,326,343.5"/><path class="cls-2" d="M309.08,338.43A16.9,16.9,0,0,0,326,355.34"/><path class="cls-2" d="M309.08,350.26A16.89,16.89,0,0,0,326,367.17"/><path class="cls-2" d="M309.08,326.6a16.89,16.89,0,0,1-16.91,16.9"/><path class="cls-2" d="M309.08,338.43a16.9,16.9,0,0,1-16.91,16.91"/><path class="cls-2" d="M309.08,350.26a16.9,16.9,0,0,1-16.91,16.91"/><line class="cls-2" x1="479.08" y1="326.6" x2="479.5" y2="374.5"/><path class="cls-2" d="M479.08,326.6A16.89,16.89,0,0,0,496,343.5"/><path class="cls-2" d="M479.08,338.43A16.9,16.9,0,0,0,496,355.34"/><path class="cls-2" d="M479.08,350.26A16.89,16.89,0,0,0,496,367.17"/><path class="cls-2" d="M479.08,326.6a16.89,16.89,0,0,1-16.91,16.9"/><path class="cls-2" d="M479.08,338.43a16.9,16.9,0,0,1-16.91,16.91"/><path class="cls-2" d="M467.62,366.27a16.79,16.79,0,0,1-4,.84"/><path class="cls-2" d="M469.77,365.37a16.25,16.25,0,0,1-2.15.9"/><path class="cls-2" d="M479.08,350.26a16.89,16.89,0,0,1-9.31,15.11"/><line class="cls-2" x1="582" y1="375.33" x2="436.32" y2="375.33"/><line class="cls-2" x1="581.25" y1="357.35" x2="573.93" y2="357.96"/><line class="cls-2" x1="579.04" y1="339.72" x2="572.91" y2="340.75"/><line class="cls-2" x1="575.41" y1="322.56" x2="564.66" y2="325.3"/><line class="cls-2" x1="570.43" y1="305.92" x2="557.94" y2="310.24"/><line class="cls-2" x1="564.14" y1="289.9" x2="550.03" y2="296.13"/><line class="cls-2" x1="556.59" y1="274.57" x2="541.06" y2="283.04"/><line class="cls-2" x1="547.83" y1="260" x2="531.14" y2="271.02"/><line class="cls-2" x1="537.9" y1="246.26" x2="520.42" y2="260.07"/><line class="cls-2" x1="526.84" y1="233.43" x2="509" y2="250.21"/><line class="cls-2" x1="514.68" y1="221.59" x2="496.97" y2="241.46"/><line class="cls-2" x1="501.46" y1="210.84" x2="484.42" y2="233.83"/><line class="cls-2" x1="487.24" y1="201.28" x2="471.44" y2="227.29"/><line class="cls-2" x1="472.06" y1="193.01" x2="458.08" y2="221.87"/><line class="cls-2" x1="456" y1="186.17" x2="444.4" y2="217.55"/><line class="cls-2" x1="439.15" y1="180.87" x2="430.43" y2="214.34"/><line class="cls-2" x1="421.65" y1="177.25" x2="416.23" y2="212.22"/><line class="cls-2" x1="403.64" y1="175.39" x2="401.79" y2="211.24"/><line class="cls-2" x1="387.21" y1="211.4" x2="385.36" y2="175.39"/><line class="cls-2" x1="372.84" y1="212.69" x2="367.35" y2="177.25"/><line class="cls-2" x1="358.76" y1="215.09" x2="349.85" y2="180.87"/><line class="cls-2" x1="344.98" y1="218.58" x2="333" y2="186.17"/><line class="cls-2" x1="331.53" y1="223.13" x2="316.94" y2="193.01"/><line class="cls-2" x1="318.44" y1="228.75" x2="301.76" y2="201.28"/><line class="cls-2" x1="305.76" y1="235.42" x2="287.54" y2="210.84"/><line class="cls-2" x1="293.54" y1="243.16" x2="274.32" y2="221.59"/><line class="cls-2" x1="281.85" y1="251.95" x2="262.16" y2="233.43"/><line class="cls-2" x1="270.77" y1="261.8" x2="251.1" y2="246.26"/><line class="cls-2" x1="260.38" y1="272.68" x2="241.17" y2="260"/><line class="cls-2" x1="250.79" y1="284.59" x2="232.41" y2="274.57"/><line class="cls-2" x1="242.11" y1="297.52" x2="224.86" y2="289.9"/><line class="cls-2" x1="234.46" y1="311.41" x2="218.57" y2="305.92"/><line class="cls-2" x1="227.97" y1="326.23" x2="213.59" y2="322.56"/><line class="cls-2" x1="222.77" y1="341.87" x2="209.96" y2="339.72"/><line class="cls-2" x1="218.99" y1="358.29" x2="207.75" y2="357.35"/><line class="cls-2" x1="207" y1="375.33" x2="352.68" y2="375.33"/><path class="cls-3" d="M557.21,338C535.14,271,471.53,222.5,396.5,222.5c-88.41,0-161,67.28-168.38,153"/><path class="cls-3" d="M564.8,374.69a165.86,165.86,0,0,0-4.32-25.38"/><rect class="cls-2" x="205.8" y="490.5" width="375" height="45"/><text class="cls-4" transform="translate(237.23 527.99)">C<tspan class="cls-5" x="33.65" y="0">ALI</tspan><tspan class="cls-6" x="117.88" y="0">F</tspan><tspan class="cls-5" x="147.16" y="0">ORNIA</tspan></text></svg>