<svg id="Layer_1" data-name="Layer 1" xmlns="http://www.w3.org/2000/svg" viewBox="0 0 3000 3000"><defs><style>.cls-1{fill:#222831;}.cls-2,.cls-3,.cls-4,.cls-5{fill:none;stroke-linecap:round;stroke-linejoin:round;stroke-width:15px;}.cls-2{stroke:#f47c7c;}.cls-3{stroke:#f7f48b;}.cls-4{stroke:#70a1d7;}.cls-5{stroke:#a1de93;}</style></defs><rect class="cls-1" width="3000" height="3000"/><path class="cls-2" d="M697.27,1141.78q-5.71,4.6-11.69,8.89"/><path class="cls-2" d="M756.38,1141.78a288.57,288.57,0,0,1-70.8,57.3"/><path class="cls-2" d="M808.71,1141.78A329.35,329.35,0,0,1,685.58,1245.2"/><path class="cls-2" d="M844.09,1162.46A370.11,370.11,0,0,1,685.58,1290"/><path class="cls-2" d="M844.09,1227.2a410.19,410.19,0,0,1-158.51,106.63"/><path class="cls-2" d="M844.09,1284.53a450.08,450.08,0,0,1-158.51,92.57"/><path class="cls-2" d="M685.58,1419.91a489.93,489.93,0,0,0,158.51-82.2"/><path class="cls-2" d="M844.09,1388.24a529.7,529.7,0,0,1-158.51,74.16"/><path class="cls-2" d="M685.58,1504.65A569.49,569.49,0,0,0,844.09,1437"/><path class="cls-2" d="M844.09,1484.4a609.89,609.89,0,0,1-158.51,62.28"/><path class="cls-3" d="M1168.43,1141.78q-3.47,11.31-7.33,22.46"/><path class="cls-2" d="M844.09,1530.8a649.77,649.77,0,0,1-158.51,57.75"/><path class="cls-3" d="M1161.1,1267.63A690.23,690.23,0,0,0,1211,1141.78"/><path class="cls-2" d="M685.58,1630.28a689.55,689.55,0,0,0,158.51-53.84"/><path class="cls-3" d="M1161.1,1349a731.68,731.68,0,0,0,92.24-207.17"/><path class="cls-2" d="M921.82,1580.73a731.09,731.09,0,0,1-236.24,91.18"/><path class="cls-3" d="M1161.1,1419.87a773.5,773.5,0,0,0,134.41-278.09"/><path class="cls-2" d="M995.87,1580.73a772.69,772.69,0,0,1-310.29,132.72"/><path class="cls-3" d="M1161.1,1484.57a816.39,816.39,0,0,0,158.52-279.64"/><path class="cls-2" d="M1062.66,1580.73a816.26,816.26,0,0,1-242.1,138.19"/><path class="cls-3" d="M1161.1,1545a860.12,860.12,0,0,0,158.52-229.92"/><path class="cls-2" d="M1105.83,1597.6a859.55,859.55,0,0,1-181.62,121.32"/><path class="cls-2" d="M1105.83,1650.79a901.45,901.45,0,0,1-97.14,68.13"/><path class="cls-4" d="M1421.26,1141.78c-.81,3.7-1.63,7.4-2.49,11.08"/><path class="cls-3" d="M1161.1,1602.49a903,903,0,0,0,158.52-199.86"/><path class="cls-2" d="M1083.11,1718.92q11.49-8.09,22.72-16.49"/><path class="cls-4" d="M1463,1141.78a932,932,0,0,1-44.18,149.13"/><path class="cls-3" d="M1161.1,1657.64a944.92,944.92,0,0,0,158.52-178.7"/><path class="cls-3" d="M1161.1,1711a986.91,986.91,0,0,0,158.52-162.65"/><path class="cls-4" d="M1504.58,1141.78A973.4,973.4,0,0,1,1418.77,1391"/><path class="cls-4" d="M1418.77,1475.37a1014.69,1014.69,0,0,0,126.63-329.7"/><path class="cls-3" d="M1215,1718.92A1026.89,1026.89,0,0,0,1319.62,1613"/><path class="cls-4" d="M1418.77,1550.74a1056.63,1056.63,0,0,0,159.52-363.41"/><path class="cls-3" d="M1275.46,1718.92q22.72-21.66,44.16-44.64"/><path class="cls-4" d="M1610.37,1228a1098.83,1098.83,0,0,1-191.6,392.21"/><path class="cls-4" d="M1418.77,1685.31a1144.65,1144.65,0,0,0,158.52-247"/><path class="cls-4" d="M1641.77,1267.73a1135.52,1135.52,0,0,1-63.57,168.63"/><path class="cls-4" d="M1443.75,1718.92a1187.32,1187.32,0,0,0,133.54-191.59"/><path class="cls-4" d="M1672.59,1306.78a1177.26,1177.26,0,0,1-66,164.7"/><path class="cls-4" d="M1496.79,1718.92a1230.65,1230.65,0,0,0,80.5-112.08"/><path class="cls-4" d="M1702.93,1345.21a1219.36,1219.36,0,0,1-68.17,161.14"/><path class="cls-4" d="M1732.84,1383.09a1257.27,1257.27,0,0,1-70.1,157.89"/><path class="cls-4" d="M1774,1246.27q12.35-51.46,20.45-104.49"/><path class="cls-4" d="M1548.68,1718.92q14.67-19.15,28.61-38.89"/><path class="cls-4" d="M1835.68,1141.78A1298.12,1298.12,0,0,1,1774,1389.2"/><path class="cls-4" d="M1690.55,1575.4a1300.18,1300.18,0,0,0,71.82-154.9"/><path class="cls-4" d="M1876.91,1141.78a1338.83,1338.83,0,0,1-158.69,467.86"/><path class="cls-4" d="M1745.75,1643.72a1379.52,1379.52,0,0,0,172.36-501.94"/><path class="cls-4" d="M1932.51,1285.11a1420.5,1420.5,0,0,1-159.34,392.54"/><path class="cls-4" d="M1800.48,1711.45a1463.34,1463.34,0,0,0,132-281.07"/><path class="cls-5" d="M2041.58,1141.78q-4.23,33.27-9.9,66.09"/><path class="cls-4" d="M1843.56,1718.92a1504.79,1504.79,0,0,0,89-175.34"/><path class="cls-4" d="M1890.75,1718.92q21.95-38.4,41.76-78.14"/><path class="cls-5" d="M2082.67,1141.78a1543.66,1543.66,0,0,1-51,246.3"/><path class="cls-5" d="M2031.68,1516a1582.17,1582.17,0,0,0,92.08-374.19"/><path class="cls-5" d="M2164.85,1141.78a1622.33,1622.33,0,0,1-133.17,480.4"/><path class="cls-5" d="M2031.68,1715.84a1662.82,1662.82,0,0,0,174.25-574.06"/><path class="cls-5" d="M2247,1141.78q-7.78,70-21.12,138.19"/><path class="cls-5" d="M2075.88,1718.92a1702.49,1702.49,0,0,0,132-357.66"/><path class="cls-5" d="M2249.91,1361.26q-15.66,65.19-36.08,128.43"/><path class="cls-5" d="M2288,1141.78q-7.61,69.95-20.6,138.19"/><path class="cls-5" d="M2121.41,1718.92A1743.86,1743.86,0,0,0,2190.19,1558"/><path class="cls-5" d="M2166.69,1718.92q32.05-67.59,58.58-138.19"/><path class="cls-5" d="M2329,1141.78q-7.43,69.93-20.14,138.19"/><path class="cls-5" d="M2291.84,1361.26q-15.27,65.16-35.2,128.43"/><path class="cls-5" d="M2211.73,1718.92q31.23-67.67,57.07-138.19"/><path class="cls-5" d="M2333.73,1361.26q-14.89,65.13-34.36,128.43"/><path class="cls-5" d="M2370.06,1141.78q-7.26,69.9-19.68,138.19"/><path class="cls-5" d="M2342,1489.69q19-63.3,33.52-128.43"/><path class="cls-5" d="M2256.58,1718.92q30.43-67.71,55.58-138.19"/><path class="cls-5" d="M2411.09,1141.78q-7.1,69.88-19.25,138.19"/><path class="cls-5" d="M2301.23,1718.92q29.68-67.76,54.19-138.19"/><path class="cls-5" d="M2399.92,1434.11q-7.27,28-15.37,55.58"/><path class="cls-5" d="M2398.58,1580.73q-23.89,70.33-52.92,138.19"/><path class="cls-5" d="M2389.94,1718.92q28.29-67.86,51.66-138.19"/><path class="cls-5" d="M2443,1696.66q-4.39,11.17-8.91,22.26"/></svg>