<svg id="prefix__Layer_1" data-name="Layer 1" xmlns="http://www.w3.org/2000/svg" viewBox="0 0 800 800">
    <defs>
        <style>
            .prefix__cls-2,
            .prefix__cls-3 {
                fill: none;
                stroke: #000;
                stroke-linecap: round;
                stroke-linejoin: round;
                stroke-width: 3px
            }

            .prefix__cls-3 {
                fill-rule: evenodd
            }

            .prefix__cls-5 {
                letter-spacing: .17em
            }
        </style>
    </defs>
    <path fill="#fff" d="M0 0h800v800H0z" />
    <path class="prefix__cls-2"
        d="M227.5 375.5l337.5-.83M207 391.17c6.7 0 6.7 4 13.39 4s6.7-4 13.39-4 6.7 4 13.39 4 6.7-4 13.39-4 6.7 4 13.39 4 6.7-4 13.4-4 6.69 4 13.39 4 6.7-4 13.39-4 6.7 4 13.39 4 6.7-4 13.39-4 6.7 4 13.4 4 6.69-4 13.39-4 6.69 4 13.38 4 6.7-4 13.39-4 6.7 4 13.4 4 6.69-4 13.39-4 6.69 4 13.39 4 6.7-4 13.39-4 6.7 4 13.4 4 6.69-4 13.39-4 6.7 4 13.39 4 6.7-4 13.4-4 6.69 4 13.39 4 6.7-4 13.39-4 6.7 4 13.4 4 6.7-4 13.39-4 6.71 4 13.41 4 6.7-4 13.4-4M207 410.42c6.7 0 6.7 4 13.39 4s6.7-4 13.39-4 6.7 4 13.39 4 6.7-4 13.39-4 6.7 4 13.39 4 6.7-4 13.4-4 6.69 4 13.39 4 6.7-4 13.39-4 6.7 4 13.39 4 6.7-4 13.39-4 6.7 4 13.4 4 6.69-4 13.39-4 6.69 4 13.38 4 6.7-4 13.39-4 6.7 4 13.4 4 6.69-4 13.39-4 6.69 4 13.39 4 6.7-4 13.39-4 6.7 4 13.4 4 6.69-4 13.39-4 6.7 4 13.39 4 6.7-4 13.4-4 6.69 4 13.39 4 6.7-4 13.39-4 6.7 4 13.4 4 6.7-4 13.39-4 6.71 4 13.41 4 6.7-4 13.4-4M207 429.67c6.7 0 6.7 4 13.39 4s6.7-4 13.39-4 6.7 4 13.39 4 6.7-4 13.39-4 6.7 4 13.39 4 6.7-4 13.4-4 6.69 4 13.39 4 6.7-4 13.39-4 6.7 4 13.39 4 6.7-4 13.39-4 6.7 4 13.4 4 6.69-4 13.39-4 6.69 4 13.38 4 6.7-4 13.39-4 6.7 4 13.4 4 6.69-4 13.39-4 6.69 4 13.39 4 6.7-4 13.39-4 6.7 4 13.4 4 6.69-4 13.39-4 6.7 4 13.39 4 6.7-4 13.4-4 6.69 4 13.39 4 6.7-4 13.39-4 6.7 4 13.4 4 6.7-4 13.39-4 6.71 4 13.41 4 6.7-4 13.4-4M207 448.92c6.7 0 6.7 4 13.39 4s6.7-4 13.39-4 6.7 4 13.39 4 6.7-4 13.39-4 6.7 4 13.39 4 6.7-4 13.4-4 6.69 4 13.39 4 6.7-4 13.39-4 6.7 4 13.39 4 6.7-4 13.39-4 6.7 4 13.4 4 6.69-4 13.39-4 6.69 4 13.38 4 6.7-4 13.39-4 6.7 4 13.4 4 6.69-4 13.39-4 6.69 4 13.39 4 6.7-4 13.39-4 6.7 4 13.4 4 6.69-4 13.39-4 6.7 4 13.39 4 6.7-4 13.4-4 6.69 4 13.39 4 6.7-4 13.39-4 6.7 4 13.4 4 6.7-4 13.39-4 6.71 4 13.41 4 6.7-4 13.4-4M207 468.17c6.7 0 6.7 4 13.39 4s6.7-4 13.39-4 6.7 4 13.39 4 6.7-4 13.39-4 6.7 4 13.39 4 6.7-4 13.4-4 6.69 4 13.39 4 6.7-4 13.39-4 6.7 4 13.39 4 6.7-4 13.39-4 6.7 4 13.4 4 6.69-4 13.39-4 6.69 4 13.38 4 6.7-4 13.39-4 6.7 4 13.4 4 6.69-4 13.39-4 6.69 4 13.39 4 6.7-4 13.39-4 6.7 4 13.4 4 6.69-4 13.39-4 6.7 4 13.39 4 6.7-4 13.4-4 6.69 4 13.39 4 6.7-4 13.39-4 6.7 4 13.4 4 6.7-4 13.39-4 6.71 4 13.41 4 6.7-4 13.4-4M395.08 244.5l-72.7 130.17M463.45 366.94l4.32 7.73M395.08 244.5l68.37 122.44M307.17 264.79l-61.36 109.88M307.17 264.79l38.29 68.56M483.58 264.79l61.36 109.88M483.58 264.79l-38.29 68.56M373.1 285.76l7.32 2 7.33-2 7.32 2 7.33-2 7.33 2 7.32-2M253.07 361.15h23.67M259.11 350.52h23.67M265.15 339.89h23.67M271.19 329.27h23.66M277.22 318.64h23.67M283.26 308.02h23.67M289.3 297.39h23.67M295.34 286.76H319M537.08 361.15h-23.67M531.04 350.52h-23.66M525.01 339.89h-23.67M518.97 329.27H495.3M512.93 318.64h-23.67M506.89 308.02h-23.66M500.86 297.39h-23.67M494.82 286.76h-23.67M316 280.64a12.68 12.68 0 0122.75 3.36 13.28 13.28 0 013.92-.58 13.53 13.53 0 0113.53 13.53h-31.09M404.59 258.66a12.67 12.67 0 0122.72 3.34 13.73 13.73 0 013.93-.57 13.52 13.52 0 0113.52 13.52h-31.09M522.92 333a12.68 12.68 0 0122.73 3.32 13.66 13.66 0 013.92-.57 13.52 13.52 0 0113.53 13.52H532M473.47 279a12.67 12.67 0 00-22.72 3.32 13.53 13.53 0 00-17.45 13h31.09M284.14 306a12.68 12.68 0 00-22.73 3.32 13.66 13.66 0 00-3.92-.57A13.52 13.52 0 00244 322.26h31.09M395.08 298.6v76.07M395.08 298.6A16.89 16.89 0 00412 315.5M395.08 310.43A16.9 16.9 0 00412 327.34M395.08 322.26A16.89 16.89 0 00412 339.17M395.08 334.1A16.89 16.89 0 00412 351M395.08 298.6a16.89 16.89 0 01-16.91 16.9M395.08 310.43a16.9 16.9 0 01-16.91 16.91M395.08 322.26a16.9 16.9 0 01-16.91 16.91M395.08 334.1a16.89 16.89 0 01-16.91 16.9M429.08 326.6l.42 47.9M429.08 326.6A16.89 16.89 0 00446 343.5M429.08 338.43A16.9 16.9 0 00446 355.34M429.08 350.26A16.89 16.89 0 00446 367.17M429.08 326.6a16.89 16.89 0 01-16.91 16.9M429.08 338.43a16.9 16.9 0 01-16.91 16.91M429.08 350.26a16.9 16.9 0 01-16.91 16.91M361.08 326.6l.42 47.9M361.08 326.6A16.89 16.89 0 00378 343.5M361.08 338.43A16.9 16.9 0 00378 355.34M361.08 350.26A16.89 16.89 0 00378 367.17M361.08 326.6a16.89 16.89 0 01-16.91 16.9M361.08 338.43a16.9 16.9 0 01-16.91 16.91M361.08 350.26a16.9 16.9 0 01-16.91 16.91M309.08 326.6l.42 47.9M309.08 326.6A16.89 16.89 0 00326 343.5M309.08 338.43A16.9 16.9 0 00326 355.34M309.08 350.26A16.89 16.89 0 00326 367.17M309.08 326.6a16.89 16.89 0 01-16.91 16.9M309.08 338.43a16.9 16.9 0 01-16.91 16.91M309.08 350.26a16.9 16.9 0 01-16.91 16.91M479.08 326.6l.42 47.9M479.08 326.6A16.89 16.89 0 00496 343.5M479.08 338.43A16.9 16.9 0 00496 355.34M479.08 350.26A16.89 16.89 0 00496 367.17M479.08 326.6a16.89 16.89 0 01-16.91 16.9M479.08 338.43a16.9 16.9 0 01-16.91 16.91M467.62 366.27a16.79 16.79 0 01-4 .84M469.77 365.37a16.25 16.25 0 01-2.15.9M479.08 350.26a16.89 16.89 0 01-9.31 15.11M582 375.33H436.32M581.25 357.35l-7.32.61M579.04 339.72l-6.13 1.03M575.41 322.56l-10.75 2.74M570.43 305.92l-12.49 4.32M564.14 289.9l-14.11 6.23M556.59 274.57l-15.53 8.47M547.83 260l-16.69 11.02M537.9 246.26l-17.48 13.81M526.84 233.43L509 250.21M514.68 221.59l-17.71 19.87M501.46 210.84l-17.04 22.99M487.24 201.28l-15.8 26.01M472.06 193.01l-13.98 28.86M456 186.17l-11.6 31.38M439.15 180.87l-8.72 33.47M421.65 177.25l-5.42 34.97M403.64 175.39l-1.85 35.85M387.21 211.4l-1.85-36.01M372.84 212.69l-5.49-35.44M358.76 215.09l-8.91-34.22M344.98 218.58L333 186.17M331.53 223.13l-14.59-30.12M318.44 228.75l-16.68-27.47M305.76 235.42l-18.22-24.58M293.54 243.16l-19.22-21.57M281.85 251.95l-19.69-18.52M270.77 261.8l-19.67-15.54M260.38 272.68L241.17 260M250.79 284.59l-18.38-10.02M242.11 297.52l-17.25-7.62M234.46 311.41l-15.89-5.49M227.97 326.23l-14.38-3.67M222.77 341.87l-12.81-2.15M218.99 358.29l-11.24-.94M207 375.33h145.68" />
    <path class="prefix__cls-3"
        d="M557.21 338c-22.07-67-85.68-115.5-160.71-115.5-88.41 0-161 67.28-168.38 153M564.8 374.69a165.86 165.86 0 00-4.32-25.38" />
    <path class="prefix__cls-2" d="M205.8 490.5h375v45h-375z" /><text transform="translate(237.23 527.99)"
        font-size="40.05" font-family="Nunito-Bold,Nunito" font-weight="700" letter-spacing=".16em">C<tspan
            class="prefix__cls-5" x="33.65" y="0">ALI</tspan>
        <tspan x="117.88" y="0" letter-spacing=".17em">F</tspan>
        <tspan class="prefix__cls-5" x="147.16" y="0">ORNIA</tspan>
    </text>
</svg>