<svg id="Layer_1" data-name="Layer 1" xmlns="http://www.w3.org/2000/svg" viewBox="0 0 841.89 595.28"><defs><style>.cls-1{fill:#c0e4d9;}.cls-1,.cls-2,.cls-3,.cls-4,.cls-5,.cls-6,.cls-7{stroke:#231f20;stroke-miterlimit:10;}.cls-2{fill:#d71873;}.cls-3{fill:#d2df4e;}.cls-4{fill:#ffcc56;}.cls-5{fill:#f7b3d0;}.cls-7{fill:#fff;}</style></defs><path class="cls-1" d="M841.48,0H839.3l2.18,1.78Z"/><path class="cls-1" d="M841.48,595.28V577.41q-11.68,9.52-24.12,17.87Z"/><path class="cls-1" d="M0,576.56v18.72H25.2C16.13,589.19,7.73,582.9,0,576.56Z"/><path class="cls-1" d="M0,0V1.94L2.4,0Z"/><path class="cls-2" d="M817.36,595.28q12.42-8.34,24.12-17.87V557.72a308.35,308.35,0,0,1-52.7,37.56Z"/><path class="cls-2" d="M2.4,0,0,1.94V21.65A316.8,316.8,0,0,1,27.31,0Z"/><path class="cls-2" d="M53.83,595.28A312.49,312.49,0,0,1,0,556.86v19.7c7.73,6.34,16.13,12.63,25.2,18.72Z"/><path class="cls-2" d="M841.48,1.78,839.3,0H814.37a312.73,312.73,0,0,1,27.11,21.49Z"/><path class="cls-3" d="M841.48,21.49A312.73,312.73,0,0,0,814.37,0H786.85a295.87,295.87,0,0,1,54.63,42Z"/><path class="cls-3" d="M788.78,595.28a308.35,308.35,0,0,0,52.7-37.56V537.31a293,293,0,0,1-86.27,58Z"/><path class="cls-3" d="M87.55,595.28A294.88,294.88,0,0,1,0,536.42v20.44a312.49,312.49,0,0,0,53.83,38.42Z"/><path class="cls-3" d="M27.31,0A316.8,316.8,0,0,0,0,21.65V42.1A299.2,299.2,0,0,1,54.84,0Z"/><path class="cls-4" d="M838.14,59.84c1.13,1.17,2.23,2.37,3.34,3.56V42A295.87,295.87,0,0,0,786.85,0h-32A280.1,280.1,0,0,1,838.14,59.84Z"/><path class="cls-4" d="M86.9,0H54.84A299.2,299.2,0,0,0,0,42.1V63.5q3.57-3.82,7.07-7.32A281,281,0,0,1,86.9,0Z"/><path class="cls-4" d="M710,595.28h45.22a293,293,0,0,0,86.27-58V515.9c-2.27,2.44-4.57,4.85-6.94,7.22A277.44,277.44,0,0,1,710,595.28Z"/><path class="cls-4" d="M133.79,595.28C75.82,580.39,34.1,549.4,6.94,522.2,4.57,519.83,2.27,517.42,0,515v21.43a294.88,294.88,0,0,0,87.55,58.86Z"/><path class="cls-5" d="M133.79,595.28H710a277.44,277.44,0,0,0,124.55-72.16c2.37-2.37,4.67-4.78,6.94-7.22V493.18q-8.25,10-17.54,19.33C774,562.44,707.4,590,636.28,590a271.87,271.87,0,0,1-35-2.37A272.36,272.36,0,0,1,566.18,590c-6.27,0-12.65-.23-19-.67-4.15.19-8.31.29-12.39.29a270.69,270.69,0,0,1-35.41-2.43,269.34,269.34,0,0,1-36,2.43c-5.42,0-10.94-.17-16.41-.51-2.76.08-5.55.13-8.31.13H394.62c-2.7,0-5.44-.05-8.18-.13-8.67.84-17.45,1.27-26.1,1.27A269.77,269.77,0,0,1,331,588.72c-8.56.82-17.2,1.23-25.71,1.23a276.28,276.28,0,0,1-37.78-2.7,333,333,0,0,1-35.76,1.94H206c-91.69,0-153.08-42.2-188.44-77.59Q8.25,502.3,0,492.25V515c2.27,2.43,4.57,4.84,6.94,7.21C34.1,549.4,75.82,580.39,133.79,595.28Z"/><path class="cls-5" d="M129.44,0H86.9A281,281,0,0,0,7.07,56.18Q3.58,59.68,0,63.5V86.24c5.93-7.19,11.89-13.67,17.67-19.45C42.06,42.4,78.85,14.77,129.44,0Z"/><path class="cls-5" d="M827.32,70.23q7.45,7.76,14.16,15.93V63.4c-1.11-1.19-2.21-2.39-3.34-3.56A280.1,280.1,0,0,0,754.87,0H712.94A263.46,263.46,0,0,1,827.32,70.23Z"/><path class="cls-1" d="M206,589.19h25.75a333,333,0,0,0,35.76-1.94,276.28,276.28,0,0,0,37.78,2.7c8.51,0,17.15-.41,25.71-1.23a269.77,269.77,0,0,0,29.35,1.61c8.65,0,17.43-.43,26.1-1.27,2.74.08,5.48.13,8.18.13h44.11c2.76,0,5.55-.05,8.31-.13,5.47.34,11,.51,16.41.51a269.34,269.34,0,0,0,36-2.43,270.69,270.69,0,0,0,35.41,2.43c4.08,0,8.24-.1,12.39-.29,6.31.44,12.69.67,19,.67a272.36,272.36,0,0,0,35.07-2.37,271.87,271.87,0,0,0,35,2.37c71.12,0,137.76-27.51,187.66-77.44q9.28-9.28,17.54-19.33V468.39a250.77,250.77,0,0,1-28.15,33.51C766.27,549,703.39,575,636.28,575a256.71,256.71,0,0,1-35-2.5,257.18,257.18,0,0,1-35.07,2.5c-6.21,0-12.53-.23-18.78-.7-4.21.21-8.43.32-12.57.32A254.74,254.74,0,0,1,499.41,572a253.38,253.38,0,0,1-36,2.58c-5.34,0-10.78-.18-16.18-.52-2.84.09-5.72.14-8.54.14H394.62c-2.85,0-5.77-.05-8.68-.15a254.2,254.2,0,0,1-54.84-.4,252.29,252.29,0,0,1-63.36-1.52,315,315,0,0,1-36,2.07H206c-86.55,0-144.48-39.81-177.83-73.19A248.74,248.74,0,0,1,0,467.43v24.82q8.25,10,17.55,19.35C52.91,547,114.3,589.19,206,589.19Z"/><path class="cls-1" d="M206,4.33h25.75a314.62,314.62,0,0,1,38.13,2.32,260.29,260.29,0,0,1,34.64-2.32h32a302.43,302.43,0,0,1,30.28,1.51,256.79,256.79,0,0,1,27.83-1.51h44.11a266.08,266.08,0,0,1,27.06,1.39,256,256,0,0,1,68,.22,246.56,246.56,0,0,1,67.48.14,257.77,257.77,0,0,1,34.24-2.39c69.06,0,133.33,27.32,181,76.93a259.23,259.23,0,0,1,25,30.27V86.16Q834.76,78,827.32,70.23A263.46,263.46,0,0,0,712.94,0H129.44C78.85,14.77,42.06,42.4,17.67,66.79,11.89,72.57,5.93,79.05,0,86.24V111A257.12,257.12,0,0,1,28.28,77.4C61.6,44.07,119.49,4.33,206,4.33Z"/><path class="cls-2" d="M206,574.19h25.75a315,315,0,0,0,36-2.07,252.29,252.29,0,0,0,63.36,1.52,254.2,254.2,0,0,0,54.84.4c2.91.1,5.83.15,8.68.15h44.11c2.82,0,5.7-.05,8.54-.14,5.4.34,10.84.52,16.18.52a253.38,253.38,0,0,0,36-2.58,254.74,254.74,0,0,0,35.42,2.58c4.14,0,8.36-.11,12.57-.32,6.25.47,12.57.7,18.78.7a257.18,257.18,0,0,0,35.07-2.5,256.71,256.71,0,0,0,35,2.5c67.11,0,130-26,177.05-73.05a250.77,250.77,0,0,0,28.15-33.51V440.25a234.73,234.73,0,0,1-38.75,51C758.49,535.56,699.38,560,636.28,560a241.83,241.83,0,0,1-35-2.66A242.16,242.16,0,0,1,566.18,560c-6.16,0-12.41-.24-18.6-.73-4.26.23-8.55.35-12.75.35a240.51,240.51,0,0,1-35.43-2.74,237.82,237.82,0,0,1-35.95,2.74c-5.27,0-10.63-.18-15.94-.54-2.93.1-5.88.16-8.78.16H394.62c-3,0-6.1-.06-9.18-.18a239.36,239.36,0,0,1-54.24-.46,242.17,242.17,0,0,1-25.92,1.4A245.33,245.33,0,0,1,268,557a299.58,299.58,0,0,1-36.25,2.2H206c-81.41,0-135.87-37.41-167.22-68.79A233.55,233.55,0,0,1,0,439.22v28.21A248.74,248.74,0,0,0,28.16,501C61.51,534.38,119.44,574.19,206,574.19Z"/><path class="cls-2" d="M206,19.33h25.75A296.62,296.62,0,0,1,270,21.79a243.09,243.09,0,0,1,34.55-2.46h32a289.15,289.15,0,0,1,30.34,1.59,243.64,243.64,0,0,1,27.77-1.59h44.11A248.2,248.2,0,0,1,466,20.83a241.14,241.14,0,0,1,67.78.25,232.4,232.4,0,0,1,67.51.15,242.07,242.07,0,0,1,34.24-2.54c64.94,0,125.37,25.68,170.17,72.32a239.26,239.26,0,0,1,35.79,47.91v-28a259.23,259.23,0,0,0-25-30.27C768.85,31,704.58,3.69,635.52,3.69a257.77,257.77,0,0,0-34.24,2.39,246.56,246.56,0,0,0-67.48-.14,256,256,0,0,0-68-.22,266.08,266.08,0,0,0-27.06-1.39H394.62a256.79,256.79,0,0,0-27.83,1.51,302.43,302.43,0,0,0-30.28-1.51h-32a260.29,260.29,0,0,0-34.64,2.32,314.62,314.62,0,0,0-38.13-2.32H206C119.49,4.33,61.6,44.07,28.28,77.4A257.12,257.12,0,0,0,0,111v28A238.44,238.44,0,0,1,38.88,88C70.21,56.68,124.63,19.33,206,19.33Z"/><path class="cls-3" d="M206,34.33h25.75a282.59,282.59,0,0,1,38.33,2.6,228.83,228.83,0,0,1,34.44-2.6h32A274.4,274.4,0,0,1,366.92,36a229.22,229.22,0,0,1,27.7-1.69h44.11A233.3,233.3,0,0,1,466.2,36a226.32,226.32,0,0,1,67.53.29,218.24,218.24,0,0,1,67.55.16,226.91,226.91,0,0,1,34.24-2.71c60.82,0,117.41,24.05,159.35,67.71a219.36,219.36,0,0,1,46.61,72.43V138.92A239.26,239.26,0,0,0,805.69,91c-44.8-46.64-105.23-72.32-170.17-72.32a242.07,242.07,0,0,0-34.24,2.54,232.4,232.4,0,0,0-67.51-.15A241.14,241.14,0,0,0,466,20.83a248.2,248.2,0,0,0-27.26-1.5H394.62a243.64,243.64,0,0,0-27.77,1.59,289.15,289.15,0,0,0-30.34-1.59h-32A243.09,243.09,0,0,0,270,21.79a296.62,296.62,0,0,0-38.22-2.46H206C124.63,19.33,70.21,56.68,38.88,88A238.44,238.44,0,0,0,0,139V173.9A219.16,219.16,0,0,1,49.49,98.62C78.81,69.29,129.76,34.33,206,34.33Z"/><path class="cls-3" d="M206,559.19h25.75A299.58,299.58,0,0,0,268,557a245.33,245.33,0,0,0,37.29,3,242.17,242.17,0,0,0,25.92-1.4,239.36,239.36,0,0,0,54.24.46c3.08.12,6.16.18,9.18.18h44.11c2.9,0,5.85-.06,8.78-.16,5.31.36,10.67.54,15.94.54a237.82,237.82,0,0,0,35.95-2.74,240.51,240.51,0,0,0,35.43,2.74c4.2,0,8.49-.12,12.75-.35,6.19.49,12.44.73,18.6.73a242.16,242.16,0,0,0,35.07-2.66,241.83,241.83,0,0,0,35,2.66c63.1,0,122.21-24.39,166.45-68.66a234.73,234.73,0,0,0,38.75-51V405.19a218.51,218.51,0,0,1-49.35,75.49C750.72,522.12,695.37,545,636.28,545a226,226,0,0,1-35-2.84A226.44,226.44,0,0,1,566.18,545c-6.1,0-12.29-.26-18.42-.76-4.31.25-8.66.38-12.93.38a225.57,225.57,0,0,1-35.45-2.92,223.85,223.85,0,0,1-35.93,2.92c-5.19,0-10.47-.19-15.7-.56-3,.12-6,.18-9,.18H394.62c-3.19,0-6.44-.07-9.68-.21a224.31,224.31,0,0,1-53.63-.54,227.18,227.18,0,0,1-26,1.51,229.81,229.81,0,0,1-37-3.11,284.2,284.2,0,0,1-36.51,2.35H206c-76.27,0-127.26-35-156.6-64.4A217.5,217.5,0,0,1,0,404v35.24A233.55,233.55,0,0,0,38.77,490.4C70.12,521.78,124.58,559.19,206,559.19Z"/><path class="cls-4" d="M206,544.19h25.75a284.2,284.2,0,0,0,36.51-2.35,229.81,229.81,0,0,0,37,3.11,227.18,227.18,0,0,0,26-1.51,224.31,224.31,0,0,0,53.63.54c3.24.14,6.49.21,9.68.21h44.11c3,0,6-.06,9-.18,5.23.37,10.51.56,15.7.56a223.85,223.85,0,0,0,35.93-2.92,225.57,225.57,0,0,0,35.45,2.92c4.27,0,8.62-.13,12.93-.38,6.13.5,12.32.76,18.42.76a226.44,226.44,0,0,0,35.07-2.84,226,226,0,0,0,35,2.84c59.09,0,114.44-22.83,155.85-64.27a218.51,218.51,0,0,0,49.35-75.49V324.5c0,55.23-21.29,106.93-60,145.57S691.36,530,636.28,530a211.16,211.16,0,0,1-35-3,211.54,211.54,0,0,1-35.07,3c-6,0-12.17-.27-18.24-.8-4.37.28-8.77.42-13.11.42a209.09,209.09,0,0,1-35.46-3.14,207.53,207.53,0,0,1-35.92,3.14c-5.11,0-10.31-.2-15.47-.58-3.08.13-6.19.2-9.25.2H394.62c-3.35,0-6.78-.09-10.19-.25a209.23,209.23,0,0,1-53-.62A212,212,0,0,1,305.28,530a214.79,214.79,0,0,1-36.76-3.28,269.14,269.14,0,0,1-36.78,2.52H206c-71.14,0-118.65-32.63-146-60C21.41,430.65.15,378.85.15,323.35V255.16c0-71.09,32.6-118.6,59.94-145.94S134.9,49.33,206,49.33h25.75a267,267,0,0,1,38.45,2.77,213.57,213.57,0,0,1,34.32-2.77h32a257.57,257.57,0,0,1,30.5,1.8,212.52,212.52,0,0,1,27.61-1.8h44.11a218.25,218.25,0,0,1,27.67,1.76,211.19,211.19,0,0,1,67.29.34,213.12,213.12,0,0,1,33.38-2.74,209.78,209.78,0,0,1,34.21,2.91,210.14,210.14,0,0,1,34.24-2.91c56.7,0,109.45,22.41,148.53,63.1,37.57,39.13,57.43,88.71,57.43,143.37V173.83a219.36,219.36,0,0,0-46.61-72.43c-41.94-43.66-98.53-67.71-159.35-67.71a226.91,226.91,0,0,0-34.24,2.71,218.24,218.24,0,0,0-67.55-.16A226.32,226.32,0,0,0,466.2,36a233.3,233.3,0,0,0-27.47-1.62H394.62A229.22,229.22,0,0,0,366.92,36a274.4,274.4,0,0,0-30.41-1.69h-32a228.83,228.83,0,0,0-34.44,2.6,282.59,282.59,0,0,0-38.33-2.6H206c-76.23,0-127.18,35-156.5,64.29A219.16,219.16,0,0,0,0,173.9V404a217.5,217.5,0,0,0,49.39,75.81C78.73,509.17,129.72,544.19,206,544.19Z"/><path class="cls-5" d="M635.52,48.69a210.14,210.14,0,0,0-34.24,2.91,209.78,209.78,0,0,0-34.21-2.91,213.12,213.12,0,0,0-33.38,2.74,211.19,211.19,0,0,0-67.29-.34,218.25,218.25,0,0,0-27.67-1.76H394.62A212.52,212.52,0,0,0,367,51.13a257.57,257.57,0,0,0-30.5-1.8h-32a213.57,213.57,0,0,0-34.32,2.77,267,267,0,0,0-38.45-2.77H206c-71.09,0-118.58,32.57-145.9,59.89S.15,184.07.15,255.16v68.19c0,55.5,21.26,107.3,59.85,145.84,27.34,27.37,74.85,60,146,60h25.75a269.14,269.14,0,0,0,36.78-2.52A214.79,214.79,0,0,0,305.28,530a212,212,0,0,0,26.14-1.63,209.23,209.23,0,0,0,53,.62c3.41.16,6.84.25,10.19.25h44.11c3.06,0,6.17-.07,9.25-.2,5.16.38,10.36.58,15.47.58a207.53,207.53,0,0,0,35.92-3.14,209.09,209.09,0,0,0,35.46,3.14c4.34,0,8.74-.14,13.11-.42,6.07.53,12.2.8,18.24.8a211.54,211.54,0,0,0,35.07-3,211.16,211.16,0,0,0,35,3c55.08,0,106.66-21.27,145.24-59.88s60-90.34,60-145.57V255.16c0-54.66-19.86-104.24-57.43-143.37C745,71.1,692.22,48.69,635.52,48.69Zm191,275.81c0,51.22-19.73,99.15-55.56,135S687.35,515,636.28,515a196.24,196.24,0,0,1-35-3.27A196.59,196.59,0,0,1,566.18,515c-6,0-12.06-.28-18.06-.84-4.43.3-8.89.46-13.29.46a195,195,0,0,1-35.48-3.38,192.43,192.43,0,0,1-35.9,3.38c-5,0-10.15-.21-15.22-.61-3.18.15-6.37.23-9.5.23H394.62c-3.53,0-7.12-.1-10.7-.3a194,194,0,0,1-52.39-.71,194,194,0,0,1-62.72-1.71,253.26,253.26,0,0,1-37.07,2.72H206c-66,0-110-30.24-135.38-55.6-35.76-35.72-55.46-83.75-55.46-135.24V255.16c0-65.95,30.21-110,55.55-135.33S140,64.33,206,64.33h25.75a250.74,250.74,0,0,1,38.58,3,197.88,197.88,0,0,1,34.19-3h32a244.28,244.28,0,0,1,30.59,1.92,199.27,199.27,0,0,1,27.52-1.92h44.11a202.47,202.47,0,0,1,27.88,1.92,196.13,196.13,0,0,1,67,.4,189.26,189.26,0,0,1,67.62.17,195.56,195.56,0,0,1,34.24-3.13,189.25,189.25,0,0,1,137.72,58.49c34.83,36.28,53.24,82.27,53.24,133Z"/><path class="cls-1" d="M635.52,63.69a195.56,195.56,0,0,0-34.24,3.13,189.26,189.26,0,0,0-67.62-.17,196.13,196.13,0,0,0-67-.4,202.47,202.47,0,0,0-27.88-1.92H394.62a199.27,199.27,0,0,0-27.52,1.92,244.28,244.28,0,0,0-30.59-1.92h-32a197.88,197.88,0,0,0-34.19,3,250.74,250.74,0,0,0-38.58-3H206c-66,0-110,30.18-135.29,55.5S15.15,189.21,15.15,255.16v68.19c0,51.49,19.7,99.52,55.46,135.24C95.94,484,140,514.19,206,514.19h25.75a253.26,253.26,0,0,0,37.07-2.72,194,194,0,0,0,62.72,1.71,194,194,0,0,0,52.39.71c3.58.2,7.17.3,10.7.3h44.11c3.13,0,6.32-.08,9.5-.23,5.07.4,10.18.61,15.22.61a192.43,192.43,0,0,0,35.9-3.38,195,195,0,0,0,35.48,3.38c4.4,0,8.86-.16,13.29-.46,6,.56,12.07.84,18.06.84a196.59,196.59,0,0,0,35.07-3.27,196.24,196.24,0,0,0,35,3.27c51.07,0,98.89-19.71,134.64-55.49s55.56-83.74,55.56-135V255.16c0-50.71-18.41-96.7-53.24-133A189.25,189.25,0,0,0,635.52,63.69Zm176,260.81c0,47.21-18.17,91.38-51.17,124.35s-77,51.1-124,51.1a180,180,0,0,1-35-3.55,176,176,0,0,1-53,2.65c-4.49.35-9,.52-13.47.52a179.49,179.49,0,0,1-35.49-3.67,177.25,177.25,0,0,1-35.89,3.67c-5,0-10-.22-15-.64-3.25.17-6.52.26-9.74.26H394.62c-3.7,0-7.46-.12-11.2-.35a179,179,0,0,1-51.78-.83A180.43,180.43,0,0,1,305.28,500a184.31,184.31,0,0,1-36.16-3.7,237.42,237.42,0,0,1-37.38,2.94H206c-60.86,0-101.44-27.84-124.76-51.2C48.3,415.1,30.15,370.83,30.15,323.35V255.16c0-60.82,27.82-101.39,51.15-124.72S145.17,79.33,206,79.33h25.75a235.68,235.68,0,0,1,38.74,3.18,182.84,182.84,0,0,1,34-3.18h32a226.15,226.15,0,0,1,30.7,2.07,181.9,181.9,0,0,1,27.41-2.07h44.11a187.61,187.61,0,0,1,28.09,2.11,181.16,181.16,0,0,1,66.8.46,182,182,0,0,1,33.45-3.21,179.45,179.45,0,0,1,34.21,3.4,179.6,179.6,0,0,1,34.24-3.4,174.38,174.38,0,0,1,126.9,53.89c32.1,33.43,49.06,75.81,49.06,122.58Z"/><path class="cls-2" d="M635.52,78.69a179.6,179.6,0,0,0-34.24,3.4,179.45,179.45,0,0,0-34.21-3.4,182,182,0,0,0-33.45,3.21,181.16,181.16,0,0,0-66.8-.46,187.61,187.61,0,0,0-28.09-2.11H394.62a181.9,181.9,0,0,0-27.41,2.07,226.15,226.15,0,0,0-30.7-2.07h-32a182.84,182.84,0,0,0-34,3.18,235.68,235.68,0,0,0-38.74-3.18H206c-60.82,0-101.38,27.79-124.69,51.11s-51.15,63.9-51.15,124.72v68.19c0,47.48,18.15,91.75,51.08,124.64,23.32,23.36,63.9,51.2,124.76,51.2h25.75a237.42,237.42,0,0,0,37.38-2.94,184.31,184.31,0,0,0,36.16,3.7A180.43,180.43,0,0,0,331.64,498a179,179,0,0,0,51.78.83c3.74.23,7.5.35,11.2.35h44.11c3.22,0,6.49-.09,9.74-.26,5,.42,10,.64,15,.64a177.25,177.25,0,0,0,35.89-3.67,179.49,179.49,0,0,0,35.49,3.67c4.45,0,9-.17,13.47-.52a176,176,0,0,0,53-2.65,180,180,0,0,0,35,3.55c47.06,0,91.11-18.15,124-51.1s51.17-77.14,51.17-124.35V255.16c0-46.77-17-89.15-49.06-122.58A174.38,174.38,0,0,0,635.52,78.69Zm161,245.81c0,43.21-16.61,83.6-46.77,113.74A159.14,159.14,0,0,1,636.28,485a165,165,0,0,1-35-3.88A165.27,165.27,0,0,1,566.18,485a163.55,163.55,0,0,1-17.69-1c-4.55.38-9.14.58-13.66.58a163.73,163.73,0,0,1-35.51-4,161.2,161.2,0,0,1-35.87,4c-4.88,0-9.83-.23-14.74-.67-3.32.19-6.68.29-10,.29H394.62c-3.87,0-7.81-.14-11.71-.42a163.71,163.71,0,0,1-51.16-1A165.23,165.23,0,0,1,305.28,485a168.79,168.79,0,0,1-35.82-4,222,222,0,0,1-37.72,3.2H206c-55.72,0-92.83-25.45-114.15-46.8-30.1-30.07-46.69-70.57-46.69-114V255.16c0-55.68,25.43-92.79,46.76-114.11S150.31,94.33,206,94.33h25.75a218.79,218.79,0,0,1,38.92,3.44,166.56,166.56,0,0,1,33.85-3.44h32a210.66,210.66,0,0,1,30.82,2.24,166.92,166.92,0,0,1,27.29-2.24h44.11A171.85,171.85,0,0,1,467,96.66a166.18,166.18,0,0,1,66.54.54,166.41,166.41,0,0,1,33.49-3.51,164.55,164.55,0,0,1,34.21,3.71,164.69,164.69,0,0,1,34.24-3.71A159.49,159.49,0,0,1,751.6,143c29.36,30.58,44.88,69.37,44.88,112.19Z"/><path class="cls-3" d="M635.52,93.69a164.69,164.69,0,0,0-34.24,3.71,164.55,164.55,0,0,0-34.21-3.71,166.41,166.41,0,0,0-33.49,3.51A166.18,166.18,0,0,0,467,96.66a171.85,171.85,0,0,0-28.31-2.33H394.62a166.92,166.92,0,0,0-27.29,2.24,210.66,210.66,0,0,0-30.82-2.24h-32a166.56,166.56,0,0,0-33.85,3.44,218.79,218.79,0,0,0-38.92-3.44H206c-55.68,0-92.77,25.41-114.08,46.72S45.15,199.48,45.15,255.16v68.19c0,43.47,16.59,84,46.69,114,21.32,21.35,58.43,46.8,114.15,46.8h25.75a222,222,0,0,0,37.72-3.2,168.79,168.79,0,0,0,35.82,4,165.23,165.23,0,0,0,26.47-2.14,163.71,163.71,0,0,0,51.16,1c3.9.28,7.84.42,11.71.42h44.11c3.3,0,6.66-.1,10-.29,4.91.44,9.86.67,14.74.67a161.2,161.2,0,0,0,35.87-4,163.73,163.73,0,0,0,35.51,4c4.52,0,9.11-.2,13.66-.58a163.55,163.55,0,0,0,17.69,1,165.27,165.27,0,0,0,35.07-3.88,165,165,0,0,0,35,3.88,159.14,159.14,0,0,0,113.43-46.71c30.16-30.14,46.77-70.53,46.77-113.74V255.16c0-42.82-15.52-81.61-44.88-112.19A159.49,159.49,0,0,0,635.52,93.69Zm146,230.81c0,39.2-15.05,75.82-42.37,103.13A144.26,144.26,0,0,1,636.28,470a149.61,149.61,0,0,1-35-4.27,146.73,146.73,0,0,1-52.58,3.23c-4.61.44-9.26.66-13.84.66a147.61,147.61,0,0,1-35.53-4.45,145.85,145.85,0,0,1-35.85,4.45c-4.81,0-9.68-.24-14.49-.72-3.41.22-6.84.34-10.23.34H394.62c-4.05,0-8.16-.17-12.23-.5a149.11,149.11,0,0,1-22.05,1.64,147.48,147.48,0,0,1-28.47-2.76A149.9,149.9,0,0,1,305.28,470a152.68,152.68,0,0,1-35.45-4.27,205.53,205.53,0,0,1-38.09,3.51H206c-50.57,0-84.22-23.06-103.54-42.4-27.27-27.24-42.3-64-42.3-103.44V255.16c0-50.55,23-84.18,42.36-103.5S155.44,109.33,206,109.33h25.75a203.3,203.3,0,0,1,39.14,3.74,151.06,151.06,0,0,1,33.63-3.74h32a195,195,0,0,1,31,2.44,151.72,151.72,0,0,1,27.15-2.44h44.11a156.05,156.05,0,0,1,28.52,2.6,151,151,0,0,1,66.29.64,150.85,150.85,0,0,1,33.53-3.88,149.06,149.06,0,0,1,34.21,4.09,149.11,149.11,0,0,1,34.24-4.09,144.61,144.61,0,0,1,105.26,44.67c26.63,27.73,40.7,62.93,40.7,101.8Z"/><path class="cls-4" d="M635.52,108.69a149.11,149.11,0,0,0-34.24,4.09,149.06,149.06,0,0,0-34.21-4.09,150.85,150.85,0,0,0-33.53,3.88,151,151,0,0,0-66.29-.64,156.05,156.05,0,0,0-28.52-2.6H394.62a151.72,151.72,0,0,0-27.15,2.44,195,195,0,0,0-31-2.44h-32a151.06,151.06,0,0,0-33.63,3.74,203.3,203.3,0,0,0-39.14-3.74H206c-50.55,0-84.17,23-103.48,42.33s-42.36,53-42.36,103.5v68.19c0,39.46,15,76.2,42.3,103.44,19.32,19.34,53,42.4,103.54,42.4h25.75a205.53,205.53,0,0,0,38.09-3.51A152.68,152.68,0,0,0,305.28,470a149.9,149.9,0,0,0,26.59-2.38,147.48,147.48,0,0,0,28.47,2.76,149.11,149.11,0,0,0,22.05-1.64c4.07.33,8.18.5,12.23.5h44.11c3.39,0,6.82-.12,10.23-.34,4.81.48,9.68.72,14.49.72a145.85,145.85,0,0,0,35.85-4.45,147.61,147.61,0,0,0,35.53,4.45c4.58,0,9.23-.22,13.84-.66a146.73,146.73,0,0,0,52.58-3.23,149.61,149.61,0,0,0,35,4.27,144.26,144.26,0,0,0,102.83-42.32c27.32-27.31,42.37-63.93,42.37-103.13V255.16c0-38.87-14.07-74.07-40.7-101.8A144.61,144.61,0,0,0,635.52,108.69Zm131,215.81c0,35.19-13.49,68.05-38,92.52A129.33,129.33,0,0,1,636.28,455a133.63,133.63,0,0,1-35-4.77,132.05,132.05,0,0,1-52.41,3.64,130.17,130.17,0,0,1-49.58-4.22,130.28,130.28,0,0,1-35.82,5,132.88,132.88,0,0,1-14.23-.77c-3.49.26-7,.39-10.49.39H394.62c-4.24,0-8.51-.2-12.75-.6A133.67,133.67,0,0,1,332,452.28a134.78,134.78,0,0,1-26.7,2.67,137,137,0,0,1-35-4.65,189.06,189.06,0,0,1-38.49,3.89H206c-45.44,0-75.61-20.67-92.93-38-24.44-24.41-37.91-57.39-37.91-92.84V255.16c0-45.41,20.65-75.58,38-92.89s47.46-37.94,92.87-37.94h25.75a187.27,187.27,0,0,1,39.39,4.11,135.71,135.71,0,0,1,33.38-4.11h32A178.9,178.9,0,0,1,367.64,127a136.25,136.25,0,0,1,27-2.68h44.11a140.33,140.33,0,0,1,28.74,2.93,135.92,135.92,0,0,1,66,.76,135,135,0,0,1,33.57-4.33,133.09,133.09,0,0,1,34.21,4.57,133.14,133.14,0,0,1,34.24-4.57A129.79,129.79,0,0,1,730,163.75c23.88,24.88,36.51,56.49,36.51,91.41Z"/><path class="cls-5" d="M635.52,123.69a133.14,133.14,0,0,0-34.24,4.57,133.09,133.09,0,0,0-34.21-4.57A135,135,0,0,0,533.5,128a135.92,135.92,0,0,0-66-.76,140.33,140.33,0,0,0-28.74-2.93H394.62a136.25,136.25,0,0,0-27,2.68,178.9,178.9,0,0,0-31.13-2.68h-32a135.71,135.71,0,0,0-33.38,4.11,187.27,187.27,0,0,0-39.39-4.11H206c-45.41,0-75.57,20.63-92.87,37.94s-38,47.48-38,92.89v68.19c0,35.45,13.47,68.43,37.91,92.84,17.32,17.33,47.49,38,92.93,38h25.75a189.06,189.06,0,0,0,38.49-3.89,137,137,0,0,0,35,4.65,134.78,134.78,0,0,0,26.7-2.67,133.67,133.67,0,0,0,49.89,1.31c4.24.4,8.51.6,12.75.6h44.11c3.48,0,7-.13,10.49-.39a132.88,132.88,0,0,0,14.23.77,130.28,130.28,0,0,0,35.82-5,130.17,130.17,0,0,0,49.58,4.22,132.05,132.05,0,0,0,52.41-3.64,133.63,133.63,0,0,0,35,4.77A129.33,129.33,0,0,0,728.5,417c24.49-24.47,38-57.33,38-92.52V255.16c0-34.92-12.63-66.53-36.51-91.41A129.79,129.79,0,0,0,635.52,123.69Zm116,200.81A114.59,114.59,0,0,1,636.28,440a118.14,118.14,0,0,1-35-5.4A117.17,117.17,0,0,1,549,438.7a115.31,115.31,0,0,1-49.79-4.78,114.78,114.78,0,0,1-35.79,5.65,116.65,116.65,0,0,1-14-.84c-3.57.3-7.18.46-10.75.46H394.62a122.65,122.65,0,0,1-13.27-.73,118.94,118.94,0,0,1-21,1.87,117.74,117.74,0,0,1-28.24-3.42,119.24,119.24,0,0,1-26.82,3,121.19,121.19,0,0,1-34.58-5.11,172.38,172.38,0,0,1-39,4.35H206c-40.3,0-67-18.27-82.32-33.6-21.61-21.59-33.52-50.8-33.52-82.24V255.16c0-40.27,18.26-67,33.57-82.29s42-33.54,82.27-33.54h25.75a171.08,171.08,0,0,1,39.71,4.56,119.81,119.81,0,0,1,33.06-4.56h32a162.18,162.18,0,0,1,31.33,3,120.59,120.59,0,0,1,26.78-3h44.11a124.26,124.26,0,0,1,29,3.35,120.7,120.7,0,0,1,65.78.92,119.14,119.14,0,0,1,33.6-4.91,117.7,117.7,0,0,1,34.21,5.17,117.74,117.74,0,0,1,34.24-5.17,114.89,114.89,0,0,1,83.63,35.45c21.15,22,32.33,50.05,32.33,81Z"/><path class="cls-1" d="M635.52,138.69a117.74,117.74,0,0,0-34.24,5.17,117.7,117.7,0,0,0-34.21-5.17,119.14,119.14,0,0,0-33.6,4.91,120.7,120.7,0,0,0-65.78-.92,124.26,124.26,0,0,0-29-3.35H394.62a120.59,120.59,0,0,0-26.78,3,162.18,162.18,0,0,0-31.33-3h-32a119.81,119.81,0,0,0-33.06,4.56,171.08,171.08,0,0,0-39.71-4.56H206c-40.27,0-67,18.24-82.27,33.54s-33.57,42-33.57,82.29v68.19c0,31.44,11.91,60.65,33.52,82.24,15.31,15.33,42,33.6,82.32,33.6h25.75a172.38,172.38,0,0,0,39-4.35A121.19,121.19,0,0,0,305.28,440a119.24,119.24,0,0,0,26.82-3,117.74,117.74,0,0,0,28.24,3.42,118.94,118.94,0,0,0,21-1.87,122.65,122.65,0,0,0,13.27.73h44.11c3.57,0,7.18-.16,10.75-.46a116.65,116.65,0,0,0,14,.84,114.78,114.78,0,0,0,35.79-5.65A115.31,115.31,0,0,0,549,438.7a117.17,117.17,0,0,0,52.23-4.15,118.14,118.14,0,0,0,35,5.4A114.59,114.59,0,0,0,751.48,324.5V255.16c0-31-11.18-59-32.33-81A114.89,114.89,0,0,0,635.52,138.69Zm101,185.81A99.59,99.59,0,0,1,636.28,425a102.33,102.33,0,0,1-35-6.23,102.37,102.37,0,0,1-52,4.83,102,102,0,0,1-14.39,1A100.87,100.87,0,0,1,499.21,418a99.32,99.32,0,0,1-35.76,6.55,101.54,101.54,0,0,1-13.71-.93c-3.64.36-7.34.55-11,.55H394.62a105.75,105.75,0,0,1-13.79-.9,103.11,103.11,0,0,1-20.49,2,102,102,0,0,1-28.11-3.91,103.71,103.71,0,0,1-27,3.53,105.24,105.24,0,0,1-34-5.69,156.22,156.22,0,0,1-39.51,4.93H206c-35.16,0-58.4-15.88-71.7-29.2-18.79-18.76-29.14-44.21-29.14-71.64V255.16c0-35.14,15.87-58.37,29.18-71.68s36.52-29.15,71.66-29.15h25.75a154.53,154.53,0,0,1,40.1,5.13,103.92,103.92,0,0,1,32.67-5.13h32a145.57,145.57,0,0,1,31.58,3.36,105,105,0,0,1,26.53-3.36h44.11a108.42,108.42,0,0,1,29.19,3.9,105.44,105.44,0,0,1,65.52,1.13,103.29,103.29,0,0,1,33.63-5.67,102,102,0,0,1,34.22,6,101.74,101.74,0,0,1,34.23-6,100,100,0,0,1,72.81,30.84c18.42,19.18,28.15,43.61,28.15,70.63Z"/><path class="cls-2" d="M635.52,153.69a101.74,101.74,0,0,0-34.23,6,102,102,0,0,0-34.22-6,103.29,103.29,0,0,0-33.63,5.67,105.44,105.44,0,0,0-65.52-1.13,108.42,108.42,0,0,0-29.19-3.9H394.62a105,105,0,0,0-26.53,3.36,145.57,145.57,0,0,0-31.58-3.36h-32a103.92,103.92,0,0,0-32.67,5.13,154.53,154.53,0,0,0-40.1-5.13H206c-35.14,0-58.37,15.85-71.66,29.15S105.15,220,105.15,255.16v68.19c0,27.43,10.35,52.88,29.14,71.64,13.3,13.32,36.54,29.2,71.7,29.2h25.75a156.22,156.22,0,0,0,39.51-4.93,105.24,105.24,0,0,0,34,5.69,103.71,103.71,0,0,0,27-3.53,102,102,0,0,0,28.11,3.91,103.11,103.11,0,0,0,20.49-2,105.75,105.75,0,0,0,13.79.9h44.11c3.67,0,7.37-.19,11-.55a101.54,101.54,0,0,0,13.71.93A99.32,99.32,0,0,0,499.21,418a100.87,100.87,0,0,0,35.62,6.55,102,102,0,0,0,14.39-1,102.37,102.37,0,0,0,52-4.83,102.33,102.33,0,0,0,35,6.23A99.59,99.59,0,0,0,736.48,324.5V255.16c0-27-9.73-51.45-28.15-70.63A100,100,0,0,0,635.52,153.69Zm86,170.81A84.6,84.6,0,0,1,636.28,410a86.35,86.35,0,0,1-35-7.41A86.49,86.49,0,0,1,566.18,410a87.8,87.8,0,0,1-16.78-1.61,86.66,86.66,0,0,1-14.57,1.23,85.21,85.21,0,0,1-35.65-7.82,84,84,0,0,1-35.73,7.82A86.23,86.23,0,0,1,450,408.52a96.38,96.38,0,0,1-11.29.67H394.62a91.11,91.11,0,0,1-14.33-1.13,88,88,0,0,1-20,2.27,86.83,86.83,0,0,1-28-4.58,89.51,89.51,0,0,1-60.46-2.25,139,139,0,0,1-40.16,5.69H206c-30,0-49.79-13.49-61.09-24.8-16-15.94-24.75-37.62-24.75-61V255.16c0-30,13.48-49.77,24.78-61.07S176,169.33,206,169.33h25.75a137.63,137.63,0,0,1,40.6,5.88,88,88,0,0,1,32.17-5.88h32a128.55,128.55,0,0,1,31.9,3.85,89.28,89.28,0,0,1,26.21-3.85h44.11A91.75,91.75,0,0,1,468.14,174a90.17,90.17,0,0,1,65.29,1.42,87.29,87.29,0,0,1,33.64-6.72,86,86,0,0,1,34.23,7.11,86.21,86.21,0,0,1,96.21,19.12c15.68,16.34,24,37.16,24,60.24Z"/><path class="cls-3" d="M635.52,168.69a85.66,85.66,0,0,0-34.22,7.11,86,86,0,0,0-34.23-7.11,87.29,87.29,0,0,0-33.64,6.72A90.17,90.17,0,0,0,468.14,174a91.75,91.75,0,0,0-29.41-4.66H394.62a89.28,89.28,0,0,0-26.21,3.85,128.55,128.55,0,0,0-31.9-3.85h-32a88,88,0,0,0-32.17,5.88,137.63,137.63,0,0,0-40.6-5.88H206c-30,0-49.76,13.47-61.06,24.76s-24.78,31.07-24.78,61.07v68.19c0,23.42,8.8,45.1,24.75,61,11.3,11.31,31.07,24.8,61.09,24.8h25.75a139,139,0,0,0,40.16-5.69,89.51,89.51,0,0,0,60.46,2.25,86.83,86.83,0,0,0,28,4.58,88,88,0,0,0,20-2.27,91.11,91.11,0,0,0,14.33,1.13h44.11a96.38,96.38,0,0,0,11.29-.67,86.23,86.23,0,0,0,13.43,1.05,84,84,0,0,0,35.73-7.82,85.21,85.21,0,0,0,35.65,7.82,86.66,86.66,0,0,0,14.57-1.23A87.8,87.8,0,0,0,566.18,410a86.49,86.49,0,0,0,35.08-7.41,86.35,86.35,0,0,0,35,7.41,84.6,84.6,0,0,0,85.2-85.45V255.16c0-23.08-8.29-43.9-24-60.24A85.15,85.15,0,0,0,635.52,168.69Zm71,155.81A69.6,69.6,0,0,1,636.28,395a71.16,71.16,0,0,1-35-9.18A71.35,71.35,0,0,1,566.18,395,72.16,72.16,0,0,1,549.59,393a72.15,72.15,0,0,1-14.76,1.53,69.9,69.9,0,0,1-35.66-9.74,69.32,69.32,0,0,1-35.72,9.74,72.26,72.26,0,0,1-13.14-1.21,80.64,80.64,0,0,1-11.58.83H394.62a75.59,75.59,0,0,1-14.87-1.46,72.86,72.86,0,0,1-19.41,2.6,71.57,71.57,0,0,1-27.84-5.55,74.25,74.25,0,0,1-59.76-2.34,121.69,121.69,0,0,1-41,6.75H206c-24.88,0-41.18-11.1-50.48-20.4-13.12-13.11-20.36-31-20.36-50.44V255.16c0-24.86,11.09-41.16,20.39-50.46s25.58-20.37,50.45-20.37h25.75A120.52,120.52,0,0,1,273,191.25a72,72,0,0,1,31.48-6.92h32a111,111,0,0,1,32.33,4.54,73.3,73.3,0,0,1,25.78-4.54h44.11a75.08,75.08,0,0,1,29.62,5.77A74.92,74.92,0,0,1,533.47,192a71.6,71.6,0,0,1,67.85.52,71.15,71.15,0,0,1,85.37,12.81,70.57,70.57,0,0,1,19.79,49.85Z"/><path class="cls-4" d="M635.52,183.69a69.81,69.81,0,0,0-34.2,8.81,71.6,71.6,0,0,0-67.85-.52,74.92,74.92,0,0,0-65.12-1.88,75.08,75.08,0,0,0-29.62-5.77H394.62a73.3,73.3,0,0,0-25.78,4.54,111,111,0,0,0-32.33-4.54h-32A72,72,0,0,0,273,191.25a120.52,120.52,0,0,0-41.29-6.92H206c-24.87,0-41.16,11.08-50.45,20.37s-20.39,25.6-20.39,50.46v68.19c0,19.41,7.24,37.33,20.36,50.44,9.3,9.3,25.6,20.4,50.48,20.4h25.75a121.69,121.69,0,0,0,41-6.75,74.25,74.25,0,0,0,59.76,2.34,71.57,71.57,0,0,0,27.84,5.55,72.86,72.86,0,0,0,19.41-2.6,75.59,75.59,0,0,0,14.87,1.46h44.11a80.64,80.64,0,0,0,11.58-.83,72.26,72.26,0,0,0,13.14,1.21,69.32,69.32,0,0,0,35.72-9.74,69.9,69.9,0,0,0,35.66,9.74A72.15,72.15,0,0,0,549.59,393,72.16,72.16,0,0,0,566.18,395a71.35,71.35,0,0,0,35.09-9.18,71.16,71.16,0,0,0,35,9.18,69.6,69.6,0,0,0,70.2-70.45V255.16a70.67,70.67,0,0,0-71-71.47Zm56,140.81a55.43,55.43,0,0,1-90.21,43.18A55.27,55.27,0,0,1,566.18,380a56.72,56.72,0,0,1-16.4-2.38,56.31,56.31,0,0,1-14.95,2,54.87,54.87,0,0,1-29.4-8.5,53.71,53.71,0,0,1-6.25-4.59,55.07,55.07,0,0,1-35.73,13.09,56.15,56.15,0,0,1-12.82-1.47,64.63,64.63,0,0,1-11.9,1.09H394.62a59.67,59.67,0,0,1-15.43-2,57.35,57.35,0,0,1-18.85,3.13,56.72,56.72,0,0,1-26.6-6.53l-1.1-.59A58.13,58.13,0,0,1,305.28,380a57.41,57.41,0,0,1-31.39-9.09c-12.55,5.53-26.7,8.33-42.15,8.33H206c-19.74,0-32.58-8.71-39.87-16-10.29-10.29-16-24.44-16-39.84V255.16c0-19.73,8.7-32.56,16-39.85s20.12-16,39.85-16h25.75c15.47,0,29.68,2.85,42.28,8.49a56.1,56.1,0,0,1,30.49-8.49h32a92.44,92.44,0,0,1,32.91,5.58,58,58,0,0,1,25.2-5.58h44.11c11.14,0,21.12,2.55,29.76,7.59l1.08-.63a59.83,59.83,0,0,1,58.47-.2,57.14,57.14,0,0,1,5.54,3.52,56.34,56.34,0,0,1,65.64-.74c.72.51,1.43,1,2.13,1.57a56,56,0,0,1,74.53,5.26,55.85,55.85,0,0,1,15.6,39.46Z"/><path class="cls-5" d="M635.52,198.69a55.05,55.05,0,0,0-34.17,11.75c-.7-.54-1.41-1.06-2.13-1.57a56.34,56.34,0,0,0-65.64.74,57.14,57.14,0,0,0-5.54-3.52,59.83,59.83,0,0,0-58.47.2l-1.08.63c-8.64-5-18.62-7.59-29.76-7.59H394.62a58,58,0,0,0-25.2,5.58,92.44,92.44,0,0,0-32.91-5.58h-32A56.1,56.1,0,0,0,274,207.82c-12.6-5.64-26.81-8.49-42.28-8.49H206c-19.73,0-32.56,8.69-39.85,16s-16,20.12-16,39.85v68.19c0,15.4,5.68,29.55,16,39.84,7.29,7.29,20.13,16,39.87,16h25.75c15.45,0,29.6-2.8,42.15-8.33A57.41,57.41,0,0,0,305.28,380a58.13,58.13,0,0,0,27.36-6.74l1.1.59a56.72,56.72,0,0,0,26.6,6.53,57.35,57.35,0,0,0,18.85-3.13,59.67,59.67,0,0,0,15.43,2h44.11a64.63,64.63,0,0,0,11.9-1.09,56.15,56.15,0,0,0,12.82,1.47,55.07,55.07,0,0,0,35.73-13.09,53.71,53.71,0,0,0,6.25,4.59,54.87,54.87,0,0,0,29.4,8.5,56.31,56.31,0,0,0,14.95-2,56.72,56.72,0,0,0,16.4,2.38,55.27,55.27,0,0,0,35.09-12.27,55.14,55.14,0,0,0,90.21-43.18V255.16a55.66,55.66,0,0,0-56-56.47Zm41,125.81A40.42,40.42,0,0,1,608,353.59c-.82-.81-1.61-1.65-2.35-2.51a42.88,42.88,0,0,1-4.39.23,41.29,41.29,0,0,1-4.33-.22c-.65.76-1.34,1.49-2,2.21A40.19,40.19,0,0,1,566.18,365,41,41,0,0,1,550,361.71a41.5,41.5,0,0,1-15.17,2.86,40,40,0,0,1-21.39-6.18,39.06,39.06,0,0,1-12.6-12.81h-3.28a39.16,39.16,0,0,1-13,13,39.75,39.75,0,0,1-21.14,6A41.22,41.22,0,0,1,451,362.66a48.2,48.2,0,0,1-12.25,1.53H394.62a43.3,43.3,0,0,1-16-2.95,42.65,42.65,0,0,1-37.92-.73,41.45,41.45,0,0,1-8-5.43,43,43,0,0,1-57.06-2c-1.55.91-3.13,1.78-4.76,2.59-11.34,5.63-24.51,8.49-39.16,8.49H206c-14.6,0-24-6.31-29.26-11.61-7.46-7.45-11.58-17.84-11.58-29.23V255.16c0-14.59,6.31-24,11.6-29.24S191.4,214.33,206,214.33h25.75c14.61,0,27.79,2.9,39.15,8.61q2.44,1.23,4.75,2.61c5.34-5.2,14.61-11.22,28.87-11.22h32c13.06,0,24.39,2.48,33.83,7.39a41,41,0,0,1,24.28-7.39h44.11c10.73,0,19.91,3,27.27,9.07.88.72,1.72,1.47,2.53,2.26a41.92,41.92,0,0,1,8.45-6.33,44.81,44.81,0,0,1,43.76-.13,41.84,41.84,0,0,1,13,11.3,41.2,41.2,0,0,1,56.82-9.37,44,44,0,0,1,10.82,11c8.08-11.78,20.23-18.42,34.11-18.42a40.55,40.55,0,0,1,29.54,12.41,41.1,41.1,0,0,1,11.42,29.06Z"/><path class="cls-1" d="M233.61,300.13c2.67-.3,4.67-1,5.66-2,1.29-1.26,2.06-4.62,2.06-9,0-6.41-1.54-8.41-2-8.87-1-1-3-1.64-5.71-1.94Z"/><path class="cls-1" d="M635.52,213.69c-13.88,0-26,6.64-34.11,18.42a44,44,0,0,0-10.82-11,41,41,0,0,0-56.82,9.37,41.84,41.84,0,0,0-13-11.3,44.81,44.81,0,0,0-43.76.13,41.92,41.92,0,0,0-8.45,6.33c-.81-.79-1.65-1.54-2.53-2.26-7.36-6-16.54-9.07-27.27-9.07H394.62a41,41,0,0,0-24.28,7.39c-9.44-4.91-20.77-7.39-33.83-7.39h-32c-14.26,0-23.53,6-28.87,11.22q-2.31-1.38-4.75-2.61c-11.36-5.71-24.54-8.61-39.15-8.61H206c-14.59,0-24,6.3-29.24,11.59s-11.6,14.65-11.6,29.24v68.19c0,11.39,4.12,21.78,11.58,29.23,5.29,5.3,14.66,11.61,29.26,11.61h25.75c14.65,0,27.82-2.86,39.16-8.49,1.63-.81,3.21-1.68,4.76-2.59a43,43,0,0,0,57.06,2,41.45,41.45,0,0,0,8,5.43,42.65,42.65,0,0,0,37.92.73,43.3,43.3,0,0,0,16,2.95h44.11A48.2,48.2,0,0,0,451,362.66a41.22,41.22,0,0,0,12.47,1.91,39.75,39.75,0,0,0,21.14-6,39.16,39.16,0,0,0,13-13h3.28a39.06,39.06,0,0,0,12.6,12.81,40,40,0,0,0,21.39,6.18A41.5,41.5,0,0,0,550,361.71,41,41,0,0,0,566.18,365a40.19,40.19,0,0,0,28.67-11.65c.71-.72,1.4-1.45,2-2.21a41.29,41.29,0,0,0,4.33.22,42.88,42.88,0,0,0,4.39-.23c.74.86,1.53,1.7,2.35,2.51a40.17,40.17,0,0,0,68.51-29.09V255.16a41.1,41.1,0,0,0-11.42-29.06A40.55,40.55,0,0,0,635.52,213.69Zm26,110.81a25.42,25.42,0,0,1-43,18.37,24.15,24.15,0,0,1-5.87-9.2,25.74,25.74,0,0,1-22.63,0,24.34,24.34,0,0,1-5.72,9,26.11,26.11,0,0,1-33.93,1.89,26.25,26.25,0,0,1-15.48,5A24.78,24.78,0,0,1,512,334.69l-1.83-4.11H488.27l-1.86,4.09a25,25,0,0,1-23,14.9,26.67,26.67,0,0,1-12.09-2.9,30.29,30.29,0,0,1-12.63,2.52H394.62a26.06,26.06,0,0,1-16.53-5.34l-.46.39a27.53,27.53,0,0,1-30,3,27.53,27.53,0,0,1-10-9.05l-6.36-9.29a25.45,25.45,0,0,1-6.86,13.45c-3.4,3.47-9.48,7.62-19.12,7.62s-15.66-4.09-19.09-7.52a25.26,25.26,0,0,1-6.57-11.54,53.18,53.18,0,0,1-15.4,11.37c-9.24,4.6-20.17,6.93-32.48,6.93H206c-9.46,0-15.36-3.92-18.64-7.21s-7.2-9.17-7.2-18.63V255.16c0-9.45,3.92-15.35,7.2-18.64s9.18-7.19,18.64-7.19h25.75c12.25,0,23.16,2.36,32.42,7a54.67,54.67,0,0,1,15.41,11.45,24.16,24.16,0,0,1,6.31-11.27c3.28-3.28,9.18-7.19,18.63-7.19h32c14.51,0,26.06,3.6,34.32,10.7.47.41,1,.86,1.45,1.33a23.37,23.37,0,0,1,3.71-4.84c3.28-3.28,9.18-7.19,18.63-7.19h44.11c7.18,0,13.16,1.91,17.78,5.68a23,23,0,0,1,8.3,18.24,23.61,23.61,0,0,1-8.76,18.86,23.35,23.35,0,0,1,2.3,3l15.07-30.95a26.89,26.89,0,0,1,11-11.76,29.8,29.8,0,0,1,29.05-.06,27,27,0,0,1,11.19,11.88L541,277.76v-22.6a26.21,26.21,0,0,1,7.42-18.78,26.23,26.23,0,0,1,33.55-3,30.19,30.19,0,0,1,9.36,11l10.14,19.06,10.07-19c7.09-13.65,18.07-15.69,24-15.69a25.32,25.32,0,0,1,18.72,7.8,26.35,26.35,0,0,1,7.24,18.67Z"/><path class="cls-2" d="M635.52,228.69c-5.93,0-16.91,2-24,15.69l-10.07,19-10.14-19.06a30.19,30.19,0,0,0-9.36-11,26.23,26.23,0,0,0-33.55,3A26.21,26.21,0,0,0,541,255.16v22.6l-16.34-33.57a27,27,0,0,0-11.19-11.88,29.8,29.8,0,0,0-29.05.06,26.89,26.89,0,0,0-11,11.76l-15.07,30.95a23.35,23.35,0,0,0-2.3-3,23.61,23.61,0,0,0,8.76-18.86,23,23,0,0,0-8.3-18.24c-4.62-3.77-10.6-5.68-17.78-5.68H394.62c-9.45,0-15.35,3.91-18.63,7.19a23.37,23.37,0,0,0-3.71,4.84c-.49-.47-1-.92-1.45-1.33-8.26-7.1-19.81-10.7-34.32-10.7h-32c-9.45,0-15.35,3.91-18.63,7.19a24.16,24.16,0,0,0-6.31,11.27,54.67,54.67,0,0,0-15.41-11.45c-9.26-4.65-20.17-7-32.42-7H206c-9.46,0-15.35,3.91-18.64,7.19s-7.2,9.19-7.2,18.64v68.19c0,9.46,3.92,15.36,7.2,18.63s9.18,7.21,18.64,7.21h25.75c12.31,0,23.24-2.33,32.48-6.93a53.18,53.18,0,0,0,15.4-11.37,25.26,25.26,0,0,0,6.57,11.54c3.43,3.43,9.52,7.52,19.09,7.52s15.72-4.15,19.12-7.62a25.45,25.45,0,0,0,6.86-13.45l6.36,9.29a27.53,27.53,0,0,0,10,9.05,27.53,27.53,0,0,0,30-3l.46-.39a26.06,26.06,0,0,0,16.53,5.34h44.11a30.29,30.29,0,0,0,12.63-2.52,26.67,26.67,0,0,0,12.09,2.9,25,25,0,0,0,23-14.9l1.86-4.09h21.91l1.83,4.11a24.78,24.78,0,0,0,22.82,14.88,26.25,26.25,0,0,0,15.48-5,26.11,26.11,0,0,0,33.93-1.89,24.34,24.34,0,0,0,5.72-9,25.74,25.74,0,0,0,22.63,0,24.15,24.15,0,0,0,5.87,9.2,25.17,25.17,0,0,0,43-18.37V255.16a26.35,26.35,0,0,0-7.24-18.67A25.32,25.32,0,0,0,635.52,228.69ZM279,318.35a37.5,37.5,0,0,1-16.44,15.48q-10.78,5.35-25.81,5.36H211c-3.49,0-6.16-.94-8-2.81a8.85,8.85,0,0,1-2-3,8.85,8.85,0,0,1-3-2c-1.87-1.87-2.81-4.54-2.81-8V255.16q0-5.22,2.81-8c1.87-1.87,4.54-2.8,8-2.8h25.75q14.91,0,25.68,5.41a39.2,39.2,0,0,1,12.69,10,37.49,37.49,0,0,1,8.81,10.49q5.74,10.06,5.74,24T279,318.35Zm94.19,19.24a12.07,12.07,0,0,1-7.84,2.74,12.2,12.2,0,0,1-5.73-1.4,12.54,12.54,0,0,1-4.59-4.2l-.64-.94a12.72,12.72,0,0,1-4.36-4.06l-15.94-23.29a8.9,8.9,0,0,0-4-.9h-8.29v22.81a11.59,11.59,0,0,1-3.06,8.48q-3.06,3.12-8.41,3.12a11.46,11.46,0,0,1-8.48-3.12,9.8,9.8,0,0,1-2-3,9.8,9.8,0,0,1-3-2,11.46,11.46,0,0,1-3.12-8.48V255.16q0-5.22,2.8-8t8-2.8h32q16.31,0,24.53,7.07a21.87,21.87,0,0,1,3.54,3.86A18.37,18.37,0,0,1,366,256.4q8.22,7.08,8.22,20.46,0,10.2-5.61,17.27a26.24,26.24,0,0,1-12.08,8.38,27,27,0,0,1,3.76,4,26.36,26.36,0,0,1,6,6.39l7.9,11.34a11.87,11.87,0,0,1,2.3,6.5A8.45,8.45,0,0,1,373.18,337.59Zm174.36-.95a11.44,11.44,0,0,1-7.71,2.93,9.79,9.79,0,0,1-5.35-1.53,10.15,10.15,0,0,1-3.67-4.3,9.93,9.93,0,0,1-1.33-.7,10.33,10.33,0,0,1-3.83-4.59l-3.51-7.87H483.62l-5.86,12.87a10,10,0,0,1-9.31,6.12,11.94,11.94,0,0,1-7.84-2.93,10.11,10.11,0,0,1-2.72-3.46,14.74,14.74,0,0,1-2.28-1.54c-.29-.25-.57-.5-.82-.76a7.87,7.87,0,0,1-2.78,6q-2.81,2.3-8.28,2.3H399.62c-3.48,0-6.16-.94-8-2.81a8.7,8.7,0,0,1-2-3,8.75,8.75,0,0,1-3-2c-1.87-1.87-2.81-4.54-2.81-8V255.16q0-5.22,2.81-8c1.86-1.87,4.54-2.8,8-2.8h44.11q5.47,0,8.28,2.29a7.29,7.29,0,0,1,2.37,3.55,9.12,9.12,0,0,1,2.63,1.45,8.07,8.07,0,0,1,2.8,6.63q0,9.18-11.08,9.18H411.61v12.08h24.57q8.88,0,10.64,5.82,5.44,1.89,5.45,8.23a8.07,8.07,0,0,1-2.81,6.62q-2.81,2.29-8.28,2.3H411.61v13.61h27.12q8.82,0,10.61,5.82a8.52,8.52,0,0,1,2.83,1.59,11.6,11.6,0,0,1,1.09-3.72L486.9,250.7a11.87,11.87,0,0,1,4.91-5.29,14.82,14.82,0,0,1,14.34,0,11.7,11.7,0,0,1,4.72,4.86l.28.14a11.73,11.73,0,0,1,5,5.29l33.65,69.08a10.94,10.94,0,0,1,1.15,4.72A9.14,9.14,0,0,1,547.54,336.64Zm103.94-7.14a10.37,10.37,0,0,1-2.8,7.65,11.07,11.07,0,0,1-14.72,0,8.93,8.93,0,0,1-2-3,9.45,9.45,0,0,1-3-2,10.18,10.18,0,0,1-2.87-7.65V301.24l-9.53,17.55a16.58,16.58,0,0,1-4.59,5.8,10.42,10.42,0,0,1-11.47,0,14.21,14.21,0,0,1-3.69-4.23,8.64,8.64,0,0,1-1.31-.77,16.35,16.35,0,0,1-4.59-5.8l-9.4-17V329.5a10.26,10.26,0,0,1-2.87,7.58,11.06,11.06,0,0,1-14.79.07,9,9,0,0,1-2-3,9.61,9.61,0,0,1-3-2A10.22,10.22,0,0,1,556,324.5V255.16a11.28,11.28,0,0,1,3.13-8.28,11.23,11.23,0,0,1,14.21-1.21,14.65,14.65,0,0,1,3.95,4.35,9,9,0,0,1,1.05.65,15.36,15.36,0,0,1,4.72,5.67l19.62,36.89,22.15-41.89q4-7.65,10.71-7.65a10.44,10.44,0,0,1,7.9,3.19,10,10,0,0,1,1.93,2.81,9.94,9.94,0,0,1,3.07,2.19,11.44,11.44,0,0,1,3.06,8.28Z"/><path class="cls-2" d="M223.61,268.19v47.13h6.47q13.13,0,19.69-6.43t6.56-19.7c0-7-1.4-12.56-4.16-16.69-4.24-2.86-9.92-4.31-17.09-4.31Zm17.72,21c0,4.36-.77,7.72-2.06,9-1,1-3,1.66-5.66,2V278.38c2.7.3,4.71,1,5.71,1.94C239.79,280.78,241.33,282.78,241.33,289.19Z"/><path class="cls-2" d="M321.5,267V283h11.31q7.77,0,11.15-2.42c2.25-1.62,3.38-4.25,3.38-7.91a13,13,0,0,0-.66-4.29,25.21,25.21,0,0,0-8.87-1.29Z"/><polygon class="cls-2" points="512.01 297.99 502.89 277.64 493.76 297.99 512.01 297.99"/><path class="cls-6" d="M223.61,268.19h11.47c7.17,0,12.85,1.45,17.09,4.31a18.54,18.54,0,0,0-2.4-2.94q-6.57-6.36-19.69-6.37H218.61v52.13h5Z"/><path class="cls-6" d="M270.11,259.74a38,38,0,0,1,3.81,5.49q5.74,10.06,5.74,24T274,313.35a37.5,37.5,0,0,1-16.44,15.48q-10.78,5.35-25.81,5.36H206a13.58,13.58,0,0,1-5-.85,8.85,8.85,0,0,0,2,3c1.87,1.87,4.54,2.81,8,2.81h25.75q15,0,25.81-5.36A37.5,37.5,0,0,0,279,318.35q5.67-10.14,5.67-24.16t-5.74-24A37.49,37.49,0,0,0,270.11,259.74Z"/><path class="cls-6" d="M329.69,301.75a8.71,8.71,0,0,0-4.65-1.21h-8.29v22.81a11.59,11.59,0,0,1-3.06,8.48q-3.06,3.12-8.41,3.12a13.15,13.15,0,0,1-5.51-1.09,9.8,9.8,0,0,0,2,3,11.46,11.46,0,0,0,8.48,3.12q5.36,0,8.41-3.12a11.59,11.59,0,0,0,3.06-8.48V305.54H330a8.9,8.9,0,0,1,4,.9l-.63-.93A13.25,13.25,0,0,0,329.69,301.75Z"/><path class="cls-6" d="M321.5,267h16.31a25.21,25.21,0,0,1,8.87,1.29,7.69,7.69,0,0,0-2.72-3.8Q340.59,262,332.81,262H316.5V283h5Z"/><path class="cls-6" d="M363.65,289.13q-5.59,7.06-15.8,9.49a17.19,17.19,0,0,1,7.33,2.81c.46.32.93.69,1.39,1.08a26.24,26.24,0,0,0,12.08-8.38q5.61-7.08,5.61-17.27,0-13.38-8.22-20.46a18.37,18.37,0,0,0-1.46-1.14q4.68,6.51,4.68,16.6T363.65,289.13Z"/><path class="cls-6" d="M366.36,312.93a26.36,26.36,0,0,0-6-6.39c.34.45.69.9,1,1.39l7.9,11.34a11.87,11.87,0,0,1,2.3,6.5,8.45,8.45,0,0,1-3.38,6.82,12.07,12.07,0,0,1-7.84,2.74,12.2,12.2,0,0,1-5.73-1.4l-.23-.14.64.94a12.54,12.54,0,0,0,4.59,4.2,12.2,12.2,0,0,0,5.73,1.4,12.07,12.07,0,0,0,7.84-2.74,8.45,8.45,0,0,0,3.38-6.82,11.87,11.87,0,0,0-2.3-6.5Z"/><path class="cls-6" d="M438.73,262.43H406.61v17.08h5V267.43h32.12q11.08,0,11.08-9.18a8.07,8.07,0,0,0-2.8-6.63,9.12,9.12,0,0,0-2.63-1.45,10.28,10.28,0,0,1,.43,3.08Q449.81,262.43,438.73,262.43Z"/><path class="cls-6" d="M452.17,323.5a8.52,8.52,0,0,0-2.83-1.59,11.2,11.2,0,0,1,.47,3.35,8.07,8.07,0,0,1-2.8,6.63q-2.81,2.3-8.28,2.3H394.62a13.52,13.52,0,0,1-5-.85,8.7,8.7,0,0,0,2,3c1.86,1.87,4.54,2.81,8,2.81h44.11q5.47,0,8.28-2.3a7.87,7.87,0,0,0,2.78-6,8.75,8.75,0,0,1-2.68-6.38A8.51,8.51,0,0,1,452.17,323.5Z"/><path class="cls-6" d="M444.46,295.18q-2.81,2.29-8.28,2.3H406.61v18.61h5V302.48h29.57q5.47,0,8.28-2.3a8.07,8.07,0,0,0,2.81-6.62q0-6.35-5.45-8.23a11.05,11.05,0,0,1,.45,3.23A8.07,8.07,0,0,1,444.46,295.18Z"/><path class="cls-6" d="M478.62,315.58l-5.86,12.87a10,10,0,0,1-9.31,6.12,11.67,11.67,0,0,1-5.56-1.39,10.11,10.11,0,0,0,2.72,3.46,11.94,11.94,0,0,0,7.84,2.93,10,10,0,0,0,9.31-6.12l5.86-12.87h38.52l-2.22-5Z"/><polygon class="cls-6" points="502.89 277.64 499.27 269.56 486.52 297.99 493.76 297.99 502.89 277.64"/><path class="cls-6" d="M516.12,255.7a11.73,11.73,0,0,0-5-5.29l-.28-.14c.08.15.18.28.25.43l33.65,69.08a10.94,10.94,0,0,1,1.15,4.72,9.14,9.14,0,0,1-3.38,7.14,11.44,11.44,0,0,1-7.71,2.93,9.87,9.87,0,0,1-4-.83,10.15,10.15,0,0,0,3.67,4.3,9.79,9.79,0,0,0,5.35,1.53,11.44,11.44,0,0,0,7.71-2.93,9.14,9.14,0,0,0,3.38-7.14,10.94,10.94,0,0,0-1.15-4.72Z"/><path class="cls-6" d="M576.51,324.5a10.26,10.26,0,0,1-2.87,7.58,10.1,10.1,0,0,1-7.46,2.87,11,11,0,0,1-4.35-.83,9,9,0,0,0,2,3,11.06,11.06,0,0,0,14.79-.07,10.26,10.26,0,0,0,2.87-7.58V296.82l-5-9Z"/><path class="cls-6" d="M601.49,295.44l1.17-2.21L583,256.34a15.36,15.36,0,0,0-4.72-5.67,9,9,0,0,0-1.05-.65c.26.42.52.85.77,1.32Z"/><path class="cls-6" d="M611.56,313.79a16.58,16.58,0,0,1-4.59,5.8,9.65,9.65,0,0,1-5.74,1.72,10.06,10.06,0,0,1-4.42-.95,14.21,14.21,0,0,0,3.69,4.23,10.42,10.42,0,0,0,11.47,0,16.58,16.58,0,0,0,4.59-5.8l9.53-17.55V287Z"/><path class="cls-6" d="M645.35,249.69a12.67,12.67,0,0,1,1.13,5.47V324.5a10.37,10.37,0,0,1-2.8,7.65,10,10,0,0,1-7.4,2.8,11,11,0,0,1-4.35-.83,8.93,8.93,0,0,0,2,3,11.07,11.07,0,0,0,14.72,0,10.37,10.37,0,0,0,2.8-7.65V260.16a11.44,11.44,0,0,0-3.06-8.28A9.94,9.94,0,0,0,645.35,249.69Z"/><path class="cls-7" d="M231.74,334.19q15,0,25.81-5.36A37.5,37.5,0,0,0,274,313.35q5.67-10.14,5.67-24.16t-5.74-24a38,38,0,0,0-3.81-5.49,39.2,39.2,0,0,0-12.69-10q-10.77-5.42-25.68-5.41H206c-3.49,0-6.16.93-8,2.8s-2.81,4.55-2.81,8v68.19c0,3.49.94,6.16,2.81,8a8.85,8.85,0,0,0,3,2,13.58,13.58,0,0,0,5,.85Zm-13.13-71h11.47q13.13,0,19.69,6.37a18.54,18.54,0,0,1,2.4,2.94c2.76,4.13,4.16,9.67,4.16,16.69q0,13.26-6.56,19.7t-19.69,6.43H218.61Z"/><path class="cls-7" d="M360.34,335.33a12.07,12.07,0,0,0,7.84-2.74,8.45,8.45,0,0,0,3.38-6.82,11.87,11.87,0,0,0-2.3-6.5l-7.9-11.34c-.34-.49-.69-.94-1-1.39a27,27,0,0,0-3.76-4c-.46-.39-.93-.76-1.39-1.08a17.19,17.19,0,0,0-7.33-2.81q10.2-2.42,15.8-9.49t5.61-17.27q0-10.1-4.68-16.6A21.87,21.87,0,0,0,361,251.4q-8.22-7.07-24.53-7.07h-32q-5.22,0-8,2.8t-2.8,8v68.19a11.46,11.46,0,0,0,3.12,8.48,9.8,9.8,0,0,0,3,2,13.15,13.15,0,0,0,5.51,1.09q5.36,0,8.41-3.12a11.59,11.59,0,0,0,3.06-8.48V300.54H325a8.71,8.71,0,0,1,4.65,1.21,13.25,13.25,0,0,1,3.76,3.76l.63.93L350,329.73a12.72,12.72,0,0,0,4.36,4.06l.23.14A12.2,12.2,0,0,0,360.34,335.33ZM316.5,283V262h16.31q7.77,0,11.15,2.49a7.69,7.69,0,0,1,2.72,3.8,13,13,0,0,1,.66,4.29c0,3.66-1.13,6.29-3.38,7.91S338,283,332.81,283H316.5Z"/><path class="cls-7" d="M438.73,334.19q5.47,0,8.28-2.3a8.07,8.07,0,0,0,2.8-6.63,11.2,11.2,0,0,0-.47-3.35q-1.8-5.82-10.61-5.82H406.61V297.48h29.57q5.47,0,8.28-2.3a8.07,8.07,0,0,0,2.81-6.62,11.05,11.05,0,0,0-.45-3.23q-1.76-5.82-10.64-5.82H406.61V262.43h32.12q11.08,0,11.08-9.18a10.28,10.28,0,0,0-.43-3.08,7.29,7.29,0,0,0-2.37-3.55q-2.81-2.3-8.28-2.29H394.62c-3.48,0-6.16.93-8,2.8s-2.81,4.55-2.81,8v68.19c0,3.49.94,6.16,2.81,8a8.75,8.75,0,0,0,3,2,13.52,13.52,0,0,0,5,.85Z"/><path class="cls-7" d="M542.54,331.64a9.14,9.14,0,0,0,3.38-7.14,10.94,10.94,0,0,0-1.15-4.72L511.12,250.7c-.07-.15-.17-.28-.25-.43a11.7,11.7,0,0,0-4.72-4.86,14.82,14.82,0,0,0-14.34,0,11.87,11.87,0,0,0-4.91,5.29l-33.64,69.08a11.6,11.6,0,0,0-1.09,3.72,8.51,8.51,0,0,0-.06,1,8.75,8.75,0,0,0,2.68,6.38c.25.26.53.51.82.76a14.74,14.74,0,0,0,2.28,1.54,11.67,11.67,0,0,0,5.56,1.39,10,10,0,0,0,9.31-6.12l5.86-12.87h41.3l2.22,5,3.51,7.87a10.33,10.33,0,0,0,3.83,4.59,10,10,0,0,0,5.35,1.53A11.44,11.44,0,0,0,542.54,331.64Zm-43.27-62.08,3.62,8.08L512,298H486.52Z"/><path class="cls-7" d="M643.68,332.15a10.37,10.37,0,0,0,2.8-7.65V255.16a12.67,12.67,0,0,0-1.13-5.47,10,10,0,0,0-1.93-2.81,10.44,10.44,0,0,0-7.9-3.19q-6.76,0-10.71,7.65l-22.15,41.89-1.17,2.21L578,251.34c-.25-.47-.51-.9-.77-1.32a14.65,14.65,0,0,0-3.95-4.35,11.23,11.23,0,0,0-14.21,1.21,11.28,11.28,0,0,0-3.13,8.28V324.5a10.22,10.22,0,0,0,2.87,7.65,9.61,9.61,0,0,0,3,2,11,11,0,0,0,4.35.83,10.1,10.1,0,0,0,7.46-2.87,10.26,10.26,0,0,0,2.87-7.58V287.79l5,9,9.4,17a16.35,16.35,0,0,0,4.59,5.8,8.64,8.64,0,0,0,1.31.77,10.06,10.06,0,0,0,4.42.95,9.65,9.65,0,0,0,5.74-1.72,16.58,16.58,0,0,0,4.59-5.8L626.09,287V324.5a10.18,10.18,0,0,0,2.87,7.65,9.45,9.45,0,0,0,3,2,11,11,0,0,0,4.35.83A10,10,0,0,0,643.68,332.15Z"/></svg>