<svg xmlns="http://www.w3.org/2000/svg" xmlns:xlink="http://www.w3.org/1999/xlink" viewBox="0 0 2894.9 1377.03"><defs><style>.cls-1,.cls-8{fill:none;}.cls-2{isolation:isolate;}.cls-3{fill:#828282;}.cls-4{fill:#c69c6d;}.cls-5{mix-blend-mode:multiply;opacity:0.26;}.cls-6{fill:#29abe2;}.cls-7{fill:#ea5455;}.cls-8{stroke:#fff;stroke-linecap:round;stroke-miterlimit:10;stroke-width:9px;}.cls-9{mix-blend-mode:overlay;}.cls-10{clip-path:url(#clip-path);}.cls-11{fill:#93278f;}.cls-12{clip-path:url(#clip-path-2);}.cls-13{fill:#f9f38c;}.cls-14{fill:#ffd1dc;}.cls-15{clip-path:url(#clip-path-3);}.cls-16{clip-path:url(#clip-path-4);}.cls-17{fill:#7ac943;}.cls-18{mix-blend-mode:soft-light;}.cls-19{clip-path:url(#clip-path-5);}.cls-20{fill:#603813;}.cls-21{fill:#f92f01;}.cls-22{fill:#00b7d6;}.cls-23{fill:#eeede8;}.cls-24{fill:#bb7c6b;}.cls-25{fill:#f1b3dc;}.cls-26{fill:url(#linear-gradient);}.cls-27{fill:url(#linear-gradient-2);}.cls-28{clip-path:url(#clip-path-6);}.cls-29{fill:#f44552;}.cls-30{clip-path:url(#clip-path-7);}.cls-31{fill:#006837;}.cls-32{fill:#e6e6e6;}.cls-33{clip-path:url(#clip-path-8);}</style><clipPath id="clip-path"><path class="cls-1" d="M240.06,137.39h0A87.61,87.61,0,0,1,327.66,225V419.35a18.31,18.31,0,0,1-18.31,18.31H170.76a18.31,18.31,0,0,1-18.31-18.31V225a87.61,87.61,0,0,1,87.61-87.61Z"/></clipPath><clipPath id="clip-path-2"><path class="cls-1" d="M433.37,95.47h0a44.79,44.79,0,0,1,44.79,44.79V422.11a21.64,21.64,0,0,1-21.64,21.64h-46.3a21.64,21.64,0,0,1-21.64-21.64V140.26a44.79,44.79,0,0,1,44.79-44.79Z"/></clipPath><clipPath id="clip-path-3"><path class="cls-1" d="M974.28,86.51H861a42.06,42.06,0,0,0-42.06,42.07V414.31a35.53,35.53,0,0,0,35.53,35.53h10a5.74,5.74,0,0,1,5.73,5.73v21.34a5.84,5.84,0,0,0,5.46,5.89,5.74,5.74,0,0,0,6-5.73v-21.5a5.73,5.73,0,0,1,5.73-5.73h0a5.74,5.74,0,0,1,5.73,5.73v13.1a5.84,5.84,0,0,0,5.46,5.89,5.74,5.74,0,0,0,6-5.73V455.57a5.73,5.73,0,0,1,5.73-5.73h70.53a35.53,35.53,0,0,0,35.53-35.53V128.58A42.06,42.06,0,0,0,974.28,86.51Z"/></clipPath><clipPath id="clip-path-4"><path class="cls-1" d="M717.37,77.91H604.06A42.07,42.07,0,0,0,562,120V405.71a35.53,35.53,0,0,0,35.53,35.53h10a5.74,5.74,0,0,1,5.73,5.73v21.34a5.84,5.84,0,0,0,5.46,5.89,5.74,5.74,0,0,0,6-5.73V447a5.73,5.73,0,0,1,5.73-5.73h0a5.74,5.74,0,0,1,5.73,5.73v13.1a5.84,5.84,0,0,0,5.46,5.89,5.74,5.74,0,0,0,6-5.73V447a5.73,5.73,0,0,1,5.73-5.73H723.9a35.53,35.53,0,0,0,35.53-35.53V120A42.07,42.07,0,0,0,717.37,77.91Z"/></clipPath><clipPath id="clip-path-5"><path class="cls-1" d="M1198.54,98.34h0a109.82,109.82,0,0,1,109.82,109.82v238.6a25.65,25.65,0,0,1-25.65,25.65H1114.37a25.65,25.65,0,0,1-25.65-25.65V208.16A109.82,109.82,0,0,1,1198.54,98.34Z"/></clipPath><linearGradient id="linear-gradient" x1="2266.51" y1="708.52" x2="2266.51" y2="1137.52" gradientUnits="userSpaceOnUse"><stop offset="0" stop-color="#ff1d25"/><stop offset="0.07" stop-color="#ff3a24"/><stop offset="0.19" stop-color="#fe6a24"/><stop offset="0.31" stop-color="#fd9223"/><stop offset="0.44" stop-color="#fdb322"/><stop offset="0.57" stop-color="#fccd22"/><stop offset="0.7" stop-color="#fce021"/><stop offset="0.84" stop-color="#fcea21"/><stop offset="1" stop-color="#fcee21"/></linearGradient><linearGradient id="linear-gradient-2" x1="2266.51" y1="72.52" x2="2266.51" y2="501.52" xlink:href="#linear-gradient"/><clipPath id="clip-path-6"><path class="cls-1" d="M2375.65,501.52H2157.38a34,34,0,0,1-33.92-35.88l19-339.43a53.69,53.69,0,0,1,53.69-53.69h132.62a53.69,53.69,0,0,1,53.69,53.69l27.07,338.62A34,34,0,0,1,2375.65,501.52Z"/></clipPath><clipPath id="clip-path-7"><path class="cls-1" d="M2499.45,230v162.5h243V230A121.5,121.5,0,0,0,2621,108.52h0A121.5,121.5,0,0,0,2499.45,230Z"/></clipPath><clipPath id="clip-path-8"><path class="cls-1" d="M2536.36,501.52h169.18a36.91,36.91,0,0,0,36.91-36.91V424.52h-243v40.09A36.91,36.91,0,0,0,2536.36,501.52Z"/></clipPath></defs><g class="cls-2"><g id="Layer_1" data-name="Layer 1"><rect class="cls-3" x="0.45" y="-0.48" width="2895" height="1378"/><path class="cls-4" d="M645.49,440.17h30.1a0,0,0,0,1,0,0V592.09a15,15,0,0,1-15,15h0a15,15,0,0,1-15-15V440.17A0,0,0,0,1,645.49,440.17Z"/><polygon class="cls-5" points="645.49 440.17 675.59 440.17 675.59 452.66 645.49 440.17"/><path class="cls-4" d="M1183.31,472.41h30.1a0,0,0,0,1,0,0V624.34a15,15,0,0,1-15,15h0a15,15,0,0,1-15-15V472.41a0,0,0,0,1,0,0Z"/><polygon class="cls-5" points="1183.31 472.41 1213.41 472.41 1213.41 484.9 1183.31 472.41"/><path class="cls-4" d="M1547.72,495.7h30.1a0,0,0,0,1,0,0V647.63a15,15,0,0,1-15,15h0a15,15,0,0,1-15-15V495.7a0,0,0,0,1,0,0Z"/><polygon class="cls-5" points="1547.72 495.7 1577.82 495.7 1577.82 508.19 1547.72 495.7"/><path class="cls-4" d="M1884.53,495.7h30.1a0,0,0,0,1,0,0V647.63a15,15,0,0,1-15,15h0a15,15,0,0,1-15-15V495.7a0,0,0,0,1,0,0Z"/><polygon class="cls-5" points="1884.53 495.7 1914.63 495.7 1914.63 508.19 1884.53 495.7"/><path class="cls-6" d="M717.37,77.91H604.06A42.07,42.07,0,0,0,562,120V405.71a35.53,35.53,0,0,0,35.53,35.53h10a5.74,5.74,0,0,1,5.73,5.73v21.34a5.84,5.84,0,0,0,5.46,5.89,5.74,5.74,0,0,0,6-5.73V447a5.73,5.73,0,0,1,5.73-5.73h0a5.74,5.74,0,0,1,5.73,5.73v13.1a5.84,5.84,0,0,0,5.46,5.89,5.74,5.74,0,0,0,6-5.73V447a5.73,5.73,0,0,1,5.73-5.73H723.9a35.53,35.53,0,0,0,35.53-35.53V120A42.07,42.07,0,0,0,717.37,77.91Z"/><path class="cls-7" d="M309.35,1108.78H170.76a18.31,18.31,0,0,1-18.31-18.31V896.12a87.6,87.6,0,0,1,87.61-87.61h0a87.6,87.6,0,0,1,87.6,87.61v194.35A18.31,18.31,0,0,1,309.35,1108.78Z"/><path class="cls-4" d="M224.83,1108.78h30.1a0,0,0,0,1,0,0V1260.7a15,15,0,0,1-15,15h0a15,15,0,0,1-15-15V1108.78A0,0,0,0,1,224.83,1108.78Z"/><polygon class="cls-5" points="224.83 1108.78 254.93 1108.78 254.93 1121.27 224.83 1108.78"/><path class="cls-8" d="M239.88,819.26a74.84,74.84,0,0,1,74.88,74.89"/><path class="cls-7" d="M309.35,437.66H170.76a18.31,18.31,0,0,1-18.31-18.31V225a87.61,87.61,0,0,1,87.61-87.61h0A87.61,87.61,0,0,1,327.66,225V419.35A18.31,18.31,0,0,1,309.35,437.66Z"/><path class="cls-4" d="M224.83,437.66h30.1a0,0,0,0,1,0,0V589.58a15,15,0,0,1-15,15h0a15,15,0,0,1-15-15V437.66A0,0,0,0,1,224.83,437.66Z"/><polygon class="cls-5" points="224.83 437.66 254.93 437.66 254.93 450.15 224.83 437.66"/><path class="cls-8" d="M239.88,148.14A74.84,74.84,0,0,1,314.76,223"/><g class="cls-9"><g class="cls-10"><image width="1501" height="1409" transform="translate(2.67 81.5) scale(0.34)" xlink:href="../assets/Watercolour-Circles/10.png"/></g></g><path class="cls-11" d="M433.37,95.47h0a44.79,44.79,0,0,1,44.79,44.79V422.11a21.64,21.64,0,0,1-21.64,21.64h-46.3a21.64,21.64,0,0,1-21.64-21.64V140.26a44.79,44.79,0,0,1,44.79-44.79Z"/><path class="cls-4" d="M418.32,443.75h30.1a0,0,0,0,1,0,0V595.67a15,15,0,0,1-15,15h0a15,15,0,0,1-15-15V443.75A0,0,0,0,1,418.32,443.75Z"/><polygon class="cls-5" points="418.32 443.75 448.42 443.75 448.42 456.24 418.32 443.75"/><path class="cls-8" d="M433.55,105.68a35.82,35.82,0,0,1,35.83,35.83"/><path class="cls-11" d="M433.37,760.5h0a44.79,44.79,0,0,1,44.79,44.79v281.85a21.64,21.64,0,0,1-21.64,21.64h-46.3a21.64,21.64,0,0,1-21.64-21.64V805.29a44.79,44.79,0,0,1,44.79-44.79Z"/><path class="cls-4" d="M418.32,1108.78h30.1a0,0,0,0,1,0,0V1260.7a15,15,0,0,1-15,15h0a15,15,0,0,1-15-15V1108.78A0,0,0,0,1,418.32,1108.78Z"/><polygon class="cls-5" points="418.32 1108.78 448.42 1108.78 448.42 1121.27 418.32 1108.78"/><path class="cls-8" d="M433.55,770.71a35.82,35.82,0,0,1,35.83,35.83"/><g class="cls-9"><g class="cls-12"><image width="1344" height="1265" transform="translate(211.57 43.87) scale(0.35)" xlink:href="../assets/Watercolour-Circles/1.png"/></g></g><rect class="cls-13" x="562" y="111.95" width="197.43" height="37.26"/><rect class="cls-13" x="562" y="177.16" width="197.43" height="37.26"/><rect class="cls-13" x="562" y="242.38" width="197.43" height="37.26"/><rect class="cls-13" x="562" y="307.59" width="197.43" height="37.26"/><rect class="cls-13" x="562" y="372.8" width="197.43" height="37.26"/><path class="cls-4" d="M645.49,1107h30.1a0,0,0,0,1,0,0v151.92a15,15,0,0,1-15,15h0a15,15,0,0,1-15-15V1107A0,0,0,0,1,645.49,1107Z"/><polygon class="cls-5" points="645.49 1106.99 675.59 1106.99 675.59 1119.47 645.49 1106.99"/><path class="cls-6" d="M717.37,744.73H604.06A42.06,42.06,0,0,0,562,786.8v285.73a35.53,35.53,0,0,0,35.53,35.53h10a5.74,5.74,0,0,1,5.73,5.73v21.34a5.84,5.84,0,0,0,5.46,5.89,5.74,5.74,0,0,0,6-5.73v-21.5a5.73,5.73,0,0,1,5.73-5.73h0a5.74,5.74,0,0,1,5.73,5.73v13.1a5.84,5.84,0,0,0,5.46,5.89,5.74,5.74,0,0,0,6-5.73v-13.26a5.73,5.73,0,0,1,5.73-5.73H723.9a35.53,35.53,0,0,0,35.53-35.53V786.8A42.06,42.06,0,0,0,717.37,744.73Z"/><rect class="cls-13" x="562" y="778.77" width="197.43" height="37.26"/><rect class="cls-13" x="562" y="843.98" width="197.43" height="37.26"/><rect class="cls-13" x="562" y="909.2" width="197.43" height="37.26"/><rect class="cls-13" x="562" y="974.41" width="197.43" height="37.26"/><rect class="cls-13" x="562" y="1039.62" width="197.43" height="37.26"/><path class="cls-4" d="M902.4,1109.14h30.1a0,0,0,0,1,0,0v151.92a15,15,0,0,1-15,15h0a15,15,0,0,1-15-15V1109.14A0,0,0,0,1,902.4,1109.14Z"/><polygon class="cls-5" points="902.4 1109.13 932.5 1109.13 932.5 1121.63 902.4 1109.13"/><path class="cls-14" d="M974.28,746.88H861A42.06,42.06,0,0,0,818.91,789v285.73a35.53,35.53,0,0,0,35.53,35.53h10a5.74,5.74,0,0,1,5.73,5.73v21.34a5.84,5.84,0,0,0,5.46,5.89,5.74,5.74,0,0,0,6-5.73v-21.5a5.73,5.73,0,0,1,5.73-5.73h0a5.74,5.74,0,0,1,5.73,5.73V1129a5.84,5.84,0,0,0,5.46,5.89,5.74,5.74,0,0,0,6-5.73v-13.26a5.73,5.73,0,0,1,5.73-5.73h70.53a35.53,35.53,0,0,0,35.53-35.53V789A42.06,42.06,0,0,0,974.28,746.88Z"/><rect class="cls-13" x="818.91" y="780.92" width="197.43" height="37.26"/><rect class="cls-13" x="818.91" y="846.13" width="197.43" height="37.26"/><rect class="cls-13" x="818.91" y="911.35" width="197.43" height="37.26"/><rect class="cls-13" x="818.91" y="976.56" width="197.43" height="37.26"/><rect class="cls-13" x="818.91" y="1041.77" width="197.43" height="37.26"/><path class="cls-4" d="M902.4,448.77h30.1a0,0,0,0,1,0,0V600.69a15,15,0,0,1-15,15h0a15,15,0,0,1-15-15V448.77a0,0,0,0,1,0,0Z"/><polygon class="cls-5" points="902.4 448.77 932.5 448.77 932.5 461.25 902.4 448.77"/><path class="cls-14" d="M974.28,86.51H861a42.06,42.06,0,0,0-42.06,42.07V414.31a35.53,35.53,0,0,0,35.53,35.53h10a5.74,5.74,0,0,1,5.73,5.73v21.34a5.84,5.84,0,0,0,5.46,5.89,5.74,5.74,0,0,0,6-5.73v-21.5a5.73,5.73,0,0,1,5.73-5.73h0a5.74,5.74,0,0,1,5.73,5.73v13.1a5.84,5.84,0,0,0,5.46,5.89,5.74,5.74,0,0,0,6-5.73V455.57a5.73,5.73,0,0,1,5.73-5.73h70.53a35.53,35.53,0,0,0,35.53-35.53V128.58A42.06,42.06,0,0,0,974.28,86.51Z"/><rect class="cls-13" x="818.91" y="120.55" width="197.43" height="37.26"/><rect class="cls-13" x="818.91" y="185.76" width="197.43" height="37.26"/><rect class="cls-13" x="818.91" y="250.98" width="197.43" height="37.26"/><rect class="cls-13" x="818.91" y="316.19" width="197.43" height="37.26"/><rect class="cls-13" x="818.91" y="381.4" width="197.43" height="37.26"/><g class="cls-9"><g class="cls-15"><image width="1512" height="1498" transform="translate(508.25 10.55) scale(0.38)" xlink:href="../assets/Watercolour-Circles/25.png"/></g></g><g class="cls-9"><g class="cls-16"><image width="1634" height="1557" transform="translate(422.26 28.47) scale(0.3)" xlink:href="../assets/Watercolour-Circles/24.png"/></g></g><path class="cls-17" d="M1198.54,95.47h0a109.82,109.82,0,0,1,109.82,109.82V412.36A25.65,25.65,0,0,1,1282.71,438H1114.37a25.65,25.65,0,0,1-25.65-25.65V205.29A109.82,109.82,0,0,1,1198.54,95.47Z"/><path class="cls-17" d="M1198.54,98.34h0a109.82,109.82,0,0,1,109.82,109.82v238.6a25.65,25.65,0,0,1-25.65,25.65H1114.37a25.65,25.65,0,0,1-25.65-25.65V208.16A109.82,109.82,0,0,1,1198.54,98.34Z"/><g class="cls-18"><g class="cls-19"><image width="1285" height="1369" transform="translate(982.66 41.01) scale(0.36)" xlink:href="../assets/Watercolour-Circles/18.png"/></g></g><path class="cls-20" d="M1191.84,95.67a109.85,109.85,0,0,0-103.12,109.62V220a17.38,17.38,0,0,0,17.38,17.38h14.69A17.38,17.38,0,0,0,1138.17,220V208.52a17.38,17.38,0,0,1,17.38-17.38h12.18a17.38,17.38,0,0,1,17.38,17.38V220a17.38,17.38,0,0,0,17.37,17.38h0a17.38,17.38,0,0,1,17.38,17.38V289.5a17.38,17.38,0,0,0,17.38,17.37h12.18a17.38,17.38,0,0,0,17.38-17.37V254.74a17.38,17.38,0,0,1,17.38-17.38H1291A17.38,17.38,0,0,0,1308.37,220V206.25C1308.37,142.08,1255.9,91.82,1191.84,95.67Z"/><path class="cls-8" d="M1198.36,109.09a88.45,88.45,0,0,1,88.51,88.5"/><path class="cls-4" d="M1183.31,1112h30.1a0,0,0,0,1,0,0v151.92a15,15,0,0,1-15,15h0a15,15,0,0,1-15-15V1112A0,0,0,0,1,1183.31,1112Z"/><polygon class="cls-5" points="1183.31 1112 1213.41 1112 1213.41 1124.49 1183.31 1112"/><path class="cls-17" d="M1198.54,740.07h0A109.82,109.82,0,0,1,1308.37,849.9V1091a21,21,0,0,1-21,21h-177.7a21,21,0,0,1-21-21V849.9A109.82,109.82,0,0,1,1198.54,740.07Z"/><path class="cls-20" d="M1191.84,740.27A109.85,109.85,0,0,0,1088.72,849.9v14.69A17.38,17.38,0,0,0,1106.1,882h14.69a17.38,17.38,0,0,0,17.38-17.38V853.12a17.38,17.38,0,0,1,17.38-17.38h12.18a17.38,17.38,0,0,1,17.38,17.38v11.47A17.38,17.38,0,0,0,1202.48,882h0a17.38,17.38,0,0,1,17.38,17.37V934.1a17.38,17.38,0,0,0,17.38,17.38h12.18a17.38,17.38,0,0,0,17.38-17.38V899.34A17.38,17.38,0,0,1,1284.18,882H1291a17.39,17.39,0,0,0,17.38-17.38V850.86a111,111,0,0,0-31.74-78.34A109,109,0,0,0,1191.84,740.27Z"/><path class="cls-8" d="M1198.36,753.69a88.45,88.45,0,0,1,88.51,88.5"/><path class="cls-21" d="M1492.83,495.7h139.51a43.3,43.3,0,0,0,43.3-43.29V360.62h-226.1v91.79A43.29,43.29,0,0,0,1492.83,495.7Z"/><path class="cls-22" d="M1449.54,165.14v62.91h226.1V165.14A62.16,62.16,0,0,0,1613.49,103h-101.8A62.16,62.16,0,0,0,1449.54,165.14Z"/><rect class="cls-23" x="1449.54" y="228.05" width="226.1" height="132.58"/><path class="cls-24" d="M1821.58,495.7h155.65a35.22,35.22,0,0,0,35.22-35.22V360.62h-226.1v99.86A35.22,35.22,0,0,0,1821.58,495.7Z"/><path class="cls-25" d="M1786.35,138.19v89.86h226.1V138.19a35.2,35.2,0,0,0-35.19-35.2H1821.55A35.2,35.2,0,0,0,1786.35,138.19Z"/><rect class="cls-23" x="1786.35" y="228.05" width="226.1" height="132.58"/><path class="cls-4" d="M1547.72,1124.54h30.1a0,0,0,0,1,0,0v151.92a15,15,0,0,1-15,15h0a15,15,0,0,1-15-15V1124.54A0,0,0,0,1,1547.72,1124.54Z"/><polygon class="cls-5" points="1547.72 1124.54 1577.82 1124.54 1577.82 1137.03 1547.72 1124.54"/><path class="cls-4" d="M1884.53,1124.54h30.1a0,0,0,0,1,0,0v151.92a15,15,0,0,1-15,15h0a15,15,0,0,1-15-15V1124.54A0,0,0,0,1,1884.53,1124.54Z"/><polygon class="cls-5" points="1884.53 1124.54 1914.63 1124.54 1914.63 1137.03 1884.53 1124.54"/><path class="cls-4" d="M2251.53,1137.54h30.1a0,0,0,0,1,0,0v151.92a15,15,0,0,1-15,15h0a15,15,0,0,1-15-15V1137.54A0,0,0,0,1,2251.53,1137.54Z"/><polygon class="cls-5" points="2251.53 1137.54 2281.63 1137.54 2281.63 1150.03 2251.53 1137.54"/><path class="cls-21" d="M1492.83,1124.54h139.51a43.3,43.3,0,0,0,43.3-43.29V989.46h-226.1v91.79A43.29,43.29,0,0,0,1492.83,1124.54Z"/><path class="cls-22" d="M1449.54,794v62.9h226.1V794a62.16,62.16,0,0,0-62.15-62.15h-101.8A62.16,62.16,0,0,0,1449.54,794Z"/><rect class="cls-23" x="1449.54" y="856.88" width="226.1" height="132.58"/><path class="cls-24" d="M1821.58,1124.54h155.65a35.22,35.22,0,0,0,35.22-35.22V989.46h-226.1v99.86A35.22,35.22,0,0,0,1821.58,1124.54Z"/><path class="cls-25" d="M1786.35,767v89.86h226.1V767a35.2,35.2,0,0,0-35.19-35.19H1821.55A35.2,35.2,0,0,0,1786.35,767Z"/><rect class="cls-23" x="1786.35" y="856.88" width="226.1" height="132.58"/><path class="cls-26" d="M2375.65,1137.52H2157.38a34,34,0,0,1-33.92-35.88l19-339.43a53.69,53.69,0,0,1,53.69-53.69h132.62a53.69,53.69,0,0,1,53.69,53.69l27.07,338.62A34,34,0,0,1,2375.65,1137.52Z"/><path class="cls-4" d="M2251.53,501.54h30.1a0,0,0,0,1,0,0V653.47a15,15,0,0,1-15,15h0a15,15,0,0,1-15-15V501.54A0,0,0,0,1,2251.53,501.54Z"/><polygon class="cls-5" points="2251.53 501.54 2281.63 501.54 2281.63 514.03 2251.53 501.54"/><path class="cls-4" d="M2605.53,501.54h30.1a0,0,0,0,1,0,0V653.47a15,15,0,0,1-15,15h0a15,15,0,0,1-15-15V501.54A0,0,0,0,1,2605.53,501.54Z"/><polygon class="cls-5" points="2605.53 501.54 2635.63 501.54 2635.63 514.03 2605.53 501.54"/><path class="cls-4" d="M2605.53,1128.54h30.1a0,0,0,0,1,0,0v151.92a15,15,0,0,1-15,15h0a15,15,0,0,1-15-15V1128.54a0,0,0,0,1,0,0Z"/><polygon class="cls-5" points="2605.53 1128.54 2635.63 1128.54 2635.63 1141.03 2605.53 1128.54"/><path class="cls-27" d="M2375.65,501.52H2157.38a34,34,0,0,1-33.92-35.88l19-339.43a53.69,53.69,0,0,1,53.69-53.69h132.62a53.69,53.69,0,0,1,53.69,53.69l27.07,338.62A34,34,0,0,1,2375.65,501.52Z"/><g class="cls-9"><g class="cls-28"><image width="1400" height="1601" transform="translate(2069.45 -189.48) scale(0.58)" xlink:href="../assets/Watercolour-Circles/8.png"/></g></g><path class="cls-29" d="M2499.45,230v162.5h243V230A121.5,121.5,0,0,0,2621,108.52h0A121.5,121.5,0,0,0,2499.45,230Z"/><g class="cls-30"><image width="1443" height="1354" transform="translate(2260.45 -51.48) scale(0.5)" xlink:href="../assets/Watercolour-Circles/3.png"/></g><path class="cls-31" d="M2536.36,501.52h169.18a36.91,36.91,0,0,0,36.91-36.91V424.52h-243v40.09A36.91,36.91,0,0,0,2536.36,501.52Z"/><rect class="cls-32" x="2499.45" y="392.52" width="243" height="32"/><rect class="cls-32" x="2499.45" y="392.52" width="243" height="32"/><path d="M2595.45,182a7.5,7.5,0,0,1-15,0c0-4.15,7.5-19.29,7.5-19.29S2595.45,177.87,2595.45,182Z"/><path d="M2556.45,258a7.5,7.5,0,0,1-15,0c0-4.15,7.5-19.29,7.5-19.29S2556.45,253.87,2556.45,258Z"/><path d="M2575.45,365a7.5,7.5,0,0,1-15,0c0-4.15,7.5-19.29,7.5-19.29S2575.45,360.87,2575.45,365Z"/><path class="cls-29" d="M2499.45,857v162.5h243V857A121.5,121.5,0,0,0,2621,735.52h0A121.5,121.5,0,0,0,2499.45,857Z"/><path class="cls-31" d="M2536.36,1128.52h169.18a36.91,36.91,0,0,0,36.91-36.91v-40.09h-243v40.09A36.91,36.91,0,0,0,2536.36,1128.52Z"/><rect class="cls-32" x="2499.45" y="1019.52" width="243" height="32"/><path d="M2595.45,809a7.5,7.5,0,0,1-15,0c0-4.15,7.5-19.29,7.5-19.29S2595.45,804.87,2595.45,809Z"/><path d="M2556.45,885a7.5,7.5,0,0,1-15,0c0-4.15,7.5-19.29,7.5-19.29S2556.45,880.87,2556.45,885Z"/><path d="M2575.45,992a7.5,7.5,0,0,1-15,0c0-4.15,7.5-19.29,7.5-19.29S2575.45,987.87,2575.45,992Z"/><g class="cls-9"><g class="cls-33"><image width="1360" height="1451" transform="translate(2377.45 150.52) scale(0.35)" xlink:href="../assets/Watercolour-Circles/16.png"/></g></g></g></g></svg>