<svg xmlns="http://www.w3.org/2000/svg" data-name="Layer 1" viewBox="0 0 389.29 603.91" fill="#6c63ff" width="32" height="32">
  <path fill="none" d="M216.85,506.42c1-.05,1.91-.19,2.87-.26s1.91-.18,2.86-.34l2.84-.39,2.83-.53c.95-.15,1.89-.37,2.83-.6s1.9-.41,2.8-.65c1.76-.53,3.58-.94,5.24-1.56a69.43,69.43,0,0,0,9.66-3.94,64.42,64.42,0,0,0,8.69-5.17"/>
  <path d="M260.62,497.46a69.51,69.51,0,0,1-9.4,5.59,73,73,0,0,1-10.38,4.24c-1.79.66-3.72,1.11-5.6,1.66-1,.26-2,.46-3,.7s-2,.47-3,.63l-3,.56-3,.42c-1,.16-2,.26-3,.35s-2,.22-3,.28c-2.19.1-4-2.23-4.11-5.26s1.41-5.59,3.33-5.67c.91,0,1.8-.18,2.71-.26s1.8-.16,2.69-.31l2.68-.37,2.67-.5c.89-.13,1.78-.35,2.66-.56s1.8-.39,2.64-.62c1.64-.49,3.36-.88,4.9-1.45a62.21,62.21,0,0,0,8.93-3.65,59.89,59.89,0,0,0,8-4.74,2.66,2.66,0,0,1,2.69,0,8.26,8.26,0,0,1,3.1,2.49,7.19,7.19,0,0,1,1.57,3.69A3,3,0,0,1,260.62,497.46Z"/>
  <path fill="none" d="M98,441.53a141.36,141.36,0,0,0,18.24,25.73,108.78,108.78,0,0,0,22.61,19c2,1.4,4.25,2.5,6.38,3.75,1.05.65,2.21,1.14,3.33,1.7l3.36,1.67,3.52,1.47c1.17.49,2.3,1.05,3.54,1.45l3.65,1.33c.63.23,1.15.46,1.88.68l2.06.67c5.51,1.77,10.93,3.32,16.21,4.5A136.56,136.56,0,0,0,198.2,506"/>
  <path fill="none" d="M266.4,516.59a98.61,98.61,0,0,0,18.93-15.09"/>
  <path d="M289.25,505.33a103.83,103.83,0,0,1-20,15.95c-2.29,1.3-5.26.23-6.69-2.47s-1-5.78,1-6.91a93,93,0,0,0,17.84-14.23c1.62-1.75,4.79-1.53,7,.48S291.08,503.36,289.25,505.33Z"/>
  <path fill="none" d="M205.88,531.25a119.71,119.71,0,0,0,24.84-1.73c2-.38,4.08-.73,6.09-1.24,1-.24,2-.45,3-.7l2.95-.83c2-.49,3.87-1.21,5.81-1.82,1-.29,1.88-.7,2.82-1l2.8-1.09"/>
  <path d="M256.34,527.84a118.56,118.56,0,0,1-24.68,7.08,125.68,125.68,0,0,1-25.95,1.81,4.31,4.31,0,0,1-3.38-1.75,5.75,5.75,0,0,1-1.17-4,6,6,0,0,1,1.6-3.77,4.49,4.49,0,0,1,3.28-1.47,115.08,115.08,0,0,0,23.73-1.66c1.95-.36,3.9-.69,5.83-1.18,1-.23,1.94-.43,2.89-.67l2.8-.79c1.89-.46,3.67-1.15,5.5-1.72.92-.28,1.78-.67,2.67-1l2.64-1c2.1-1,4.89.5,6.21,3.22S258.75,526.75,256.34,527.84Z"/>
  <path fill="none" d="M141.84,515.85l5.89,2.5c1,.45,2,.79,3,1.16l3,1.11c1,.36,2,.76,3.06,1.09l3.21,1c2.14.73,4.29,1.3,6.42,2a179,179,0,0,0,25.6,5.42"/>
  <path fill="none" d="M68.58,438.09l.6,1.37.65,1.33,1.31,2.65c.88,1.77,1.72,3.56,2.63,5.3l2.84,5.14L78,456.45l1.53,2.48"/>
  <path fill="none" d="M132.19,537c4.16,1.76,8.28,3.62,12.55,5.07,2.12.78,4.24,1.57,6.38,2.23s4.28,1.39,6.44,2a210.77,210.77,0,0,0,26.3,6.12,151.7,151.7,0,0,0,54-.58"/>
  <path fill="none" d="M51.35,456c.64,1.27,1.23,2.58,1.93,3.83l2.07,3.76c1.39,2.5,2.73,5,4.29,7.44"/>
  <path fill="none" d="M123.11,557l5.67,2.42,2.85,1.21c.94.4,1.91.72,2.87,1.08l5.76,2.11,1.44.52,1.4.45,2.8.91c7.49,2.39,15.17,4.52,23,6.24a186.45,186.45,0,0,0,49.18,4.38,163.85,163.85,0,0,0,25-3.13,157.84,157.84,0,0,0,24.51-7.12A138.66,138.66,0,0,0,291,554.51a136.87,136.87,0,0,0,20.74-15.74"/>
  <path fill="none" d="M36.32,474.41c1.47,2.67,2.91,5.34,4.57,7.93"/>
  <path d="M317.09,535c1.51,2.25.62,5.83-1.92,8.11a144.55,144.55,0,0,1-22.29,16.74,142.17,142.17,0,0,1-25.13,12.08c-4.32,1.56-8.69,3-13.07,4.15-1.09.3-2.19.63-3.28.88l-3.27.76-3.27.74-3.3.63a173.33,173.33,0,0,1-26.66,2.88,196.28,196.28,0,0,1-51.8-5.73c-8.24-2-16.16-4.32-24-7L133,567l-3-1.14-3-1.27-6-2.56c-2-.93-3.94-1.91-5.91-2.87a7.49,7.49,0,0,0-4.86-.63,4.81,4.81,0,0,0-3.61,6.86,7.38,7.38,0,0,0,3.59,3.58l5,2.43c1.66.81,3.36,1.47,5,2.21,3.1,1.31,5.3,4.27,4.87,6.95a4.6,4.6,0,0,1-3.11,3.6,8,8,0,0,1-5.74-.33,206.93,206.93,0,0,1-71-50.12,233.55,233.55,0,0,1-25.6-33.78l-2.72-4.4-1.35-2.21-1.25-2.22-4.92-8.93c-3-6-6.06-12-8.59-18-1.32-3-.83-6.52,1.45-8,2.9-1.92,6.9-.23,8.43,3.27a261.55,261.55,0,0,0,21.5,39.86c2.09,3,5.8,4.08,8.26,2.32s2.85-5.5.87-8.37c-.91-1.27-1.67-2.6-2.5-3.9l-2.43-3.93c-.79-1.31-1.65-2.61-2.38-3.94l-2.22-4c-1.5-2.72-1.26-6.13.89-7.81,2.73-2.12,6.79-1,8.52,2.17a207.37,207.37,0,0,0,23.82,34.63c2.21,2.55,5.82,2.95,8,.89a5.81,5.81,0,0,0,.28-8c-2.75-3-5.12-6.33-7.64-9.52l-.93-1.21-.87-1.25-1.74-2.5c-1.14-1.67-2.32-3.33-3.44-5l-3.2-5.16c-1-1.73-2.17-3.42-3.11-5.21l-2.93-5.3-1.45-2.65-1.34-2.71a5.74,5.74,0,0,1,1.5-7.26,5.57,5.57,0,0,1,8.14,2c1.51,3.24,3.33,6.3,5,9.43a5.91,5.91,0,0,0,8.34,2A6.15,6.15,0,0,0,72,456.85l-2.18-4-1.1-2-1-2c-1.32-2.74-2.73-5.42-4-8.2a5.41,5.41,0,0,1,2-6.74c2.94-1.82,6.65-.82,7.83,1.9a188.87,188.87,0,0,0,17.81,31.12,5,5,0,0,0,4.06,2.1,7.45,7.45,0,0,0,4.85-1.65h0a8,8,0,0,0,2.87-4.21,5.2,5.2,0,0,0-.65-4.23,157.12,157.12,0,0,1-9.18-14.49,4.84,4.84,0,0,1,1.75-6.21c2.81-2,6.46-1.6,7.67.6a135.56,135.56,0,0,0,17.48,24.68,103,103,0,0,0,21.43,18A111.64,111.64,0,0,0,154,488.29l3.34,1.42c1.13.45,2.19,1,3.38,1.39l3.49,1.27c.6.21,1.12.43,1.78.64l2,.65a150.6,150.6,0,0,0,30.52,6.89,3.52,3.52,0,0,1,2.42,1.52,6,6,0,0,1,1.12,3.36,7,7,0,0,1-1.22,4.43,3.62,3.62,0,0,1-3.27,1.61l-1.63-.16-1.65-.23c-1.1-.16-2.2-.29-3.3-.46-2.23-.4-4.44-.74-6.7-1.25s-4.53-1-6.8-1.54l-3.44-.92c-1.15-.29-2.3-.62-3.46-1l-3.48-1-3.51-1.14c-.57-.19-1.21-.38-1.72-.57l-1.57-.58-3.15-1.15a129,129,0,0,1-12-5.32,5,5,0,0,0-4.15.07,8.2,8.2,0,0,0-3.7,3.48h0a7.61,7.61,0,0,0-1,5,4.79,4.79,0,0,0,2.6,3.64l3.07,1.51c1,.5,2,1,3.1,1.44,2.13.87,4.2,1.84,6.36,2.66l6.53,2.39c2.34.73,4.68,1.56,7,2.22,4.67,1.45,9.31,2.59,13.94,3.69l3.46.71,1.73.36,1.72.3,3.44.59,3.43.47a4.53,4.53,0,0,1,3.07,2,6.16,6.16,0,0,1,1,4,5.71,5.71,0,0,1-1.8,3.7,4.4,4.4,0,0,1-3.66,1.19,179.45,179.45,0,0,1-23.63-4.83c-3.93-1.05-7.85-2.25-11.77-3.54-2-.61-3.78-1.35-5.68-2s-3.76-1.33-5.56-2.15c-2.82-1.2-6.26.34-7.7,3.43a5.89,5.89,0,0,0,3,8c1.87.84,3.81,1.53,5.74,2.23s3.83,1.45,5.81,2.08q5.88,1.95,11.85,3.61a192.72,192.72,0,0,0,24.14,5.14,145,145,0,0,0,48.87-.91,6.48,6.48,0,0,1,3.83.49,5.35,5.35,0,0,1,2.69,2.75,5.28,5.28,0,0,1-.22,4.66,5.54,5.54,0,0,1-3.85,2.79c-21.77,4.37-44.4,3.42-65.69-1.23-2.68-.54-5.31-1.23-8-1.86s-5.27-1.36-7.86-2.16l-3.9-1.16-3.86-1.24c-2.57-.79-5.15-1.77-7.72-2.71a171.49,171.49,0,0,1-29.7-14.29,5.75,5.75,0,0,0-7.87,1.48h0c-1.68,2.51-.72,6,2.16,7.87A175.58,175.58,0,0,0,130.3,554.1c4.06,1.83,8.25,3.22,12.39,4.76,2.07.73,4.08,1.34,6.12,2s4.12,1.24,6.18,1.87A199.54,199.54,0,0,0,207.06,571a161.87,161.87,0,0,0,27-1.79c4.47-.69,8.92-1.55,13.3-2.61,2.2-.46,4.4-1.15,6.6-1.74s4.38-1.34,6.57-2a135.63,135.63,0,0,0,25.23-11.54,133.88,133.88,0,0,0,22.33-16.56,7.12,7.12,0,0,1,4.81-1.93A5,5,0,0,1,317.09,535Z"/>
  <path fill="none" d="M150.9,590A243.78,243.78,0,0,0,185.3,597,200.37,200.37,0,0,0,222.14,598c1.56-.07,3.12-.2,4.68-.36l4.67-.46c3.11-.39,6.22-.82,9.31-1.32l4.63-.84c1.54-.28,3.08-.58,4.59-.94,3-.7,6.07-1.35,9.17-2.26a165.54,165.54,0,0,0,36.35-14.6"/>
  <path d="M298.18,582.06a171.25,171.25,0,0,1-37.55,15.09c-3.2.93-6.3,1.6-9.44,2.32-1.56.37-3.14.68-4.73,1l-4.76.87c-3.18.51-6.38,1-9.58,1.35l-4.81.47c-1.6.17-3.21.31-4.81.38a207,207,0,0,1-37.87-1.12,249.71,249.71,0,0,1-35.18-7.06c-3.61-1-5.69-4.22-4.83-7.09a5.12,5.12,0,0,1,2.91-3.18,7.34,7.34,0,0,1,4.82-.3A238,238,0,0,0,186,591.51a194.85,194.85,0,0,0,35.83,1.06c1.51-.06,3-.2,4.54-.35l4.54-.45c3-.37,6-.79,9-1.27l4.48-.82c1.5-.27,3-.56,4.46-.92,3-.68,5.9-1.31,8.9-2.19a160.13,160.13,0,0,0,35.15-14.11c3.54-2,7.71-1.61,9.3.93S302,579.87,298.18,582.06Z"/>
  <path fill="none" d="M5.58,461.56l1.79,4.06.89,2,1,2,4,8.07c.64,1.35,1.38,2.68,2.12,4l2.2,4,2.22,4c.73,1.33,1.59,2.64,2.38,3.95"/>
  <path fill="none" d="M278.81,394.09c-7.45-10.75-21.79-22.42-38.6-33.35"/>
  <path d="M243.22,356.16c17,11.1,31.89,23,40,34.73a3.63,3.63,0,0,1,.37,3.32,6.45,6.45,0,0,1-2.56,3.14c-2.51,1.67-5.47,1.67-6.71-.06-6.75-9.82-20.59-21.22-37.15-32a5.48,5.48,0,0,1,6-9.17Z"/>
  <path fill="none" d="M282.54,464.56a91.89,91.89,0,0,0,7.27-15.08A55.81,55.81,0,0,0,292.9,436a46.14,46.14,0,0,0-.64-13.05,43,43,0,0,0-1.63-6.63,59.5,59.5,0,0,0-2.66-6.8"/>
  <path d="M293,407.19a68.18,68.18,0,0,1,2.9,7.41,48.43,48.43,0,0,1,1.8,7.31,51.76,51.76,0,0,1,.7,14.54A60.91,60.91,0,0,1,295,451.33a97.16,97.16,0,0,1-7.72,16c-1.21,2-4.27,2.24-6.81.59s-3.7-4.43-2.61-6.19a86.63,86.63,0,0,0,6.82-14.13,50,50,0,0,0,2.79-12.18,41,41,0,0,0-.57-11.57l-.27-1.51c-.12-.49-.23-1-.34-1.46s-.27-1-.39-1.48l-.46-1.48a54.68,54.68,0,0,0-2.42-6.19,2.8,2.8,0,0,1,.5-2.68,7.78,7.78,0,0,1,3-2.62,6.94,6.94,0,0,1,3.93-.84A3,3,0,0,1,293,407.19Z"/>
  <path fill="none" d="M259.79,344.17c-.94-.66-1.9-1.3-2.87-1.94l-2.94-2-6.2-4-12.4-8.09"/>
  <path d="M238.38,323.56l12.4,8.09,6.2,4.05c2,1.35,4,2.6,5.9,3.94a5.25,5.25,0,0,1,1.09,7.44,5.34,5.34,0,0,1-7.27,1.61c-.92-.64-1.87-1.27-2.82-1.9l-2.9-1.92-6.2-4.05-12.39-8.09a5.48,5.48,0,0,1,6-9.17Z"/>
  <path fill="none" d="M305.82,390.44c-2.06-3.56-4.36-7.07-6.85-10.56-.63-.84-1.29-1.79-1.89-2.55s-1.14-1.54-1.79-2.29c-1.23-1.53-2.53-3.05-3.92-4.54a156.94,156.94,0,0,0-19-17.23"/>
  <path d="M275.69,349a162.35,162.35,0,0,1,19.71,17.84q2.19,2.37,4.15,4.8c.68.8,1.27,1.63,1.91,2.44s1.31,1.78,2,2.66c2.58,3.61,5,7.27,7.14,11,1.36,2.33.18,5.37-2.51,6.75s-5.75.83-7-1.25q-3-5.07-6.58-10.12l-.92-1.25c-.3-.41-.62-.87-.88-1.2-.57-.71-1.07-1.42-1.68-2.14s-1.15-1.43-1.79-2.14-1.24-1.43-1.91-2.14A151.57,151.57,0,0,0,269,357.6c-2.13-1.64-2.41-4.93-.63-7.36A5.23,5.23,0,0,1,275.69,349Z"/>
  <path fill="none" d="M294.39,491A142,142,0,0,0,308,469.52a93.54,93.54,0,0,0,8.12-22.4c.48-1.88.68-3.76,1-5.64l.3-2.82.16-1.41.06-1.42a72.47,72.47,0,0,0-.22-11.31c-.28-1.88-.39-3.78-.81-5.66l-.52-2.84c-.23-.93-.43-1.86-.67-2.79a82,82,0,0,0-3.7-11"/>
  <path d="M316.76,400.11a88.3,88.3,0,0,1,3.95,11.76c.26,1,.47,2,.71,3l.56,3c.45,2,.58,4.05.87,6.08a77.3,77.3,0,0,1,.24,12.17l-.07,1.52-.17,1.52-.32,3c-.37,2-.6,4-1.1,6a98.65,98.65,0,0,1-8.6,23.73,147.38,147.38,0,0,1-14.09,22.31c-1.68,2.13-4.92,2.3-7.26.32s-3-5.07-1.44-7a137.36,137.36,0,0,0,13-20.59A88.33,88.33,0,0,0,310.72,446c.44-1.74.62-3.49.95-5.23l.28-2.61.14-1.3.06-1.3a67.57,67.57,0,0,0-.2-10.45c-.27-1.75-.36-3.5-.76-5.26l-.48-2.63-.61-2.59a78.64,78.64,0,0,0-3.46-10.28c-.86-2.08.54-4.84,3.26-6.16S315.76,397.69,316.76,400.11Z"/>
  <path fill="none" d="M318.21,497.73a139.84,139.84,0,0,0,17.84-35.38,97.94,97.94,0,0,0,4.59-39.47c-.17-1.66-.4-3.31-.6-5s-.58-3.28-.86-4.92a85.43,85.43,0,0,0-2.39-9.71,110.07,110.07,0,0,0-7.51-18.46,140.5,140.5,0,0,0-10.31-17,119.66,119.66,0,0,0-12.6-15.39"/>
  <path d="M310.33,348.66c2.38,2.49,4.7,5.06,6.9,7.77,1.12,1.33,2.18,2.74,3.24,4.13s2,2.74,3,4.14a148.37,148.37,0,0,1,10.7,17.62A116.23,116.23,0,0,1,342,401.7a94.25,94.25,0,0,1,2.52,10.23c.3,1.74.69,3.45.9,5.2s.45,3.49.64,5.24A103.55,103.55,0,0,1,341.26,464a145.24,145.24,0,0,1-18.52,36.77,5.48,5.48,0,0,1-3.62,2.4,5.34,5.34,0,0,1-4.11-.94,5.6,5.6,0,0,1-2.2-3.57,5.68,5.68,0,0,1,.87-4.05,134.77,134.77,0,0,0,17.16-34,92.52,92.52,0,0,0,4.35-37.27c-.17-1.57-.39-3.13-.58-4.69s-.54-3.1-.8-4.66a82.89,82.89,0,0,0-2.26-9.17,105,105,0,0,0-7.14-17.55A136.48,136.48,0,0,0,314.48,371c-.9-1.32-1.86-2.6-2.8-3.9s-1.91-2.51-2.93-3.72c-2-2.46-4.12-4.82-6.33-7.11a5.61,5.61,0,0,1,0-7.73A5.45,5.45,0,0,1,310.33,348.66Z"/>
  <path fill="none" d="M299,520.69l2.52-2.45c.83-.83,1.61-1.71,2.42-2.55s1.62-1.7,2.38-2.59l2.29-2.67"/>
  <path d="M312.8,514l-2.38,2.77c-.79.92-1.66,1.79-2.48,2.69s-1.65,1.8-2.52,2.66l-2.63,2.56a5.44,5.44,0,0,1-4.09,1.6,5.21,5.21,0,0,1-3.81-1.8,5.56,5.56,0,0,1-1.37-4,5.7,5.7,0,0,1,1.69-3.75l2.41-2.35c.8-.79,1.54-1.64,2.32-2.45s1.55-1.62,2.28-2.48l2.2-2.56a5.74,5.74,0,0,1,3.65-1.92,5.64,5.64,0,0,1,4,1.13,5.32,5.32,0,0,1,2,3.7A5.51,5.51,0,0,1,312.8,514Z"/>
  <path fill="none" d="M341.77,501.61a159.65,159.65,0,0,0,13.69-28.26,126.23,126.23,0,0,0,7.13-32.21,120,120,0,0,0-2.08-33.3,126.66,126.66,0,0,0-10.69-31,167.77,167.77,0,0,0-16.38-26.43,156.84,156.84,0,0,0-21.49-23,258,258,0,0,0-23.17-18.2q-3-2.07-5.93-4.07l-3-2-2.81-1.84-11.2-7.31"/>
  <path d="M268.85,289.46l11.2,7.31,2.82,1.85,3,2c2,1.35,4,2.74,6,4.14a261.26,261.26,0,0,1,23.66,18.59,162.6,162.6,0,0,1,22.24,23.81,174,174,0,0,1,16.91,27.29,132.73,132.73,0,0,1,11.14,32.28,126.07,126.07,0,0,1,2.17,34.85,131.86,131.86,0,0,1-7.43,33.62,164.63,164.63,0,0,1-14.17,29.24c-1.86,3.05-5.47,4.13-8,2.46a5.25,5.25,0,0,1-2.27-3.62,6.55,6.55,0,0,1,.91-4.52,153.46,153.46,0,0,0,13.23-27.29,120.77,120.77,0,0,0,6.82-30.78,115.27,115.27,0,0,0-2-31.77,121.49,121.49,0,0,0-10.24-29.63,163.53,163.53,0,0,0-15.86-25.57,152.16,152.16,0,0,0-20.75-22.19,250.06,250.06,0,0,0-22.67-17.81c-1.94-1.35-3.88-2.69-5.84-4l-2.93-2L274,305.94l-11.19-7.31a5.48,5.48,0,1,1,6-9.17Z"/>
  <path fill="none" d="M383.74,414.13c-.38-3.5-1-6.89-1.68-10.29s-1.49-6.81-2.41-10.14a148.67,148.67,0,0,0-6.81-19.27,181.53,181.53,0,0,0-18.84-33c-.86-1.23-1.74-2.41-2.62-3.61l-3.11-4.06c-1.06-1.29-2.12-2.61-3.19-3.87s-2.14-2.49-3.22-3.68c-4.33-4.79-8.72-9.13-13.13-13.18A273.74,273.74,0,0,0,302,291.77"/>
  <path d="M305.18,287.3A279.32,279.32,0,0,1,332.43,309c4.52,4.14,9,8.61,13.5,13.55,1.11,1.23,2.22,2.54,3.33,3.81s2.2,2.66,3.3,4,2.21,2.85,3.22,4.2,1.8,2.44,2.69,3.7a186.73,186.73,0,0,1,19.4,34,154.38,154.38,0,0,1,7.06,20c.95,3.46,1.84,7,2.51,10.53s1.34,7.05,1.74,10.68c.64,4.62-1.64,8.61-4.65,8.78s-5.63-3.18-6.23-7.4c-.36-3.36-1-6.62-1.61-9.9s-1.43-6.55-2.32-9.75a143,143,0,0,0-6.56-18.57,176.74,176.74,0,0,0-18.27-32L347,341.11l-3-3.9c-1-1.25-2-2.52-3.07-3.74s-2.08-2.4-3.12-3.56c-4.19-4.64-8.46-8.86-12.76-12.8a267.85,267.85,0,0,0-26.17-20.86c-2.8-2-3.71-5.55-2-8.07S302.27,285.23,305.18,287.3Z"/>
  <path fill="none" d="M344.32,536.06c2.25-2.85,4.54-5.71,6.59-8.62s4.08-5.84,6-8.77a213.32,213.32,0,0,0,10.77-18.59,180.1,180.1,0,0,0,9-20.94,151.72,151.72,0,0,0,6.07-23.22"/>
  <path d="M388.14,456.87A156.81,156.81,0,0,1,381.85,481a184.54,184.54,0,0,1-9.26,21.61,214.91,214.91,0,0,1-11.06,19.09c-2,3-4,6-6.18,9s-4.46,5.93-6.78,8.87c-2.63,3.2-6.73,4.12-9,2.11s-2-6,.46-9c2.19-2.78,4.42-5.55,6.41-8.39s4-5.68,5.87-8.54a204,204,0,0,0,10.48-18.08,173.61,173.61,0,0,0,8.68-20.26A147.08,147.08,0,0,0,377.35,455a10.07,10.07,0,0,1,2.46-5.23,4.81,4.81,0,0,1,4.11-1.85,4.74,4.74,0,0,1,3.57,2.89A10.55,10.55,0,0,1,388.14,456.87Z"/>
  <path fill="none" d="M82.17,256.13A198.65,198.65,0,0,1,66,240.8c-1.33-1.39-2.68-3-4-4.45s-2.66-3.13-4-4.8c-2.65-3.34-5.21-6.89-7.61-10.61a121.26,121.26,0,0,1-12.14-24.46,118.35,118.35,0,0,1-6.3-27"/>
  <path d="M37.38,168.84a112.93,112.93,0,0,0,6,25.78A115.5,115.5,0,0,0,55,218c2.31,3.56,4.75,7,7.3,10.17,1.26,1.61,2.54,3.11,3.83,4.63s2.58,2.94,3.88,4.29A189.57,189.57,0,0,0,85.71,252c2.8,2.37,3.55,6.11,1.67,8.49s-5.8,2.37-8.76-.14A200.79,200.79,0,0,1,62,244.54c-1.38-1.43-2.78-3.06-4.15-4.6s-2.76-3.25-4.14-5c-2.75-3.46-5.41-7.16-7.92-11a126.36,126.36,0,0,1-12.68-25.56,123.89,123.89,0,0,1-6.6-28.27c-.57-5.11,1.78-9.26,4.78-9.35a4.93,4.93,0,0,1,4,2.31A12.19,12.19,0,0,1,37.38,168.84Z"/>
  <path fill="none" d="M194.43,330.86l-10.69-7c-3.56-2.34-7.11-4.55-10.67-6.83l-21.35-13.58L130.37,289.9l-10.67-6.8-6-3.8c-2-1.33-4-2.62-6.06-4"/>
  <path d="M110.72,270.75c2,1.37,4,2.63,6,3.95l5.9,3.76,10.69,6.8,21.38,13.6c14.25,9.11,28.5,18,42.75,27.41a5.48,5.48,0,0,1-6,9.18l-10.68-7c-3.56-2.34-7.11-4.54-10.67-6.82L148.77,308.1l-21.32-13.57-10.66-6.78-6-3.85c-2.06-1.35-4.1-2.66-6.16-4.07-2.92-2-3.88-5.65-2.13-8.12S107.9,268.86,110.72,270.75Z"/>
  <path fill="none" d="M58.08,176.52a93.8,93.8,0,0,1-2.22-18.85c0-.77,0-1.58,0-2.33l.05-2.23c0-1.49.06-3,.15-4.46.24-3,.4-6,.87-9"/>
  <path d="M62.33,140.39c-.45,2.86-.6,5.71-.83,8.57-.08,1.42-.1,2.84-.14,4.26l0,2.14c0,.71,0,1.47,0,2.2a89.53,89.53,0,0,0,2.1,17.78,8.33,8.33,0,0,1-.41,5,5.22,5.22,0,0,1-3.15,3,4.75,4.75,0,0,1-4.32-1,8.19,8.19,0,0,1-2.82-4.73,99.71,99.71,0,0,1-2.35-19.92c0-.81,0-1.67,0-2.45l0-2.33c.05-1.55.07-3.1.15-4.66.26-3.13.43-6.25.92-9.4.46-3.88,3.57-6.53,6.52-5.92S62.74,136.92,62.33,140.39Z"/>
  <path fill="none" d="M111,247.47a204.45,204.45,0,0,1-24.81-21.24,121.46,121.46,0,0,1-11.44-13.4A102.1,102.1,0,0,1,65.16,197"/>
  <path d="M70.1,194.62a105.43,105.43,0,0,0,20,27.79,200.17,200.17,0,0,0,24.14,20.65,5.75,5.75,0,0,1,1.55,7.87,5.25,5.25,0,0,1-3.67,2.16,6.27,6.27,0,0,1-4.38-1.21,209.66,209.66,0,0,1-25.48-21.82,128.3,128.3,0,0,1-11.94-14,108.33,108.33,0,0,1-10.08-16.69c-1.78-3.75-.7-7.79,2.12-8.85a5.17,5.17,0,0,1,4.36.42A8.12,8.12,0,0,1,70.1,194.62Z"/>
  <path fill="none" d="M223.92,320.67l-24.55-16c-4.09-2.69-8.2-5.29-12.31-7.9l-12.32-7.84-49.69-31.66"/>
  <path d="M128.06,252.66l49.64,31.63L190,292.14c4.11,2.62,8.23,5.22,12.32,7.91l24.56,16a5.48,5.48,0,0,1-6,9.18l-24.55-16c-4.08-2.7-8.19-5.29-12.29-7.9l-12.31-7.83L122,261.82A5.63,5.63,0,0,1,120.2,254,5.72,5.72,0,0,1,128.06,252.66Z"/>
  <path fill="none" d="M229.09,296.23c-21.8-14.39-44-28.27-66-42.33l-16.54-10.52c-5.51-3.49-11-7-16.28-10.71-10.6-7.44-20.8-15.52-29.57-24.92"/>
  <path d="M104.73,204c8.36,9,18.31,16.87,28.71,24.16q3.9,2.74,7.92,5.36c2.68,1.77,5.34,3.41,8.12,5.2L166,249.27c22.06,14.08,44.25,28,66.05,42.37a5.48,5.48,0,0,1-6,9.19c-21.8-14.4-43.91-28.25-65.92-42.3L143.67,248c-5.53-3.49-11.12-7.06-16.52-10.86-10.8-7.59-21.27-15.85-30.45-25.68a5.47,5.47,0,0,1-1.45-4,5.29,5.29,0,0,1,1.91-3.74,5.77,5.77,0,0,1,3.94-1.33A5.13,5.13,0,0,1,104.73,204Z"/>
  <path d="M245.25,300.24l11.6,7.57a5.48,5.48,0,1,1-6,9.17l-11.6-7.57a5.48,5.48,0,0,1,6-9.17Z"/>
  <path fill="none" d="M233.69,273.06c-14.85-9.8-30.07-19.33-45.15-29l-22.67-14.42-11.22-7.14c-3.54-2.21-7-4.51-10.36-6.82a210.28,210.28,0,0,1-18.92-14.57,97.1,97.1,0,0,1-14.52-15.5,51,51,0,0,1-8-16.34,50.26,50.26,0,0,1-1.6-8.82c-.14-1.52-.2-3.06-.22-4.62,0-.82,0-1.7.07-2.55s0-1.72.1-2.55"/>
  <path d="M106.66,151.11c-.09.76,0,1.58-.09,2.37s-.06,1.62-.06,2.37c0,1.4.07,2.79.2,4.15a44.65,44.65,0,0,0,1.42,7.84,45.5,45.5,0,0,0,7.17,14.61A91.34,91.34,0,0,0,129,197a205.58,205.58,0,0,0,18.41,14.18c3.33,2.26,6.69,4.52,10.18,6.7l11.21,7.14,22.69,14.43c15.1,9.64,30.35,19.19,45.2,29a5.48,5.48,0,1,1-6,9.18c-14.85-9.8-30-19.31-45.11-28.93L163,234.32l-11.24-7.15c-3.59-2.24-7.08-4.58-10.54-6.94a214.89,214.89,0,0,1-19.42-15,102,102,0,0,1-15.36-16.41,56.91,56.91,0,0,1-8.83-18.07,56,56,0,0,1-1.78-9.8c-.15-1.68-.22-3.38-.24-5.09,0-.89,0-1.82.07-2.73s0-1.84.11-2.73a4,4,0,0,1,1.84-3,6.05,6.05,0,0,1,4-.8,6.89,6.89,0,0,1,3.71,1.59A3.42,3.42,0,0,1,106.66,151.11Z"/>
  <path fill="none" d="M183.83,215.13l-12.1-7.7c-4.25-2.72-7.51-4.74-11-7a210.27,210.27,0,0,1-18.64-13.76,86.28,86.28,0,0,1-12.82-12.88A30.89,30.89,0,0,1,124,163.67"/>
  <path d="M129.29,162.15a25.23,25.23,0,0,0,4.38,8.3,82.34,82.34,0,0,0,12,12,208.82,208.82,0,0,0,18.15,13.39c3.39,2.25,6.56,4.21,10.84,6.95l12.12,7.71a5.48,5.48,0,1,1-5.85,9.26l-12.09-7.68c-4.22-2.71-7.57-4.78-11.08-7.11a217.45,217.45,0,0,1-19.14-14.13A92.1,92.1,0,0,1,125,177.08a36.08,36.08,0,0,1-6.19-11.89c-.37-1.31,1.83-2.88,4.79-3.45S129.07,161.36,129.29,162.15Z"/>
  <path fill="none" d="M264,266.7l-27.91-18.22c-4.62-3-9.38-6-14.1-9l-14.17-9"/>
  <path d="M210.82,225.8l14.19,9c4.72,3,9.49,6,14.11,9.06L267,262.11a5.48,5.48,0,1,1-6,9.18l-27.9-18.21c-4.62-3.05-9.38-6-14.09-9l-14.16-9a5.48,5.48,0,1,1,5.92-9.23Z"/>
  <path fill="none" d="M197.72,5.59c7.27-.21,14.26-.08,21.46.34"/>
  <path fill="none" d="M50,85.69A146.53,146.53,0,0,1,72.88,56.4c2.14-2,4.28-4.15,6.47-6.06l3.29-2.85,1.66-1.42L86,44.72c2.28-1.78,4.52-3.61,6.91-5.27l3.56-2.53c1.18-.84,2.42-1.6,3.64-2.41a172.12,172.12,0,0,1,31-15.91,182.44,182.44,0,0,1,32.67-9.4"/>
  <path d="M164.75,14.58a176.46,176.46,0,0,0-31.7,9.12,167.14,167.14,0,0,0-30,15.41c-1.17.77-2.38,1.51-3.52,2.33l-3.44,2.45c-2.32,1.6-4.48,3.38-6.69,5.1L87.78,50.3l-1.6,1.37L83,54.43c-2.12,1.85-4.18,3.9-6.25,5.86A141.25,141.25,0,0,0,54.66,88.48a11.5,11.5,0,0,1-4.16,4.14,4.94,4.94,0,0,1-4.56.33,4.64,4.64,0,0,1-2.28-4,10.21,10.21,0,0,1,1.57-6.07A151.86,151.86,0,0,1,69,52.51c2.21-2.1,4.42-4.29,6.68-6.26l3.4-2.94,1.71-1.46,1.75-1.4c2.35-1.84,4.66-3.72,7.13-5.44l3.66-2.6c1.22-.87,2.51-1.66,3.76-2.49A178.25,178.25,0,0,1,129.05,13.5a188.82,188.82,0,0,1,33.64-9.69c4-.7,7.61,1.19,8.05,4.18S168.5,13.92,164.75,14.58Z"/>
  <path fill="none" d="M181.74,31.39c6.32-.66,12.65-1.14,18.92-1.19s12.45,0,18.72.45"/>
  <path fill="none" d="M61.38,119.88l.7-2.17c.25-.72.53-1.42.8-2.14.55-1.42,1.09-2.84,1.66-4.25,1.27-2.76,2.45-5.57,3.93-8.22A109.65,109.65,0,0,1,78.1,87.85l2.72-3.53c.93-1.15,1.91-2.25,2.86-3.37,1.89-2.28,4-4.31,6-6.44A146.68,146.68,0,0,1,102.51,63.1a152.82,152.82,0,0,1,14-9.85,148.25,148.25,0,0,1,15.12-8.09,152.94,152.94,0,0,1,15.85-6.32c2.7-.85,5.39-1.72,8.11-2.46s5.45-1.46,8.19-2"/>
  <path d="M165,39.73c-2.66.52-5.28,1.27-7.92,1.94s-5.22,1.55-7.83,2.36A147.35,147.35,0,0,0,134,50.13a145.19,145.19,0,0,0-14.55,7.79,142.8,142.8,0,0,0-13.5,9.48,139.05,139.05,0,0,0-12.38,11c-1.92,2-3.91,4-5.71,6.16-.91,1.08-1.85,2.12-2.74,3.23l-2.6,3.37a104.65,104.65,0,0,0-9.16,14.5c-1.4,2.52-2.53,5.19-3.73,7.81-.54,1.34-1,2.69-1.57,4-.26.68-.53,1.35-.77,2l-.66,2.06a7.85,7.85,0,0,1-2.88,3.94,5.13,5.13,0,0,1-4.23.89,4.87,4.87,0,0,1-3.24-3,7.65,7.65,0,0,1-.07-5.27l.74-2.28c.26-.75.56-1.49.84-2.24.57-1.49,1.14-3,1.75-4.47,1.32-2.91,2.57-5.86,4.11-8.64a116.93,116.93,0,0,1,10.1-16l2.85-3.69c1-1.21,2-2.35,3-3.52,2-2.39,4.13-4.5,6.22-6.72A151.46,151.46,0,0,1,99.12,58.8a147.46,147.46,0,0,1,30.23-18.61,158.14,158.14,0,0,1,16.42-6.55c2.8-.88,5.59-1.78,8.4-2.54s5.63-1.52,8.46-2.08a6.9,6.9,0,0,1,4.78.63A5.09,5.09,0,0,1,170,33.14a5.25,5.25,0,0,1-1.07,4.12A6.59,6.59,0,0,1,165,39.73Z"/>
  <path fill="none" d="M86.68,118.89A94.39,94.39,0,0,1,109.11,88.1a131,131,0,0,1,15-12,127.78,127.78,0,0,1,16.73-9.51c1.47-.65,2.9-1.39,4.4-2l4.46-1.82,4.54-1.62c1.51-.55,3.07-1,4.6-1.45a142.06,142.06,0,0,1,18.83-4.25A172.25,172.25,0,0,1,197,53.58c6.45-.22,12.93-.19,19.38.21"/>
  <path d="M87.05,134.69l-.38,1.53-.31,1.56-.6,3.12-.43,3.16-.21,1.57-.13,1.6a5,5,0,0,1-1.88,3.48,5.64,5.64,0,0,1-3.91,1.38,5.4,5.4,0,0,1-3.83-1.77,5.47,5.47,0,0,1-1.29-4.07l.14-1.79.24-1.78.49-3.55.68-3.53.34-1.76.44-1.75a5.25,5.25,0,0,1,6.75-3.86,5.71,5.71,0,0,1,3.24,2.58A5.09,5.09,0,0,1,87.05,134.69Z"/>
  <path d="M339,115.72h0a58.12,58.12,0,0,1-17.69,10.12,68.86,68.86,0,0,1-18.53,3.94,59.17,59.17,0,0,1-17-1,37.84,37.84,0,0,1-13.92-5.89,115.87,115.87,0,0,0-12.13-7.47,97,97,0,0,0-12.57-5.61,115.11,115.11,0,0,0-27.88-6.29,145.13,145.13,0,0,0-15.33-.73,131.63,131.63,0,0,0-14.72.87,90.69,90.69,0,0,0-25.47,6.66c-1.45.7-3.64-.36-5.11-2.65-1.88-2.91-1.57-6.31.51-7.3,12.11-5.28,26-8.15,41.28-8.48,3.77-.1,7.74-.06,11.59.11s7.66.49,11.38,1,7.41,1.06,11,1.82,7.11,1.67,10.56,2.71c2.12.69,4.65-1.08,5.65-3.92s-.09-5.8-2.44-6.56a141.42,141.42,0,0,0-18.88-4.3,165.13,165.13,0,0,0-19.81-1.78,139.71,139.71,0,0,0-38.61,3.88,98.55,98.55,0,0,0-32.92,15,95.52,95.52,0,0,0-13.58,11.65,69.46,69.46,0,0,0-10,13.13c-.88,1.58-3.3,2.25-5.9,1.36a6.47,6.47,0,0,1-3.57-2.82,3.87,3.87,0,0,1-.17-3.78,82.64,82.64,0,0,1,12.49-16.31,105.07,105.07,0,0,1,16.57-13.72,112.15,112.15,0,0,1,40-16.49,143.17,143.17,0,0,1,22.26-2.77,179.21,179.21,0,0,1,22.93.37,147.8,147.8,0,0,1,43.71,10.09c2.43,1,5.42-.37,6.67-3.11h0a5.18,5.18,0,0,0-2.54-7,158.88,158.88,0,0,0-49-11C201,58.23,184,59.12,167.72,63a122.24,122.24,0,0,0-44.83,20.72,112.54,112.54,0,0,0-18.06,16.79,93.65,93.65,0,0,0-7.29,9.75L96,112.81l-.79,1.29-.71,1.34-1.41,2.66c-.45.91-.84,1.83-1.26,2.74a5.2,5.2,0,0,1-1.06,1.52,5.94,5.94,0,0,1-1.45,1.14,5.54,5.54,0,0,1-3.74.6,5.34,5.34,0,0,1-3.76-2.75,5.22,5.22,0,0,1-.13-4.69l1.5-3.27,1.68-3.18c.29-.53.56-1.07.85-1.59l.93-1.54L88.5,104l2-3,1-1.48,1.09-1.42,2.19-2.84,2.33-2.72a121.62,121.62,0,0,1,21.11-19.08A127.29,127.29,0,0,1,143,59.57a142.06,142.06,0,0,1,27.11-8.34,164.3,164.3,0,0,1,28.09-3.18c4.71-.11,9.4-.16,14.1.06s9.39.52,14.07,1a164,164,0,0,1,54.2,15.38,6.65,6.65,0,0,0,4.82.41,6.1,6.1,0,0,0,3.7-3h0a5.86,5.86,0,0,0,.34-4.77A6.89,6.89,0,0,0,286,53.44a170.07,170.07,0,0,0-25-9.8,181.7,181.7,0,0,0-26-5.81,209.59,209.59,0,0,0-52.66-1c-3.63.47-7-2.12-6.82-5.59.1-2.72,2.77-4.94,5.93-5.34,6.11-.62,12.21-1.08,18.24-1.17l4.53-.07,4.49.05c1.49,0,3,.08,4.49.13s3,.11,4.5.21a205.08,205.08,0,0,1,36.13,5.28,9,9,0,0,0,6-.53,6.41,6.41,0,0,0,3.61-4h0a6.17,6.17,0,0,0-1.06-5.34A9.32,9.32,0,0,0,257.08,17a216.89,216.89,0,0,0-29.74-5c-2.46-.21-4.94-.45-7.39-.58l-3.69-.23-3.67-.13c-2.45-.12-4.88-.11-7.32-.14s-4.93.06-7.4.1c-4.05.09-7.47-2.65-7-6.13a5.13,5.13,0,0,1,2.37-3.4A8.6,8.6,0,0,1,198,.1c2.84,0,5.76-.15,8.54-.08l4.22.05L215,.23c2.82.08,5.69.31,8.53.48s5.71.47,8.58.82a222,222,0,0,1,34.57,6.65q8.61,2.4,17.1,5.55c5.63,2.13,11.2,4.48,16.66,7.09a214.5,214.5,0,0,1,30.67,18,59.24,59.24,0,0,1,17.42,18.92,49.68,49.68,0,0,1,6.59,21.54,43,43,0,0,1-3.65,20.16A45.9,45.9,0,0,1,339,115.72Z"/>
  <path fill="none" d="M109.57,122.08a81.35,81.35,0,0,1,18.49-21.51,109.28,109.28,0,0,1,12.12-8.79,113.46,113.46,0,0,1,13.28-6.88c18.4-7.92,39.7-10.56,61.56-9.23"/>
  <path fill="none" d="M124.62,142.56a47,47,0,0,1,2.78-7.36,51.94,51.94,0,0,1,4.37-7c.46-.58.91-1.17,1.35-1.76l1.52-1.75c.46-.6,1.07-1.17,1.62-1.76s1.07-1.19,1.72-1.75l1.83-1.75,2-1.73,1-.87,1.05-.81c.71-.54,1.39-1.13,2.1-1.65"/>
  <path d="M149.24,118.72c-.67.48-1.3,1-2,1.53l-1,.77c-.32.26-.62.54-.94.81l-1.86,1.6c-.56.55-1.12,1.09-1.7,1.62s-1.05,1.08-1.58,1.61-1.06,1.06-1.47,1.6-.92,1.06-1.38,1.58-.79,1.07-1.2,1.59a45.07,45.07,0,0,0-3.86,6.2,40.79,40.79,0,0,0-2.4,6.38c-.14.62-.89,1-2,1.22a10.32,10.32,0,0,1-3.93-.09,8,8,0,0,1-3.62-1.64,2.51,2.51,0,0,1-1-2.4,52.62,52.62,0,0,1,3.15-8.33,55.17,55.17,0,0,1,4.89-7.89c.5-.64,1-1.29,1.49-1.95l1.66-1.92c.51-.65,1.16-1.27,1.76-1.91s1.17-1.28,1.86-1.9l2-1.88,2.14-1.84,1.07-.93,1.12-.87c.75-.58,1.48-1.2,2.24-1.75,1.71-1.19,4.42-.16,6.11,2.37S150.7,117.71,149.24,118.72Z"/>
  <line x1="114.02" x2="118.32" y1="576.94" y2="578.78" fill="none"/>
  <line x1="253.86" x2="242.26" y1="312.39" y2="304.82" fill="none"/>
  <polyline fill="none" points="79.53 146.74 79.67 145.05 79.9 143.37 80.35 140.01 81 136.69 81.32 135.03 81.73 133.39"/>
</svg>