<svg width="454" height="482" viewBox="0 0 454 482" fill="none" xmlns="http://www.w3.org/2000/svg">
<mask id="mask0" mask-type="alpha" maskUnits="userSpaceOnUse" x="20" y="68" width="414" height="414">
<path d="M227 482C340.971 482 433.364 389.515 433.364 275.429C433.364 161.342 340.971 68.8571 227 68.8571C113.028 68.8571 20.6364 161.342 20.6364 275.429C20.6364 389.515 113.028 482 227 482Z" fill="white"/>
</mask>
<g mask="url(#mask0)">
<path d="M227 482C340.971 482 433.364 389.515 433.364 275.429C433.364 161.342 340.971 68.8571 227 68.8571C113.028 68.8571 20.6364 161.342 20.6364 275.429C20.6364 389.515 113.028 482 227 482Z" fill="#E6E6E6"/>
<path d="M433.364 68.8571H20.6364V482H433.364V68.8571Z" fill="#707070"/>
</g>
<mask id="mask1" mask-type="alpha" maskUnits="userSpaceOnUse" x="0" y="0" width="454" height="482">
<path d="M20.6364 275.429C20.6364 389.515 113.029 482 227 482C340.971 482 433.364 389.515 433.364 275.429H454V0H0V275.429H20.6364Z" fill="white"/>
</mask>
<g mask="url(#mask1)">
<mask id="mask2" mask-type="alpha" maskUnits="userSpaceOnUse" x="55" y="61" width="344" height="421">
<path d="M268.273 310.909V342.564H275.151C343.534 342.564 398.97 398.055 398.97 466.507V482H55.0303V466.507C55.0303 398.055 110.466 342.564 178.848 342.564H185.727V310.909C156.084 296.813 134.776 268.004 131.222 233.91C121.205 232.492 113.5 223.875 113.5 213.457V189.357C113.5 179.122 120.937 170.625 130.697 168.986V158.371C130.697 105.131 173.813 61.9714 227 61.9714C280.187 61.9714 323.303 105.131 323.303 158.371V168.986C333.063 170.625 340.5 179.122 340.5 189.357V213.457C340.5 223.875 332.795 232.492 322.778 233.91C319.223 268.004 297.916 296.813 268.273 310.909Z" fill="white"/>
</mask>
<g mask="url(#mask2)">
<path d="M268.273 310.909V342.564H275.151C343.534 342.564 398.97 398.055 398.97 466.507V482H55.0303V466.507C55.0303 398.055 110.466 342.564 178.848 342.564H185.727V310.909C156.084 296.813 134.776 268.004 131.222 233.91C121.205 232.492 113.5 223.875 113.5 213.457V189.357C113.5 179.122 120.937 170.625 130.697 168.986V158.371C130.697 105.131 173.813 61.9714 227 61.9714C280.187 61.9714 323.303 105.131 323.303 158.371V168.986C333.063 170.625 340.5 179.122 340.5 189.357V213.457C340.5 223.875 332.795 232.492 322.778 233.91C319.223 268.004 297.916 296.813 268.273 310.909Z" fill="#D0C6AC"/>
<path d="M454 61.9714H0V482H454V61.9714Z" fill="#EDB98A"/>
<path fill-rule="evenodd" clip-rule="evenodd" d="M323.303 197.964V237.557C323.303 290.797 280.187 333.957 227 333.957C173.813 333.957 130.697 290.797 130.697 237.557V197.964V223.786C130.697 277.026 173.813 320.186 227 320.186C280.187 320.186 323.303 277.026 323.303 223.786V197.964Z" fill="black" fill-opacity="0.1"/>
</g>
<mask id="mask3" mask-type="alpha" maskUnits="userSpaceOnUse" x="55" y="315" width="344" height="167">
<path fill-rule="evenodd" clip-rule="evenodd" d="M185.727 315.143C154.913 318.595 131.178 328.021 130.704 352.282C86.2366 371.085 55.0303 415.148 55.0303 466.506V482H398.97V466.506C398.97 415.148 367.763 371.085 323.296 352.282C322.822 328.021 299.087 318.595 268.273 315.143V347.729C268.273 370.546 249.794 389.043 227 389.043C204.206 389.043 185.727 370.546 185.727 347.729V315.143Z" fill="white"/>
</mask>
<g mask="url(#mask3)">
<path fill-rule="evenodd" clip-rule="evenodd" d="M185.727 315.143C154.913 318.595 131.178 328.021 130.704 352.282C86.2366 371.085 55.0303 415.148 55.0303 466.506V482H398.97V466.506C398.97 415.148 367.763 371.085 323.296 352.282C322.822 328.021 299.087 318.595 268.273 315.143V347.729C268.273 370.546 249.794 389.043 227 389.043C204.206 389.043 185.727 370.546 185.727 347.729V315.143Z" fill="#B7C1DB"/>
<path d="M454 292.643H0V482H454V292.643Z" fill="#2F2E41"/>
<path fill-rule="evenodd" clip-rule="evenodd" d="M175.409 398.922V482H163.371V392.744C167.161 394.999 171.19 397.066 175.409 398.922ZM290.629 392.744V462.204C290.629 465.531 287.934 468.229 284.61 468.229C281.286 468.229 278.591 465.531 278.591 462.204V398.922C282.81 397.066 286.839 394.999 290.629 392.744Z" fill="#F4F4F4"/>
<path fill-rule="evenodd" clip-rule="evenodd" d="M156.424 314.547C130.541 319.448 112.64 329.211 112.64 348.258C112.64 382.192 169.455 409.7 227 409.7C284.545 409.7 341.36 382.192 341.36 348.258C341.36 329.211 323.459 319.448 297.576 314.547C313.2 320.314 323.303 330.008 323.303 346.14C323.303 381.243 275.459 409.7 227 409.7C178.541 409.7 130.697 381.243 130.697 346.14C130.697 330.008 140.8 320.314 156.424 314.547Z" fill="black" fill-opacity="0.16"/>
</g>
<mask id="mask4" mask-type="alpha" maskUnits="userSpaceOnUse" x="194" y="253" width="66" height="33">
<path fill-rule="evenodd" clip-rule="evenodd" d="M194.528 256.713C196.348 273.053 210.192 285.757 227 285.757C243.86 285.757 257.738 272.974 259.488 256.562C259.629 255.241 258.155 253.05 256.308 253.05C230.695 253.05 211.072 253.05 197.915 253.05C196.057 253.05 194.346 255.079 194.528 256.713Z" fill="white"/>
</mask>
<g mask="url(#mask4)">
<path fill-rule="evenodd" clip-rule="evenodd" d="M194.528 256.713C196.348 273.053 210.192 285.757 227 285.757C243.86 285.757 257.738 272.974 259.488 256.562C259.629 255.241 258.155 253.05 256.308 253.05C230.695 253.05 211.072 253.05 197.915 253.05C196.057 253.05 194.346 255.079 194.528 256.713Z" fill="black" fill-opacity="0.7"/>
<path d="M245.917 234.114H209.803C205.054 234.114 201.205 237.968 201.205 242.721V253.05C201.205 257.804 205.054 261.657 209.803 261.657H245.917C250.666 261.657 254.515 257.804 254.515 253.05V242.721C254.515 237.968 250.666 234.114 245.917 234.114Z" fill="white"/>
<path d="M218.402 309.857C228.849 309.857 237.318 301.379 237.318 290.921C237.318 280.464 228.849 271.986 218.402 271.986C207.954 271.986 199.485 280.464 199.485 290.921C199.485 301.379 207.954 309.857 218.402 309.857Z" fill="#FF4F6D"/>
<path d="M235.599 309.857C246.046 309.857 254.515 301.379 254.515 290.921C254.515 280.464 246.046 271.986 235.599 271.986C225.151 271.986 216.682 280.464 216.682 290.921C216.682 301.379 225.151 309.857 235.599 309.857Z" fill="#FF4F6D"/>
</g>
<path fill-rule="evenodd" clip-rule="evenodd" d="M206.364 223.786C206.364 231.391 215.603 237.557 227 237.557C238.397 237.557 247.636 231.391 247.636 223.786" fill="black" fill-opacity="0.16"/>
<path d="M182.288 203.129C187.986 203.129 192.606 198.504 192.606 192.8C192.606 187.096 187.986 182.471 182.288 182.471C176.589 182.471 171.97 187.096 171.97 192.8C171.97 198.504 176.589 203.129 182.288 203.129Z" fill="black" fill-opacity="0.6"/>
<path d="M271.712 203.129C277.411 203.129 282.03 198.504 282.03 192.8C282.03 187.096 277.411 182.471 271.712 182.471C266.014 182.471 261.394 187.096 261.394 192.8C261.394 198.504 266.014 203.129 271.712 203.129Z" fill="black" fill-opacity="0.6"/>
<path d="M157.51 165.536C165.241 154.646 181.606 149.168 198.363 154.577C200.17 155.161 202.109 154.167 202.692 152.357C203.275 150.547 202.282 148.607 200.474 148.024C180.855 141.691 161.369 148.213 151.902 161.547C150.802 163.097 151.165 165.246 152.714 166.348C154.262 167.449 156.409 167.086 157.51 165.536Z" fill="black" fill-opacity="0.6"/>
<path d="M296.437 177.579C289.705 168.096 271.247 162.778 255.349 166.687C253.504 167.14 251.641 166.011 251.188 164.164C250.735 162.318 251.863 160.453 253.708 160C272.172 155.461 293.545 161.618 302.044 173.59C303.144 175.14 302.781 177.289 301.233 178.391C299.685 179.492 297.537 179.129 296.437 177.579Z" fill="black" fill-opacity="0.6"/>
<mask id="mask5" mask-type="alpha" maskUnits="userSpaceOnUse" x="0" y="0" width="454" height="482">
<path d="M454 0H0V482H454V0Z" fill="white"/>
</mask>
<g mask="url(#mask5)">
<mask id="mask6" mask-type="alpha" maskUnits="userSpaceOnUse" x="120" y="17" width="216" height="156">
<path fill-rule="evenodd" clip-rule="evenodd" d="M314.154 67.0476C323.451 58.5261 325.689 41.2481 320.41 30.0378C313.929 16.2741 300.777 14.5498 288.174 20.6032C276.294 26.3096 265.719 28.2106 252.71 25.4457C240.227 22.7929 228.385 18.1139 215.484 17.3455C194.288 16.0832 173.695 23.9529 159.249 39.8154C156.493 42.8415 154.272 46.3015 152.173 49.8085C150.493 52.6145 148.6 55.6252 147.885 58.8594C147.546 60.3974 148.178 64.1919 147.413 65.4519C146.585 66.8126 143.465 68.0607 142.135 69.0704C139.44 71.1166 137.106 73.4258 134.947 76.0374C130.362 81.5831 127.838 87.3758 125.716 94.2359C118.66 117.036 118.062 144.155 127.183 166.543C128.399 169.528 132.167 175.755 134.383 169.362C134.82 168.099 133.807 163.864 133.81 162.589C133.818 157.907 136.4 126.906 147.648 109.54C151.31 103.887 168.238 82.7185 171.695 82.5487C173.527 85.4628 192.125 104.082 240.385 101.9C262.16 100.915 278.905 91.1223 282.926 86.8772C284.695 96.4015 305.269 110.66 308.404 116.527C317.46 133.476 319.469 168.693 322.926 168.627C326.384 168.561 328.865 159.611 329.576 157.902C334.859 145.205 335.758 129.27 335.195 115.626C334.46 98.0635 327.218 79.0858 314.154 67.0476Z" fill="white"/>
</mask>
<g mask="url(#mask6)">
<path fill-rule="evenodd" clip-rule="evenodd" d="M314.154 67.0476C323.451 58.5261 325.689 41.2481 320.41 30.0378C313.929 16.2741 300.777 14.5498 288.174 20.6032C276.294 26.3096 265.719 28.2106 252.71 25.4457C240.227 22.7929 228.385 18.1139 215.484 17.3455C194.288 16.0832 173.695 23.9529 159.249 39.8154C156.493 42.8415 154.272 46.3015 152.173 49.8085C150.493 52.6145 148.6 55.6252 147.885 58.8594C147.546 60.3974 148.178 64.1919 147.413 65.4519C146.585 66.8126 143.465 68.0607 142.135 69.0704C139.44 71.1166 137.106 73.4258 134.947 76.0374C130.362 81.5831 127.838 87.3758 125.716 94.2359C118.66 117.036 118.062 144.155 127.183 166.543C128.399 169.528 132.167 175.755 134.383 169.362C134.82 168.099 133.807 163.864 133.81 162.589C133.818 157.907 136.4 126.906 147.648 109.54C151.31 103.887 168.238 82.7185 171.695 82.5487C173.527 85.4628 192.125 104.082 240.385 101.9C262.16 100.915 278.905 91.1223 282.926 86.8772C284.695 96.4015 305.269 110.66 308.404 116.527C317.46 133.476 319.469 168.693 322.926 168.627C326.384 168.561 328.865 159.611 329.576 157.902C334.859 145.205 335.758 129.27 335.195 115.626C334.46 98.0635 327.218 79.0858 314.154 67.0476Z" fill="#28354B"/>
<path d="M452.28 0H-1.71973V482H452.28V0Z" fill="#4A312C"/>
</g>
</g>
</g>
</svg>
