<?xml version="1.0" encoding="utf-8"?>
<!-- Generator: Adobe Illustrator 23.0.1, SVG Export Plug-In . SVG Version: 6.00 Build 0)  -->
<svg version="1.1" id="Layer_1" xmlns="http://www.w3.org/2000/svg" xmlns:xlink="http://www.w3.org/1999/xlink" x="0px" y="0px"
	 viewBox="0 0 62.9 63.3" style="enable-background:new 0 0 62.9 63.3;" xml:space="preserve">
<style type="text/css">
	.st0{fill-rule:evenodd;clip-rule:evenodd;fill:#CE1126;}
</style>
<title>rtx_logo</title>
<desc>Created with Sketch.</desc>
<path id="Fill-1" class="st0" d="M32.7,18.9c0.6,0.1,1.3,0.2,1.9,0.3l3.3-18.9C37.3,0.2,36.7,0.1,36,0L32.7,18.9z M22.8,22.2
	L8.4,9.9c-0.7,0.7-1.3,1.5-1.9,2.3l14.4,12.3C21.4,23.6,22.1,22.9,22.8,22.2L22.8,22.2z M48,4.5c-0.5-0.3-1-0.6-1.5-0.9L37,20.1
	c0.5,0.3,1.1,0.6,1.6,0.9L48,4.5z M55.2,10.6L40.8,22.8c0.4,0.4,0.7,0.8,1,1.2l14.4-12.2C55.8,11.4,55.5,11,55.2,10.6L55.2,10.6z
	 M19,28.7c0.3-1.1,0.7-2.2,1.2-3.2L2.5,19c-0.4,1-0.8,2.1-1.2,3.2L19,28.7z M44.2,31.6c0,7.1-5.7,12.8-12.8,12.8
	c-6.3,0-11.5-4.6-12.6-10.7L1.2,40.3c0.4,1.4,0.9,2.7,1.4,4l17.6-6.5L5.9,50.1c0.9,1.3,1.9,2.5,3,3.6l13.4-11.4l-8.7,15.4
	c1.4,1,2.9,1.8,4.4,2.6l8.2-14.5l-2.9,16.5c1.8,0.5,3.6,0.8,5.4,1l2.7-15.4l2.7,15.4c2-0.2,3.8-0.5,5.7-1L37.3,48l7.2,12.6
	c2-0.9,3.8-2,5.5-3.3l-6.6-11.5l10.1,8.5c1.6-1.6,3-3.4,4.3-5.3l-9-7.6l11,4.1c1-2.1,1.8-4.4,2.3-6.7l-9.7-3.6l10.3,0
	c0.1-1.2,0.2-2.4,0.2-3.6c0-1.4-0.1-2.8-0.3-4.2H43.5C44,28.7,44.2,30.1,44.2,31.6L44.2,31.6z M18.7,31.6c0-0.7,0.1-1.4,0.2-2.1H0.1
	c0,0.7-0.1,1.3-0.1,2c0,0.6,0,1.2,0.1,1.9h18.8C18.8,32.8,18.7,32.2,18.7,31.6L18.7,31.6z M24.1,21.2c0.7-0.5,1.4-0.9,2.2-1.3
	L16.8,3.3c-0.8,0.4-1.5,0.8-2.2,1.3L24.1,21.2z M24.9,0.4C25.6,0.2,26.3,0.1,27,0l3.3,18.9c-0.7,0.1-1.4,0.2-2.1,0.4L24.9,0.4z"/>
</svg>
