<svg id="Layer_1" data-name="Layer 1" xmlns="http://www.w3.org/2000/svg" viewBox="0 0 3000 3000"><defs><style>.cls-1{fill:#192338;}.cls-2{fill:#ed1e79;}.cls-10,.cls-11,.cls-12,.cls-13,.cls-14,.cls-15,.cls-16,.cls-17,.cls-18,.cls-19,.cls-2,.cls-20,.cls-21,.cls-22,.cls-3,.cls-4,.cls-5,.cls-6,.cls-7,.cls-8,.cls-9{stroke:#000;stroke-miterlimit:10;}.cls-3{fill:#ef3370;}.cls-4{fill:#f04867;}.cls-5{fill:#f25c5f;}.cls-6{fill:#f37156;}.cls-7{fill:#f5864d;}.cls-8{fill:#f69b44;}.cls-9{fill:#f7b03b;}.cls-10{fill:#f9c433;}.cls-11{fill:#fad92a;}.cls-12{fill:#fcee21;}.cls-13{fill:#efea24;}.cls-14{fill:#e2e728;}.cls-15{fill:#d5e32b;}.cls-16{fill:#c8df2f;}.cls-17{fill:#bbdc32;}.cls-18{fill:#aed835;}.cls-19{fill:#a1d439;}.cls-20{fill:#94d03c;}.cls-21{fill:#87cd40;}.cls-22{fill:#7ac943;}</style></defs><rect class="cls-1" width="3000" height="3000"/><path class="cls-2" d="M635.44,1882.59c-14.17-11.55-21.34-23.39-21.34-38.29V1540.91c0-19.44,4-38,12-53.72s18.76-26.4,31.86-33.63a72.52,72.52,0,0,1,25.48-8.74c21.14-2.81,41.19,4.72,60.15,30.29,61.63,84.71,92.45,97.38,154.08,169v-126c0-25.32,7-48,21-63.31,13.71-15,30.22-19.32,49.19-16.35a75,75,0,0,1,27.11,9.83c8.59,5.14,15.88,12.41,22.07,21.09a107.08,107.08,0,0,1,15.11,31,128.39,128.39,0,0,1,5.63,37.23v308.7a42.85,42.85,0,0,1-1.18,9.38c-1.6,6.85-6.37,13.09-13.19,18.54a69.32,69.32,0,0,1-24.74,12.54,73.16,73.16,0,0,1-31.41,1.63,88.41,88.41,0,0,1-36.44-14.53c-7.87-5.42-13.74-10.38-17.49-14.51-65.61-50.4-112.27-128.44-159.11-194.72v168.22c0,14.3-6.82,26-20.45,38.71-13.23,12.38-29.23,21.68-48,24.22C665.46,1898.57,648.11,1892.92,635.44,1882.59Z"/><path class="cls-2" d="M1093.53,1884.75c-13.56-10.74-20.74-21.85-20.74-36v-309c0-25.62,6.86-48,20.59-64.65s30.37-24.21,49.93-26.26c12.45-1.31,24,.31,34.82,5.9s19.26,14.64,25.48,27.78,9.33,28.94,9.33,45.83V1837.4c0,6.49-1.73,12.66-5.18,19.18a74.47,74.47,0,0,1-15.26,19.18c-13.83,12.46-30.23,21.65-49.19,23.64C1123.16,1901.51,1106.54,1895.06,1093.53,1884.75Z"/><path class="cls-2" d="M1292.65,1812.61c-16-15.62-28.3-40.13-36.89-71s-12.89-63-12.89-85.37c0-22.58,4.4-37,13.19-54.63s21.58-39.57,38.37-66.62c37.33-59.27,86.71-94.7,148.15-94.59a341.8,341.8,0,0,1,48,3.56c22.12,3.16,41.88,7.79,59.27,14.24s31.75,13.84,43.11,23.43,19.85,20.54,25.48,32.88a93.42,93.42,0,0,1,8.45,38.76c0,17.81-4.35,31-12.15,40.57-6.35,7.76-12.7,12.86-19.11,15.74s-14.77,4.39-25,4.28a130,130,0,0,1-20.74-1.61c-10.2-1.8-24.4-6.17-42.38-14q-12.43-4.5-32.29-7.54c-23.31-3.55-43.31-.76-60,6.64s-27.8,17.25-33.33,37.07a67.37,67.37,0,0,0-1.78,16.8,155.93,155.93,0,0,0,1.78,22c3.16,20,8.49,40,16,56.46s17.19,29,29,38,25.58,14.6,41.18,17c19.56,3,42.77,1.32,69.64-8.3a18.25,18.25,0,0,1,2.66-.92c1.38-.39,2.57-.69,3.56-.87a94.44,94.44,0,0,1,22.52-2c19.36.4,35.07,7.88,45.93,21.6,10.12,12.79,15.11,25.59,15.11,36.71,0,10.16-4.38,19.12-12.74,28.33-10.68,11.76-30.55,23-58.67,30.76-20.22,5.58-44.85,7.16-73.49,2.91a354.46,354.46,0,0,1-45.63-10.36c-42.07-12.38-78.62-29.56-109.63-46.69C1315.47,1829.59,1303.91,1822.65,1292.65,1812.61Z"/><path class="cls-2" d="M1675.48,1875.2c-13.83-9.1-20.74-18.84-20.74-32.91V1532.12a121.43,121.43,0,0,1,9.48-47.3c6.32-14.9,14.92-26.49,25.78-35.3a71.84,71.84,0,0,1,35.85-15.78c12.53-1.74,24.25.12,34.82,6.19s18.91,15.76,25,29.33,9.18,29.51,9.18,46.16v84.78c49.31-39,74-77.73,123.27-137.19a54.57,54.57,0,0,1,20.74-15.82c7.77-3.31,18-3.68,29.63-2a76.34,76.34,0,0,1,38.52,17c11.65,9.64,20.23,22.87,25.78,40.36a137.7,137.7,0,0,1,6.22,41.33c0,23.85-5.92,39.87-17.78,49.17-38.28,30.25-57.42,29.79-95.7,55,43.85,48.79,65.78,105.71,109.63,160.9,11.85,15.24,17.78,28.26,17.78,40.58,0,7.07-2.33,13.53-7,20.17a57,57,0,0,1-19.7,17.13,68.62,68.62,0,0,1-26.67,8.46,85.4,85.4,0,0,1-18.37-.11,83.57,83.57,0,0,1-28.44-9.56,94.94,94.94,0,0,1-23.12-17.38c-54.16-58.67-81.24-92.47-135.41-174.86v131c0,14.31-6.81,25.18-20.44,37s-30,20.81-49.19,23.64a72.86,72.86,0,0,1-25.34-.65A81.61,81.61,0,0,1,1675.48,1875.2Z"/><path class="cls-3" d="M637.85,1856.6c-14.16-11.55-21.33-23.39-21.33-38.29v-303.4c0-19.43,4-38,12-53.71s18.75-26.4,31.85-33.64a72.56,72.56,0,0,1,25.48-8.73C707,1416,727,1423.55,746,1449.12c61.64,84.7,92.45,97.38,154.08,169v-126c0-25.32,7-48,21-63.32,13.71-15,30.23-19.32,49.19-16.34a74.91,74.91,0,0,1,27.11,9.83c8.59,5.14,15.88,12.41,22.08,21.09a107.53,107.53,0,0,1,15.11,31,128.46,128.46,0,0,1,5.63,37.24v308.7a43.12,43.12,0,0,1-1.19,9.38c-1.6,6.85-6.37,13.09-13.18,18.54a69.65,69.65,0,0,1-24.74,12.54,73.16,73.16,0,0,1-31.41,1.62,88.38,88.38,0,0,1-36.45-14.52c-7.86-5.42-13.73-10.39-17.48-14.51C850.18,1783,803.52,1705,756.67,1638.66v168.23c0,14.3-6.81,26-20.44,38.71-13.24,12.37-29.24,21.67-48,24.22C667.88,1872.58,650.52,1866.93,637.85,1856.6Z"/><path class="cls-3" d="M1095.94,1858.76c-13.56-10.75-20.74-21.85-20.74-36v-309c0-25.61,6.86-48,20.6-64.64s30.37-24.22,49.92-26.27c12.45-1.3,24,.32,34.82,5.9s19.26,14.64,25.48,27.79,9.34,28.94,9.34,45.82V1811.4c0,6.49-1.74,12.67-5.19,19.19a74.27,74.27,0,0,1-15.26,19.17c-13.83,12.46-30.22,21.66-49.19,23.65C1125.57,1875.52,1109,1869.07,1095.94,1858.76Z"/><path class="cls-3" d="M1295.06,1786.61c-16-15.62-28.29-40.13-36.89-71s-12.89-63-12.89-85.38c0-22.57,4.4-37,13.19-54.62s21.58-39.57,38.37-66.63c37.34-59.27,86.72-94.69,148.16-94.59a345.07,345.07,0,0,1,48,3.56c22.12,3.16,41.88,7.79,59.26,14.24s31.75,13.84,43.11,23.43,19.85,20.54,25.48,32.88a93.49,93.49,0,0,1,8.45,38.76c0,17.81-4.34,31-12.15,40.57-6.35,7.77-12.7,12.86-19.11,15.74s-14.77,4.39-25,4.28a131.52,131.52,0,0,1-20.74-1.6c-10.2-1.81-24.4-6.18-42.37-14q-12.45-4.5-32.3-7.54c-23.31-3.56-43.31-.76-60,6.63s-27.81,17.25-33.34,37.08a67.76,67.76,0,0,0-1.78,16.79,157.21,157.21,0,0,0,1.78,22c3.16,20,8.49,40.06,16,56.47s17.19,29,29,38,25.58,14.6,41.19,17c19.55,3,42.77,1.32,69.63-8.3a17.33,17.33,0,0,1,2.67-.92c1.38-.4,2.56-.69,3.55-.88a95,95,0,0,1,22.52-2c19.36.41,35.07,7.89,45.93,21.61,10.12,12.79,15.11,25.59,15.11,36.71,0,10.15-4.38,19.12-12.74,28.33-10.67,11.75-30.54,23-58.67,30.76-20.21,5.57-44.84,7.15-73.48,2.9a354.35,354.35,0,0,1-45.63-10.35c-42.08-12.39-78.63-29.57-109.64-46.69C1317.88,1803.6,1306.32,1796.66,1295.06,1786.61Z"/><path class="cls-3" d="M1677.89,1849.21c-13.82-9.1-20.74-18.84-20.74-32.91V1506.12a121.51,121.51,0,0,1,9.48-47.3c6.33-14.89,14.92-26.49,25.78-35.29a71.85,71.85,0,0,1,35.86-15.79c12.52-1.73,24.24.13,34.81,6.2s18.92,15.76,25,29.33,9.19,29.51,9.19,46.16v84.77c49.3-39,74-77.72,123.26-137.18a54.55,54.55,0,0,1,20.74-15.82c7.78-3.32,18-3.68,29.63-2a76.34,76.34,0,0,1,38.52,17c11.66,9.64,20.23,22.88,25.78,40.37a137.35,137.35,0,0,1,6.23,41.33c0,23.84-5.93,39.87-17.78,49.16-38.29,30.25-57.43,29.8-95.71,55,43.85,48.79,65.78,105.71,109.63,160.91,11.86,15.24,17.78,28.26,17.78,40.58,0,7.06-2.32,13.53-7,20.17a57.08,57.08,0,0,1-19.71,17.13,68.56,68.56,0,0,1-26.66,8.45,86.33,86.33,0,0,1-18.38-.1,83.59,83.59,0,0,1-28.44-9.57,94.38,94.38,0,0,1-23.11-17.38c-54.17-58.67-81.25-92.46-135.42-174.86v131.06c0,14.3-6.81,25.17-20.44,37s-30,20.82-49.19,23.65a73,73,0,0,1-25.33-.65A82,82,0,0,1,1677.89,1849.21Z"/><path class="cls-4" d="M644.76,1833.55c-14.16-11.54-21.34-23.39-21.34-38.28v-303.4c0-19.43,4-37.95,12-53.71s18.76-26.4,31.86-33.64a72.56,72.56,0,0,1,25.48-8.73c21.14-2.82,41.19,4.72,60.15,30.29,61.63,84.7,92.45,97.37,154.08,169v-126c0-25.33,7-48,21-63.32,13.71-15,30.22-19.32,49.19-16.35a74.93,74.93,0,0,1,27.11,9.84c8.59,5.13,15.88,12.41,22.07,21.09a107.28,107.28,0,0,1,15.12,31,128.41,128.41,0,0,1,5.63,37.24v308.7a43.12,43.12,0,0,1-1.19,9.38c-1.6,6.85-6.37,13.09-13.19,18.53a69.15,69.15,0,0,1-24.74,12.54,73.16,73.16,0,0,1-31.41,1.63,88.4,88.4,0,0,1-36.44-14.52c-7.86-5.42-13.73-10.39-17.48-14.52C857.09,1760,810.43,1681.9,763.58,1615.62v168.22c0,14.31-6.82,26-20.45,38.71-13.23,12.38-29.23,21.68-48,24.23C674.78,1849.54,657.43,1843.88,644.76,1833.55Z"/><path class="cls-4" d="M1102.85,1835.72c-13.56-10.75-20.74-21.85-20.74-36v-309c0-25.61,6.86-48,20.59-64.64s30.38-24.22,49.93-26.27c12.45-1.3,24,.32,34.82,5.9s19.26,14.64,25.48,27.79,9.33,28.94,9.33,45.82v309.11c0,6.49-1.73,12.66-5.18,19.19a74.27,74.27,0,0,1-15.26,19.17c-13.83,12.46-30.22,21.66-49.19,23.65C1132.48,1852.48,1115.86,1846,1102.85,1835.72Z"/><path class="cls-4" d="M1302,1763.57c-16-15.62-28.3-40.13-36.89-71s-12.89-63-12.89-85.38c0-22.57,4.4-37,13.19-54.63S1287,1513,1303.75,1486c37.33-59.27,86.71-94.69,148.15-94.59a343.57,343.57,0,0,1,48,3.56c22.12,3.16,41.87,7.79,59.26,14.24s31.75,13.84,43.11,23.43,19.85,20.54,25.48,32.88a93.45,93.45,0,0,1,8.45,38.76c0,17.81-4.34,31-12.15,40.57-6.35,7.76-12.7,12.86-19.11,15.74s-14.77,4.39-25,4.28a131.41,131.41,0,0,1-20.74-1.6c-10.2-1.81-24.4-6.18-42.37-14q-12.45-4.5-32.3-7.55c-23.31-3.55-43.31-.76-60,6.64s-27.81,17.25-33.34,37.07a67.9,67.9,0,0,0-1.78,16.8,157.21,157.21,0,0,0,1.78,22c3.16,20,8.49,40,16,56.46s17.19,29,29,38,25.58,14.61,41.19,17c19.55,3,42.76,1.31,69.63-8.3a15.9,15.9,0,0,1,2.67-.92c1.37-.4,2.56-.69,3.55-.88a94.49,94.49,0,0,1,22.52-2c19.36.41,35.07,7.89,45.93,21.61,10.12,12.79,15.11,25.58,15.11,36.71,0,10.15-4.38,19.12-12.74,28.32-10.68,11.76-30.54,23-58.67,30.77-20.22,5.57-44.85,7.15-73.48,2.9a354.59,354.59,0,0,1-45.64-10.36c-42.07-12.38-78.62-29.56-109.63-46.68C1324.79,1780.56,1313.23,1773.61,1302,1763.57Z"/><path class="cls-4" d="M1684.8,1826.17c-13.83-9.11-20.74-18.85-20.74-32.92V1483.08a121.51,121.51,0,0,1,9.48-47.3c6.32-14.9,14.92-26.49,25.78-35.3a71.93,71.93,0,0,1,35.85-15.78c12.53-1.74,24.25.13,34.82,6.19s18.92,15.77,25,29.34,9.18,29.5,9.18,46.16v84.77c49.31-39.05,74-77.73,123.27-137.19a54.63,54.63,0,0,1,20.74-15.81c7.77-3.32,18-3.69,29.63-2a76.34,76.34,0,0,1,38.52,17c11.66,9.64,20.23,22.87,25.78,40.37a137.64,137.64,0,0,1,6.22,41.32c0,23.85-5.92,39.88-17.78,49.17-38.28,30.25-57.42,29.8-95.7,55,43.85,48.79,65.78,105.71,109.63,160.9,11.85,15.25,17.78,28.27,17.78,40.59,0,7.06-2.33,13.52-7,20.17a57.27,57.27,0,0,1-19.71,17.13,68.61,68.61,0,0,1-26.67,8.45,86.23,86.23,0,0,1-18.37-.1,83.59,83.59,0,0,1-28.44-9.57,94.38,94.38,0,0,1-23.11-17.38c-54.17-58.67-81.25-92.47-135.42-174.86v131.06c0,14.3-6.81,25.17-20.44,37s-30,20.81-49.19,23.65a72.79,72.79,0,0,1-25.33-.66A81.92,81.92,0,0,1,1684.8,1826.17Z"/><path class="cls-5" d="M655.66,1813.14c-14.16-11.55-21.33-23.39-21.33-38.29v-303.4c0-19.43,4-38,12-53.71s18.75-26.4,31.85-33.64a72.63,72.63,0,0,1,25.48-8.73c21.14-2.82,41.19,4.72,60.15,30.29,61.64,84.7,92.45,97.37,154.09,168.95V1448.66c0-25.32,7-48,21-63.32,13.71-15,30.23-19.32,49.19-16.35a75.12,75.12,0,0,1,27.11,9.84c8.6,5.14,15.88,12.41,22.08,21.09a107.27,107.27,0,0,1,15.11,31,128.46,128.46,0,0,1,5.63,37.24v308.7a42.5,42.5,0,0,1-1.19,9.38c-1.6,6.85-6.37,13.09-13.18,18.54a69.65,69.65,0,0,1-24.74,12.54,73.32,73.32,0,0,1-31.41,1.62,88.44,88.44,0,0,1-36.45-14.52c-7.86-5.42-13.73-10.39-17.48-14.52C868,1739.53,821.33,1661.49,774.48,1595.2v168.23c0,14.3-6.81,26-20.44,38.71-13.24,12.37-29.24,21.67-48,24.22C685.69,1829.12,668.33,1823.46,655.66,1813.14Z"/><path class="cls-5" d="M1113.76,1815.3c-13.56-10.75-20.75-21.85-20.75-36v-309c0-25.61,6.86-48,20.6-64.64s30.37-24.22,49.92-26.27c12.45-1.3,24,.32,34.82,5.9s19.26,14.64,25.48,27.79,9.34,28.94,9.34,45.82v309.11c0,6.49-1.74,12.67-5.19,19.19a74.06,74.06,0,0,1-15.26,19.17c-13.83,12.46-30.22,21.66-49.19,23.65C1143.39,1832.06,1126.76,1825.6,1113.76,1815.3Z"/><path class="cls-5" d="M1312.87,1743.15c-16-15.62-28.29-40.13-36.89-71s-12.89-63-12.89-85.38c0-22.57,4.4-37,13.19-54.62s21.58-39.57,38.37-66.63c37.34-59.27,86.72-94.69,148.16-94.59a345.07,345.07,0,0,1,48,3.56c22.12,3.16,41.88,7.79,59.26,14.24s31.75,13.84,43.11,23.43,19.86,20.54,25.49,32.88a93.48,93.48,0,0,1,8.44,38.76c0,17.81-4.34,31-12.15,40.57-6.35,7.76-12.69,12.86-19.11,15.74s-14.77,4.39-25,4.28a131.52,131.52,0,0,1-20.74-1.6c-10.2-1.81-24.4-6.18-42.37-14q-12.45-4.5-32.3-7.54c-23.31-3.56-43.31-.76-60,6.63s-27.81,17.25-33.34,37.08a67.81,67.81,0,0,0-1.77,16.79,157.06,157.06,0,0,0,1.77,22c3.16,20,8.49,40.06,16,56.47s17.19,29,29,38,25.58,14.61,41.19,17c19.56,3,42.77,1.32,69.63-8.3a17.76,17.76,0,0,1,2.67-.92c1.38-.4,2.56-.69,3.55-.88a95,95,0,0,1,22.52-2c19.36.41,35.07,7.89,45.93,21.61,10.12,12.79,15.11,25.59,15.11,36.71,0,10.15-4.38,19.12-12.74,28.33-10.67,11.75-30.54,23-58.67,30.76-20.21,5.57-44.84,7.15-73.48,2.9a354.35,354.35,0,0,1-45.63-10.35c-42.08-12.39-78.63-29.57-109.64-46.69C1335.69,1760.14,1324.13,1753.2,1312.87,1743.15Z"/><path class="cls-5" d="M1695.71,1805.75c-13.83-9.11-20.75-18.84-20.75-32.92V1462.66a121.34,121.34,0,0,1,9.49-47.3c6.32-14.89,14.91-26.49,25.77-35.3a72,72,0,0,1,35.86-15.78c12.52-1.74,24.25.13,34.81,6.19s18.92,15.77,25,29.34,9.19,29.5,9.19,46.16v84.77c49.3-39,74-77.72,123.26-137.18a54.55,54.55,0,0,1,20.74-15.82c7.78-3.32,18-3.68,29.63-2a76.3,76.3,0,0,1,38.52,17c11.66,9.64,20.24,22.88,25.78,40.37a137.35,137.35,0,0,1,6.23,41.33c0,23.84-5.93,39.87-17.78,49.16-38.29,30.25-57.43,29.8-95.71,55,43.85,48.79,65.78,105.71,109.63,160.91,11.86,15.24,17.78,28.26,17.78,40.58,0,7.06-2.32,13.52-7,20.17a57.14,57.14,0,0,1-19.7,17.13,68.66,68.66,0,0,1-26.67,8.45,86.21,86.21,0,0,1-18.37-.1,83.64,83.64,0,0,1-28.45-9.57,94.38,94.38,0,0,1-23.11-17.38c-54.17-58.67-81.25-92.46-135.41-174.86v131.06c0,14.3-6.82,25.17-20.45,37s-30,20.82-49.19,23.65a73,73,0,0,1-25.33-.65A81.78,81.78,0,0,1,1695.71,1805.75Z"/><path class="cls-6" d="M670.06,1795c-14.16-11.54-21.33-23.39-21.33-38.28v-303.4c0-19.43,4-37.95,12-53.71s18.75-26.4,31.85-33.64a72.36,72.36,0,0,1,25.48-8.73c21.14-2.82,41.19,4.72,60.15,30.29,61.64,84.7,92.45,97.37,154.08,169v-126c0-25.33,7-48,21-63.32,13.71-15,30.23-19.32,49.19-16.35a74.93,74.93,0,0,1,27.11,9.84c8.59,5.13,15.88,12.41,22.08,21.09a107.53,107.53,0,0,1,15.11,31,128.41,128.41,0,0,1,5.63,37.24v308.69a43.13,43.13,0,0,1-1.19,9.39c-1.6,6.85-6.37,13.09-13.18,18.53a69.32,69.32,0,0,1-24.74,12.54,73.16,73.16,0,0,1-31.41,1.63,88.38,88.38,0,0,1-36.45-14.52c-7.86-5.42-13.73-10.39-17.48-14.52-65.61-50.39-112.27-128.44-159.12-194.72V1745.3c0,14.31-6.81,26-20.44,38.71-13.24,12.38-29.24,21.68-48,24.23C700.09,1811,682.73,1805.34,670.06,1795Z"/><path class="cls-6" d="M1128.15,1797.18c-13.56-10.75-20.74-21.85-20.74-36V1452.11c0-25.61,6.86-48,20.6-64.64s30.37-24.22,49.92-26.27c12.45-1.3,24,.31,34.82,5.9s19.26,14.64,25.48,27.79,9.34,28.94,9.34,45.82v309.11c0,6.49-1.74,12.66-5.19,19.19a74.44,74.44,0,0,1-15.26,19.17c-13.83,12.46-30.22,21.66-49.19,23.64C1157.78,1813.94,1141.16,1807.48,1128.15,1797.18Z"/><path class="cls-6" d="M1327.27,1725c-16-15.62-28.29-40.13-36.89-71s-12.89-63-12.89-85.38c0-22.57,4.4-37,13.19-54.63s21.58-39.56,38.37-66.62c37.34-59.27,86.72-94.69,148.16-94.59a343.54,343.54,0,0,1,48,3.56c22.12,3.16,41.88,7.79,59.26,14.24s31.75,13.84,43.11,23.43,19.85,20.54,25.48,32.88a93.45,93.45,0,0,1,8.45,38.76c0,17.81-4.34,31-12.15,40.57-6.35,7.76-12.7,12.86-19.11,15.74s-14.77,4.39-25,4.28a131.52,131.52,0,0,1-20.74-1.6c-10.2-1.81-24.4-6.18-42.37-14q-12.45-4.5-32.3-7.55c-23.31-3.55-43.31-.76-60,6.64s-27.81,17.25-33.34,37.07a67.85,67.85,0,0,0-1.78,16.8,157.21,157.21,0,0,0,1.78,22c3.16,20,8.49,40,16,56.46s17.19,29,29,38,25.58,14.61,41.19,17c19.55,3,42.77,1.31,69.63-8.3a16.27,16.27,0,0,1,2.67-.92c1.38-.4,2.56-.69,3.55-.88a94.49,94.49,0,0,1,22.52-2c19.36.41,35.07,7.89,45.93,21.61,10.12,12.79,15.11,25.58,15.11,36.71,0,10.15-4.38,19.12-12.74,28.32-10.67,11.76-30.54,23-58.67,30.77-20.21,5.57-44.84,7.15-73.48,2.9a354.46,354.46,0,0,1-45.63-10.36c-42.08-12.38-78.63-29.56-109.64-46.68C1350.09,1742,1338.53,1735.07,1327.27,1725Z"/><path class="cls-6" d="M1710.1,1787.63c-13.82-9.11-20.74-18.85-20.74-32.92V1444.54a121.51,121.51,0,0,1,9.48-47.3c6.33-14.9,14.92-26.49,25.78-35.3a71.92,71.92,0,0,1,35.86-15.78c12.52-1.74,24.24.12,34.81,6.19s18.92,15.77,25,29.34,9.19,29.5,9.19,46.16v84.77c49.3-39,74-77.73,123.26-137.19a54.63,54.63,0,0,1,20.74-15.81c7.78-3.32,18-3.69,29.63-2a76.34,76.34,0,0,1,38.52,17c11.66,9.64,20.23,22.87,25.78,40.37a137.33,137.33,0,0,1,6.23,41.32c0,23.85-5.93,39.88-17.78,49.17-38.29,30.25-57.43,29.8-95.71,55,43.85,48.79,65.78,105.71,109.63,160.9,11.86,15.25,17.78,28.27,17.78,40.59,0,7.06-2.32,13.52-7,20.17a57.18,57.18,0,0,1-19.71,17.13,68.56,68.56,0,0,1-26.66,8.45,86.33,86.33,0,0,1-18.38-.1,83.59,83.59,0,0,1-28.44-9.57,94.38,94.38,0,0,1-23.11-17.38c-54.17-58.67-81.25-92.47-135.42-174.86v131.06c0,14.3-6.81,25.17-20.44,37s-30,20.81-49.19,23.65a72.8,72.8,0,0,1-25.33-.66A81.92,81.92,0,0,1,1710.1,1787.63Z"/><path class="cls-7" d="M687.46,1778.86c-14.17-11.55-21.34-23.39-21.34-38.29V1437.18c0-19.44,4-38,12-53.72s18.76-26.4,31.86-33.63a72.32,72.32,0,0,1,25.48-8.74c21.13-2.81,41.18,4.72,60.15,30.29,61.63,84.71,92.45,97.38,154.08,169v-126c0-25.32,7-48,21-63.32,13.71-15,30.22-19.31,49.18-16.34a75,75,0,0,1,27.12,9.83c8.59,5.14,15.88,12.41,22.07,21.09a107.08,107.08,0,0,1,15.11,31,128.39,128.39,0,0,1,5.63,37.23v308.7a42.85,42.85,0,0,1-1.18,9.38c-1.6,6.85-6.37,13.09-13.19,18.54a69.32,69.32,0,0,1-24.74,12.54,73.16,73.16,0,0,1-31.41,1.63,88.35,88.35,0,0,1-36.44-14.53c-7.87-5.42-13.74-10.38-17.49-14.51-65.61-50.4-112.27-128.44-159.11-194.72v168.22c0,14.3-6.82,26-20.45,38.71-13.24,12.38-29.24,21.68-48,24.22C717.48,1794.84,700.12,1789.19,687.46,1778.86Z"/><path class="cls-7" d="M1145.55,1781c-13.56-10.74-20.74-21.85-20.74-36V1436c0-25.62,6.86-48,20.59-64.65s30.37-24.21,49.93-26.26c12.44-1.31,24.05.31,34.82,5.9s19.26,14.63,25.48,27.78,9.33,28.94,9.33,45.82v309.12c0,6.49-1.73,12.66-5.18,19.18a74.47,74.47,0,0,1-15.26,19.18c-13.83,12.46-30.23,21.65-49.19,23.64C1175.18,1797.78,1158.56,1791.33,1145.55,1781Z"/><path class="cls-7" d="M1344.67,1708.88c-16-15.62-28.3-40.13-36.89-71s-12.89-63-12.89-85.38c0-22.57,4.39-37,13.18-54.62s21.59-39.57,38.38-66.63c37.33-59.26,86.71-94.69,148.15-94.58a341.8,341.8,0,0,1,48,3.56c22.12,3.16,41.88,7.79,59.26,14.24s31.75,13.83,43.12,23.42,19.85,20.55,25.48,32.89a93.41,93.41,0,0,1,8.44,38.76c0,17.81-4.34,31-12.14,40.56-6.35,7.77-12.7,12.87-19.12,15.75s-14.77,4.39-25,4.28a130.19,130.19,0,0,1-20.75-1.61c-10.19-1.8-24.4-6.17-42.37-14q-12.43-4.5-32.3-7.54c-23.31-3.55-43.31-.76-60,6.64s-27.81,17.25-33.33,37.07a67.37,67.37,0,0,0-1.78,16.8,155.68,155.68,0,0,0,1.78,21.94c3.15,20,8.49,40.06,16,56.47s17.18,29,29,38,25.58,14.6,41.18,17c19.56,3,42.77,1.32,69.64-8.3a18.25,18.25,0,0,1,2.66-.92c1.38-.4,2.57-.69,3.56-.87a94.39,94.39,0,0,1,22.52-2c19.36.4,35.07,7.88,45.93,21.6,10.12,12.79,15.11,25.59,15.11,36.71,0,10.16-4.38,19.12-12.74,28.33-10.68,11.76-30.55,23-58.67,30.76-20.22,5.58-44.85,7.16-73.49,2.91a356.14,356.14,0,0,1-45.63-10.36c-42.08-12.38-78.62-29.56-109.63-46.69C1367.48,1725.86,1355.93,1718.92,1344.67,1708.88Z"/><path class="cls-7" d="M1727.5,1771.47c-13.83-9.1-20.74-18.84-20.74-32.91V1428.39a121.25,121.25,0,0,1,9.48-47.3c6.32-14.9,14.91-26.49,25.78-35.3a71.8,71.8,0,0,1,35.85-15.78c12.52-1.74,24.25.12,34.82,6.19s18.91,15.76,25,29.33,9.18,29.51,9.18,46.16v84.78c49.31-39,74-77.73,123.27-137.19a54.57,54.57,0,0,1,20.74-15.82c7.77-3.31,18-3.68,29.63-2a76.55,76.55,0,0,1,38.52,17c11.65,9.65,20.23,22.88,25.78,40.37a137.66,137.66,0,0,1,6.22,41.33c0,23.85-5.93,39.87-17.78,49.17-38.28,30.25-57.42,29.79-95.71,55,43.86,48.79,65.78,105.71,109.64,160.9,11.85,15.24,17.78,28.26,17.78,40.58,0,7.06-2.33,13.53-7,20.17a57,57,0,0,1-19.7,17.13,68.67,68.67,0,0,1-26.67,8.46,85.4,85.4,0,0,1-18.37-.11,83.71,83.71,0,0,1-28.45-9.57,94.79,94.79,0,0,1-23.11-17.37c-54.16-58.67-81.25-92.47-135.41-174.86v131c0,14.31-6.82,25.17-20.45,37s-30,20.81-49.18,23.64a72.86,72.86,0,0,1-25.34-.65A81.5,81.5,0,0,1,1727.5,1771.47Z"/><path class="cls-8" d="M707.35,1764.35C693.18,1752.8,686,1741,686,1726.06v-303.4c0-19.43,4-38,12-53.71s18.76-26.4,31.86-33.64a72.56,72.56,0,0,1,25.48-8.73c21.14-2.82,41.19,4.72,60.15,30.29,61.63,84.7,92.45,97.37,154.08,169v-126c0-25.32,7-48,21-63.32,13.71-15,30.22-19.32,49.19-16.35a75.12,75.12,0,0,1,27.11,9.84c8.59,5.14,15.88,12.41,22.07,21.09a107,107,0,0,1,15.11,31,128.46,128.46,0,0,1,5.63,37.24v308.7a43,43,0,0,1-1.18,9.38c-1.6,6.85-6.37,13.09-13.19,18.54a69.48,69.48,0,0,1-24.74,12.54,73.16,73.16,0,0,1-31.41,1.62,88.4,88.4,0,0,1-36.44-14.52c-7.86-5.42-13.74-10.39-17.48-14.52C919.67,1690.74,873,1612.7,826.17,1546.41v168.23c0,14.3-6.82,26-20.45,38.71-13.23,12.37-29.23,21.67-48,24.22C737.37,1780.33,720,1774.67,707.35,1764.35Z"/><path class="cls-8" d="M1165.44,1766.51c-13.56-10.75-20.74-21.85-20.74-36v-309c0-25.61,6.86-48,20.59-64.64s30.37-24.22,49.93-26.27c12.45-1.3,24,.32,34.82,5.9s19.26,14.64,25.48,27.79,9.33,28.94,9.33,45.82v309.11c0,6.49-1.73,12.67-5.18,19.19a74.27,74.27,0,0,1-15.26,19.17c-13.83,12.46-30.23,21.66-49.19,23.65C1195.07,1783.27,1178.45,1776.81,1165.44,1766.51Z"/><path class="cls-8" d="M1364.56,1694.36c-16-15.62-28.3-40.13-36.89-71s-12.89-63-12.89-85.38c0-22.57,4.4-37,13.19-54.62s21.58-39.57,38.37-66.63c37.33-59.27,86.71-94.69,148.15-94.59a344.84,344.84,0,0,1,48,3.56c22.12,3.16,41.88,7.79,59.27,14.24s31.75,13.84,43.11,23.43,19.85,20.54,25.48,32.88a93.49,93.49,0,0,1,8.45,38.76c0,17.81-4.34,31-12.15,40.57-6.35,7.77-12.7,12.86-19.11,15.74s-14.77,4.39-25,4.28a131.31,131.31,0,0,1-20.74-1.6c-10.2-1.81-24.4-6.18-42.38-14q-12.44-4.5-32.29-7.54c-23.31-3.56-43.31-.76-60,6.63s-27.8,17.25-33.33,37.08A67.29,67.29,0,0,0,1452,1533a155.7,155.7,0,0,0,1.78,22c3.16,20,8.49,40.06,16,56.47s17.19,29,29,38,25.58,14.6,41.19,17c19.55,3,42.76,1.32,69.63-8.3a17.07,17.07,0,0,1,2.66-.92c1.38-.4,2.57-.69,3.56-.88a95,95,0,0,1,22.52-2c19.36.41,35.07,7.89,45.93,21.61,10.12,12.79,15.11,25.59,15.11,36.71,0,10.15-4.38,19.12-12.74,28.33-10.68,11.75-30.55,23-58.67,30.76-20.22,5.57-44.85,7.15-73.49,2.9a354.35,354.35,0,0,1-45.63-10.35c-42.07-12.39-78.62-29.57-109.63-46.69C1387.38,1711.35,1375.82,1704.41,1364.56,1694.36Z"/><path class="cls-8" d="M1747.39,1757c-13.83-9.11-20.74-18.84-20.74-32.92V1413.87a121.51,121.51,0,0,1,9.48-47.3c6.32-14.89,14.92-26.49,25.78-35.29a71.86,71.86,0,0,1,35.85-15.79c12.53-1.74,24.25.13,34.82,6.19s18.91,15.77,25,29.34,9.18,29.51,9.18,46.16V1482c49.31-39,74-77.72,123.27-137.18a54.55,54.55,0,0,1,20.74-15.82c7.77-3.32,18-3.68,29.63-2a76.34,76.34,0,0,1,38.52,17c11.66,9.64,20.23,22.88,25.78,40.37a137.66,137.66,0,0,1,6.22,41.33c0,23.84-5.92,39.87-17.78,49.16-38.28,30.25-57.42,29.8-95.7,55,43.85,48.79,65.78,105.71,109.63,160.91,11.85,15.24,17.78,28.26,17.78,40.58,0,7.06-2.33,13.53-7,20.17a57.27,57.27,0,0,1-19.71,17.13,68.61,68.61,0,0,1-26.67,8.45,86.23,86.23,0,0,1-18.37-.1,83.59,83.59,0,0,1-28.44-9.57,94.63,94.63,0,0,1-23.12-17.38c-54.16-58.67-81.24-92.46-135.41-174.86v131.06c0,14.3-6.81,25.17-20.44,37s-30,20.82-49.19,23.65a73.1,73.1,0,0,1-25.34-.65A82,82,0,0,1,1747.39,1757Z"/><path class="cls-9" d="M729.24,1751.14c-14.17-11.54-21.34-23.39-21.34-38.28v-303.4c0-19.43,4-38,12-53.71s18.76-26.4,31.86-33.64a72.49,72.49,0,0,1,25.48-8.73c21.14-2.82,41.19,4.72,60.15,30.29,61.63,84.7,92.45,97.37,154.08,168.95V1386.67c0-25.33,7-48,21-63.32,13.71-15,30.22-19.32,49.19-16.35a75,75,0,0,1,27.11,9.84c8.59,5.13,15.88,12.41,22.07,21.09a107,107,0,0,1,15.11,31,128.41,128.41,0,0,1,5.63,37.24v308.7a43,43,0,0,1-1.18,9.38c-1.6,6.85-6.37,13.09-13.19,18.54a69.3,69.3,0,0,1-24.74,12.53,73.16,73.16,0,0,1-31.41,1.63,88.4,88.4,0,0,1-36.44-14.52c-7.87-5.42-13.74-10.39-17.49-14.52-65.61-50.39-112.27-128.43-159.11-194.72v168.23c0,14.3-6.82,26-20.45,38.7-13.23,12.38-29.23,21.68-48,24.23C759.26,1767.13,741.91,1761.47,729.24,1751.14Z"/><path class="cls-9" d="M1187.33,1753.31c-13.56-10.75-20.74-21.85-20.74-36v-309c0-25.61,6.86-48,20.59-64.64s30.37-24.22,49.93-26.27c12.45-1.3,24.05.32,34.82,5.9s19.26,14.64,25.48,27.79,9.33,28.94,9.33,45.82V1706c0,6.49-1.73,12.66-5.18,19.19a74.27,74.27,0,0,1-15.26,19.17c-13.83,12.46-30.23,21.66-49.19,23.65C1217,1770.07,1200.34,1763.61,1187.33,1753.31Z"/><path class="cls-9" d="M1386.45,1681.16c-16-15.62-28.3-40.13-36.89-71s-12.89-63-12.89-85.38c0-22.57,4.4-37,13.19-54.63s21.58-39.56,38.37-66.62c37.33-59.27,86.71-94.69,148.15-94.59a344.84,344.84,0,0,1,48,3.56c22.12,3.16,41.88,7.79,59.27,14.24s31.75,13.84,43.11,23.43,19.85,20.54,25.48,32.88a93.45,93.45,0,0,1,8.45,38.76c0,17.81-4.35,31-12.15,40.57-6.35,7.76-12.7,12.86-19.11,15.74s-14.77,4.39-25,4.28a131.31,131.31,0,0,1-20.74-1.6c-10.2-1.81-24.4-6.18-42.38-14q-12.43-4.5-32.29-7.55c-23.31-3.55-43.31-.76-60,6.64s-27.8,17.25-33.33,37.07a67.43,67.43,0,0,0-1.78,16.8,155.7,155.7,0,0,0,1.78,22c3.16,20,8.49,40,16,56.46s17.19,29,29,38,25.58,14.61,41.18,17c19.56,3,42.77,1.31,69.64-8.3a16,16,0,0,1,2.66-.92c1.38-.4,2.57-.69,3.56-.88a95,95,0,0,1,22.52-2c19.36.41,35.07,7.89,45.93,21.61,10.12,12.79,15.11,25.58,15.11,36.71,0,10.15-4.38,19.12-12.74,28.32-10.68,11.76-30.55,23-58.67,30.77-20.22,5.57-44.85,7.15-73.49,2.9a354.46,354.46,0,0,1-45.63-10.36c-42.07-12.38-78.62-29.56-109.63-46.68C1409.27,1698.15,1397.71,1691.2,1386.45,1681.16Z"/><path class="cls-9" d="M1769.28,1743.76c-13.83-9.11-20.74-18.85-20.74-32.92V1400.67a121.51,121.51,0,0,1,9.48-47.3c6.32-14.9,14.92-26.49,25.78-35.3a71.93,71.93,0,0,1,35.85-15.78c12.53-1.74,24.25.13,34.82,6.19s18.91,15.77,25,29.34,9.18,29.5,9.18,46.16v84.77c49.31-39,74-77.73,123.27-137.19a54.55,54.55,0,0,1,20.74-15.81c7.77-3.32,18-3.69,29.63-2a76.34,76.34,0,0,1,38.52,17c11.65,9.64,20.23,22.87,25.78,40.37a137.64,137.64,0,0,1,6.22,41.32c0,23.85-5.92,39.88-17.78,49.17-38.28,30.25-57.42,29.8-95.7,55,43.85,48.79,65.78,105.71,109.63,160.9,11.85,15.25,17.78,28.27,17.78,40.59,0,7.06-2.33,13.52-7,20.17a57.14,57.14,0,0,1-19.7,17.13,68.61,68.61,0,0,1-26.67,8.45,86.23,86.23,0,0,1-18.37-.1,83.59,83.59,0,0,1-28.44-9.57,94.44,94.44,0,0,1-23.12-17.38c-54.16-58.67-81.24-92.47-135.41-174.86v131.06c0,14.3-6.81,25.17-20.44,37s-30,20.81-49.19,23.65a72.85,72.85,0,0,1-25.34-.66A81.86,81.86,0,0,1,1769.28,1743.76Z"/><path class="cls-10" d="M752.62,1738.93c-14.16-11.55-21.33-23.39-21.33-38.29v-303.4c0-19.43,4-38,12-53.71s18.76-26.4,31.85-33.64a72.61,72.61,0,0,1,25.49-8.73c21.13-2.82,41.18,4.72,60.15,30.29,61.63,84.7,92.45,97.38,154.08,169v-126c0-25.32,7-48,21-63.32,13.71-15,30.22-19.32,49.18-16.34a75,75,0,0,1,27.12,9.83c8.59,5.14,15.88,12.41,22.07,21.09a107,107,0,0,1,15.11,31A128.46,128.46,0,0,1,1155,1394v308.7a43,43,0,0,1-1.18,9.38c-1.6,6.85-6.37,13.09-13.19,18.54a69.56,69.56,0,0,1-24.74,12.54,73.16,73.16,0,0,1-31.41,1.62,88.44,88.44,0,0,1-36.45-14.52c-7.86-5.42-13.73-10.39-17.48-14.51C965,1665.32,918.29,1587.28,871.44,1521v168.23c0,14.3-6.81,26-20.44,38.71-13.24,12.37-29.24,21.67-48,24.22C782.65,1754.91,765.29,1749.26,752.62,1738.93Z"/><path class="cls-10" d="M1210.72,1741.09c-13.56-10.74-20.74-21.85-20.74-36V1396c0-25.62,6.86-48,20.59-64.65s30.37-24.22,49.93-26.27c12.44-1.3,24,.32,34.81,5.9s19.26,14.64,25.49,27.79,9.33,28.94,9.33,45.82v309.11c0,6.5-1.73,12.67-5.19,19.19a73.85,73.85,0,0,1-15.26,19.17c-13.82,12.46-30.22,21.66-49.18,23.65C1240.35,1757.85,1223.73,1751.4,1210.72,1741.09Z"/><path class="cls-10" d="M1409.84,1668.94c-16-15.62-28.3-40.13-36.89-71s-12.89-63-12.89-85.38c0-22.57,4.39-37,13.18-54.62s21.58-39.57,38.38-66.63c37.33-59.27,86.71-94.69,148.15-94.59a344.84,344.84,0,0,1,48,3.56c22.12,3.16,41.88,7.79,59.26,14.24s31.75,13.84,43.12,23.43,19.85,20.55,25.48,32.88a93.48,93.48,0,0,1,8.44,38.76c0,17.81-4.34,31-12.15,40.57-6.35,7.77-12.69,12.86-19.11,15.74s-14.77,4.39-25,4.28a131.52,131.52,0,0,1-20.74-1.6c-10.19-1.81-24.4-6.18-42.37-14q-12.45-4.5-32.3-7.54c-23.31-3.56-43.31-.76-60,6.63S1504.55,1471,1499,1490.8a67.29,67.29,0,0,0-1.78,16.79,155.7,155.7,0,0,0,1.78,22c3.15,20,8.49,40.06,16,56.47s17.18,29,29,38,25.58,14.6,41.18,17c19.56,3,42.77,1.32,69.63-8.3a17.76,17.76,0,0,1,2.67-.92c1.38-.4,2.57-.69,3.56-.88a95.43,95.43,0,0,1,22.52-2c19.36.41,35.07,7.89,45.92,21.61,10.12,12.79,15.12,25.59,15.12,36.71,0,10.15-4.39,19.12-12.75,28.33-10.67,11.75-30.54,23-58.66,30.76-20.22,5.57-44.85,7.15-73.49,2.9a354.35,354.35,0,0,1-45.63-10.35c-42.08-12.39-78.63-29.57-109.63-46.69C1432.65,1685.93,1421.1,1679,1409.84,1668.94Z"/><path class="cls-10" d="M1792.67,1731.54c-13.83-9.1-20.74-18.84-20.74-32.91V1388.45a121.33,121.33,0,0,1,9.48-47.3c6.32-14.89,14.91-26.49,25.78-35.29a71.82,71.82,0,0,1,35.85-15.79c12.52-1.73,24.25.13,34.82,6.2s18.91,15.76,25,29.33,9.18,29.51,9.18,46.16v84.77c49.31-39,74-77.72,123.27-137.18a54.47,54.47,0,0,1,20.74-15.82c7.77-3.32,18-3.68,29.63-2a76.38,76.38,0,0,1,38.52,17c11.65,9.64,20.23,22.88,25.78,40.37a137.66,137.66,0,0,1,6.22,41.33c0,23.84-5.93,39.87-17.78,49.16-38.28,30.25-57.42,29.8-95.71,55,43.86,48.79,65.78,105.71,109.64,160.91,11.85,15.24,17.78,28.26,17.78,40.58,0,7.06-2.33,13.53-7,20.17a57,57,0,0,1-19.7,17.13,68.66,68.66,0,0,1-26.67,8.45,86.21,86.21,0,0,1-18.37-.1A83.71,83.71,0,0,1,2070,1742a94.57,94.57,0,0,1-23.11-17.38c-54.16-58.67-81.25-92.46-135.41-174.86v131.06c0,14.3-6.82,25.17-20.45,37s-30,20.82-49.18,23.65a73.09,73.09,0,0,1-25.34-.65A81.78,81.78,0,0,1,1792.67,1731.54Z"/><path class="cls-11" d="M777,1727.36c-14.16-11.54-21.33-23.39-21.33-38.28v-303.4c0-19.43,4-38,12-53.71s18.75-26.4,31.85-33.64A72.63,72.63,0,0,1,825,1289.6c21.14-2.82,41.19,4.72,60.15,30.29,61.64,84.7,92.45,97.37,154.08,168.95V1362.89c0-25.33,7-48,21-63.32,13.71-15,30.23-19.32,49.19-16.35a75.12,75.12,0,0,1,27.11,9.84c8.59,5.13,15.88,12.41,22.08,21.09a107.27,107.27,0,0,1,15.11,31,128.46,128.46,0,0,1,5.63,37.24v308.7a43.12,43.12,0,0,1-1.19,9.38c-1.6,6.85-6.37,13.09-13.18,18.54a69.65,69.65,0,0,1-24.74,12.54,73.32,73.32,0,0,1-31.41,1.62,88.38,88.38,0,0,1-36.45-14.52c-7.86-5.42-13.73-10.39-17.48-14.52-65.61-50.39-112.27-128.43-159.12-194.72v168.23c0,14.3-6.81,26-20.44,38.71-13.24,12.37-29.24,21.67-48,24.22C807,1743.35,789.68,1737.69,777,1727.36Z"/><path class="cls-11" d="M1235.1,1729.53c-13.56-10.75-20.74-21.85-20.74-36v-309c0-25.61,6.86-48,20.6-64.64s30.37-24.22,49.92-26.27c12.45-1.3,24,.32,34.82,5.9s19.26,14.64,25.48,27.79,9.34,28.94,9.34,45.82v309.11c0,6.49-1.74,12.66-5.19,19.19a74.27,74.27,0,0,1-15.26,19.17c-13.83,12.46-30.22,21.66-49.19,23.65C1264.74,1746.29,1248.11,1739.83,1235.1,1729.53Z"/><path class="cls-11" d="M1434.22,1657.38c-16-15.62-28.29-40.13-36.89-71s-12.89-63-12.89-85.38c0-22.57,4.4-37,13.19-54.63s21.58-39.56,38.37-66.62c37.34-59.27,86.72-94.69,148.16-94.59a345.07,345.07,0,0,1,48,3.56c22.12,3.16,41.88,7.79,59.26,14.24s31.75,13.84,43.11,23.43,19.86,20.54,25.49,32.88a93.6,93.6,0,0,1,8.44,38.76c0,17.81-4.34,31-12.15,40.57-6.35,7.76-12.69,12.86-19.11,15.74s-14.77,4.39-25,4.28a131.52,131.52,0,0,1-20.74-1.6c-10.2-1.81-24.4-6.18-42.37-14q-12.45-4.5-32.3-7.55c-23.31-3.55-43.31-.76-60,6.64s-27.81,17.25-33.34,37.08a67.76,67.76,0,0,0-1.78,16.79,157.21,157.21,0,0,0,1.78,22c3.16,20,8.49,40.06,16,56.46s17.19,29,29,38,25.58,14.61,41.19,17c19.55,3,42.77,1.31,69.63-8.3a17.76,17.76,0,0,1,2.67-.92c1.38-.4,2.56-.69,3.55-.88a95,95,0,0,1,22.52-2c19.36.41,35.07,7.89,45.93,21.61,10.12,12.79,15.11,25.58,15.11,36.71,0,10.15-4.38,19.12-12.74,28.32-10.67,11.76-30.54,23-58.67,30.77-20.21,5.57-44.84,7.15-73.48,2.9a352.79,352.79,0,0,1-45.63-10.36c-42.08-12.38-78.63-29.56-109.64-46.68C1457,1674.37,1445.48,1667.42,1434.22,1657.38Z"/><path class="cls-11" d="M1817.05,1720c-13.82-9.11-20.74-18.84-20.74-32.92V1376.89a121.51,121.51,0,0,1,9.48-47.3c6.33-14.89,14.92-26.49,25.78-35.3a71.92,71.92,0,0,1,35.86-15.78c12.52-1.74,24.24.13,34.81,6.19s18.92,15.77,25,29.34,9.19,29.5,9.19,46.16V1445c49.3-39,74-77.72,123.26-137.18a54.55,54.55,0,0,1,20.74-15.82c7.78-3.32,18-3.68,29.63-2a76.3,76.3,0,0,1,38.52,17c11.66,9.64,20.23,22.87,25.78,40.37a137.35,137.35,0,0,1,6.23,41.33c0,23.84-5.93,39.87-17.78,49.16-38.29,30.25-57.43,29.8-95.71,55,43.85,48.79,65.78,105.71,109.63,160.9,11.86,15.25,17.78,28.27,17.78,40.59,0,7.06-2.32,13.52-7,20.17a57.18,57.18,0,0,1-19.71,17.13,68.56,68.56,0,0,1-26.66,8.45,86.21,86.21,0,0,1-18.37-.1,83.57,83.57,0,0,1-28.45-9.57,94.38,94.38,0,0,1-23.11-17.38c-54.17-58.67-81.25-92.47-135.42-174.86v131.06c0,14.3-6.81,25.17-20.44,37s-30,20.81-49.19,23.65a72.8,72.8,0,0,1-25.33-.66A81.92,81.92,0,0,1,1817.05,1720Z"/><path class="cls-12" d="M801.9,1716.13c-14.17-11.55-21.34-23.39-21.34-38.29V1374.45c0-19.44,4-38,12-53.72s18.76-26.4,31.86-33.63a72.52,72.52,0,0,1,25.48-8.74c21.14-2.81,41.19,4.72,60.15,30.29,61.63,84.71,92.45,97.38,154.08,169v-126c0-25.32,7-48,21-63.31,13.71-15,30.22-19.32,49.19-16.35a75.16,75.16,0,0,1,27.11,9.83c8.59,5.14,15.88,12.41,22.07,21.09a107.08,107.08,0,0,1,15.11,31,128.39,128.39,0,0,1,5.63,37.23v308.7a42.85,42.85,0,0,1-1.18,9.38c-1.6,6.85-6.37,13.09-13.19,18.54a69.15,69.15,0,0,1-24.74,12.54,73.16,73.16,0,0,1-31.41,1.63,88.41,88.41,0,0,1-36.44-14.53c-7.87-5.42-13.74-10.38-17.49-14.51-65.61-50.4-112.27-128.44-159.11-194.72v168.22c0,14.31-6.82,26-20.45,38.71-13.23,12.38-29.23,21.68-48,24.22C831.92,1732.11,814.56,1726.46,801.9,1716.13Z"/><path class="cls-12" d="M1260,1718.29c-13.56-10.74-20.74-21.85-20.74-36v-309c0-25.62,6.86-48,20.59-64.65s30.37-24.21,49.93-26.26c12.44-1.31,24,.31,34.82,5.9s19.26,14.64,25.48,27.78,9.33,28.94,9.33,45.83v309.11c0,6.49-1.73,12.66-5.18,19.19A74.61,74.61,0,0,1,1359,1709.3c-13.83,12.46-30.23,21.65-49.19,23.64C1289.62,1735.06,1273,1728.6,1260,1718.29Z"/><path class="cls-12" d="M1459.11,1646.15c-16-15.62-28.3-40.13-36.89-71s-12.89-63-12.89-85.37c0-22.58,4.39-37,13.19-54.63s21.58-39.57,38.37-66.62c37.33-59.27,86.71-94.7,148.15-94.59a341.8,341.8,0,0,1,48,3.56c22.12,3.16,41.88,7.79,59.27,14.24s31.75,13.84,43.11,23.43,19.85,20.54,25.48,32.88a93.42,93.42,0,0,1,8.45,38.76c0,17.81-4.35,31-12.15,40.57-6.35,7.76-12.7,12.86-19.11,15.74s-14.78,4.39-25,4.28a130,130,0,0,1-20.74-1.61c-10.2-1.8-24.4-6.17-42.38-14q-12.43-4.52-32.29-7.55c-23.31-3.55-43.31-.76-60,6.64s-27.8,17.25-33.33,37.07a67.37,67.37,0,0,0-1.78,16.8,155.93,155.93,0,0,0,1.78,22c3.15,20,8.49,40,16,56.46s17.18,29,29,38,25.58,14.6,41.18,17c19.56,3,42.77,1.32,69.64-8.3a18.25,18.25,0,0,1,2.66-.92c1.38-.39,2.57-.69,3.56-.87a94.44,94.44,0,0,1,22.52-2c19.36.4,35.07,7.88,45.93,21.6,10.12,12.79,15.11,25.59,15.11,36.71,0,10.16-4.38,19.12-12.74,28.33-10.68,11.76-30.55,23-58.67,30.76-20.22,5.58-44.85,7.16-73.49,2.91a354.46,354.46,0,0,1-45.63-10.36c-42.07-12.38-78.62-29.56-109.63-46.69C1481.93,1663.13,1470.37,1656.19,1459.11,1646.15Z"/><path class="cls-12" d="M1841.94,1708.74c-13.83-9.1-20.74-18.84-20.74-32.91V1365.66a121.43,121.43,0,0,1,9.48-47.3c6.32-14.9,14.91-26.49,25.78-35.3a71.84,71.84,0,0,1,35.85-15.78c12.52-1.74,24.25.12,34.82,6.19s18.91,15.76,25,29.33,9.18,29.51,9.18,46.16v84.78c49.31-39,74-77.73,123.27-137.19a54.67,54.67,0,0,1,20.74-15.82c7.77-3.31,18-3.68,29.63-2a76.38,76.38,0,0,1,38.52,17c11.65,9.64,20.23,22.87,25.78,40.36a137.75,137.75,0,0,1,6.22,41.33c0,23.85-5.93,39.87-17.78,49.17-38.28,30.25-57.42,29.79-95.71,55,43.86,48.79,65.79,105.71,109.64,160.9,11.85,15.24,17.78,28.26,17.78,40.58,0,7.07-2.33,13.53-7,20.18a57.12,57.12,0,0,1-19.7,17.12,68.62,68.62,0,0,1-26.67,8.46,85.4,85.4,0,0,1-18.37-.11,83.57,83.57,0,0,1-28.44-9.56,94.94,94.94,0,0,1-23.12-17.38c-54.16-58.67-81.24-92.47-135.41-174.86v131c0,14.31-6.82,25.18-20.45,37s-30,20.81-49.18,23.64a72.86,72.86,0,0,1-25.34-.65A81.61,81.61,0,0,1,1841.94,1708.74Z"/><path class="cls-13" d="M826.78,1704.9c-14.16-11.55-21.33-23.39-21.33-38.29v-303.4c0-19.43,4-38,12-53.71s18.75-26.4,31.85-33.64a72.63,72.63,0,0,1,25.48-8.73c21.14-2.82,41.19,4.72,60.16,30.29,61.63,84.7,92.44,97.38,154.08,168.95V1340.42c0-25.32,7-48,21-63.32,13.71-15,30.23-19.31,49.19-16.34a74.91,74.91,0,0,1,27.11,9.83c8.6,5.14,15.88,12.41,22.08,21.09a107,107,0,0,1,15.11,31,128.46,128.46,0,0,1,5.63,37.24v308.7A42.37,42.37,0,0,1,1228,1678c-1.6,6.85-6.37,13.09-13.18,18.54a69.48,69.48,0,0,1-24.74,12.54,73.16,73.16,0,0,1-31.41,1.62,88.44,88.44,0,0,1-36.45-14.52c-7.86-5.42-13.73-10.39-17.48-14.51-65.61-50.4-112.27-128.44-159.12-194.72v168.22c0,14.3-6.81,26-20.44,38.71-13.24,12.37-29.24,21.67-48,24.22C856.81,1720.88,839.45,1715.23,826.78,1704.9Z"/><path class="cls-13" d="M1284.88,1707.06c-13.56-10.74-20.75-21.85-20.75-36V1362c0-25.62,6.86-48,20.6-64.65s30.37-24.21,49.93-26.26c12.44-1.31,24,.31,34.81,5.89s19.26,14.64,25.48,27.79,9.34,28.94,9.34,45.82V1659.7c0,6.5-1.73,12.67-5.19,19.19a74.06,74.06,0,0,1-15.26,19.17c-13.82,12.46-30.22,21.66-49.18,23.65C1314.51,1723.82,1297.88,1717.37,1284.88,1707.06Z"/><path class="cls-13" d="M1484,1634.91c-16-15.62-28.3-40.13-36.9-71s-12.88-63-12.88-85.38c0-22.57,4.39-37,13.18-54.62s21.58-39.57,38.37-66.63c37.34-59.27,86.72-94.69,148.16-94.59a345.07,345.07,0,0,1,48,3.56c22.12,3.16,41.88,7.79,59.26,14.24s31.75,13.84,43.11,23.43,19.86,20.55,25.49,32.88a93.48,93.48,0,0,1,8.44,38.76c0,17.81-4.34,31-12.15,40.57-6.35,7.77-12.69,12.87-19.11,15.74s-14.77,4.39-25,4.28a131.52,131.52,0,0,1-20.74-1.6c-10.2-1.81-24.4-6.17-42.37-14q-12.45-4.5-32.3-7.54c-23.31-3.56-43.31-.76-60,6.64s-27.81,17.24-33.34,37.07a67.84,67.84,0,0,0-1.77,16.8,157,157,0,0,0,1.77,21.94c3.16,20,8.49,40.06,16,56.47s17.19,29,29,38,25.58,14.6,41.19,17c19.56,3,42.77,1.32,69.63-8.3a17.76,17.76,0,0,1,2.67-.92c1.38-.4,2.56-.69,3.55-.87a94.49,94.49,0,0,1,22.52-2c19.36.4,35.08,7.88,45.93,21.6,10.12,12.79,15.11,25.59,15.11,36.71,0,10.15-4.38,19.12-12.74,28.33-10.67,11.75-30.54,23-58.67,30.76-20.21,5.57-44.84,7.16-73.48,2.9a354.35,354.35,0,0,1-45.63-10.35c-42.08-12.39-78.63-29.57-109.64-46.69C1506.81,1651.9,1495.25,1645,1484,1634.91Z"/><path class="cls-13" d="M1866.83,1697.51c-13.83-9.1-20.75-18.84-20.75-32.91V1354.42a121.25,121.25,0,0,1,9.49-47.29c6.32-14.9,14.91-26.5,25.78-35.3a71.72,71.72,0,0,1,35.85-15.78c12.52-1.74,24.25.12,34.81,6.19s18.92,15.76,25,29.33,9.19,29.51,9.19,46.16v84.77c49.3-39,74-77.72,123.26-137.18a54.55,54.55,0,0,1,20.74-15.82c7.78-3.32,18-3.68,29.64-2a76.38,76.38,0,0,1,38.52,17c11.65,9.64,20.23,22.88,25.77,40.37a137.35,137.35,0,0,1,6.23,41.33c0,23.84-5.93,39.87-17.78,49.16-38.28,30.26-57.43,29.8-95.71,55,43.85,48.79,65.78,105.71,109.63,160.91,11.86,15.24,17.78,28.26,17.78,40.58,0,7.06-2.32,13.53-7,20.17a57,57,0,0,1-19.7,17.13,68.5,68.5,0,0,1-26.67,8.45,84.89,84.89,0,0,1-18.37-.1,83.64,83.64,0,0,1-28.45-9.57,94.38,94.38,0,0,1-23.11-17.38c-54.17-58.66-81.25-92.46-135.41-174.85v131c0,14.3-6.82,25.17-20.45,37s-30,20.82-49.19,23.65a73,73,0,0,1-25.33-.65A81.5,81.5,0,0,1,1866.83,1697.51Z"/><path class="cls-14" d="M851.17,1693.34c-14.16-11.55-21.34-23.39-21.34-38.29v-303.4c0-19.43,4-38,12-53.71s18.76-26.4,31.86-33.64a72.56,72.56,0,0,1,25.48-8.73c21.14-2.82,41.19,4.72,60.15,30.29,61.63,84.7,92.45,97.37,154.08,169v-126c0-25.32,7-48,21-63.32,13.71-15,30.22-19.32,49.19-16.35a75.12,75.12,0,0,1,27.11,9.84c8.59,5.14,15.88,12.41,22.07,21.09a107.28,107.28,0,0,1,15.12,31,128.46,128.46,0,0,1,5.63,37.24v308.7a43.12,43.12,0,0,1-1.19,9.38c-1.6,6.85-6.37,13.09-13.19,18.54a69.48,69.48,0,0,1-24.74,12.54,73.32,73.32,0,0,1-31.41,1.62,88.4,88.4,0,0,1-36.44-14.52c-7.86-5.42-13.73-10.39-17.48-14.52-65.61-50.39-112.27-128.43-159.12-194.72v168.23c0,14.3-6.82,26-20.45,38.71-13.23,12.37-29.23,21.67-48,24.22C881.19,1709.32,863.84,1703.66,851.17,1693.34Z"/><path class="cls-14" d="M1309.26,1695.5c-13.56-10.75-20.74-21.85-20.74-36v-309c0-25.61,6.86-48,20.59-64.64s30.38-24.22,49.93-26.27c12.45-1.3,24,.32,34.82,5.9s19.26,14.64,25.48,27.79,9.33,28.94,9.33,45.82v309.11c0,6.49-1.73,12.67-5.18,19.19a74.27,74.27,0,0,1-15.26,19.17c-13.83,12.46-30.22,21.66-49.19,23.65C1338.89,1712.26,1322.27,1705.8,1309.26,1695.5Z"/><path class="cls-14" d="M1508.38,1623.35c-16-15.62-28.3-40.13-36.89-71s-12.89-63-12.89-85.38c0-22.57,4.4-37,13.19-54.62s21.58-39.57,38.37-66.63c37.33-59.27,86.71-94.69,148.15-94.59a345.1,345.1,0,0,1,48,3.56c22.12,3.16,41.87,7.79,59.26,14.24s31.75,13.84,43.11,23.43,19.85,20.54,25.48,32.88a93.49,93.49,0,0,1,8.45,38.76c0,17.81-4.34,31-12.15,40.57-6.35,7.76-12.7,12.86-19.11,15.74s-14.77,4.39-25,4.28a131.41,131.41,0,0,1-20.74-1.6c-10.2-1.81-24.4-6.18-42.37-14q-12.45-4.5-32.3-7.54c-23.31-3.56-43.31-.76-60,6.63s-27.81,17.25-33.34,37.08a67.76,67.76,0,0,0-1.78,16.79,157.21,157.21,0,0,0,1.78,22c3.16,20,8.49,40.06,16,56.47s17.19,29,29,38,25.58,14.6,41.19,17c19.55,3,42.76,1.32,69.63-8.3a16.92,16.92,0,0,1,2.67-.92c1.37-.4,2.56-.69,3.55-.88a95,95,0,0,1,22.52-2c19.36.41,35.07,7.89,45.93,21.61,10.12,12.79,15.11,25.59,15.11,36.71,0,10.15-4.38,19.12-12.74,28.33-10.68,11.75-30.54,23-58.67,30.76-20.22,5.57-44.85,7.15-73.48,2.9a354.11,354.11,0,0,1-45.64-10.35c-42.07-12.39-78.62-29.57-109.63-46.69C1531.2,1640.34,1519.64,1633.4,1508.38,1623.35Z"/><path class="cls-14" d="M1891.21,1686c-13.83-9.11-20.74-18.84-20.74-32.92V1342.86a121.51,121.51,0,0,1,9.48-47.3c6.32-14.89,14.92-26.49,25.78-35.3a71.93,71.93,0,0,1,35.85-15.78c12.53-1.74,24.25.13,34.82,6.19s18.92,15.77,25,29.34,9.18,29.5,9.18,46.16v84.77c49.31-39,74-77.72,123.27-137.18a54.55,54.55,0,0,1,20.74-15.82c7.77-3.32,18-3.68,29.63-2a76.34,76.34,0,0,1,38.52,17c11.66,9.64,20.23,22.88,25.78,40.37a137.66,137.66,0,0,1,6.22,41.33c0,23.84-5.92,39.87-17.78,49.16-38.28,30.25-57.42,29.8-95.7,55,43.85,48.79,65.78,105.71,109.63,160.91,11.85,15.24,17.78,28.26,17.78,40.58,0,7.06-2.33,13.52-7,20.17a57.27,57.27,0,0,1-19.71,17.13,68.61,68.61,0,0,1-26.67,8.45,86.23,86.23,0,0,1-18.37-.1,83.59,83.59,0,0,1-28.44-9.57,94.38,94.38,0,0,1-23.11-17.38c-54.17-58.67-81.25-92.46-135.42-174.86v131.06c0,14.3-6.81,25.17-20.44,37s-30,20.82-49.19,23.65a73,73,0,0,1-25.33-.65A82,82,0,0,1,1891.21,1686Z"/><path class="cls-15" d="M874.56,1681.12c-14.17-11.55-21.34-23.39-21.34-38.29v-303.4c0-19.43,4-38,12-53.71s18.76-26.4,31.86-33.63a72.32,72.32,0,0,1,25.48-8.74c21.13-2.82,41.19,4.72,60.15,30.29,61.63,84.7,92.45,97.38,154.08,169v-126c0-25.32,7-48,21-63.32,13.71-15,30.22-19.31,49.18-16.34a75,75,0,0,1,27.12,9.83c8.59,5.14,15.88,12.41,22.07,21.09a107,107,0,0,1,15.11,31,128.46,128.46,0,0,1,5.63,37.24v308.7a42.85,42.85,0,0,1-1.18,9.38c-1.6,6.85-6.37,13.09-13.19,18.54a69.32,69.32,0,0,1-24.74,12.54,73.16,73.16,0,0,1-31.41,1.62,88.26,88.26,0,0,1-36.44-14.52c-7.87-5.42-13.74-10.39-17.49-14.51-65.61-50.4-112.27-128.44-159.11-194.72v168.22c0,14.3-6.82,26-20.45,38.71-13.23,12.38-29.24,21.67-48,24.22C904.58,1697.1,887.22,1691.45,874.56,1681.12Z"/><path class="cls-15" d="M1332.65,1683.28c-13.56-10.74-20.74-21.85-20.74-36v-309c0-25.62,6.86-48,20.59-64.65s30.37-24.21,49.93-26.26c12.44-1.31,24,.31,34.82,5.9s19.26,14.63,25.48,27.78,9.33,28.94,9.33,45.82v309.12c0,6.49-1.73,12.66-5.18,19.18a74.27,74.27,0,0,1-15.26,19.17c-13.83,12.46-30.23,21.66-49.19,23.65C1362.28,1700,1345.66,1693.59,1332.65,1683.28Z"/><path class="cls-15" d="M1531.77,1611.13c-16-15.61-28.3-40.13-36.89-71s-12.89-63-12.89-85.38c0-22.57,4.39-37,13.18-54.62s21.59-39.57,38.38-66.63c37.33-59.27,86.71-94.69,148.15-94.59a344.84,344.84,0,0,1,48,3.56c22.12,3.16,41.88,7.79,59.27,14.25s31.75,13.83,43.11,23.42a92.15,92.15,0,0,1,33.93,71.65c0,17.8-4.35,31-12.15,40.56-6.35,7.77-12.7,12.87-19.12,15.74s-14.77,4.39-25,4.28a131.31,131.31,0,0,1-20.74-1.6c-10.2-1.81-24.41-6.17-42.38-14q-12.43-4.5-32.29-7.54c-23.31-3.56-43.32-.76-60,6.64s-27.81,17.24-33.33,37.07a67.32,67.32,0,0,0-1.78,16.8,155.68,155.68,0,0,0,1.78,21.94c3.15,20,8.49,40.06,16,56.47s17.18,29,29,38,25.58,14.6,41.18,17c19.56,3,42.77,1.32,69.64-8.3a17.07,17.07,0,0,1,2.66-.92c1.38-.4,2.57-.69,3.56-.87a94.44,94.44,0,0,1,22.52-2c19.36.4,35.07,7.88,45.93,21.6,10.12,12.79,15.11,25.59,15.11,36.71,0,10.15-4.38,19.12-12.74,28.33-10.68,11.76-30.55,23-58.67,30.76-20.22,5.57-44.85,7.16-73.49,2.9a354.35,354.35,0,0,1-45.63-10.35c-42.07-12.39-78.62-29.57-109.63-46.69C1554.58,1628.12,1543,1621.18,1531.77,1611.13Z"/><path class="cls-15" d="M1914.6,1673.73c-13.83-9.1-20.74-18.84-20.74-32.91V1330.64a121.24,121.24,0,0,1,9.48-47.29c6.32-14.9,14.91-26.5,25.78-35.3a71.75,71.75,0,0,1,35.85-15.78c12.52-1.74,24.25.12,34.82,6.19s18.91,15.76,25,29.33S2034,1297.3,2034,1314v84.77c49.31-39,74-77.72,123.27-137.18a54.47,54.47,0,0,1,20.74-15.82c7.77-3.32,18-3.68,29.63-2a76.38,76.38,0,0,1,38.52,17c11.65,9.64,20.23,22.88,25.78,40.37a137.66,137.66,0,0,1,6.22,41.33c0,23.84-5.93,39.87-17.78,49.17-38.28,30.25-57.42,29.79-95.71,55,43.86,48.79,65.79,105.72,109.64,160.91,11.85,15.24,17.78,28.26,17.78,40.58,0,7.06-2.33,13.53-7,20.17a57,57,0,0,1-19.7,17.13,68.62,68.62,0,0,1-26.67,8.46,85.4,85.4,0,0,1-18.37-.11,83.71,83.71,0,0,1-28.45-9.57,94.57,94.57,0,0,1-23.11-17.38c-54.16-58.66-81.24-92.46-135.41-174.85v131c0,14.3-6.82,25.17-20.45,37s-30,20.81-49.18,23.64a72.86,72.86,0,0,1-25.34-.65A81.5,81.5,0,0,1,1914.6,1673.73Z"/><path class="cls-16" d="M896.45,1667.92c-14.17-11.55-21.34-23.39-21.34-38.29v-303.4c0-19.43,4-38,12-53.71s18.76-26.4,31.86-33.64a72.49,72.49,0,0,1,25.48-8.73c21.13-2.82,41.18,4.72,60.15,30.29,61.63,84.7,92.45,97.38,154.08,169v-126c0-25.32,7-48,21-63.32,13.71-15,30.22-19.32,49.18-16.34a75,75,0,0,1,27.12,9.83c8.59,5.14,15.88,12.41,22.07,21.09a107,107,0,0,1,15.11,31,128.46,128.46,0,0,1,5.63,37.24v308.7a43,43,0,0,1-1.18,9.38c-1.6,6.85-6.37,13.09-13.19,18.54a69.48,69.48,0,0,1-24.74,12.54,73.16,73.16,0,0,1-31.41,1.62,88.34,88.34,0,0,1-36.44-14.52c-7.87-5.42-13.74-10.39-17.49-14.51-65.61-50.4-112.27-128.44-159.11-194.73v168.23c0,14.3-6.82,26-20.45,38.71-13.23,12.37-29.24,21.67-48,24.22C926.47,1683.9,909.11,1678.25,896.45,1667.92Z"/><path class="cls-16" d="M1354.54,1670.08c-13.56-10.74-20.74-21.85-20.74-36V1325c0-25.61,6.86-48,20.59-64.64s30.37-24.22,49.93-26.27c12.44-1.3,24,.32,34.82,5.9s19.26,14.64,25.48,27.79,9.33,28.94,9.33,45.82v309.11c0,6.49-1.73,12.67-5.18,19.19a74.27,74.27,0,0,1-15.26,19.17c-13.83,12.46-30.23,21.66-49.19,23.65C1384.17,1686.84,1367.55,1680.39,1354.54,1670.08Z"/><path class="cls-16" d="M1553.66,1597.93c-16-15.62-28.3-40.13-36.89-71s-12.89-63-12.89-85.38c0-22.57,4.39-37,13.18-54.62s21.59-39.57,38.38-66.63c37.33-59.27,86.71-94.69,148.15-94.59a344.84,344.84,0,0,1,48,3.56c22.12,3.16,41.88,7.79,59.26,14.24s31.75,13.84,43.12,23.43,19.85,20.54,25.48,32.88a93.48,93.48,0,0,1,8.44,38.76c0,17.81-4.34,31-12.14,40.57-6.35,7.77-12.7,12.86-19.12,15.74s-14.77,4.39-25,4.28a131.55,131.55,0,0,1-20.75-1.6c-10.19-1.81-24.4-6.18-42.37-14q-12.43-4.5-32.3-7.54c-23.3-3.56-43.31-.76-60,6.63s-27.81,17.25-33.33,37.08a67.29,67.29,0,0,0-1.78,16.79,155.7,155.7,0,0,0,1.78,22c3.15,20,8.49,40.06,16,56.47s17.18,29,29,38,25.58,14.6,41.18,17c19.56,3,42.77,1.32,69.64-8.3a17.07,17.07,0,0,1,2.66-.92c1.38-.4,2.57-.69,3.56-.88a94.91,94.91,0,0,1,22.52-2c19.36.41,35.07,7.89,45.93,21.61,10.12,12.79,15.11,25.59,15.11,36.71,0,10.15-4.38,19.12-12.74,28.33-10.68,11.75-30.55,23-58.67,30.76-20.22,5.57-44.85,7.15-73.49,2.9a354.35,354.35,0,0,1-45.63-10.35c-42.08-12.39-78.62-29.57-109.63-46.69C1576.47,1614.92,1564.92,1608,1553.66,1597.93Z"/><path class="cls-16" d="M1936.49,1660.53c-13.83-9.1-20.74-18.84-20.74-32.91V1317.44a121.33,121.33,0,0,1,9.48-47.3c6.32-14.89,14.91-26.49,25.78-35.29a71.82,71.82,0,0,1,35.85-15.79c12.52-1.73,24.25.13,34.82,6.2s18.91,15.76,25,29.33,9.18,29.51,9.18,46.16v84.77c49.31-39,74-77.72,123.27-137.18a54.47,54.47,0,0,1,20.74-15.82c7.77-3.32,18-3.68,29.63-2a76.38,76.38,0,0,1,38.52,17c11.65,9.64,20.23,22.88,25.78,40.37a137.66,137.66,0,0,1,6.22,41.33c0,23.84-5.93,39.87-17.78,49.16-38.28,30.25-57.42,29.8-95.71,55,43.86,48.79,65.78,105.71,109.64,160.91,11.85,15.24,17.78,28.26,17.78,40.58,0,7.06-2.33,13.53-7,20.17a57,57,0,0,1-19.7,17.13,68.66,68.66,0,0,1-26.67,8.45,86.21,86.21,0,0,1-18.37-.1,83.71,83.71,0,0,1-28.45-9.57,94.57,94.57,0,0,1-23.11-17.38c-54.16-58.67-81.25-92.46-135.41-174.86v131.06c0,14.3-6.82,25.17-20.45,37s-30,20.82-49.18,23.65a73.1,73.1,0,0,1-25.34-.65A81.78,81.78,0,0,1,1936.49,1660.53Z"/><path class="cls-17" d="M916.34,1653.4C902.18,1641.85,895,1630,895,1615.12v-303.4c0-19.44,4-38,12-53.71s18.76-26.4,31.86-33.64a72.36,72.36,0,0,1,25.48-8.73c21.14-2.82,41.19,4.71,60.15,30.29,61.63,84.7,92.45,97.37,154.08,169v-126c0-25.32,7-48,21-63.31,13.71-15,30.22-19.32,49.19-16.35a74.93,74.93,0,0,1,27.11,9.84c8.59,5.13,15.88,12.4,22.07,21.08a107.47,107.47,0,0,1,15.12,31,128.73,128.73,0,0,1,5.62,37.24v308.69a42.85,42.85,0,0,1-1.18,9.38c-1.6,6.85-6.37,13.1-13.19,18.54a69.15,69.15,0,0,1-24.74,12.54,73.16,73.16,0,0,1-31.41,1.63,88.53,88.53,0,0,1-36.44-14.52c-7.86-5.42-13.74-10.39-17.48-14.52-65.62-50.39-112.28-128.44-159.12-194.72v168.22c0,14.31-6.82,26-20.45,38.71-13.23,12.38-29.23,21.68-48,24.22C946.36,1669.38,929,1663.73,916.34,1653.4Z"/><path class="cls-17" d="M1374.43,1655.56c-13.56-10.74-20.74-21.84-20.74-36v-309c0-25.61,6.86-48,20.59-64.64s30.37-24.22,49.93-26.27c12.45-1.3,24,.31,34.82,5.9s19.26,14.64,25.48,27.79,9.33,28.94,9.33,45.82v309.11c0,6.49-1.73,12.66-5.18,19.19a74.61,74.61,0,0,1-15.26,19.17c-13.83,12.46-30.23,21.66-49.19,23.64C1404.06,1672.33,1387.44,1665.87,1374.43,1655.56Z"/><path class="cls-17" d="M1573.55,1583.42c-16-15.62-28.3-40.13-36.89-71s-12.89-63-12.89-85.37c0-22.58,4.4-37,13.19-54.63s21.58-39.56,38.37-66.62c37.33-59.27,86.71-94.69,148.15-94.59a341.8,341.8,0,0,1,48,3.56c22.12,3.16,41.88,7.79,59.27,14.24s31.75,13.84,43.11,23.43,19.85,20.54,25.48,32.88a93.45,93.45,0,0,1,8.45,38.76c0,17.81-4.34,31-12.15,40.57-6.35,7.76-12.7,12.86-19.11,15.74s-14.77,4.39-25,4.28a130,130,0,0,1-20.74-1.61c-10.2-1.8-24.4-6.17-42.38-14q-12.43-4.52-32.29-7.55c-23.31-3.55-43.31-.76-60,6.64s-27.8,17.25-33.33,37.07a67.37,67.37,0,0,0-1.78,16.8,155.7,155.7,0,0,0,1.78,22c3.16,20,8.49,40,16,56.46s17.19,29,29,38,25.58,14.61,41.19,17c19.55,3,42.76,1.31,69.63-8.3a16,16,0,0,1,2.66-.92c1.38-.4,2.57-.7,3.56-.88a94.44,94.44,0,0,1,22.52-2c19.36.41,35.07,7.88,45.93,21.61,10.12,12.78,15.11,25.58,15.11,36.7,0,10.16-4.38,19.13-12.74,28.33-10.68,11.76-30.55,23-58.67,30.77-20.22,5.57-44.85,7.15-73.49,2.9a354.46,354.46,0,0,1-45.63-10.36c-42.07-12.38-78.62-29.56-109.63-46.69C1596.37,1600.4,1584.81,1593.46,1573.55,1583.42Z"/><path class="cls-17" d="M1956.38,1646c-13.83-9.11-20.74-18.85-20.74-32.92V1302.93a121.47,121.47,0,0,1,9.48-47.3c6.32-14.9,14.92-26.49,25.78-35.3a71.84,71.84,0,0,1,35.85-15.78c12.53-1.74,24.25.12,34.82,6.19s18.91,15.77,25,29.33,9.18,29.51,9.18,46.17V1371c49.31-39,74-77.73,123.27-137.19A54.75,54.75,0,0,1,2219.8,1218c7.77-3.31,18-3.68,29.63-2a76.34,76.34,0,0,1,38.52,17c11.66,9.64,20.23,22.87,25.78,40.37a137.64,137.64,0,0,1,6.22,41.32c0,23.85-5.92,39.88-17.78,49.17-38.28,30.25-57.42,29.8-95.7,55,43.85,48.79,65.78,105.71,109.63,160.9,11.85,15.25,17.78,28.26,17.78,40.59,0,7.06-2.33,13.52-7,20.17a57.38,57.38,0,0,1-19.71,17.13,68.61,68.61,0,0,1-26.67,8.45,85.41,85.41,0,0,1-18.37-.11,83.57,83.57,0,0,1-28.44-9.56,94.88,94.88,0,0,1-23.12-17.38c-54.16-58.67-81.24-92.47-135.41-174.86v131.06c0,14.3-6.81,25.17-20.44,37s-30,20.81-49.19,23.64a72.62,72.62,0,0,1-25.34-.65A82,82,0,0,1,1956.38,1646Z"/><path class="cls-18" d="M933.73,1637.25c-14.16-11.55-21.33-23.39-21.33-38.29v-303.4c0-19.43,4-38,12-53.71s18.75-26.4,31.85-33.63a72.45,72.45,0,0,1,25.48-8.74c21.14-2.82,41.19,4.72,60.16,30.29,61.63,84.7,92.44,97.38,154.08,169v-126c0-25.32,7-48,21-63.32,13.72-15,30.23-19.31,49.19-16.34a74.91,74.91,0,0,1,27.11,9.83c8.6,5.14,15.89,12.41,22.08,21.09a107,107,0,0,1,15.11,31,128.46,128.46,0,0,1,5.63,37.24V1601a42.37,42.37,0,0,1-1.19,9.38c-1.6,6.85-6.37,13.09-13.18,18.54a69.48,69.48,0,0,1-24.74,12.54,73,73,0,0,1-31.41,1.62,88.3,88.3,0,0,1-36.45-14.52c-7.86-5.42-13.73-10.38-17.48-14.51-65.61-50.4-112.27-128.44-159.12-194.72v168.22c0,14.3-6.81,26-20.44,38.71-13.24,12.38-29.24,21.67-48,24.22C963.76,1653.23,946.4,1647.58,933.73,1637.25Z"/><path class="cls-18" d="M1391.83,1639.41c-13.56-10.74-20.75-21.85-20.75-36V1294.35c0-25.62,6.86-48,20.6-64.65s30.37-24.21,49.93-26.26c12.44-1.31,24,.31,34.81,5.9s19.26,14.63,25.48,27.78,9.34,28.94,9.34,45.82v309.12c0,6.49-1.73,12.66-5.19,19.18a73.85,73.85,0,0,1-15.26,19.17c-13.82,12.47-30.22,21.66-49.18,23.65C1421.46,1656.17,1404.83,1649.72,1391.83,1639.41Z"/><path class="cls-18" d="M1591,1567.26c-16-15.61-28.3-40.12-36.89-71s-12.89-63-12.89-85.38c0-22.57,4.39-37,13.18-54.62s21.58-39.57,38.37-66.63c37.34-59.26,86.72-94.69,148.16-94.59a345,345,0,0,1,48,3.56c22.12,3.17,41.88,7.79,59.26,14.25s31.75,13.83,43.11,23.42,19.86,20.55,25.49,32.89a93.41,93.41,0,0,1,8.44,38.76c0,17.8-4.34,31-12.15,40.56-6.35,7.77-12.69,12.87-19.11,15.74s-14.77,4.39-25,4.28a131.52,131.52,0,0,1-20.74-1.6c-10.2-1.81-24.4-6.17-42.37-14q-12.45-4.5-32.3-7.54c-23.31-3.56-43.31-.76-60,6.64s-27.81,17.24-33.34,37.07a67.84,67.84,0,0,0-1.77,16.8,157,157,0,0,0,1.77,21.94c3.16,20,8.49,40.06,16,56.47s17.18,29,29,38,25.58,14.6,41.19,17c19.56,3,42.77,1.32,69.63-8.3a17.76,17.76,0,0,1,2.67-.92,36,36,0,0,1,3.56-.87,94.35,94.35,0,0,1,22.51-2c19.36.4,35.08,7.88,45.93,21.6,10.12,12.79,15.11,25.59,15.11,36.71,0,10.15-4.38,19.12-12.74,28.33-10.67,11.76-30.54,23-58.67,30.76-20.21,5.57-44.84,7.16-73.48,2.9a354.35,354.35,0,0,1-45.63-10.35c-42.08-12.38-78.63-29.57-109.64-46.69C1613.76,1584.25,1602.21,1577.31,1591,1567.26Z"/><path class="cls-18" d="M1973.78,1629.86C1960,1620.76,1953,1611,1953,1597V1286.77a121.25,121.25,0,0,1,9.49-47.29c6.32-14.9,14.91-26.5,25.78-35.3a71.8,71.8,0,0,1,35.85-15.78c12.52-1.74,24.25.12,34.82,6.19s18.91,15.76,25,29.33,9.19,29.51,9.19,46.16v84.77c49.3-39,74-77.72,123.26-137.18a54.55,54.55,0,0,1,20.74-15.82c7.78-3.31,18-3.68,29.64-2a76.46,76.46,0,0,1,38.52,17.05c11.65,9.64,20.23,22.88,25.77,40.37a137.35,137.35,0,0,1,6.23,41.33c0,23.85-5.93,39.87-17.78,49.17-38.28,30.25-57.43,29.79-95.71,55,43.85,48.79,65.78,105.72,109.64,160.91,11.85,15.24,17.77,28.26,17.77,40.58,0,7.06-2.32,13.53-7,20.17a57,57,0,0,1-19.7,17.13,68.67,68.67,0,0,1-26.67,8.46,85.4,85.4,0,0,1-18.37-.11,83.64,83.64,0,0,1-28.45-9.57A94.38,94.38,0,0,1,2228,1623c-54.17-58.66-81.25-92.46-135.41-174.85v131.05c0,14.3-6.82,25.17-20.45,37s-30,20.81-49.19,23.64a72.8,72.8,0,0,1-25.33-.65A81.5,81.5,0,0,1,1973.78,1629.86Z"/><path class="cls-19" d="M948.13,1619.13c-14.16-11.55-21.33-23.39-21.33-38.29v-303.4c0-19.43,4-38,12-53.71s18.75-26.4,31.85-33.64a72.63,72.63,0,0,1,25.48-8.73c21.14-2.82,41.19,4.72,60.15,30.29,61.64,84.7,92.45,97.38,154.08,168.95V1254.65c0-25.32,7-48,21-63.32,13.71-15,30.23-19.32,49.19-16.34a74.91,74.91,0,0,1,27.11,9.83c8.6,5.14,15.88,12.41,22.08,21.09a107.27,107.27,0,0,1,15.11,31,128.46,128.46,0,0,1,5.63,37.24v308.7a43.12,43.12,0,0,1-1.19,9.38c-1.6,6.85-6.37,13.09-13.18,18.54a69.65,69.65,0,0,1-24.74,12.54A73.16,73.16,0,0,1,1280,1625a88.38,88.38,0,0,1-36.45-14.52c-7.86-5.42-13.73-10.39-17.48-14.51-65.61-50.4-112.27-128.44-159.12-194.73v168.23c0,14.3-6.81,26-20.44,38.71-13.24,12.37-29.24,21.67-48,24.22C978.16,1635.11,960.8,1629.46,948.13,1619.13Z"/><path class="cls-19" d="M1406.22,1621.29c-13.55-10.74-20.74-21.85-20.74-36v-309c0-25.62,6.86-48,20.6-64.65s30.37-24.22,49.92-26.27c12.45-1.3,24,.32,34.82,5.9s19.26,14.64,25.48,27.79,9.34,28.94,9.34,45.82v309.11c0,6.5-1.74,12.67-5.19,19.19a74.27,74.27,0,0,1-15.26,19.17c-13.83,12.46-30.22,21.66-49.19,23.65C1435.86,1638.05,1419.23,1631.6,1406.22,1621.29Z"/><path class="cls-19" d="M1605.34,1549.14c-16-15.62-28.29-40.13-36.89-71s-12.89-63-12.89-85.38c0-22.57,4.4-37,13.19-54.62s21.58-39.57,38.37-66.63c37.34-59.27,86.72-94.69,148.16-94.59a345.07,345.07,0,0,1,48,3.56c22.12,3.16,41.88,7.79,59.26,14.24s31.75,13.84,43.11,23.43,19.86,20.55,25.49,32.88a93.48,93.48,0,0,1,8.44,38.76c0,17.81-4.34,31-12.15,40.57-6.35,7.77-12.69,12.86-19.11,15.74s-14.77,4.39-25,4.28a131.52,131.52,0,0,1-20.74-1.6c-10.2-1.81-24.4-6.18-42.37-14q-12.45-4.5-32.3-7.54c-23.31-3.56-43.31-.76-60,6.63s-27.81,17.25-33.34,37.08a67.81,67.81,0,0,0-1.77,16.79,157.06,157.06,0,0,0,1.77,22c3.16,20,8.49,40.06,16,56.47s17.19,29,29,38,25.58,14.6,41.19,17c19.56,3,42.77,1.32,69.63-8.3a17.76,17.76,0,0,1,2.67-.92c1.38-.4,2.56-.69,3.55-.87a95,95,0,0,1,22.52-2c19.36.41,35.07,7.89,45.93,21.61,10.12,12.79,15.11,25.59,15.11,36.71,0,10.15-4.38,19.12-12.74,28.33-10.67,11.75-30.54,23-58.67,30.76-20.21,5.57-44.84,7.15-73.48,2.9a354.35,354.35,0,0,1-45.63-10.35c-42.08-12.39-78.63-29.57-109.64-46.69C1628.16,1566.13,1616.6,1559.19,1605.34,1549.14Z"/><path class="cls-19" d="M1988.18,1611.74c-13.83-9.1-20.75-18.84-20.75-32.91V1268.65a121.34,121.34,0,0,1,9.49-47.3c6.32-14.89,14.91-26.49,25.77-35.29a71.85,71.85,0,0,1,35.86-15.79c12.52-1.73,24.25.13,34.81,6.2s18.92,15.76,25,29.33,9.19,29.51,9.19,46.16v84.77c49.3-39,74-77.72,123.26-137.18a54.55,54.55,0,0,1,20.74-15.82c7.78-3.32,18-3.68,29.63-2a76.3,76.3,0,0,1,38.52,17c11.66,9.64,20.24,22.88,25.78,40.37a137.35,137.35,0,0,1,6.23,41.33c0,23.84-5.93,39.87-17.78,49.16-38.29,30.25-57.43,29.8-95.71,55,43.85,48.79,65.78,105.71,109.63,160.91,11.86,15.24,17.78,28.26,17.78,40.58,0,7.06-2.32,13.53-7,20.17a57.08,57.08,0,0,1-19.71,17.13,68.56,68.56,0,0,1-26.66,8.45,86.21,86.21,0,0,1-18.37-.1,83.57,83.57,0,0,1-28.45-9.57,94.38,94.38,0,0,1-23.11-17.38c-54.17-58.67-81.25-92.46-135.42-174.86V1561c0,14.3-6.81,25.17-20.44,37s-30,20.82-49.19,23.65a73,73,0,0,1-25.33-.65A81.78,81.78,0,0,1,1988.18,1611.74Z"/><path class="cls-20" d="M959,1598.71c-14.16-11.55-21.33-23.39-21.33-38.29V1257c0-19.43,4-38,12-53.71s18.76-26.4,31.85-33.63a72.43,72.43,0,0,1,25.49-8.74c21.13-2.82,41.18,4.72,60.15,30.29,61.63,84.7,92.45,97.38,154.08,169v-126c0-25.32,7-48,21-63.32,13.71-15,30.22-19.31,49.18-16.34a75,75,0,0,1,27.12,9.83c8.59,5.14,15.88,12.41,22.07,21.09a107,107,0,0,1,15.11,31,128.46,128.46,0,0,1,5.63,37.24v308.7a42.85,42.85,0,0,1-1.18,9.38c-1.6,6.85-6.37,13.09-13.19,18.54a69.4,69.4,0,0,1-24.74,12.54,73,73,0,0,1-31.41,1.62,88.3,88.3,0,0,1-36.45-14.52c-7.86-5.42-13.73-10.38-17.48-14.51-65.61-50.4-112.27-128.44-159.12-194.72V1549c0,14.3-6.81,26-20.44,38.71-13.24,12.38-29.24,21.67-48,24.22C989.06,1614.69,971.7,1609,959,1598.71Z"/><path class="cls-20" d="M1417.13,1600.87c-13.56-10.74-20.74-21.85-20.74-36v-309c0-25.62,6.86-48,20.59-64.65s30.37-24.21,49.93-26.26c12.44-1.31,24,.31,34.81,5.9s19.26,14.63,25.49,27.78,9.33,28.94,9.33,45.82v309.12c0,6.49-1.73,12.66-5.19,19.18a73.85,73.85,0,0,1-15.26,19.17c-13.82,12.46-30.22,21.66-49.18,23.65C1446.76,1617.63,1430.14,1611.18,1417.13,1600.87Z"/><path class="cls-20" d="M1616.25,1528.72c-16-15.61-28.3-40.13-36.89-71s-12.89-63-12.89-85.38c0-22.57,4.39-37,13.18-54.62s21.58-39.57,38.38-66.63c37.33-59.26,86.71-94.69,148.15-94.59a344.84,344.84,0,0,1,48,3.56c22.12,3.17,41.88,7.79,59.26,14.25s31.75,13.83,43.12,23.42,19.85,20.55,25.48,32.88a93.49,93.49,0,0,1,8.44,38.77c0,17.8-4.34,31-12.15,40.56-6.35,7.77-12.69,12.87-19.11,15.74s-14.77,4.39-25,4.28a131.52,131.52,0,0,1-20.74-1.6c-10.19-1.81-24.4-6.17-42.37-14q-12.45-4.5-32.3-7.54c-23.31-3.56-43.31-.76-60,6.64s-27.81,17.24-33.33,37.07a67.32,67.32,0,0,0-1.78,16.8,155.68,155.68,0,0,0,1.78,21.94c3.15,20,8.49,40.06,16,56.47s17.18,29,29,38,25.58,14.6,41.18,17c19.56,3,42.77,1.32,69.63-8.3a17.76,17.76,0,0,1,2.67-.92c1.38-.4,2.57-.69,3.56-.87a94.39,94.39,0,0,1,22.52-2c19.36.4,35.07,7.88,45.92,21.6,10.12,12.79,15.12,25.59,15.12,36.71,0,10.15-4.39,19.12-12.75,28.33-10.67,11.76-30.54,23-58.66,30.76-20.22,5.57-44.85,7.16-73.49,2.9a354.35,354.35,0,0,1-45.63-10.35c-42.08-12.38-78.63-29.57-109.63-46.69C1639.06,1545.71,1627.51,1538.77,1616.25,1528.72Z"/><path class="cls-20" d="M1999.08,1591.32c-13.83-9.1-20.74-18.84-20.74-32.91V1248.23a121.24,121.24,0,0,1,9.48-47.29c6.32-14.9,14.91-26.5,25.78-35.3a71.72,71.72,0,0,1,35.85-15.78c12.52-1.74,24.25.12,34.82,6.19s18.91,15.76,25,29.33,9.18,29.51,9.18,46.16v84.77c49.31-39,74-77.72,123.27-137.18a54.47,54.47,0,0,1,20.74-15.82c7.77-3.32,18-3.68,29.63-2a76.46,76.46,0,0,1,38.52,17.05c11.65,9.64,20.23,22.88,25.78,40.37a137.66,137.66,0,0,1,6.22,41.33c0,23.84-5.93,39.87-17.78,49.17-38.28,30.25-57.42,29.79-95.71,55C2293,1413,2314.94,1470,2358.8,1525.14c11.85,15.24,17.78,28.26,17.78,40.58,0,7.06-2.33,13.53-7,20.17a57,57,0,0,1-19.7,17.13,68.67,68.67,0,0,1-26.67,8.46,85.4,85.4,0,0,1-18.37-.11,83.71,83.71,0,0,1-28.45-9.57,94.57,94.57,0,0,1-23.11-17.38c-54.16-58.66-81.25-92.46-135.41-174.85v131c0,14.3-6.82,25.17-20.45,37s-30,20.81-49.18,23.64a72.85,72.85,0,0,1-25.34-.65A81.5,81.5,0,0,1,1999.08,1591.32Z"/><path class="cls-21" d="M965.94,1575.67c-14.16-11.55-21.33-23.39-21.33-38.29V1234c0-19.43,4-38,12-53.71s18.75-26.4,31.85-33.64a72.63,72.63,0,0,1,25.48-8.73c21.14-2.82,41.19,4.72,60.16,30.29,61.63,84.7,92.44,97.37,154.08,169v-126c0-25.32,7-48,21-63.32,13.72-15,30.23-19.32,49.19-16.35a75.12,75.12,0,0,1,27.11,9.84c8.6,5.14,15.89,12.41,22.08,21.09a107,107,0,0,1,15.11,31,128.46,128.46,0,0,1,5.63,37.24v308.7a42.5,42.5,0,0,1-1.19,9.38c-1.6,6.85-6.37,13.09-13.18,18.54a69.65,69.65,0,0,1-24.74,12.54,73.16,73.16,0,0,1-31.41,1.62,88.44,88.44,0,0,1-36.45-14.52c-7.86-5.42-13.73-10.39-17.48-14.52-65.61-50.39-112.27-128.43-159.12-194.72V1526c0,14.3-6.81,26-20.44,38.71-13.24,12.37-29.24,21.67-48,24.22C996,1591.65,978.61,1586,965.94,1575.67Z"/><path class="cls-21" d="M1424,1577.83c-13.56-10.75-20.75-21.85-20.75-36v-309c0-25.61,6.86-48,20.6-64.64s30.37-24.22,49.93-26.27c12.44-1.3,24,.32,34.81,5.9s19.26,14.64,25.48,27.79,9.34,28.94,9.34,45.82v309.11c0,6.49-1.73,12.67-5.19,19.19a73.85,73.85,0,0,1-15.26,19.17c-13.82,12.46-30.22,21.66-49.18,23.65C1453.67,1594.59,1437,1588.13,1424,1577.83Z"/><path class="cls-21" d="M1623.16,1505.68c-16-15.62-28.3-40.13-36.9-71s-12.88-63-12.88-85.38c0-22.57,4.39-37,13.18-54.62s21.58-39.57,38.37-66.63c37.34-59.27,86.72-94.69,148.16-94.59a345.07,345.07,0,0,1,48,3.56c22.12,3.16,41.88,7.79,59.26,14.24s31.75,13.84,43.11,23.43,19.86,20.54,25.49,32.88a93.48,93.48,0,0,1,8.44,38.76c0,17.81-4.34,31-12.15,40.57-6.35,7.77-12.69,12.86-19.11,15.74s-14.77,4.39-25,4.28a131.52,131.52,0,0,1-20.74-1.6c-10.2-1.81-24.4-6.18-42.37-14q-12.45-4.5-32.3-7.54c-23.31-3.56-43.31-.76-60,6.63s-27.81,17.25-33.34,37.08a67.81,67.81,0,0,0-1.77,16.79,157.06,157.06,0,0,0,1.77,22c3.16,20,8.49,40.06,16,56.47s17.19,29,29,38,25.58,14.6,41.19,17c19.56,3,42.77,1.32,69.63-8.3a17.76,17.76,0,0,1,2.67-.92c1.38-.4,2.56-.69,3.56-.88a94.87,94.87,0,0,1,22.51-2c19.36.41,35.08,7.89,45.93,21.61C1953,1500.1,1958,1512.9,1958,1524c0,10.15-4.38,19.12-12.74,28.33-10.67,11.75-30.54,23-58.67,30.76-20.21,5.57-44.84,7.15-73.48,2.9a354.35,354.35,0,0,1-45.63-10.35c-42.08-12.39-78.63-29.57-109.64-46.69C1646,1522.67,1634.42,1515.73,1623.16,1505.68Z"/><path class="cls-21" d="M2006,1568.28c-13.83-9.11-20.75-18.84-20.75-32.92V1225.19a121.34,121.34,0,0,1,9.49-47.3c6.32-14.89,14.91-26.49,25.78-35.29a71.82,71.82,0,0,1,35.85-15.79c12.52-1.74,24.25.13,34.82,6.19s18.91,15.77,25,29.34,9.19,29.51,9.19,46.16v84.77c49.3-39,74-77.72,123.26-137.18a54.55,54.55,0,0,1,20.74-15.82c7.78-3.32,18-3.68,29.64-2a76.38,76.38,0,0,1,38.52,17c11.65,9.64,20.23,22.88,25.77,40.37a137.35,137.35,0,0,1,6.23,41.33c0,23.84-5.93,39.87-17.78,49.16-38.28,30.25-57.43,29.8-95.71,55,43.85,48.79,65.78,105.71,109.64,160.91,11.85,15.24,17.77,28.26,17.77,40.58,0,7.06-2.32,13.53-7,20.17a57.14,57.14,0,0,1-19.7,17.13,68.66,68.66,0,0,1-26.67,8.45,86.21,86.21,0,0,1-18.37-.1,83.64,83.64,0,0,1-28.45-9.57,94.38,94.38,0,0,1-23.11-17.38c-54.17-58.67-81.25-92.46-135.41-174.86v131.06c0,14.3-6.82,25.17-20.45,37s-30,20.82-49.19,23.65a73,73,0,0,1-25.33-.65A81.78,81.78,0,0,1,2006,1568.28Z"/><path class="cls-22" d="M968.36,1549.67c-14.17-11.55-21.34-23.39-21.34-38.29V1208c0-19.44,4-38,12-53.72s18.76-26.39,31.86-33.63a72.52,72.52,0,0,1,25.48-8.74c21.13-2.81,41.19,4.72,60.15,30.29,61.63,84.71,92.45,97.38,154.08,169v-126c0-25.32,7-48,21-63.31,13.71-15,30.22-19.32,49.18-16.35a75.15,75.15,0,0,1,27.12,9.83c8.59,5.14,15.88,12.41,22.07,21.09a107.21,107.21,0,0,1,15.11,31,128.39,128.39,0,0,1,5.63,37.23v308.7a42.85,42.85,0,0,1-1.18,9.38c-1.6,6.85-6.37,13.1-13.19,18.54a69.15,69.15,0,0,1-24.74,12.54,73.16,73.16,0,0,1-31.41,1.63,88.41,88.41,0,0,1-36.44-14.53c-7.87-5.42-13.74-10.38-17.49-14.51-65.61-50.39-112.27-128.44-159.11-194.72V1500c0,14.31-6.82,26-20.45,38.71-13.23,12.38-29.24,21.68-48,24.22C998.38,1565.65,981,1560,968.36,1549.67Z"/><path class="cls-22" d="M1426.45,1551.83c-13.56-10.74-20.74-21.85-20.74-36v-309c0-25.62,6.86-48,20.59-64.65s30.37-24.21,49.93-26.26c12.44-1.31,24,.31,34.82,5.9s19.26,14.64,25.48,27.78,9.33,28.94,9.33,45.83v309.11c0,6.49-1.73,12.66-5.18,19.19a74.61,74.61,0,0,1-15.26,19.17c-13.83,12.46-30.23,21.65-49.19,23.64C1456.08,1568.6,1439.46,1562.14,1426.45,1551.83Z"/><path class="cls-22" d="M1625.57,1479.69c-16-15.62-28.3-40.13-36.89-71s-12.89-63-12.89-85.37c0-22.58,4.39-37,13.18-54.63s21.59-39.57,38.38-66.62c37.33-59.27,86.71-94.69,148.15-94.59a341.8,341.8,0,0,1,48,3.56c22.12,3.16,41.88,7.79,59.27,14.24s31.75,13.84,43.11,23.43,19.85,20.54,25.48,32.88a93.42,93.42,0,0,1,8.45,38.76c0,17.81-4.35,31-12.15,40.57-6.35,7.76-12.7,12.86-19.12,15.74s-14.77,4.39-25,4.28a130,130,0,0,1-20.74-1.61c-10.2-1.8-24.41-6.17-42.38-14q-12.44-4.52-32.29-7.55c-23.31-3.55-43.32-.76-60,6.64s-27.81,17.25-33.33,37.07a67.37,67.37,0,0,0-1.78,16.8,155.93,155.93,0,0,0,1.78,22c3.15,20,8.49,40,16,56.46s17.18,29,29,38,25.58,14.6,41.18,17c19.56,3,42.77,1.31,69.64-8.3a16.73,16.73,0,0,1,2.66-.93c1.38-.39,2.57-.69,3.56-.87a94.44,94.44,0,0,1,22.52-2c19.36.41,35.07,7.88,45.93,21.6,10.12,12.79,15.11,25.59,15.11,36.71,0,10.16-4.38,19.12-12.74,28.33-10.68,11.76-30.55,23-58.67,30.76-20.22,5.58-44.85,7.16-73.49,2.91a354.46,354.46,0,0,1-45.63-10.36c-42.07-12.38-78.62-29.56-109.63-46.69C1648.38,1496.67,1636.83,1489.73,1625.57,1479.69Z"/><path class="cls-22" d="M2008.4,1542.28c-13.83-9.1-20.74-18.84-20.74-32.91V1199.2a121.25,121.25,0,0,1,9.48-47.3c6.32-14.9,14.91-26.49,25.78-35.3a71.84,71.84,0,0,1,35.85-15.78c12.52-1.74,24.25.12,34.82,6.19s18.91,15.76,25,29.33,9.18,29.51,9.18,46.16v84.78c49.31-39,74-77.73,123.27-137.19a54.67,54.67,0,0,1,20.74-15.82c7.77-3.31,18-3.68,29.63-2a76.38,76.38,0,0,1,38.52,17c11.65,9.64,20.23,22.87,25.78,40.36A137.75,137.75,0,0,1,2372,1211c0,23.85-5.93,39.87-17.78,49.17-38.28,30.25-57.42,29.79-95.71,55,43.86,48.79,65.79,105.71,109.64,160.9,11.85,15.24,17.78,28.26,17.78,40.59,0,7.06-2.33,13.52-7,20.17a57.12,57.12,0,0,1-19.7,17.12,68.45,68.45,0,0,1-26.67,8.46,85.4,85.4,0,0,1-18.37-.11,83.69,83.69,0,0,1-28.45-9.56,95.07,95.07,0,0,1-23.11-17.38c-54.16-58.67-81.24-92.47-135.41-174.86v131c0,14.31-6.82,25.18-20.45,37s-30,20.81-49.18,23.64a72.86,72.86,0,0,1-25.34-.65A81.5,81.5,0,0,1,2008.4,1542.28Z"/></svg>