<?xml version="1.0" encoding="utf-8"?>
<!-- Generator: Adobe Illustrator 25.3.1, SVG Export Plug-In . SVG Version: 6.00 Build 0)  -->
<svg version="1.1" id="Layer_1" xmlns="http://www.w3.org/2000/svg" xmlns:xlink="http://www.w3.org/1999/xlink" x="0px" y="0px"
	 viewBox="0 0 500 500" style="enable-background:new 0 0 500 500;" xml:space="preserve">
<style type="text/css">
	.st0{fill:#0CB4DF;}
</style>
<g transform="translate(126.841 124.219)">
	<path d="M73.5,202.1h100.3L134.1,101c-1.3-3.9-5-6.5-9.2-6.3c-4-0.2-7.9,2.1-9.4,6.1L73.5,202.1z M159.2,52.5
		c10.5,6.3,18.2,15.9,22.1,27.4L273.6,311h-57.4l-22-56.5H52.6l-23,56.4h-56.9L68.9,80C73,68.4,81,58.8,91.4,52.5
		c10.5-5.6,22.1-8.3,33.7-7.8C137.1,44.3,148.8,47,159.2,52.5L159.2,52.5z"/>
	<path class="st0" d="M-71.9,18.8c-5.4,0-10.1,3.1-12.3,7.9c-2.1,4.9-0.8,10.5,2.9,14.2c3.9,3.7,9.6,4.9,14.5,2.9
		c4.9-2.1,8.3-6.7,8.3-12C-58.7,24.5-64.6,18.6-71.9,18.8L-71.9,18.8L-71.9,18.8z M318.1,18.8c-5.4,0-10.1,3.1-12.3,7.9
		c-2.1,4.9-0.8,10.5,2.9,14.2c3.9,3.7,9.6,4.9,14.5,2.9c4.9-2.1,8.3-6.7,8.3-12C331.3,24.5,325.4,18.6,318.1,18.8L318.1,18.8
		L318.1,18.8z M261.1-23.4c-7.3,0-13.2,5.7-13.4,13l0,0c0.2,7.3,6.1,13,13.4,13s13.2-5.7,13.4-13l0,0
		C274.2-17.7,268.4-23.4,261.1-23.4L261.1-23.4z M194.6-50.3L194.6-50.3c-5.4,0-10.1,3.1-12.3,7.9c-2.1,4.9-0.8,10.5,2.9,14.2
		c3.9,3.7,9.6,4.9,14.5,2.9c4.9-2.1,8.1-6.7,8.3-12C207.7-44.6,201.8-50.3,194.6-50.3L194.6-50.3L194.6-50.3z M123.1-59.4
		c-5.4,0-10.1,3.1-12.3,7.9c-2.1,4.9-0.8,10.5,2.9,14.2c3.9,3.7,9.6,4.9,14.5,2.9c4.9-2.1,8.1-6.7,8.3-12c0-3.4-1.3-6.7-3.9-9.2
		C130.1-58,126.6-59.4,123.1-59.4z M52.1-50.4c-5.4,0-10.1,3.1-12.3,7.9C37.7-37.6,39-32,42.7-28.3c3.9,3.7,9.6,4.9,14.5,2.9
		c4.9-2.1,8.3-6.7,8.3-12c0-3.5-1.3-6.7-3.9-9.2C58.8-49.1,55.5-50.4,52.1-50.4L52.1-50.4z M-14.4-23.7c-5.4,0-10.1,3.1-12.3,8.1
		c-2.1,4.9-0.8,10.5,2.9,14.2c3.9,3.7,9.6,4.9,14.5,2.9c4.9-2.1,8.1-6.7,8.3-12C-1.3-18-7.2-23.9-14.4-23.7L-14.4-23.7L-14.4-23.7z"
		/>
</g>
</svg>
