<svg width="960" height="540" viewBox="0 0 960 540" fill="none" xmlns="http://www.w3.org/2000/svg">
<g clip-path="url(#clip0_2_2)">
<path d="M0 337L22.8 338.8C45.7 340.7 91.3 344.3 137 348.3C182.7 352.3 228.3 356.7 274 351.5C319.7 346.3 365.3 331.7 411.2 336C457 340.3 503 363.7 548.8 371.5C594.7 379.3 640.3 371.7 686 360.8C731.7 350 777.3 336 823 328.8C868.7 321.7 914.3 321.3 937.2 321.2L960 321V541H937.2C914.3 541 868.7 541 823 541C777.3 541 731.7 541 686 541C640.3 541 594.7 541 548.8 541C503 541 457 541 411.2 541C365.3 541 319.7 541 274 541C228.3 541 182.7 541 137 541C91.3 541 45.7 541 22.8 541H0V337Z" fill="#9A94FF"/>
<path d="M0 394L22.8 394.7C45.7 395.3 91.3 396.7 137 394.8C182.7 393 228.3 388 274 381.3C319.7 374.7 365.3 366.3 411.2 366C457 365.7 503 373.3 548.8 374.8C594.7 376.3 640.3 371.7 686 368.2C731.7 364.7 777.3 362.3 823 364.3C868.7 366.3 914.3 372.7 937.2 375.8L960 379V541H937.2C914.3 541 868.7 541 823 541C777.3 541 731.7 541 686 541C640.3 541 594.7 541 548.8 541C503 541 457 541 411.2 541C365.3 541 319.7 541 274 541C228.3 541 182.7 541 137 541C91.3 541 45.7 541 22.8 541H0V394Z" fill="#847CFF"/>
<path d="M0 435L22.8 438C45.7 441 91.3 447 137 447.3C182.7 447.7 228.3 442.3 274 441.8C319.7 441.3 365.3 445.7 411.2 443.8C457 442 503 434 548.8 432C594.7 430 640.3 434 686 433.7C731.7 433.3 777.3 428.7 823 429.2C868.7 429.7 914.3 435.3 937.2 438.2L960 441V541H937.2C914.3 541 868.7 541 823 541C777.3 541 731.7 541 686 541C640.3 541 594.7 541 548.8 541C503 541 457 541 411.2 541C365.3 541 319.7 541 274 541C228.3 541 182.7 541 137 541C91.3 541 45.7 541 22.8 541H0V435Z" fill="#6C63FF"/>
<path d="M0 440L22.8 439.2C45.7 438.3 91.3 436.7 137 441.5C182.7 446.3 228.3 457.7 274 466.2C319.7 474.7 365.3 480.3 411.2 482.5C457 484.7 503 483.3 548.8 477.3C594.7 471.3 640.3 460.7 686 454.7C731.7 448.7 777.3 447.3 823 451.8C868.7 456.3 914.3 466.7 937.2 471.8L960 477V541H937.2C914.3 541 868.7 541 823 541C777.3 541 731.7 541 686 541C640.3 541 594.7 541 548.8 541C503 541 457 541 411.2 541C365.3 541 319.7 541 274 541C228.3 541 182.7 541 137 541C91.3 541 45.7 541 22.8 541H0V440Z" fill="#5D51E1"/>
<path d="M0 491L22.8 488.3C45.7 485.7 91.3 480.3 137 479.5C182.7 478.7 228.3 482.3 274 489.2C319.7 496 365.3 506 411.2 509C457 512 503 508 548.8 506.5C594.7 505 640.3 506 686 500.7C731.7 495.3 777.3 483.7 823 483.5C868.7 483.3 914.3 494.7 937.2 500.3L960 506V541H937.2C914.3 541 868.7 541 823 541C777.3 541 731.7 541 686 541C640.3 541 594.7 541 548.8 541C503 541 457 541 411.2 541C365.3 541 319.7 541 274 541C228.3 541 182.7 541 137 541C91.3 541 45.7 541 22.8 541H0V491Z" fill="#4D40C4"/>
</g>
<defs>
<clipPath id="clip0_2_2">
<rect width="960" height="540" fill="white"/>
</clipPath>
</defs>
</svg>
