<svg id="Layer_1" data-name="Layer 1" xmlns="http://www.w3.org/2000/svg" viewBox="0 0 800 800">
    <defs>
        <style>
            .cls-1 {
                fill: #fff;
            }

            .cls-2,
            .cls-3 {
                fill: none;
                stroke: #000;
                stroke-linecap: round;
                stroke-linejoin: round;
                stroke-width: 3px;
            }

            .cls-3 {
                fill-rule: evenodd;
            }
        </style>
    </defs>
    <rect class="cls-1" width="800" height="800" />
    <line class="cls-2" x1="227.5" y1="375.5" x2="565" y2="374.67" />
    <path class="cls-2"
        d="M207,391.17c6.7,0,6.7,4,13.39,4s6.7-4,13.39-4,6.7,4,13.39,4,6.7-4,13.39-4,6.7,4,13.39,4,6.7-4,13.4-4,6.69,4,13.39,4,6.7-4,13.39-4,6.7,4,13.39,4,6.7-4,13.39-4,6.7,4,13.4,4,6.69-4,13.39-4,6.69,4,13.38,4,6.7-4,13.39-4,6.7,4,13.4,4,6.69-4,13.39-4,6.69,4,13.39,4,6.7-4,13.39-4,6.7,4,13.4,4,6.69-4,13.39-4,6.7,4,13.39,4,6.7-4,13.4-4,6.69,4,13.39,4,6.7-4,13.39-4,6.7,4,13.4,4,6.7-4,13.39-4,6.71,4,13.41,4,6.7-4,13.4-4" />
    <path class="cls-2"
        d="M207,410.42c6.7,0,6.7,4,13.39,4s6.7-4,13.39-4,6.7,4,13.39,4,6.7-4,13.39-4,6.7,4,13.39,4,6.7-4,13.4-4,6.69,4,13.39,4,6.7-4,13.39-4,6.7,4,13.39,4,6.7-4,13.39-4,6.7,4,13.4,4,6.69-4,13.39-4,6.69,4,13.38,4,6.7-4,13.39-4,6.7,4,13.4,4,6.69-4,13.39-4,6.69,4,13.39,4,6.7-4,13.39-4,6.7,4,13.4,4,6.69-4,13.39-4,6.7,4,13.39,4,6.7-4,13.4-4,6.69,4,13.39,4,6.7-4,13.39-4,6.7,4,13.4,4,6.7-4,13.39-4,6.71,4,13.41,4,6.7-4,13.4-4" />
    <path class="cls-2"
        d="M207,429.67c6.7,0,6.7,4,13.39,4s6.7-4,13.39-4,6.7,4,13.39,4,6.7-4,13.39-4,6.7,4,13.39,4,6.7-4,13.4-4,6.69,4,13.39,4,6.7-4,13.39-4,6.7,4,13.39,4,6.7-4,13.39-4,6.7,4,13.4,4,6.69-4,13.39-4,6.69,4,13.38,4,6.7-4,13.39-4,6.7,4,13.4,4,6.69-4,13.39-4,6.69,4,13.39,4,6.7-4,13.39-4,6.7,4,13.4,4,6.69-4,13.39-4,6.7,4,13.39,4,6.7-4,13.4-4,6.69,4,13.39,4,6.7-4,13.39-4,6.7,4,13.4,4,6.7-4,13.39-4,6.71,4,13.41,4,6.7-4,13.4-4" />
    <path class="cls-2"
        d="M207,448.92c6.7,0,6.7,4,13.39,4s6.7-4,13.39-4,6.7,4,13.39,4,6.7-4,13.39-4,6.7,4,13.39,4,6.7-4,13.4-4,6.69,4,13.39,4,6.7-4,13.39-4,6.7,4,13.39,4,6.7-4,13.39-4,6.7,4,13.4,4,6.69-4,13.39-4,6.69,4,13.38,4,6.7-4,13.39-4,6.7,4,13.4,4,6.69-4,13.39-4,6.69,4,13.39,4,6.7-4,13.39-4,6.7,4,13.4,4,6.69-4,13.39-4,6.7,4,13.39,4,6.7-4,13.4-4,6.69,4,13.39,4,6.7-4,13.39-4,6.7,4,13.4,4,6.7-4,13.39-4,6.71,4,13.41,4,6.7-4,13.4-4" />
    <path class="cls-2"
        d="M207,468.17c6.7,0,6.7,4,13.39,4s6.7-4,13.39-4,6.7,4,13.39,4,6.7-4,13.39-4,6.7,4,13.39,4,6.7-4,13.4-4,6.69,4,13.39,4,6.7-4,13.39-4,6.7,4,13.39,4,6.7-4,13.39-4,6.7,4,13.4,4,6.69-4,13.39-4,6.69,4,13.38,4,6.7-4,13.39-4,6.7,4,13.4,4,6.69-4,13.39-4,6.69,4,13.39,4,6.7-4,13.39-4,6.7,4,13.4,4,6.69-4,13.39-4,6.7,4,13.39,4,6.7-4,13.4-4,6.69,4,13.39,4,6.7-4,13.39-4,6.7,4,13.4,4,6.7-4,13.39-4,6.71,4,13.41,4,6.7-4,13.4-4" />
    <line class="cls-2" x1="395.08" y1="244.5" x2="322.38" y2="374.67" />
    <line class="cls-2" x1="463.45" y1="366.94" x2="467.77" y2="374.67" />
    <line class="cls-2" x1="395.08" y1="244.5" x2="463.45" y2="366.94" />
    <line class="cls-2" x1="307.17" y1="264.79" x2="245.81" y2="374.67" />
    <line class="cls-2" x1="307.17" y1="264.79" x2="345.46" y2="333.35" />
    <line class="cls-2" x1="483.58" y1="264.79" x2="544.94" y2="374.67" />
    <line class="cls-2" x1="483.58" y1="264.79" x2="445.29" y2="333.35" />
    <polyline class="cls-2"
        points="373.1 285.76 380.42 287.76 387.75 285.76 395.07 287.76 402.4 285.76 409.73 287.76 417.05 285.76" />
    <line class="cls-2" x1="253.07" y1="361.15" x2="276.74" y2="361.15" />
    <line class="cls-2" x1="259.11" y1="350.52" x2="282.78" y2="350.52" />
    <line class="cls-2" x1="265.15" y1="339.89" x2="288.82" y2="339.89" />
    <line class="cls-2" x1="271.19" y1="329.27" x2="294.85" y2="329.27" />
    <line class="cls-2" x1="277.22" y1="318.64" x2="300.89" y2="318.64" />
    <line class="cls-2" x1="283.26" y1="308.02" x2="306.93" y2="308.02" />
    <line class="cls-2" x1="289.3" y1="297.39" x2="312.97" y2="297.39" />
    <line class="cls-2" x1="295.34" y1="286.76" x2="319" y2="286.76" />
    <line class="cls-2" x1="537.08" y1="361.15" x2="513.41" y2="361.15" />
    <line class="cls-2" x1="531.04" y1="350.52" x2="507.38" y2="350.52" />
    <line class="cls-2" x1="525.01" y1="339.89" x2="501.34" y2="339.89" />
    <line class="cls-2" x1="518.97" y1="329.27" x2="495.3" y2="329.27" />
    <line class="cls-2" x1="512.93" y1="318.64" x2="489.26" y2="318.64" />
    <line class="cls-2" x1="506.89" y1="308.02" x2="483.23" y2="308.02" />
    <line class="cls-2" x1="500.86" y1="297.39" x2="477.19" y2="297.39" />
    <line class="cls-2" x1="494.82" y1="286.76" x2="471.15" y2="286.76" />
    <path class="cls-2"
        d="M316,280.64A12.68,12.68,0,0,1,338.75,284a13.28,13.28,0,0,1,3.92-.58,13.53,13.53,0,0,1,13.53,13.53H325.11" />
    <path class="cls-2"
        d="M404.59,258.66A12.67,12.67,0,0,1,427.31,262a13.73,13.73,0,0,1,3.93-.57,13.52,13.52,0,0,1,13.52,13.52H413.67" />
    <path class="cls-2"
        d="M522.92,333a12.68,12.68,0,0,1,22.73,3.32,13.66,13.66,0,0,1,3.92-.57,13.52,13.52,0,0,1,13.53,13.52H532" />
    <path class="cls-2" d="M473.47,279a12.67,12.67,0,0,0-22.72,3.32,13.53,13.53,0,0,0-17.45,13h31.09" />
    <path class="cls-2"
        d="M284.14,306a12.68,12.68,0,0,0-22.73,3.32,13.66,13.66,0,0,0-3.92-.57A13.52,13.52,0,0,0,244,322.26h31.09" />
    <line class="cls-2" x1="395.08" y1="298.6" x2="395.08" y2="374.67" />
    <path class="cls-2" d="M395.08,298.6A16.89,16.89,0,0,0,412,315.5" />
    <path class="cls-2" d="M395.08,310.43A16.9,16.9,0,0,0,412,327.34" />
    <path class="cls-2" d="M395.08,322.26A16.89,16.89,0,0,0,412,339.17" />
    <path class="cls-2" d="M395.08,334.1A16.89,16.89,0,0,0,412,351" />
    <path class="cls-2" d="M395.08,298.6a16.89,16.89,0,0,1-16.91,16.9" />
    <path class="cls-2" d="M395.08,310.43a16.9,16.9,0,0,1-16.91,16.91" />
    <path class="cls-2" d="M395.08,322.26a16.9,16.9,0,0,1-16.91,16.91" />
    <path class="cls-2" d="M395.08,334.1A16.89,16.89,0,0,1,378.17,351" />
    <line class="cls-2" x1="429.08" y1="326.6" x2="429.5" y2="374.5" />
    <path class="cls-2" d="M429.08,326.6A16.89,16.89,0,0,0,446,343.5" />
    <path class="cls-2" d="M429.08,338.43A16.9,16.9,0,0,0,446,355.34" />
    <path class="cls-2" d="M429.08,350.26A16.89,16.89,0,0,0,446,367.17" />
    <path class="cls-2" d="M429.08,326.6a16.89,16.89,0,0,1-16.91,16.9" />
    <path class="cls-2" d="M429.08,338.43a16.9,16.9,0,0,1-16.91,16.91" />
    <path class="cls-2" d="M429.08,350.26a16.9,16.9,0,0,1-16.91,16.91" />
    <line class="cls-2" x1="361.08" y1="326.6" x2="361.5" y2="374.5" />
    <path class="cls-2" d="M361.08,326.6A16.89,16.89,0,0,0,378,343.5" />
    <path class="cls-2" d="M361.08,338.43A16.9,16.9,0,0,0,378,355.34" />
    <path class="cls-2" d="M361.08,350.26A16.89,16.89,0,0,0,378,367.17" />
    <path class="cls-2" d="M361.08,326.6a16.89,16.89,0,0,1-16.91,16.9" />
    <path class="cls-2" d="M361.08,338.43a16.9,16.9,0,0,1-16.91,16.91" />
    <path class="cls-2" d="M361.08,350.26a16.9,16.9,0,0,1-16.91,16.91" />
    <line class="cls-2" x1="309.08" y1="326.6" x2="309.5" y2="374.5" />
    <path class="cls-2" d="M309.08,326.6A16.89,16.89,0,0,0,326,343.5" />
    <path class="cls-2" d="M309.08,338.43A16.9,16.9,0,0,0,326,355.34" />
    <path class="cls-2" d="M309.08,350.26A16.89,16.89,0,0,0,326,367.17" />
    <path class="cls-2" d="M309.08,326.6a16.89,16.89,0,0,1-16.91,16.9" />
    <path class="cls-2" d="M309.08,338.43a16.9,16.9,0,0,1-16.91,16.91" />
    <path class="cls-2" d="M309.08,350.26a16.9,16.9,0,0,1-16.91,16.91" />
    <line class="cls-2" x1="479.08" y1="326.6" x2="479.5" y2="374.5" />
    <path class="cls-2" d="M479.08,326.6A16.89,16.89,0,0,0,496,343.5" />
    <path class="cls-2" d="M479.08,338.43A16.9,16.9,0,0,0,496,355.34" />
    <path class="cls-2" d="M479.08,350.26A16.89,16.89,0,0,0,496,367.17" />
    <path class="cls-2" d="M479.08,326.6a16.89,16.89,0,0,1-16.91,16.9" />
    <path class="cls-2" d="M479.08,338.43a16.9,16.9,0,0,1-16.91,16.91" />
    <path class="cls-2" d="M467.62,366.27a16.79,16.79,0,0,1-4,.84" />
    <path class="cls-2" d="M469.77,365.37a16.25,16.25,0,0,1-2.15.9" />
    <path class="cls-2" d="M479.08,350.26a16.89,16.89,0,0,1-9.31,15.11" />
    <line class="cls-2" x1="582" y1="375.33" x2="436.32" y2="375.33" />
    <line class="cls-2" x1="581.25" y1="357.35" x2="573.93" y2="357.96" />
    <line class="cls-2" x1="579.04" y1="339.72" x2="572.91" y2="340.75" />
    <line class="cls-2" x1="575.41" y1="322.56" x2="564.66" y2="325.3" />
    <line class="cls-2" x1="570.43" y1="305.92" x2="557.94" y2="310.24" />
    <line class="cls-2" x1="564.14" y1="289.9" x2="550.03" y2="296.13" />
    <line class="cls-2" x1="556.59" y1="274.57" x2="541.06" y2="283.04" />
    <line class="cls-2" x1="547.83" y1="260" x2="531.14" y2="271.02" />
    <line class="cls-2" x1="537.9" y1="246.26" x2="520.42" y2="260.07" />
    <line class="cls-2" x1="526.84" y1="233.43" x2="509" y2="250.21" />
    <line class="cls-2" x1="514.68" y1="221.59" x2="496.97" y2="241.46" />
    <line class="cls-2" x1="501.46" y1="210.84" x2="484.42" y2="233.83" />
    <line class="cls-2" x1="487.24" y1="201.28" x2="471.44" y2="227.29" />
    <line class="cls-2" x1="472.06" y1="193.01" x2="458.08" y2="221.87" />
    <line class="cls-2" x1="456" y1="186.17" x2="444.4" y2="217.55" />
    <line class="cls-2" x1="439.15" y1="180.87" x2="430.43" y2="214.34" />
    <line class="cls-2" x1="421.65" y1="177.25" x2="416.23" y2="212.22" />
    <line class="cls-2" x1="403.64" y1="175.39" x2="401.79" y2="211.24" />
    <line class="cls-2" x1="387.21" y1="211.4" x2="385.36" y2="175.39" />
    <line class="cls-2" x1="372.84" y1="212.69" x2="367.35" y2="177.25" />
    <line class="cls-2" x1="358.76" y1="215.09" x2="349.85" y2="180.87" />
    <line class="cls-2" x1="344.98" y1="218.58" x2="333" y2="186.17" />
    <line class="cls-2" x1="331.53" y1="223.13" x2="316.94" y2="193.01" />
    <line class="cls-2" x1="318.44" y1="228.75" x2="301.76" y2="201.28" />
    <line class="cls-2" x1="305.76" y1="235.42" x2="287.54" y2="210.84" />
    <line class="cls-2" x1="293.54" y1="243.16" x2="274.32" y2="221.59" />
    <line class="cls-2" x1="281.85" y1="251.95" x2="262.16" y2="233.43" />
    <line class="cls-2" x1="270.77" y1="261.8" x2="251.1" y2="246.26" />
    <line class="cls-2" x1="260.38" y1="272.68" x2="241.17" y2="260" />
    <line class="cls-2" x1="250.79" y1="284.59" x2="232.41" y2="274.57" />
    <line class="cls-2" x1="242.11" y1="297.52" x2="224.86" y2="289.9" />
    <line class="cls-2" x1="234.46" y1="311.41" x2="218.57" y2="305.92" />
    <line class="cls-2" x1="227.97" y1="326.23" x2="213.59" y2="322.56" />
    <line class="cls-2" x1="222.77" y1="341.87" x2="209.96" y2="339.72" />
    <line class="cls-2" x1="218.99" y1="358.29" x2="207.75" y2="357.35" />
    <line class="cls-2" x1="207" y1="375.33" x2="352.68" y2="375.33" />
    <path class="cls-3" d="M557.21,338C535.14,271,471.53,222.5,396.5,222.5c-88.41,0-161,67.28-168.38,153" />
    <path class="cls-3" d="M564.8,374.69a165.86,165.86,0,0,0-4.32-25.38" />
    <rect class="cls-2" x="205.8" y="490.5" width="375" height="45" />
    <path
        d="M245.74,526.58a11.64,11.64,0,0,1-4.7-5,18.7,18.7,0,0,1,0-15.36,11.73,11.73,0,0,1,4.7-5,14.14,14.14,0,0,1,7.15-1.76,15.54,15.54,0,0,1,5,.78,12.79,12.79,0,0,1,4.12,2.26,2.28,2.28,0,0,1,.72.84,2.54,2.54,0,0,1,.2,1.08,2.32,2.32,0,0,1-.48,1.49,1.43,1.43,0,0,1-1.16.6,3,3,0,0,1-1.64-.56,12.07,12.07,0,0,0-3.2-1.79,10.37,10.37,0,0,0-3.29-.5,7.69,7.69,0,0,0-6.31,2.61q-2.15,2.6-2.14,7.65t2.14,7.69a7.71,7.71,0,0,0,6.31,2.6,9.4,9.4,0,0,0,3.19-.52,15.41,15.41,0,0,0,3.3-1.76,5,5,0,0,1,.8-.4,2.2,2.2,0,0,1,.84-.16,1.43,1.43,0,0,1,1.16.6,2.29,2.29,0,0,1,.48,1.48,2.54,2.54,0,0,1-.2,1.06,2.12,2.12,0,0,1-.72.86,13,13,0,0,1-4.12,2.27,15.54,15.54,0,0,1-5,.78A14,14,0,0,1,245.74,526.58Z" />
    <path
        d="M299.75,525.94a2,2,0,0,1-.74,1.57,2.55,2.55,0,0,1-1.7.64,2.32,2.32,0,0,1-1.2-.34,2.23,2.23,0,0,1-.88-1.06l-2.41-5.37H278.73l-2.41,5.37a2.23,2.23,0,0,1-.88,1.06,2.41,2.41,0,0,1-1.24.34,2.58,2.58,0,0,1-1.68-.64,2,2,0,0,1-.76-1.57,2.5,2.5,0,0,1,.24-1l11.05-23.75a2.61,2.61,0,0,1,1.1-1.22,3.2,3.2,0,0,1,3.17,0,2.61,2.61,0,0,1,1.1,1.22l11.09,23.75A2.5,2.5,0,0,1,299.75,525.94Zm-19.26-8.57h10.57l-5.28-11.89Z" />
    <path
        d="M311.29,527.35a2.39,2.39,0,0,1-.64-1.77V502.11a2.41,2.41,0,0,1,2.56-2.56,2.54,2.54,0,0,1,1.9.7,2.51,2.51,0,0,1,.7,1.86v21.63h11.26c1.6,0,2.4.71,2.4,2.12s-.8,2.13-2.4,2.13h-14A2.47,2.47,0,0,1,311.29,527.35Z" />
    <path
        d="M340.59,527.51a2.58,2.58,0,0,1-.7-1.89V502.11a2.41,2.41,0,0,1,2.56-2.56,2.54,2.54,0,0,1,1.9.7,2.51,2.51,0,0,1,.7,1.86v23.51a2.58,2.58,0,0,1-.7,1.89,2.52,2.52,0,0,1-1.9.72A2.47,2.47,0,0,1,340.59,527.51Z" />
    <path
        d="M358.85,527.51a2.58,2.58,0,0,1-.7-1.89V502.19a2.4,2.4,0,0,1,.66-1.8,2.5,2.5,0,0,1,1.82-.64h14.06c1.63,0,2.45.69,2.45,2.08s-.82,2-2.45,2H363.24v7.69h10.65c1.63,0,2.45.7,2.45,2.09s-.82,2-2.45,2H363.24v9.93a2.65,2.65,0,0,1-.68,1.89,2.43,2.43,0,0,1-1.85.72A2.49,2.49,0,0,1,358.85,527.51Z" />
    <path
        d="M392.86,526.58a11.76,11.76,0,0,1-4.67-5,18.91,18.91,0,0,1,0-15.36,11.66,11.66,0,0,1,4.67-5,15.44,15.44,0,0,1,14.32,0,11.72,11.72,0,0,1,4.64,5,18.8,18.8,0,0,1,0,15.36,11.74,11.74,0,0,1-4.66,5,15.25,15.25,0,0,1-14.26,0Zm13.22-5q2.18-2.68,2.18-7.69t-2.18-7.67a8.28,8.28,0,0,0-12.18,0c-1.46,1.77-2.18,4.33-2.18,7.67s.72,5.9,2.18,7.69a8.26,8.26,0,0,0,12.18,0Z" />
    <path
        d="M448.71,526.14a1.89,1.89,0,0,1-.74,1.53,2.67,2.67,0,0,1-1.74.6A2.59,2.59,0,0,1,445,528a2.55,2.55,0,0,1-1-.9L438.7,519a5.3,5.3,0,0,0-1.7-1.8,4.73,4.73,0,0,0-2.35-.52h-3.92v9a2.65,2.65,0,0,1-.68,1.91,2.49,2.49,0,0,1-1.84.7,2.56,2.56,0,0,1-1.87-.7,2.62,2.62,0,0,1-.7-1.91V502.19a2.4,2.4,0,0,1,.66-1.8,2.5,2.5,0,0,1,1.82-.64h10q4.8,0,7.31,2.14a7.69,7.69,0,0,1,2.5,6.19,7.83,7.83,0,0,1-1.86,5.39,8.82,8.82,0,0,1-5.27,2.7,5.11,5.11,0,0,1,2.05,1,9,9,0,0,1,1.72,2l3.64,5.57A2.54,2.54,0,0,1,448.71,526.14Zm-7-14.56a4.08,4.08,0,0,0,1.36-3.38,4,4,0,0,0-1.36-3.38,6.94,6.94,0,0,0-4.28-1.07h-6.73v8.94h6.73A6.73,6.73,0,0,0,441.7,511.58Z" />
    <path
        d="M483.66,500.25a2.61,2.61,0,0,1,.66,1.86v23.51a2.65,2.65,0,0,1-.68,1.89,2.54,2.54,0,0,1-3.73-.2l-14.62-19v17.34a2.72,2.72,0,0,1-.64,1.89,2.51,2.51,0,0,1-3.52,0,2.72,2.72,0,0,1-.64-1.89V502.11a2.54,2.54,0,0,1,.68-1.86,2.37,2.37,0,0,1,1.8-.7,2.25,2.25,0,0,1,1.92.92l14.58,18.95V502.11a2.61,2.61,0,0,1,.66-1.86,2.29,2.29,0,0,1,1.75-.7A2.33,2.33,0,0,1,483.66,500.25Z" />
    <path
        d="M498.12,527.51a2.58,2.58,0,0,1-.7-1.89V502.11a2.41,2.41,0,0,1,2.56-2.56,2.54,2.54,0,0,1,1.9.7,2.51,2.51,0,0,1,.7,1.86v23.51a2.58,2.58,0,0,1-.7,1.89,2.52,2.52,0,0,1-1.9.72A2.49,2.49,0,0,1,498.12,527.51Z" />
    <path
        d="M541.52,525.94a2,2,0,0,1-.75,1.57,2.55,2.55,0,0,1-1.7.64,2.32,2.32,0,0,1-1.2-.34,2.29,2.29,0,0,1-.88-1.06l-2.4-5.37h-14.1l-2.41,5.37a2.23,2.23,0,0,1-.88,1.06,2.41,2.41,0,0,1-1.24.34,2.6,2.6,0,0,1-1.68-.64,2,2,0,0,1-.76-1.57,2.5,2.5,0,0,1,.24-1l11-23.75a2.61,2.61,0,0,1,1.1-1.22,3.21,3.21,0,0,1,1.59-.42,3.17,3.17,0,0,1,1.58.42,2.61,2.61,0,0,1,1.1,1.22l11.1,23.75A2.5,2.5,0,0,1,541.52,525.94Zm-19.27-8.57h10.57l-5.28-11.89Z" />
</svg>