<svg id="Layer_1" data-name="Layer 1" xmlns="http://www.w3.org/2000/svg" viewBox="0 0 1000 1000"><defs><style>.cls-1{fill:#00acee;}</style></defs><path class="cls-1" d="M728.36,26.48a246.55,246.55,0,0,1,93.47,69.77,310.77,310.77,0,0,1,50.2,84q18.5,46.07,18.51,105,0,71.13-35.91,139.88T736.08,522.35q69.1,27.79,97.89,78.92t28.79,156.15v67.07q0,68.43,5.51,92.81,8.25,38.6,38.53,56.9v25.06H676.47q-9.5-33.18-13.55-53.51a491.42,491.42,0,0,1-8.81-86l-1.35-92.8q-1.28-95.52-33-127.36T500.89,607.71H297.11V999.26H93.2V.74H570.81Q673.2,2.76,728.36,26.48ZM297.11,174.16V442.42H521.65q66.92,0,100.37-16.26,59.19-28.46,59.19-112.45,0-90.78-57.26-121.94-32.16-17.61-96.5-17.61Z"/></svg>