<svg width="1920" height="859" viewBox="0 0 1920 859" fill="none" xmlns="http://www.w3.org/2000/svg">
    <path opacity="0.15"
        d="M102.554 70.6801C268.796 70.6802 654 -42.4741 759.896 17.5612C865.792 77.5965 951.5 -30.5342 1089 42.9816C1179.66 91.4561 1300.04 27.3781 1407.73 17.5612C1574.56 2.35428 1802.75 52.9849 1921 130.117L1920.62 704.496C1862.94 712.902 1822.52 752.181 1739.03 781.819C1629.47 820.71 1607.31 736.307 1505.41 804.866C1403.5 873.426 1202.37 734.857 1081 840.407C1002.5 908.674 854.718 762.029 688.859 827.989C523 893.948 389.203 747.779 215.613 747.779C65.0845 747.779 90.6024 773.375 -0.999985 691.778L-1.00005 71.2255C13.0485 64.8172 18.9246 70.6801 102.554 70.6801Z"
        fill="#C4C4C4" />
</svg>